G04 #@! TF.FileFunction,Copper,L2,Bot,Signal*
%FSLAX46Y46*%
G04 Gerber Fmt 4.6, Leading zero omitted, Abs format (unit mm)*
G04 Created by KiCad (PCBNEW 4.0.7-e2-6376~58~ubuntu14.04.1) date Tue Oct 30 11:41:08 2018*
%MOMM*%
%LPD*%
G01*
G04 APERTURE LIST*
%ADD10C,0.100000*%
%ADD11O,1.727200X2.032000*%
%ADD12O,2.032000X1.727200*%
%ADD13R,1.800000X1.800000*%
%ADD14C,1.800000*%
%ADD15R,1.700000X1.700000*%
%ADD16O,1.700000X1.700000*%
%ADD17O,1.900000X1.500000*%
%ADD18C,0.600000*%
%ADD19C,0.550000*%
%ADD20C,0.250000*%
%ADD21C,0.254000*%
G04 APERTURE END LIST*
D10*
D11*
X105410000Y-111098000D03*
X105410000Y-126138000D03*
X107950000Y-111098000D03*
X107950000Y-126138000D03*
X110490000Y-111098000D03*
X110490000Y-126138000D03*
X113030000Y-111098000D03*
X113030000Y-126138000D03*
X115570000Y-111098000D03*
X115570000Y-126138000D03*
X118110000Y-111098000D03*
X118110000Y-126138000D03*
X120650000Y-111098000D03*
X120650000Y-126138000D03*
X123190000Y-111098000D03*
X123190000Y-126138000D03*
X125730000Y-111098000D03*
X125730000Y-126138000D03*
X128270000Y-111098000D03*
X128270000Y-126138000D03*
X130810000Y-111098000D03*
X130810000Y-126138000D03*
X133350000Y-111098000D03*
X133350000Y-126138000D03*
D12*
X156972000Y-121412000D03*
X156972000Y-118872000D03*
X174752000Y-108712000D03*
X174752000Y-106172000D03*
X174752000Y-103632000D03*
D13*
X139700000Y-58420000D03*
D14*
X142240000Y-58420000D03*
D15*
X150876000Y-102870000D03*
D16*
X150876000Y-105410000D03*
D15*
X125476000Y-57912000D03*
D16*
X128016000Y-57912000D03*
D15*
X128778000Y-131826000D03*
D16*
X126238000Y-131826000D03*
X123698000Y-131826000D03*
X121158000Y-131826000D03*
D15*
X151130000Y-132588000D03*
D16*
X153670000Y-132588000D03*
X156210000Y-132588000D03*
X158750000Y-132588000D03*
D15*
X153670000Y-57912000D03*
D16*
X156210000Y-57912000D03*
D15*
X131318000Y-101346000D03*
D16*
X128778000Y-101346000D03*
X126238000Y-101346000D03*
X123698000Y-101346000D03*
D15*
X107188000Y-104648000D03*
D16*
X109728000Y-104648000D03*
D17*
X105890000Y-137640000D03*
X105890000Y-132560000D03*
X113510000Y-137640000D03*
X113510000Y-132560000D03*
D13*
X137668000Y-134620000D03*
D14*
X140208000Y-134620000D03*
X142748000Y-134620000D03*
D15*
X148082000Y-111760000D03*
D16*
X148082000Y-114300000D03*
X148082000Y-116840000D03*
X148082000Y-119380000D03*
X148082000Y-121920000D03*
D18*
X175900000Y-129600000D03*
X154300000Y-111700000D03*
X151440000Y-111760000D03*
X151000000Y-130200000D03*
X151000000Y-127600000D03*
X129200000Y-124200000D03*
X129600000Y-107900000D03*
X127000000Y-107900000D03*
X128000000Y-124300000D03*
X133600000Y-114700000D03*
X135500000Y-118200000D03*
X135700000Y-110000000D03*
X135700000Y-107900000D03*
X114300000Y-130500000D03*
X114500000Y-124400000D03*
X135400000Y-122700000D03*
X135500000Y-127300000D03*
D19*
X154300000Y-111700000D02*
X151500000Y-111700000D01*
X151440000Y-111760000D02*
X151500000Y-111700000D01*
X151000000Y-127600000D02*
X151000000Y-130200000D01*
D20*
X129600000Y-112500000D02*
X129600000Y-113200000D01*
X129600000Y-113200000D02*
X129200000Y-113600000D01*
X129200000Y-124200000D02*
X129200000Y-113600000D01*
X129600000Y-112500000D02*
X129600000Y-107900000D01*
X127000000Y-123300000D02*
X127000000Y-107900000D01*
X128000000Y-124300000D02*
X127000000Y-123300000D01*
X135500000Y-116600000D02*
X133600000Y-114700000D01*
X135500000Y-118200000D02*
X135500000Y-116600000D01*
X135700000Y-107900000D02*
X135700000Y-110000000D01*
X114300000Y-124600000D02*
X114300000Y-130500000D01*
X114500000Y-124400000D02*
X114300000Y-124600000D01*
X135500000Y-122800000D02*
X135400000Y-122700000D01*
X135500000Y-127300000D02*
X135500000Y-122800000D01*
D21*
G36*
X173016540Y-60737932D02*
X177992545Y-118360065D01*
X178191512Y-120747667D01*
X178390000Y-124618189D01*
X178390000Y-146128748D01*
X176565944Y-149690000D01*
X174651022Y-149690000D01*
X175277800Y-149431020D01*
X175878909Y-148830959D01*
X176204628Y-148046541D01*
X176205370Y-147197185D01*
X175881020Y-146412200D01*
X175280959Y-145811091D01*
X174496541Y-145485372D01*
X173647185Y-145484630D01*
X172862200Y-145808980D01*
X172261091Y-146409041D01*
X171935372Y-147193459D01*
X171934630Y-148042815D01*
X172258980Y-148827800D01*
X172859041Y-149428909D01*
X173487818Y-149690000D01*
X171433248Y-149690000D01*
X169906105Y-146720555D01*
X169809817Y-142483868D01*
X169781433Y-142356383D01*
X169755954Y-142228295D01*
X169751394Y-142221471D01*
X169749611Y-142213461D01*
X169674606Y-142106549D01*
X169602046Y-141997954D01*
X166702046Y-139097954D01*
X166471705Y-138944046D01*
X166200000Y-138890000D01*
X116000000Y-138890000D01*
X115728295Y-138944046D01*
X115497954Y-139097954D01*
X112597954Y-141997954D01*
X112444046Y-142228295D01*
X112390000Y-142500000D01*
X112390000Y-145828918D01*
X110465725Y-149590000D01*
X108858838Y-149590000D01*
X109267800Y-149421020D01*
X109868909Y-148820959D01*
X110194628Y-148036541D01*
X110195370Y-147187185D01*
X109871020Y-146402200D01*
X109270959Y-145801091D01*
X108486541Y-145475372D01*
X107637185Y-145474630D01*
X106852200Y-145798980D01*
X106251091Y-146399041D01*
X105925372Y-147183459D01*
X105924630Y-148032815D01*
X106248980Y-148817800D01*
X106849041Y-149418909D01*
X107261074Y-149590000D01*
X105269712Y-149590000D01*
X103810000Y-146155384D01*
X103810000Y-137640000D01*
X104273948Y-137640000D01*
X104379375Y-138170017D01*
X104679605Y-138619343D01*
X105128931Y-138919573D01*
X105658948Y-139025000D01*
X106121052Y-139025000D01*
X106651069Y-138919573D01*
X107100395Y-138619343D01*
X107400625Y-138170017D01*
X107506052Y-137640000D01*
X111893948Y-137640000D01*
X111999375Y-138170017D01*
X112299605Y-138619343D01*
X112748931Y-138919573D01*
X113278948Y-139025000D01*
X113741052Y-139025000D01*
X114271069Y-138919573D01*
X114720395Y-138619343D01*
X115020625Y-138170017D01*
X115126052Y-137640000D01*
X115020625Y-137109983D01*
X114720395Y-136660657D01*
X114271069Y-136360427D01*
X113741052Y-136255000D01*
X113278948Y-136255000D01*
X112748931Y-136360427D01*
X112299605Y-136660657D01*
X111999375Y-137109983D01*
X111893948Y-137640000D01*
X107506052Y-137640000D01*
X107400625Y-137109983D01*
X107100395Y-136660657D01*
X106651069Y-136360427D01*
X106121052Y-136255000D01*
X105658948Y-136255000D01*
X105128931Y-136360427D01*
X104679605Y-136660657D01*
X104379375Y-137109983D01*
X104273948Y-137640000D01*
X103810000Y-137640000D01*
X103810000Y-132901185D01*
X104347682Y-132901185D01*
X104357064Y-132955084D01*
X104609720Y-133435102D01*
X105026838Y-133781894D01*
X105544917Y-133942664D01*
X105763000Y-133789587D01*
X105763000Y-132687000D01*
X106017000Y-132687000D01*
X106017000Y-133789587D01*
X106235083Y-133942664D01*
X106753162Y-133781894D01*
X107170280Y-133435102D01*
X107422936Y-132955084D01*
X107432318Y-132901185D01*
X111967682Y-132901185D01*
X111977064Y-132955084D01*
X112229720Y-133435102D01*
X112646838Y-133781894D01*
X113164917Y-133942664D01*
X113383000Y-133789587D01*
X113383000Y-132687000D01*
X113637000Y-132687000D01*
X113637000Y-133789587D01*
X113855083Y-133942664D01*
X114373162Y-133781894D01*
X114447607Y-133720000D01*
X136120560Y-133720000D01*
X136120560Y-135520000D01*
X136164838Y-135755317D01*
X136303910Y-135971441D01*
X136516110Y-136116431D01*
X136768000Y-136167440D01*
X138568000Y-136167440D01*
X138803317Y-136123162D01*
X139019441Y-135984090D01*
X139158598Y-135780426D01*
X139192890Y-135814718D01*
X139307447Y-135700161D01*
X139393852Y-135956643D01*
X139967336Y-136166458D01*
X140577460Y-136140839D01*
X141022148Y-135956643D01*
X141108554Y-135700159D01*
X140208000Y-134799605D01*
X140193858Y-134813748D01*
X140014253Y-134634143D01*
X140028395Y-134620000D01*
X140387605Y-134620000D01*
X141288159Y-135520554D01*
X141438327Y-135469965D01*
X141445932Y-135488371D01*
X141877357Y-135920551D01*
X142441330Y-136154733D01*
X143051991Y-136155265D01*
X143616371Y-135922068D01*
X144048551Y-135490643D01*
X144282733Y-134926670D01*
X144283265Y-134316009D01*
X144050068Y-133751629D01*
X143618643Y-133319449D01*
X143054670Y-133085267D01*
X142444009Y-133084735D01*
X141879629Y-133317932D01*
X141447449Y-133749357D01*
X141438797Y-133770194D01*
X141288159Y-133719446D01*
X140387605Y-134620000D01*
X140028395Y-134620000D01*
X140014253Y-134605858D01*
X140193858Y-134426253D01*
X140208000Y-134440395D01*
X141108554Y-133539841D01*
X141022148Y-133283357D01*
X140448664Y-133073542D01*
X139838540Y-133099161D01*
X139393852Y-133283357D01*
X139307447Y-133539839D01*
X139192890Y-133425282D01*
X139156412Y-133461760D01*
X139032090Y-133268559D01*
X138819890Y-133123569D01*
X138568000Y-133072560D01*
X136768000Y-133072560D01*
X136532683Y-133116838D01*
X136316559Y-133255910D01*
X136171569Y-133468110D01*
X136120560Y-133720000D01*
X114447607Y-133720000D01*
X114790280Y-133435102D01*
X115042936Y-132955084D01*
X115052318Y-132901185D01*
X114929656Y-132687000D01*
X113637000Y-132687000D01*
X113383000Y-132687000D01*
X112090344Y-132687000D01*
X111967682Y-132901185D01*
X107432318Y-132901185D01*
X107309656Y-132687000D01*
X106017000Y-132687000D01*
X105763000Y-132687000D01*
X104470344Y-132687000D01*
X104347682Y-132901185D01*
X103810000Y-132901185D01*
X103810000Y-132218815D01*
X104347682Y-132218815D01*
X104470344Y-132433000D01*
X105763000Y-132433000D01*
X105763000Y-131330413D01*
X106017000Y-131330413D01*
X106017000Y-132433000D01*
X107309656Y-132433000D01*
X107432318Y-132218815D01*
X111967682Y-132218815D01*
X112090344Y-132433000D01*
X113383000Y-132433000D01*
X113383000Y-131330413D01*
X113164917Y-131177336D01*
X112646838Y-131338106D01*
X112229720Y-131684898D01*
X111977064Y-132164916D01*
X111967682Y-132218815D01*
X107432318Y-132218815D01*
X107422936Y-132164916D01*
X107170280Y-131684898D01*
X106753162Y-131338106D01*
X106235083Y-131177336D01*
X106017000Y-131330413D01*
X105763000Y-131330413D01*
X105544917Y-131177336D01*
X105026838Y-131338106D01*
X104609720Y-131684898D01*
X104357064Y-132164916D01*
X104347682Y-132218815D01*
X103810000Y-132218815D01*
X103810000Y-125953255D01*
X103911400Y-125953255D01*
X103911400Y-126322745D01*
X104025474Y-126896234D01*
X104350330Y-127382415D01*
X104836511Y-127707271D01*
X105410000Y-127821345D01*
X105983489Y-127707271D01*
X106469670Y-127382415D01*
X106680000Y-127067634D01*
X106890330Y-127382415D01*
X107376511Y-127707271D01*
X107950000Y-127821345D01*
X108523489Y-127707271D01*
X109009670Y-127382415D01*
X109216461Y-127072931D01*
X109587964Y-127488732D01*
X110115209Y-127742709D01*
X110130974Y-127745358D01*
X110363000Y-127624217D01*
X110363000Y-126265000D01*
X110617000Y-126265000D01*
X110617000Y-127624217D01*
X110849026Y-127745358D01*
X110864791Y-127742709D01*
X111392036Y-127488732D01*
X111760000Y-127076892D01*
X112127964Y-127488732D01*
X112655209Y-127742709D01*
X112670974Y-127745358D01*
X112903000Y-127624217D01*
X112903000Y-126265000D01*
X110617000Y-126265000D01*
X110363000Y-126265000D01*
X110343000Y-126265000D01*
X110343000Y-126011000D01*
X110363000Y-126011000D01*
X110363000Y-124651783D01*
X110617000Y-124651783D01*
X110617000Y-126011000D01*
X112903000Y-126011000D01*
X112903000Y-124651783D01*
X112670974Y-124530642D01*
X112655209Y-124533291D01*
X112127964Y-124787268D01*
X111760000Y-125199108D01*
X111392036Y-124787268D01*
X110864791Y-124533291D01*
X110849026Y-124530642D01*
X110617000Y-124651783D01*
X110363000Y-124651783D01*
X110130974Y-124530642D01*
X110115209Y-124533291D01*
X109587964Y-124787268D01*
X109216461Y-125203069D01*
X109009670Y-124893585D01*
X108523489Y-124568729D01*
X107950000Y-124454655D01*
X107376511Y-124568729D01*
X106890330Y-124893585D01*
X106680000Y-125208366D01*
X106469670Y-124893585D01*
X105983489Y-124568729D01*
X105410000Y-124454655D01*
X104836511Y-124568729D01*
X104350330Y-124893585D01*
X104025474Y-125379766D01*
X103911400Y-125953255D01*
X103810000Y-125953255D01*
X103810000Y-124429898D01*
X104804288Y-112645740D01*
X104836511Y-112667271D01*
X105410000Y-112781345D01*
X105983489Y-112667271D01*
X106469670Y-112342415D01*
X106676461Y-112032931D01*
X107047964Y-112448732D01*
X107575209Y-112702709D01*
X107590974Y-112705358D01*
X107823000Y-112584217D01*
X107823000Y-111225000D01*
X107803000Y-111225000D01*
X107803000Y-110971000D01*
X107823000Y-110971000D01*
X107823000Y-109611783D01*
X108077000Y-109611783D01*
X108077000Y-110971000D01*
X108097000Y-110971000D01*
X108097000Y-111225000D01*
X108077000Y-111225000D01*
X108077000Y-112584217D01*
X108309026Y-112705358D01*
X108324791Y-112702709D01*
X108852036Y-112448732D01*
X109223539Y-112032931D01*
X109430330Y-112342415D01*
X109916511Y-112667271D01*
X110490000Y-112781345D01*
X111063489Y-112667271D01*
X111549670Y-112342415D01*
X111760000Y-112027634D01*
X111970330Y-112342415D01*
X112456511Y-112667271D01*
X113030000Y-112781345D01*
X113603489Y-112667271D01*
X114089670Y-112342415D01*
X114300000Y-112027634D01*
X114510330Y-112342415D01*
X114996511Y-112667271D01*
X115570000Y-112781345D01*
X116143489Y-112667271D01*
X116629670Y-112342415D01*
X116840000Y-112027634D01*
X117050330Y-112342415D01*
X117536511Y-112667271D01*
X118110000Y-112781345D01*
X118683489Y-112667271D01*
X119169670Y-112342415D01*
X119380000Y-112027634D01*
X119590330Y-112342415D01*
X120076511Y-112667271D01*
X120650000Y-112781345D01*
X121223489Y-112667271D01*
X121709670Y-112342415D01*
X121920000Y-112027634D01*
X122130330Y-112342415D01*
X122616511Y-112667271D01*
X123190000Y-112781345D01*
X123763489Y-112667271D01*
X124249670Y-112342415D01*
X124460000Y-112027634D01*
X124670330Y-112342415D01*
X125156511Y-112667271D01*
X125730000Y-112781345D01*
X126240000Y-112679900D01*
X126240000Y-123300000D01*
X126297852Y-123590839D01*
X126462599Y-123837401D01*
X127064878Y-124439680D01*
X127064838Y-124485167D01*
X127206883Y-124828943D01*
X127246972Y-124869102D01*
X127210330Y-124893585D01*
X127000000Y-125208366D01*
X126789670Y-124893585D01*
X126303489Y-124568729D01*
X125730000Y-124454655D01*
X125156511Y-124568729D01*
X124670330Y-124893585D01*
X124460000Y-125208366D01*
X124249670Y-124893585D01*
X123763489Y-124568729D01*
X123190000Y-124454655D01*
X122616511Y-124568729D01*
X122130330Y-124893585D01*
X121920000Y-125208366D01*
X121709670Y-124893585D01*
X121223489Y-124568729D01*
X120650000Y-124454655D01*
X120076511Y-124568729D01*
X119590330Y-124893585D01*
X119380000Y-125208366D01*
X119169670Y-124893585D01*
X118683489Y-124568729D01*
X118110000Y-124454655D01*
X117536511Y-124568729D01*
X117050330Y-124893585D01*
X116840000Y-125208366D01*
X116629670Y-124893585D01*
X116143489Y-124568729D01*
X115570000Y-124454655D01*
X115434930Y-124481522D01*
X115435162Y-124214833D01*
X115293117Y-123871057D01*
X115030327Y-123607808D01*
X114686799Y-123465162D01*
X114677302Y-123465154D01*
X114734943Y-123441337D01*
X115687990Y-122489952D01*
X116204411Y-121246272D01*
X116205586Y-119899636D01*
X115691337Y-118655057D01*
X114739952Y-117702010D01*
X113496272Y-117185589D01*
X112149636Y-117184414D01*
X110905057Y-117698663D01*
X109952010Y-118650048D01*
X109435589Y-119893728D01*
X109434414Y-121240364D01*
X109948663Y-122484943D01*
X110900048Y-123437990D01*
X112143728Y-123954411D01*
X113490364Y-123955586D01*
X113714530Y-123862963D01*
X113707808Y-123869673D01*
X113565162Y-124213201D01*
X113564934Y-124474648D01*
X113540286Y-124598560D01*
X113404791Y-124533291D01*
X113389026Y-124530642D01*
X113157000Y-124651783D01*
X113157000Y-126011000D01*
X113177000Y-126011000D01*
X113177000Y-126265000D01*
X113157000Y-126265000D01*
X113157000Y-127624217D01*
X113389026Y-127745358D01*
X113404791Y-127742709D01*
X113540000Y-127677578D01*
X113540000Y-129937537D01*
X113507808Y-129969673D01*
X113365162Y-130313201D01*
X113364838Y-130685167D01*
X113506883Y-131028943D01*
X113737446Y-131259908D01*
X113637000Y-131330413D01*
X113637000Y-132433000D01*
X114929656Y-132433000D01*
X115052318Y-132218815D01*
X115046066Y-132182892D01*
X119716514Y-132182892D01*
X119962817Y-132707358D01*
X120391076Y-133097645D01*
X120801110Y-133267476D01*
X121031000Y-133146155D01*
X121031000Y-131953000D01*
X119837181Y-131953000D01*
X119716514Y-132182892D01*
X115046066Y-132182892D01*
X115042936Y-132164916D01*
X114790280Y-131684898D01*
X114530730Y-131469108D01*
X119716514Y-131469108D01*
X119837181Y-131699000D01*
X121031000Y-131699000D01*
X121031000Y-130505845D01*
X121285000Y-130505845D01*
X121285000Y-131699000D01*
X121305000Y-131699000D01*
X121305000Y-131953000D01*
X121285000Y-131953000D01*
X121285000Y-133146155D01*
X121514890Y-133267476D01*
X121924924Y-133097645D01*
X122353183Y-132707358D01*
X122420298Y-132564447D01*
X122647946Y-132905147D01*
X123129715Y-133227054D01*
X123698000Y-133340093D01*
X124266285Y-133227054D01*
X124748054Y-132905147D01*
X124968000Y-132575974D01*
X125187946Y-132905147D01*
X125669715Y-133227054D01*
X126238000Y-133340093D01*
X126806285Y-133227054D01*
X127288054Y-132905147D01*
X127315850Y-132863548D01*
X127324838Y-132911317D01*
X127463910Y-133127441D01*
X127676110Y-133272431D01*
X127928000Y-133323440D01*
X129628000Y-133323440D01*
X129863317Y-133279162D01*
X130079441Y-133140090D01*
X130224431Y-132927890D01*
X130275440Y-132676000D01*
X130275440Y-131738000D01*
X149632560Y-131738000D01*
X149632560Y-133438000D01*
X149676838Y-133673317D01*
X149815910Y-133889441D01*
X150028110Y-134034431D01*
X150280000Y-134085440D01*
X151980000Y-134085440D01*
X152215317Y-134041162D01*
X152431441Y-133902090D01*
X152576431Y-133689890D01*
X152590086Y-133622459D01*
X152619946Y-133667147D01*
X153101715Y-133989054D01*
X153670000Y-134102093D01*
X154238285Y-133989054D01*
X154720054Y-133667147D01*
X154940000Y-133337974D01*
X155159946Y-133667147D01*
X155641715Y-133989054D01*
X156210000Y-134102093D01*
X156778285Y-133989054D01*
X157260054Y-133667147D01*
X157487702Y-133326447D01*
X157554817Y-133469358D01*
X157983076Y-133859645D01*
X158393110Y-134029476D01*
X158623000Y-133908155D01*
X158623000Y-132715000D01*
X158877000Y-132715000D01*
X158877000Y-133908155D01*
X159106890Y-134029476D01*
X159516924Y-133859645D01*
X159945183Y-133469358D01*
X160191486Y-132944892D01*
X160070819Y-132715000D01*
X158877000Y-132715000D01*
X158623000Y-132715000D01*
X158603000Y-132715000D01*
X158603000Y-132461000D01*
X158623000Y-132461000D01*
X158623000Y-131267845D01*
X158877000Y-131267845D01*
X158877000Y-132461000D01*
X160070819Y-132461000D01*
X160191486Y-132231108D01*
X159945183Y-131706642D01*
X159516924Y-131316355D01*
X159106890Y-131146524D01*
X158877000Y-131267845D01*
X158623000Y-131267845D01*
X158393110Y-131146524D01*
X157983076Y-131316355D01*
X157554817Y-131706642D01*
X157487702Y-131849553D01*
X157260054Y-131508853D01*
X156778285Y-131186946D01*
X156210000Y-131073907D01*
X155641715Y-131186946D01*
X155159946Y-131508853D01*
X154940000Y-131838026D01*
X154720054Y-131508853D01*
X154238285Y-131186946D01*
X153670000Y-131073907D01*
X153101715Y-131186946D01*
X152619946Y-131508853D01*
X152592150Y-131550452D01*
X152583162Y-131502683D01*
X152444090Y-131286559D01*
X152231890Y-131141569D01*
X151980000Y-131090560D01*
X151293112Y-131090560D01*
X151528943Y-130993117D01*
X151792192Y-130730327D01*
X151934838Y-130386799D01*
X151935162Y-130014833D01*
X151910000Y-129953936D01*
X151910000Y-127846615D01*
X151934838Y-127786799D01*
X151935162Y-127414833D01*
X151793117Y-127071057D01*
X151530327Y-126807808D01*
X151186799Y-126665162D01*
X150814833Y-126664838D01*
X150471057Y-126806883D01*
X150207808Y-127069673D01*
X150065162Y-127413201D01*
X150064838Y-127785167D01*
X150090000Y-127846064D01*
X150090000Y-129953385D01*
X150065162Y-130013201D01*
X150064838Y-130385167D01*
X150206883Y-130728943D01*
X150469673Y-130992192D01*
X150706568Y-131090560D01*
X150280000Y-131090560D01*
X150044683Y-131134838D01*
X149828559Y-131273910D01*
X149683569Y-131486110D01*
X149632560Y-131738000D01*
X130275440Y-131738000D01*
X130275440Y-130976000D01*
X130231162Y-130740683D01*
X130092090Y-130524559D01*
X129879890Y-130379569D01*
X129628000Y-130328560D01*
X127928000Y-130328560D01*
X127692683Y-130372838D01*
X127476559Y-130511910D01*
X127331569Y-130724110D01*
X127317914Y-130791541D01*
X127288054Y-130746853D01*
X126806285Y-130424946D01*
X126238000Y-130311907D01*
X125669715Y-130424946D01*
X125187946Y-130746853D01*
X124968000Y-131076026D01*
X124748054Y-130746853D01*
X124266285Y-130424946D01*
X123698000Y-130311907D01*
X123129715Y-130424946D01*
X122647946Y-130746853D01*
X122420298Y-131087553D01*
X122353183Y-130944642D01*
X121924924Y-130554355D01*
X121514890Y-130384524D01*
X121285000Y-130505845D01*
X121031000Y-130505845D01*
X120801110Y-130384524D01*
X120391076Y-130554355D01*
X119962817Y-130944642D01*
X119716514Y-131469108D01*
X114530730Y-131469108D01*
X114488329Y-131433856D01*
X114828943Y-131293117D01*
X115092192Y-131030327D01*
X115234838Y-130686799D01*
X115235162Y-130314833D01*
X115093117Y-129971057D01*
X115060000Y-129937882D01*
X115060000Y-127719900D01*
X115570000Y-127821345D01*
X116143489Y-127707271D01*
X116629670Y-127382415D01*
X116840000Y-127067634D01*
X117050330Y-127382415D01*
X117536511Y-127707271D01*
X118110000Y-127821345D01*
X118683489Y-127707271D01*
X119169670Y-127382415D01*
X119380000Y-127067634D01*
X119590330Y-127382415D01*
X120076511Y-127707271D01*
X120650000Y-127821345D01*
X121223489Y-127707271D01*
X121709670Y-127382415D01*
X121920000Y-127067634D01*
X122130330Y-127382415D01*
X122616511Y-127707271D01*
X123190000Y-127821345D01*
X123763489Y-127707271D01*
X124249670Y-127382415D01*
X124460000Y-127067634D01*
X124670330Y-127382415D01*
X125156511Y-127707271D01*
X125730000Y-127821345D01*
X126303489Y-127707271D01*
X126789670Y-127382415D01*
X127000000Y-127067634D01*
X127210330Y-127382415D01*
X127696511Y-127707271D01*
X128270000Y-127821345D01*
X128843489Y-127707271D01*
X129329670Y-127382415D01*
X129540000Y-127067634D01*
X129750330Y-127382415D01*
X130236511Y-127707271D01*
X130810000Y-127821345D01*
X131383489Y-127707271D01*
X131869670Y-127382415D01*
X132080000Y-127067634D01*
X132290330Y-127382415D01*
X132776511Y-127707271D01*
X133350000Y-127821345D01*
X133923489Y-127707271D01*
X134409670Y-127382415D01*
X134565130Y-127149753D01*
X134564838Y-127485167D01*
X134706883Y-127828943D01*
X134969673Y-128092192D01*
X135313201Y-128234838D01*
X135685167Y-128235162D01*
X136028943Y-128093117D01*
X136292192Y-127830327D01*
X136434838Y-127486799D01*
X136435162Y-127114833D01*
X136293117Y-126771057D01*
X136260000Y-126737882D01*
X136260000Y-123067028D01*
X136334838Y-122886799D01*
X136335162Y-122514833D01*
X136236847Y-122276890D01*
X146640524Y-122276890D01*
X146810355Y-122686924D01*
X147200642Y-123115183D01*
X147725108Y-123361486D01*
X147955000Y-123240819D01*
X147955000Y-122047000D01*
X148209000Y-122047000D01*
X148209000Y-123240819D01*
X148438892Y-123361486D01*
X148963358Y-123115183D01*
X149353645Y-122686924D01*
X149523476Y-122276890D01*
X149402155Y-122047000D01*
X148209000Y-122047000D01*
X147955000Y-122047000D01*
X146761845Y-122047000D01*
X146640524Y-122276890D01*
X136236847Y-122276890D01*
X136193117Y-122171057D01*
X135930327Y-121907808D01*
X135586799Y-121765162D01*
X135214833Y-121764838D01*
X134871057Y-121906883D01*
X134607808Y-122169673D01*
X134465162Y-122513201D01*
X134464838Y-122885167D01*
X134606883Y-123228943D01*
X134740000Y-123362293D01*
X134740000Y-125407286D01*
X134734526Y-125379766D01*
X134409670Y-124893585D01*
X133923489Y-124568729D01*
X133350000Y-124454655D01*
X132776511Y-124568729D01*
X132290330Y-124893585D01*
X132080000Y-125208366D01*
X131869670Y-124893585D01*
X131383489Y-124568729D01*
X130810000Y-124454655D01*
X130236511Y-124568729D01*
X129987191Y-124735320D01*
X129992192Y-124730327D01*
X130134838Y-124386799D01*
X130135162Y-124014833D01*
X129993117Y-123671057D01*
X129960000Y-123637882D01*
X129960000Y-114885167D01*
X132664838Y-114885167D01*
X132806883Y-115228943D01*
X133069673Y-115492192D01*
X133413201Y-115634838D01*
X133460077Y-115634879D01*
X134740000Y-116914802D01*
X134740000Y-117637537D01*
X134707808Y-117669673D01*
X134565162Y-118013201D01*
X134564838Y-118385167D01*
X134706883Y-118728943D01*
X134969673Y-118992192D01*
X135313201Y-119134838D01*
X135685167Y-119135162D01*
X136028943Y-118993117D01*
X136292192Y-118730327D01*
X136434838Y-118386799D01*
X136435162Y-118014833D01*
X136293117Y-117671057D01*
X136260000Y-117637882D01*
X136260000Y-116600000D01*
X136202148Y-116309161D01*
X136037401Y-116062599D01*
X134535122Y-114560320D01*
X134535162Y-114514833D01*
X134446396Y-114300000D01*
X146567907Y-114300000D01*
X146680946Y-114868285D01*
X147002853Y-115350054D01*
X147332026Y-115570000D01*
X147002853Y-115789946D01*
X146680946Y-116271715D01*
X146567907Y-116840000D01*
X146680946Y-117408285D01*
X147002853Y-117890054D01*
X147332026Y-118110000D01*
X147002853Y-118329946D01*
X146680946Y-118811715D01*
X146567907Y-119380000D01*
X146680946Y-119948285D01*
X147002853Y-120430054D01*
X147343553Y-120657702D01*
X147200642Y-120724817D01*
X146810355Y-121153076D01*
X146640524Y-121563110D01*
X146761845Y-121793000D01*
X147955000Y-121793000D01*
X147955000Y-121773000D01*
X148209000Y-121773000D01*
X148209000Y-121793000D01*
X149402155Y-121793000D01*
X149523476Y-121563110D01*
X149460889Y-121412000D01*
X155288655Y-121412000D01*
X155402729Y-121985489D01*
X155727585Y-122471670D01*
X156213766Y-122796526D01*
X156787255Y-122910600D01*
X157156745Y-122910600D01*
X157730234Y-122796526D01*
X158216415Y-122471670D01*
X158541271Y-121985489D01*
X158655345Y-121412000D01*
X158619216Y-121230364D01*
X165934414Y-121230364D01*
X166448663Y-122474943D01*
X167400048Y-123427990D01*
X168643728Y-123944411D01*
X169990364Y-123945586D01*
X171234943Y-123431337D01*
X172187990Y-122479952D01*
X172704411Y-121236272D01*
X172705586Y-119889636D01*
X172191337Y-118645057D01*
X171239952Y-117692010D01*
X169996272Y-117175589D01*
X168649636Y-117174414D01*
X167405057Y-117688663D01*
X166452010Y-118640048D01*
X165935589Y-119883728D01*
X165934414Y-121230364D01*
X158619216Y-121230364D01*
X158541271Y-120838511D01*
X158216415Y-120352330D01*
X157906931Y-120145539D01*
X158322732Y-119774036D01*
X158576709Y-119246791D01*
X158579358Y-119231026D01*
X158458217Y-118999000D01*
X157099000Y-118999000D01*
X157099000Y-119019000D01*
X156845000Y-119019000D01*
X156845000Y-118999000D01*
X155485783Y-118999000D01*
X155364642Y-119231026D01*
X155367291Y-119246791D01*
X155621268Y-119774036D01*
X156037069Y-120145539D01*
X155727585Y-120352330D01*
X155402729Y-120838511D01*
X155288655Y-121412000D01*
X149460889Y-121412000D01*
X149353645Y-121153076D01*
X148963358Y-120724817D01*
X148820447Y-120657702D01*
X149161147Y-120430054D01*
X149483054Y-119948285D01*
X149596093Y-119380000D01*
X149483054Y-118811715D01*
X149283443Y-118512974D01*
X155364642Y-118512974D01*
X155485783Y-118745000D01*
X156845000Y-118745000D01*
X156845000Y-117531076D01*
X157099000Y-117531076D01*
X157099000Y-118745000D01*
X158458217Y-118745000D01*
X158579358Y-118512974D01*
X158576709Y-118497209D01*
X158322732Y-117969964D01*
X157886320Y-117580046D01*
X157333913Y-117386816D01*
X157099000Y-117531076D01*
X156845000Y-117531076D01*
X156610087Y-117386816D01*
X156057680Y-117580046D01*
X155621268Y-117969964D01*
X155367291Y-118497209D01*
X155364642Y-118512974D01*
X149283443Y-118512974D01*
X149161147Y-118329946D01*
X148831974Y-118110000D01*
X149161147Y-117890054D01*
X149483054Y-117408285D01*
X149596093Y-116840000D01*
X149483054Y-116271715D01*
X149161147Y-115789946D01*
X148831974Y-115570000D01*
X149161147Y-115350054D01*
X149483054Y-114868285D01*
X149596093Y-114300000D01*
X149483054Y-113731715D01*
X149161147Y-113249946D01*
X149119548Y-113222150D01*
X149167317Y-113213162D01*
X149383441Y-113074090D01*
X149528431Y-112861890D01*
X149579440Y-112610000D01*
X149579440Y-111945167D01*
X150504838Y-111945167D01*
X150646883Y-112288943D01*
X150909673Y-112552192D01*
X151253201Y-112694838D01*
X151625167Y-112695162D01*
X151831275Y-112610000D01*
X154053385Y-112610000D01*
X154113201Y-112634838D01*
X154485167Y-112635162D01*
X154828943Y-112493117D01*
X155092192Y-112230327D01*
X155234838Y-111886799D01*
X155235162Y-111514833D01*
X155093117Y-111171057D01*
X154830327Y-110907808D01*
X154486799Y-110765162D01*
X154114833Y-110764838D01*
X154053936Y-110790000D01*
X151500000Y-110790000D01*
X151324553Y-110824899D01*
X151254833Y-110824838D01*
X151189828Y-110851697D01*
X151151758Y-110859270D01*
X151119766Y-110880646D01*
X150911057Y-110966883D01*
X150647808Y-111229673D01*
X150505162Y-111573201D01*
X150504838Y-111945167D01*
X149579440Y-111945167D01*
X149579440Y-110910000D01*
X149535162Y-110674683D01*
X149396090Y-110458559D01*
X149183890Y-110313569D01*
X148932000Y-110262560D01*
X147232000Y-110262560D01*
X146996683Y-110306838D01*
X146780559Y-110445910D01*
X146635569Y-110658110D01*
X146584560Y-110910000D01*
X146584560Y-112610000D01*
X146628838Y-112845317D01*
X146767910Y-113061441D01*
X146980110Y-113206431D01*
X147047541Y-113220086D01*
X147002853Y-113249946D01*
X146680946Y-113731715D01*
X146567907Y-114300000D01*
X134446396Y-114300000D01*
X134393117Y-114171057D01*
X134130327Y-113907808D01*
X133786799Y-113765162D01*
X133414833Y-113764838D01*
X133071057Y-113906883D01*
X132807808Y-114169673D01*
X132665162Y-114513201D01*
X132664838Y-114885167D01*
X129960000Y-114885167D01*
X129960000Y-113914802D01*
X130137401Y-113737401D01*
X130302148Y-113490840D01*
X130338286Y-113309161D01*
X130360000Y-113200000D01*
X130360000Y-112691834D01*
X130810000Y-112781345D01*
X131383489Y-112667271D01*
X131869670Y-112342415D01*
X132080000Y-112027634D01*
X132290330Y-112342415D01*
X132776511Y-112667271D01*
X133350000Y-112781345D01*
X133923489Y-112667271D01*
X134409670Y-112342415D01*
X134734526Y-111856234D01*
X134848600Y-111282745D01*
X134848600Y-110913255D01*
X134734526Y-110339766D01*
X134409670Y-109853585D01*
X133923489Y-109528729D01*
X133350000Y-109414655D01*
X132776511Y-109528729D01*
X132290330Y-109853585D01*
X132080000Y-110168366D01*
X131869670Y-109853585D01*
X131383489Y-109528729D01*
X130810000Y-109414655D01*
X130360000Y-109504166D01*
X130360000Y-108462463D01*
X130392192Y-108430327D01*
X130534838Y-108086799D01*
X130534839Y-108085167D01*
X134764838Y-108085167D01*
X134906883Y-108428943D01*
X134940000Y-108462118D01*
X134940000Y-109437537D01*
X134907808Y-109469673D01*
X134765162Y-109813201D01*
X134764838Y-110185167D01*
X134906883Y-110528943D01*
X135169673Y-110792192D01*
X135513201Y-110934838D01*
X135885167Y-110935162D01*
X136228943Y-110793117D01*
X136492192Y-110530327D01*
X136634838Y-110186799D01*
X136635162Y-109814833D01*
X136493117Y-109471057D01*
X136460000Y-109437882D01*
X136460000Y-108712000D01*
X173068655Y-108712000D01*
X173182729Y-109285489D01*
X173507585Y-109771670D01*
X173993766Y-110096526D01*
X174567255Y-110210600D01*
X174936745Y-110210600D01*
X175510234Y-110096526D01*
X175996415Y-109771670D01*
X176321271Y-109285489D01*
X176435345Y-108712000D01*
X176321271Y-108138511D01*
X175996415Y-107652330D01*
X175686931Y-107445539D01*
X176102732Y-107074036D01*
X176356709Y-106546791D01*
X176359358Y-106531026D01*
X176238217Y-106299000D01*
X174879000Y-106299000D01*
X174879000Y-106319000D01*
X174625000Y-106319000D01*
X174625000Y-106299000D01*
X173265783Y-106299000D01*
X173144642Y-106531026D01*
X173147291Y-106546791D01*
X173401268Y-107074036D01*
X173817069Y-107445539D01*
X173507585Y-107652330D01*
X173182729Y-108138511D01*
X173068655Y-108712000D01*
X136460000Y-108712000D01*
X136460000Y-108462463D01*
X136492192Y-108430327D01*
X136634838Y-108086799D01*
X136635162Y-107714833D01*
X136493117Y-107371057D01*
X136230327Y-107107808D01*
X135886799Y-106965162D01*
X135514833Y-106964838D01*
X135171057Y-107106883D01*
X134907808Y-107369673D01*
X134765162Y-107713201D01*
X134764838Y-108085167D01*
X130534839Y-108085167D01*
X130535162Y-107714833D01*
X130393117Y-107371057D01*
X130130327Y-107107808D01*
X129786799Y-106965162D01*
X129414833Y-106964838D01*
X129071057Y-107106883D01*
X128807808Y-107369673D01*
X128665162Y-107713201D01*
X128664838Y-108085167D01*
X128806883Y-108428943D01*
X128840000Y-108462118D01*
X128840000Y-109528035D01*
X128270000Y-109414655D01*
X127760000Y-109516100D01*
X127760000Y-108462463D01*
X127792192Y-108430327D01*
X127934838Y-108086799D01*
X127935162Y-107714833D01*
X127793117Y-107371057D01*
X127530327Y-107107808D01*
X127186799Y-106965162D01*
X126814833Y-106964838D01*
X126471057Y-107106883D01*
X126207808Y-107369673D01*
X126065162Y-107713201D01*
X126064838Y-108085167D01*
X126206883Y-108428943D01*
X126240000Y-108462118D01*
X126240000Y-109516100D01*
X125730000Y-109414655D01*
X125156511Y-109528729D01*
X124670330Y-109853585D01*
X124460000Y-110168366D01*
X124249670Y-109853585D01*
X123763489Y-109528729D01*
X123190000Y-109414655D01*
X122616511Y-109528729D01*
X122130330Y-109853585D01*
X121920000Y-110168366D01*
X121709670Y-109853585D01*
X121223489Y-109528729D01*
X120650000Y-109414655D01*
X120076511Y-109528729D01*
X119590330Y-109853585D01*
X119380000Y-110168366D01*
X119169670Y-109853585D01*
X118683489Y-109528729D01*
X118110000Y-109414655D01*
X117536511Y-109528729D01*
X117050330Y-109853585D01*
X116840000Y-110168366D01*
X116629670Y-109853585D01*
X116143489Y-109528729D01*
X115570000Y-109414655D01*
X114996511Y-109528729D01*
X114510330Y-109853585D01*
X114300000Y-110168366D01*
X114089670Y-109853585D01*
X113603489Y-109528729D01*
X113030000Y-109414655D01*
X112456511Y-109528729D01*
X111970330Y-109853585D01*
X111760000Y-110168366D01*
X111549670Y-109853585D01*
X111063489Y-109528729D01*
X110490000Y-109414655D01*
X109916511Y-109528729D01*
X109430330Y-109853585D01*
X109223539Y-110163069D01*
X108852036Y-109747268D01*
X108324791Y-109493291D01*
X108309026Y-109490642D01*
X108077000Y-109611783D01*
X107823000Y-109611783D01*
X107590974Y-109490642D01*
X107575209Y-109493291D01*
X107047964Y-109747268D01*
X106676461Y-110163069D01*
X106469670Y-109853585D01*
X105983489Y-109528729D01*
X105410000Y-109414655D01*
X105071225Y-109482041D01*
X105550816Y-103798000D01*
X105690560Y-103798000D01*
X105690560Y-105498000D01*
X105734838Y-105733317D01*
X105873910Y-105949441D01*
X106086110Y-106094431D01*
X106338000Y-106145440D01*
X108038000Y-106145440D01*
X108273317Y-106101162D01*
X108489441Y-105962090D01*
X108634431Y-105749890D01*
X108656301Y-105641893D01*
X108961076Y-105919645D01*
X109371110Y-106089476D01*
X109601000Y-105968155D01*
X109601000Y-104775000D01*
X109855000Y-104775000D01*
X109855000Y-105968155D01*
X110084890Y-106089476D01*
X110494924Y-105919645D01*
X110662540Y-105766890D01*
X149434524Y-105766890D01*
X149604355Y-106176924D01*
X149994642Y-106605183D01*
X150519108Y-106851486D01*
X150749000Y-106730819D01*
X150749000Y-105537000D01*
X151003000Y-105537000D01*
X151003000Y-106730819D01*
X151232892Y-106851486D01*
X151757358Y-106605183D01*
X152147645Y-106176924D01*
X152317476Y-105766890D01*
X152196155Y-105537000D01*
X151003000Y-105537000D01*
X150749000Y-105537000D01*
X149555845Y-105537000D01*
X149434524Y-105766890D01*
X110662540Y-105766890D01*
X110923183Y-105529358D01*
X111169486Y-105004892D01*
X111048819Y-104775000D01*
X109855000Y-104775000D01*
X109601000Y-104775000D01*
X109581000Y-104775000D01*
X109581000Y-104521000D01*
X109601000Y-104521000D01*
X109601000Y-103327845D01*
X109855000Y-103327845D01*
X109855000Y-104521000D01*
X111048819Y-104521000D01*
X111169486Y-104291108D01*
X110923183Y-103766642D01*
X110494924Y-103376355D01*
X110084890Y-103206524D01*
X109855000Y-103327845D01*
X109601000Y-103327845D01*
X109371110Y-103206524D01*
X108961076Y-103376355D01*
X108658063Y-103652501D01*
X108641162Y-103562683D01*
X108502090Y-103346559D01*
X108289890Y-103201569D01*
X108038000Y-103150560D01*
X106338000Y-103150560D01*
X106102683Y-103194838D01*
X105886559Y-103333910D01*
X105741569Y-103546110D01*
X105690560Y-103798000D01*
X105550816Y-103798000D01*
X105727590Y-101702892D01*
X122256514Y-101702892D01*
X122502817Y-102227358D01*
X122931076Y-102617645D01*
X123341110Y-102787476D01*
X123571000Y-102666155D01*
X123571000Y-101473000D01*
X122377181Y-101473000D01*
X122256514Y-101702892D01*
X105727590Y-101702892D01*
X105787815Y-100989108D01*
X122256514Y-100989108D01*
X122377181Y-101219000D01*
X123571000Y-101219000D01*
X123571000Y-100025845D01*
X123825000Y-100025845D01*
X123825000Y-101219000D01*
X123845000Y-101219000D01*
X123845000Y-101473000D01*
X123825000Y-101473000D01*
X123825000Y-102666155D01*
X124054890Y-102787476D01*
X124464924Y-102617645D01*
X124893183Y-102227358D01*
X124960298Y-102084447D01*
X125187946Y-102425147D01*
X125669715Y-102747054D01*
X126238000Y-102860093D01*
X126806285Y-102747054D01*
X127288054Y-102425147D01*
X127508000Y-102095974D01*
X127727946Y-102425147D01*
X128209715Y-102747054D01*
X128778000Y-102860093D01*
X129346285Y-102747054D01*
X129828054Y-102425147D01*
X129855850Y-102383548D01*
X129864838Y-102431317D01*
X130003910Y-102647441D01*
X130216110Y-102792431D01*
X130468000Y-102843440D01*
X132168000Y-102843440D01*
X132403317Y-102799162D01*
X132619441Y-102660090D01*
X132764431Y-102447890D01*
X132815440Y-102196000D01*
X132815440Y-102020000D01*
X149378560Y-102020000D01*
X149378560Y-103720000D01*
X149422838Y-103955317D01*
X149561910Y-104171441D01*
X149774110Y-104316431D01*
X149882107Y-104338301D01*
X149604355Y-104643076D01*
X149434524Y-105053110D01*
X149555845Y-105283000D01*
X150749000Y-105283000D01*
X150749000Y-105263000D01*
X151003000Y-105263000D01*
X151003000Y-105283000D01*
X152196155Y-105283000D01*
X152317476Y-105053110D01*
X152147645Y-104643076D01*
X151871499Y-104340063D01*
X151961317Y-104323162D01*
X152177441Y-104184090D01*
X152322431Y-103971890D01*
X152373440Y-103720000D01*
X152373440Y-103632000D01*
X173068655Y-103632000D01*
X173182729Y-104205489D01*
X173507585Y-104691670D01*
X173817069Y-104898461D01*
X173401268Y-105269964D01*
X173147291Y-105797209D01*
X173144642Y-105812974D01*
X173265783Y-106045000D01*
X174625000Y-106045000D01*
X174625000Y-106025000D01*
X174879000Y-106025000D01*
X174879000Y-106045000D01*
X176238217Y-106045000D01*
X176359358Y-105812974D01*
X176356709Y-105797209D01*
X176102732Y-105269964D01*
X175686931Y-104898461D01*
X175996415Y-104691670D01*
X176321271Y-104205489D01*
X176435345Y-103632000D01*
X176321271Y-103058511D01*
X175996415Y-102572330D01*
X175510234Y-102247474D01*
X174936745Y-102133400D01*
X174567255Y-102133400D01*
X173993766Y-102247474D01*
X173507585Y-102572330D01*
X173182729Y-103058511D01*
X173068655Y-103632000D01*
X152373440Y-103632000D01*
X152373440Y-102020000D01*
X152329162Y-101784683D01*
X152190090Y-101568559D01*
X151977890Y-101423569D01*
X151726000Y-101372560D01*
X150026000Y-101372560D01*
X149790683Y-101416838D01*
X149574559Y-101555910D01*
X149429569Y-101768110D01*
X149378560Y-102020000D01*
X132815440Y-102020000D01*
X132815440Y-100496000D01*
X132771162Y-100260683D01*
X132632090Y-100044559D01*
X132419890Y-99899569D01*
X132168000Y-99848560D01*
X130468000Y-99848560D01*
X130232683Y-99892838D01*
X130016559Y-100031910D01*
X129871569Y-100244110D01*
X129857914Y-100311541D01*
X129828054Y-100266853D01*
X129346285Y-99944946D01*
X128778000Y-99831907D01*
X128209715Y-99944946D01*
X127727946Y-100266853D01*
X127508000Y-100596026D01*
X127288054Y-100266853D01*
X126806285Y-99944946D01*
X126238000Y-99831907D01*
X125669715Y-99944946D01*
X125187946Y-100266853D01*
X124960298Y-100607553D01*
X124893183Y-100464642D01*
X124464924Y-100074355D01*
X124054890Y-99904524D01*
X123825000Y-100025845D01*
X123571000Y-100025845D01*
X123341110Y-99904524D01*
X122931076Y-100074355D01*
X122502817Y-100464642D01*
X122256514Y-100989108D01*
X105787815Y-100989108D01*
X109184030Y-60737692D01*
X109970394Y-60022815D01*
X114934630Y-60022815D01*
X115258980Y-60807800D01*
X115859041Y-61408909D01*
X116643459Y-61734628D01*
X117492815Y-61735370D01*
X118277800Y-61411020D01*
X118878909Y-60810959D01*
X119202022Y-60032815D01*
X162934630Y-60032815D01*
X163258980Y-60817800D01*
X163859041Y-61418909D01*
X164643459Y-61744628D01*
X165492815Y-61745370D01*
X166277800Y-61421020D01*
X166878909Y-60820959D01*
X167204628Y-60036541D01*
X167205370Y-59187185D01*
X166881020Y-58402200D01*
X166280959Y-57801091D01*
X165496541Y-57475372D01*
X164647185Y-57474630D01*
X163862200Y-57798980D01*
X163261091Y-58399041D01*
X162935372Y-59183459D01*
X162934630Y-60032815D01*
X119202022Y-60032815D01*
X119204628Y-60026541D01*
X119205370Y-59177185D01*
X118881020Y-58392200D01*
X118280959Y-57791091D01*
X117496541Y-57465372D01*
X116647185Y-57464630D01*
X115862200Y-57788980D01*
X115261091Y-58389041D01*
X114935372Y-59173459D01*
X114934630Y-60022815D01*
X109970394Y-60022815D01*
X113227290Y-57062000D01*
X123978560Y-57062000D01*
X123978560Y-58762000D01*
X124022838Y-58997317D01*
X124161910Y-59213441D01*
X124374110Y-59358431D01*
X124626000Y-59409440D01*
X126326000Y-59409440D01*
X126561317Y-59365162D01*
X126777441Y-59226090D01*
X126922431Y-59013890D01*
X126944301Y-58905893D01*
X127249076Y-59183645D01*
X127659110Y-59353476D01*
X127889000Y-59232155D01*
X127889000Y-58039000D01*
X128143000Y-58039000D01*
X128143000Y-59232155D01*
X128372890Y-59353476D01*
X128782924Y-59183645D01*
X129211183Y-58793358D01*
X129252326Y-58705750D01*
X138165000Y-58705750D01*
X138165000Y-59446310D01*
X138261673Y-59679699D01*
X138440302Y-59858327D01*
X138673691Y-59955000D01*
X139414250Y-59955000D01*
X139573000Y-59796250D01*
X139573000Y-58547000D01*
X138323750Y-58547000D01*
X138165000Y-58705750D01*
X129252326Y-58705750D01*
X129457486Y-58268892D01*
X129336819Y-58039000D01*
X128143000Y-58039000D01*
X127889000Y-58039000D01*
X127869000Y-58039000D01*
X127869000Y-57785000D01*
X127889000Y-57785000D01*
X127889000Y-56591845D01*
X128143000Y-56591845D01*
X128143000Y-57785000D01*
X129336819Y-57785000D01*
X129457486Y-57555108D01*
X129381680Y-57393690D01*
X138165000Y-57393690D01*
X138165000Y-58134250D01*
X138323750Y-58293000D01*
X139573000Y-58293000D01*
X139573000Y-57043750D01*
X139827000Y-57043750D01*
X139827000Y-58293000D01*
X139847000Y-58293000D01*
X139847000Y-58547000D01*
X139827000Y-58547000D01*
X139827000Y-59796250D01*
X139985750Y-59955000D01*
X140726309Y-59955000D01*
X140959698Y-59858327D01*
X141138327Y-59679699D01*
X141194119Y-59545006D01*
X141369357Y-59720551D01*
X141933330Y-59954733D01*
X142543991Y-59955265D01*
X143108371Y-59722068D01*
X143540551Y-59290643D01*
X143774733Y-58726670D01*
X143775265Y-58116009D01*
X143542068Y-57551629D01*
X143110643Y-57119449D01*
X142972291Y-57062000D01*
X152172560Y-57062000D01*
X152172560Y-58762000D01*
X152216838Y-58997317D01*
X152355910Y-59213441D01*
X152568110Y-59358431D01*
X152820000Y-59409440D01*
X154520000Y-59409440D01*
X154755317Y-59365162D01*
X154971441Y-59226090D01*
X155116431Y-59013890D01*
X155138301Y-58905893D01*
X155443076Y-59183645D01*
X155853110Y-59353476D01*
X156083000Y-59232155D01*
X156083000Y-58039000D01*
X156337000Y-58039000D01*
X156337000Y-59232155D01*
X156566890Y-59353476D01*
X156976924Y-59183645D01*
X157405183Y-58793358D01*
X157651486Y-58268892D01*
X157530819Y-58039000D01*
X156337000Y-58039000D01*
X156083000Y-58039000D01*
X156063000Y-58039000D01*
X156063000Y-57785000D01*
X156083000Y-57785000D01*
X156083000Y-56591845D01*
X156337000Y-56591845D01*
X156337000Y-57785000D01*
X157530819Y-57785000D01*
X157651486Y-57555108D01*
X157405183Y-57030642D01*
X156976924Y-56640355D01*
X156566890Y-56470524D01*
X156337000Y-56591845D01*
X156083000Y-56591845D01*
X155853110Y-56470524D01*
X155443076Y-56640355D01*
X155140063Y-56916501D01*
X155123162Y-56826683D01*
X154984090Y-56610559D01*
X154771890Y-56465569D01*
X154520000Y-56414560D01*
X152820000Y-56414560D01*
X152584683Y-56458838D01*
X152368559Y-56597910D01*
X152223569Y-56810110D01*
X152172560Y-57062000D01*
X142972291Y-57062000D01*
X142546670Y-56885267D01*
X141936009Y-56884735D01*
X141371629Y-57117932D01*
X141194159Y-57295092D01*
X141138327Y-57160301D01*
X140959698Y-56981673D01*
X140726309Y-56885000D01*
X139985750Y-56885000D01*
X139827000Y-57043750D01*
X139573000Y-57043750D01*
X139414250Y-56885000D01*
X138673691Y-56885000D01*
X138440302Y-56981673D01*
X138261673Y-57160301D01*
X138165000Y-57393690D01*
X129381680Y-57393690D01*
X129211183Y-57030642D01*
X128782924Y-56640355D01*
X128372890Y-56470524D01*
X128143000Y-56591845D01*
X127889000Y-56591845D01*
X127659110Y-56470524D01*
X127249076Y-56640355D01*
X126946063Y-56916501D01*
X126929162Y-56826683D01*
X126790090Y-56610559D01*
X126577890Y-56465569D01*
X126326000Y-56414560D01*
X124626000Y-56414560D01*
X124390683Y-56458838D01*
X124174559Y-56597910D01*
X124029569Y-56810110D01*
X123978560Y-57062000D01*
X113227290Y-57062000D01*
X115375072Y-55109472D01*
X166725788Y-55010530D01*
X173016540Y-60737932D01*
X173016540Y-60737932D01*
G37*
X173016540Y-60737932D02*
X177992545Y-118360065D01*
X178191512Y-120747667D01*
X178390000Y-124618189D01*
X178390000Y-146128748D01*
X176565944Y-149690000D01*
X174651022Y-149690000D01*
X175277800Y-149431020D01*
X175878909Y-148830959D01*
X176204628Y-148046541D01*
X176205370Y-147197185D01*
X175881020Y-146412200D01*
X175280959Y-145811091D01*
X174496541Y-145485372D01*
X173647185Y-145484630D01*
X172862200Y-145808980D01*
X172261091Y-146409041D01*
X171935372Y-147193459D01*
X171934630Y-148042815D01*
X172258980Y-148827800D01*
X172859041Y-149428909D01*
X173487818Y-149690000D01*
X171433248Y-149690000D01*
X169906105Y-146720555D01*
X169809817Y-142483868D01*
X169781433Y-142356383D01*
X169755954Y-142228295D01*
X169751394Y-142221471D01*
X169749611Y-142213461D01*
X169674606Y-142106549D01*
X169602046Y-141997954D01*
X166702046Y-139097954D01*
X166471705Y-138944046D01*
X166200000Y-138890000D01*
X116000000Y-138890000D01*
X115728295Y-138944046D01*
X115497954Y-139097954D01*
X112597954Y-141997954D01*
X112444046Y-142228295D01*
X112390000Y-142500000D01*
X112390000Y-145828918D01*
X110465725Y-149590000D01*
X108858838Y-149590000D01*
X109267800Y-149421020D01*
X109868909Y-148820959D01*
X110194628Y-148036541D01*
X110195370Y-147187185D01*
X109871020Y-146402200D01*
X109270959Y-145801091D01*
X108486541Y-145475372D01*
X107637185Y-145474630D01*
X106852200Y-145798980D01*
X106251091Y-146399041D01*
X105925372Y-147183459D01*
X105924630Y-148032815D01*
X106248980Y-148817800D01*
X106849041Y-149418909D01*
X107261074Y-149590000D01*
X105269712Y-149590000D01*
X103810000Y-146155384D01*
X103810000Y-137640000D01*
X104273948Y-137640000D01*
X104379375Y-138170017D01*
X104679605Y-138619343D01*
X105128931Y-138919573D01*
X105658948Y-139025000D01*
X106121052Y-139025000D01*
X106651069Y-138919573D01*
X107100395Y-138619343D01*
X107400625Y-138170017D01*
X107506052Y-137640000D01*
X111893948Y-137640000D01*
X111999375Y-138170017D01*
X112299605Y-138619343D01*
X112748931Y-138919573D01*
X113278948Y-139025000D01*
X113741052Y-139025000D01*
X114271069Y-138919573D01*
X114720395Y-138619343D01*
X115020625Y-138170017D01*
X115126052Y-137640000D01*
X115020625Y-137109983D01*
X114720395Y-136660657D01*
X114271069Y-136360427D01*
X113741052Y-136255000D01*
X113278948Y-136255000D01*
X112748931Y-136360427D01*
X112299605Y-136660657D01*
X111999375Y-137109983D01*
X111893948Y-137640000D01*
X107506052Y-137640000D01*
X107400625Y-137109983D01*
X107100395Y-136660657D01*
X106651069Y-136360427D01*
X106121052Y-136255000D01*
X105658948Y-136255000D01*
X105128931Y-136360427D01*
X104679605Y-136660657D01*
X104379375Y-137109983D01*
X104273948Y-137640000D01*
X103810000Y-137640000D01*
X103810000Y-132901185D01*
X104347682Y-132901185D01*
X104357064Y-132955084D01*
X104609720Y-133435102D01*
X105026838Y-133781894D01*
X105544917Y-133942664D01*
X105763000Y-133789587D01*
X105763000Y-132687000D01*
X106017000Y-132687000D01*
X106017000Y-133789587D01*
X106235083Y-133942664D01*
X106753162Y-133781894D01*
X107170280Y-133435102D01*
X107422936Y-132955084D01*
X107432318Y-132901185D01*
X111967682Y-132901185D01*
X111977064Y-132955084D01*
X112229720Y-133435102D01*
X112646838Y-133781894D01*
X113164917Y-133942664D01*
X113383000Y-133789587D01*
X113383000Y-132687000D01*
X113637000Y-132687000D01*
X113637000Y-133789587D01*
X113855083Y-133942664D01*
X114373162Y-133781894D01*
X114447607Y-133720000D01*
X136120560Y-133720000D01*
X136120560Y-135520000D01*
X136164838Y-135755317D01*
X136303910Y-135971441D01*
X136516110Y-136116431D01*
X136768000Y-136167440D01*
X138568000Y-136167440D01*
X138803317Y-136123162D01*
X139019441Y-135984090D01*
X139158598Y-135780426D01*
X139192890Y-135814718D01*
X139307447Y-135700161D01*
X139393852Y-135956643D01*
X139967336Y-136166458D01*
X140577460Y-136140839D01*
X141022148Y-135956643D01*
X141108554Y-135700159D01*
X140208000Y-134799605D01*
X140193858Y-134813748D01*
X140014253Y-134634143D01*
X140028395Y-134620000D01*
X140387605Y-134620000D01*
X141288159Y-135520554D01*
X141438327Y-135469965D01*
X141445932Y-135488371D01*
X141877357Y-135920551D01*
X142441330Y-136154733D01*
X143051991Y-136155265D01*
X143616371Y-135922068D01*
X144048551Y-135490643D01*
X144282733Y-134926670D01*
X144283265Y-134316009D01*
X144050068Y-133751629D01*
X143618643Y-133319449D01*
X143054670Y-133085267D01*
X142444009Y-133084735D01*
X141879629Y-133317932D01*
X141447449Y-133749357D01*
X141438797Y-133770194D01*
X141288159Y-133719446D01*
X140387605Y-134620000D01*
X140028395Y-134620000D01*
X140014253Y-134605858D01*
X140193858Y-134426253D01*
X140208000Y-134440395D01*
X141108554Y-133539841D01*
X141022148Y-133283357D01*
X140448664Y-133073542D01*
X139838540Y-133099161D01*
X139393852Y-133283357D01*
X139307447Y-133539839D01*
X139192890Y-133425282D01*
X139156412Y-133461760D01*
X139032090Y-133268559D01*
X138819890Y-133123569D01*
X138568000Y-133072560D01*
X136768000Y-133072560D01*
X136532683Y-133116838D01*
X136316559Y-133255910D01*
X136171569Y-133468110D01*
X136120560Y-133720000D01*
X114447607Y-133720000D01*
X114790280Y-133435102D01*
X115042936Y-132955084D01*
X115052318Y-132901185D01*
X114929656Y-132687000D01*
X113637000Y-132687000D01*
X113383000Y-132687000D01*
X112090344Y-132687000D01*
X111967682Y-132901185D01*
X107432318Y-132901185D01*
X107309656Y-132687000D01*
X106017000Y-132687000D01*
X105763000Y-132687000D01*
X104470344Y-132687000D01*
X104347682Y-132901185D01*
X103810000Y-132901185D01*
X103810000Y-132218815D01*
X104347682Y-132218815D01*
X104470344Y-132433000D01*
X105763000Y-132433000D01*
X105763000Y-131330413D01*
X106017000Y-131330413D01*
X106017000Y-132433000D01*
X107309656Y-132433000D01*
X107432318Y-132218815D01*
X111967682Y-132218815D01*
X112090344Y-132433000D01*
X113383000Y-132433000D01*
X113383000Y-131330413D01*
X113164917Y-131177336D01*
X112646838Y-131338106D01*
X112229720Y-131684898D01*
X111977064Y-132164916D01*
X111967682Y-132218815D01*
X107432318Y-132218815D01*
X107422936Y-132164916D01*
X107170280Y-131684898D01*
X106753162Y-131338106D01*
X106235083Y-131177336D01*
X106017000Y-131330413D01*
X105763000Y-131330413D01*
X105544917Y-131177336D01*
X105026838Y-131338106D01*
X104609720Y-131684898D01*
X104357064Y-132164916D01*
X104347682Y-132218815D01*
X103810000Y-132218815D01*
X103810000Y-125953255D01*
X103911400Y-125953255D01*
X103911400Y-126322745D01*
X104025474Y-126896234D01*
X104350330Y-127382415D01*
X104836511Y-127707271D01*
X105410000Y-127821345D01*
X105983489Y-127707271D01*
X106469670Y-127382415D01*
X106680000Y-127067634D01*
X106890330Y-127382415D01*
X107376511Y-127707271D01*
X107950000Y-127821345D01*
X108523489Y-127707271D01*
X109009670Y-127382415D01*
X109216461Y-127072931D01*
X109587964Y-127488732D01*
X110115209Y-127742709D01*
X110130974Y-127745358D01*
X110363000Y-127624217D01*
X110363000Y-126265000D01*
X110617000Y-126265000D01*
X110617000Y-127624217D01*
X110849026Y-127745358D01*
X110864791Y-127742709D01*
X111392036Y-127488732D01*
X111760000Y-127076892D01*
X112127964Y-127488732D01*
X112655209Y-127742709D01*
X112670974Y-127745358D01*
X112903000Y-127624217D01*
X112903000Y-126265000D01*
X110617000Y-126265000D01*
X110363000Y-126265000D01*
X110343000Y-126265000D01*
X110343000Y-126011000D01*
X110363000Y-126011000D01*
X110363000Y-124651783D01*
X110617000Y-124651783D01*
X110617000Y-126011000D01*
X112903000Y-126011000D01*
X112903000Y-124651783D01*
X112670974Y-124530642D01*
X112655209Y-124533291D01*
X112127964Y-124787268D01*
X111760000Y-125199108D01*
X111392036Y-124787268D01*
X110864791Y-124533291D01*
X110849026Y-124530642D01*
X110617000Y-124651783D01*
X110363000Y-124651783D01*
X110130974Y-124530642D01*
X110115209Y-124533291D01*
X109587964Y-124787268D01*
X109216461Y-125203069D01*
X109009670Y-124893585D01*
X108523489Y-124568729D01*
X107950000Y-124454655D01*
X107376511Y-124568729D01*
X106890330Y-124893585D01*
X106680000Y-125208366D01*
X106469670Y-124893585D01*
X105983489Y-124568729D01*
X105410000Y-124454655D01*
X104836511Y-124568729D01*
X104350330Y-124893585D01*
X104025474Y-125379766D01*
X103911400Y-125953255D01*
X103810000Y-125953255D01*
X103810000Y-124429898D01*
X104804288Y-112645740D01*
X104836511Y-112667271D01*
X105410000Y-112781345D01*
X105983489Y-112667271D01*
X106469670Y-112342415D01*
X106676461Y-112032931D01*
X107047964Y-112448732D01*
X107575209Y-112702709D01*
X107590974Y-112705358D01*
X107823000Y-112584217D01*
X107823000Y-111225000D01*
X107803000Y-111225000D01*
X107803000Y-110971000D01*
X107823000Y-110971000D01*
X107823000Y-109611783D01*
X108077000Y-109611783D01*
X108077000Y-110971000D01*
X108097000Y-110971000D01*
X108097000Y-111225000D01*
X108077000Y-111225000D01*
X108077000Y-112584217D01*
X108309026Y-112705358D01*
X108324791Y-112702709D01*
X108852036Y-112448732D01*
X109223539Y-112032931D01*
X109430330Y-112342415D01*
X109916511Y-112667271D01*
X110490000Y-112781345D01*
X111063489Y-112667271D01*
X111549670Y-112342415D01*
X111760000Y-112027634D01*
X111970330Y-112342415D01*
X112456511Y-112667271D01*
X113030000Y-112781345D01*
X113603489Y-112667271D01*
X114089670Y-112342415D01*
X114300000Y-112027634D01*
X114510330Y-112342415D01*
X114996511Y-112667271D01*
X115570000Y-112781345D01*
X116143489Y-112667271D01*
X116629670Y-112342415D01*
X116840000Y-112027634D01*
X117050330Y-112342415D01*
X117536511Y-112667271D01*
X118110000Y-112781345D01*
X118683489Y-112667271D01*
X119169670Y-112342415D01*
X119380000Y-112027634D01*
X119590330Y-112342415D01*
X120076511Y-112667271D01*
X120650000Y-112781345D01*
X121223489Y-112667271D01*
X121709670Y-112342415D01*
X121920000Y-112027634D01*
X122130330Y-112342415D01*
X122616511Y-112667271D01*
X123190000Y-112781345D01*
X123763489Y-112667271D01*
X124249670Y-112342415D01*
X124460000Y-112027634D01*
X124670330Y-112342415D01*
X125156511Y-112667271D01*
X125730000Y-112781345D01*
X126240000Y-112679900D01*
X126240000Y-123300000D01*
X126297852Y-123590839D01*
X126462599Y-123837401D01*
X127064878Y-124439680D01*
X127064838Y-124485167D01*
X127206883Y-124828943D01*
X127246972Y-124869102D01*
X127210330Y-124893585D01*
X127000000Y-125208366D01*
X126789670Y-124893585D01*
X126303489Y-124568729D01*
X125730000Y-124454655D01*
X125156511Y-124568729D01*
X124670330Y-124893585D01*
X124460000Y-125208366D01*
X124249670Y-124893585D01*
X123763489Y-124568729D01*
X123190000Y-124454655D01*
X122616511Y-124568729D01*
X122130330Y-124893585D01*
X121920000Y-125208366D01*
X121709670Y-124893585D01*
X121223489Y-124568729D01*
X120650000Y-124454655D01*
X120076511Y-124568729D01*
X119590330Y-124893585D01*
X119380000Y-125208366D01*
X119169670Y-124893585D01*
X118683489Y-124568729D01*
X118110000Y-124454655D01*
X117536511Y-124568729D01*
X117050330Y-124893585D01*
X116840000Y-125208366D01*
X116629670Y-124893585D01*
X116143489Y-124568729D01*
X115570000Y-124454655D01*
X115434930Y-124481522D01*
X115435162Y-124214833D01*
X115293117Y-123871057D01*
X115030327Y-123607808D01*
X114686799Y-123465162D01*
X114677302Y-123465154D01*
X114734943Y-123441337D01*
X115687990Y-122489952D01*
X116204411Y-121246272D01*
X116205586Y-119899636D01*
X115691337Y-118655057D01*
X114739952Y-117702010D01*
X113496272Y-117185589D01*
X112149636Y-117184414D01*
X110905057Y-117698663D01*
X109952010Y-118650048D01*
X109435589Y-119893728D01*
X109434414Y-121240364D01*
X109948663Y-122484943D01*
X110900048Y-123437990D01*
X112143728Y-123954411D01*
X113490364Y-123955586D01*
X113714530Y-123862963D01*
X113707808Y-123869673D01*
X113565162Y-124213201D01*
X113564934Y-124474648D01*
X113540286Y-124598560D01*
X113404791Y-124533291D01*
X113389026Y-124530642D01*
X113157000Y-124651783D01*
X113157000Y-126011000D01*
X113177000Y-126011000D01*
X113177000Y-126265000D01*
X113157000Y-126265000D01*
X113157000Y-127624217D01*
X113389026Y-127745358D01*
X113404791Y-127742709D01*
X113540000Y-127677578D01*
X113540000Y-129937537D01*
X113507808Y-129969673D01*
X113365162Y-130313201D01*
X113364838Y-130685167D01*
X113506883Y-131028943D01*
X113737446Y-131259908D01*
X113637000Y-131330413D01*
X113637000Y-132433000D01*
X114929656Y-132433000D01*
X115052318Y-132218815D01*
X115046066Y-132182892D01*
X119716514Y-132182892D01*
X119962817Y-132707358D01*
X120391076Y-133097645D01*
X120801110Y-133267476D01*
X121031000Y-133146155D01*
X121031000Y-131953000D01*
X119837181Y-131953000D01*
X119716514Y-132182892D01*
X115046066Y-132182892D01*
X115042936Y-132164916D01*
X114790280Y-131684898D01*
X114530730Y-131469108D01*
X119716514Y-131469108D01*
X119837181Y-131699000D01*
X121031000Y-131699000D01*
X121031000Y-130505845D01*
X121285000Y-130505845D01*
X121285000Y-131699000D01*
X121305000Y-131699000D01*
X121305000Y-131953000D01*
X121285000Y-131953000D01*
X121285000Y-133146155D01*
X121514890Y-133267476D01*
X121924924Y-133097645D01*
X122353183Y-132707358D01*
X122420298Y-132564447D01*
X122647946Y-132905147D01*
X123129715Y-133227054D01*
X123698000Y-133340093D01*
X124266285Y-133227054D01*
X124748054Y-132905147D01*
X124968000Y-132575974D01*
X125187946Y-132905147D01*
X125669715Y-133227054D01*
X126238000Y-133340093D01*
X126806285Y-133227054D01*
X127288054Y-132905147D01*
X127315850Y-132863548D01*
X127324838Y-132911317D01*
X127463910Y-133127441D01*
X127676110Y-133272431D01*
X127928000Y-133323440D01*
X129628000Y-133323440D01*
X129863317Y-133279162D01*
X130079441Y-133140090D01*
X130224431Y-132927890D01*
X130275440Y-132676000D01*
X130275440Y-131738000D01*
X149632560Y-131738000D01*
X149632560Y-133438000D01*
X149676838Y-133673317D01*
X149815910Y-133889441D01*
X150028110Y-134034431D01*
X150280000Y-134085440D01*
X151980000Y-134085440D01*
X152215317Y-134041162D01*
X152431441Y-133902090D01*
X152576431Y-133689890D01*
X152590086Y-133622459D01*
X152619946Y-133667147D01*
X153101715Y-133989054D01*
X153670000Y-134102093D01*
X154238285Y-133989054D01*
X154720054Y-133667147D01*
X154940000Y-133337974D01*
X155159946Y-133667147D01*
X155641715Y-133989054D01*
X156210000Y-134102093D01*
X156778285Y-133989054D01*
X157260054Y-133667147D01*
X157487702Y-133326447D01*
X157554817Y-133469358D01*
X157983076Y-133859645D01*
X158393110Y-134029476D01*
X158623000Y-133908155D01*
X158623000Y-132715000D01*
X158877000Y-132715000D01*
X158877000Y-133908155D01*
X159106890Y-134029476D01*
X159516924Y-133859645D01*
X159945183Y-133469358D01*
X160191486Y-132944892D01*
X160070819Y-132715000D01*
X158877000Y-132715000D01*
X158623000Y-132715000D01*
X158603000Y-132715000D01*
X158603000Y-132461000D01*
X158623000Y-132461000D01*
X158623000Y-131267845D01*
X158877000Y-131267845D01*
X158877000Y-132461000D01*
X160070819Y-132461000D01*
X160191486Y-132231108D01*
X159945183Y-131706642D01*
X159516924Y-131316355D01*
X159106890Y-131146524D01*
X158877000Y-131267845D01*
X158623000Y-131267845D01*
X158393110Y-131146524D01*
X157983076Y-131316355D01*
X157554817Y-131706642D01*
X157487702Y-131849553D01*
X157260054Y-131508853D01*
X156778285Y-131186946D01*
X156210000Y-131073907D01*
X155641715Y-131186946D01*
X155159946Y-131508853D01*
X154940000Y-131838026D01*
X154720054Y-131508853D01*
X154238285Y-131186946D01*
X153670000Y-131073907D01*
X153101715Y-131186946D01*
X152619946Y-131508853D01*
X152592150Y-131550452D01*
X152583162Y-131502683D01*
X152444090Y-131286559D01*
X152231890Y-131141569D01*
X151980000Y-131090560D01*
X151293112Y-131090560D01*
X151528943Y-130993117D01*
X151792192Y-130730327D01*
X151934838Y-130386799D01*
X151935162Y-130014833D01*
X151910000Y-129953936D01*
X151910000Y-127846615D01*
X151934838Y-127786799D01*
X151935162Y-127414833D01*
X151793117Y-127071057D01*
X151530327Y-126807808D01*
X151186799Y-126665162D01*
X150814833Y-126664838D01*
X150471057Y-126806883D01*
X150207808Y-127069673D01*
X150065162Y-127413201D01*
X150064838Y-127785167D01*
X150090000Y-127846064D01*
X150090000Y-129953385D01*
X150065162Y-130013201D01*
X150064838Y-130385167D01*
X150206883Y-130728943D01*
X150469673Y-130992192D01*
X150706568Y-131090560D01*
X150280000Y-131090560D01*
X150044683Y-131134838D01*
X149828559Y-131273910D01*
X149683569Y-131486110D01*
X149632560Y-131738000D01*
X130275440Y-131738000D01*
X130275440Y-130976000D01*
X130231162Y-130740683D01*
X130092090Y-130524559D01*
X129879890Y-130379569D01*
X129628000Y-130328560D01*
X127928000Y-130328560D01*
X127692683Y-130372838D01*
X127476559Y-130511910D01*
X127331569Y-130724110D01*
X127317914Y-130791541D01*
X127288054Y-130746853D01*
X126806285Y-130424946D01*
X126238000Y-130311907D01*
X125669715Y-130424946D01*
X125187946Y-130746853D01*
X124968000Y-131076026D01*
X124748054Y-130746853D01*
X124266285Y-130424946D01*
X123698000Y-130311907D01*
X123129715Y-130424946D01*
X122647946Y-130746853D01*
X122420298Y-131087553D01*
X122353183Y-130944642D01*
X121924924Y-130554355D01*
X121514890Y-130384524D01*
X121285000Y-130505845D01*
X121031000Y-130505845D01*
X120801110Y-130384524D01*
X120391076Y-130554355D01*
X119962817Y-130944642D01*
X119716514Y-131469108D01*
X114530730Y-131469108D01*
X114488329Y-131433856D01*
X114828943Y-131293117D01*
X115092192Y-131030327D01*
X115234838Y-130686799D01*
X115235162Y-130314833D01*
X115093117Y-129971057D01*
X115060000Y-129937882D01*
X115060000Y-127719900D01*
X115570000Y-127821345D01*
X116143489Y-127707271D01*
X116629670Y-127382415D01*
X116840000Y-127067634D01*
X117050330Y-127382415D01*
X117536511Y-127707271D01*
X118110000Y-127821345D01*
X118683489Y-127707271D01*
X119169670Y-127382415D01*
X119380000Y-127067634D01*
X119590330Y-127382415D01*
X120076511Y-127707271D01*
X120650000Y-127821345D01*
X121223489Y-127707271D01*
X121709670Y-127382415D01*
X121920000Y-127067634D01*
X122130330Y-127382415D01*
X122616511Y-127707271D01*
X123190000Y-127821345D01*
X123763489Y-127707271D01*
X124249670Y-127382415D01*
X124460000Y-127067634D01*
X124670330Y-127382415D01*
X125156511Y-127707271D01*
X125730000Y-127821345D01*
X126303489Y-127707271D01*
X126789670Y-127382415D01*
X127000000Y-127067634D01*
X127210330Y-127382415D01*
X127696511Y-127707271D01*
X128270000Y-127821345D01*
X128843489Y-127707271D01*
X129329670Y-127382415D01*
X129540000Y-127067634D01*
X129750330Y-127382415D01*
X130236511Y-127707271D01*
X130810000Y-127821345D01*
X131383489Y-127707271D01*
X131869670Y-127382415D01*
X132080000Y-127067634D01*
X132290330Y-127382415D01*
X132776511Y-127707271D01*
X133350000Y-127821345D01*
X133923489Y-127707271D01*
X134409670Y-127382415D01*
X134565130Y-127149753D01*
X134564838Y-127485167D01*
X134706883Y-127828943D01*
X134969673Y-128092192D01*
X135313201Y-128234838D01*
X135685167Y-128235162D01*
X136028943Y-128093117D01*
X136292192Y-127830327D01*
X136434838Y-127486799D01*
X136435162Y-127114833D01*
X136293117Y-126771057D01*
X136260000Y-126737882D01*
X136260000Y-123067028D01*
X136334838Y-122886799D01*
X136335162Y-122514833D01*
X136236847Y-122276890D01*
X146640524Y-122276890D01*
X146810355Y-122686924D01*
X147200642Y-123115183D01*
X147725108Y-123361486D01*
X147955000Y-123240819D01*
X147955000Y-122047000D01*
X148209000Y-122047000D01*
X148209000Y-123240819D01*
X148438892Y-123361486D01*
X148963358Y-123115183D01*
X149353645Y-122686924D01*
X149523476Y-122276890D01*
X149402155Y-122047000D01*
X148209000Y-122047000D01*
X147955000Y-122047000D01*
X146761845Y-122047000D01*
X146640524Y-122276890D01*
X136236847Y-122276890D01*
X136193117Y-122171057D01*
X135930327Y-121907808D01*
X135586799Y-121765162D01*
X135214833Y-121764838D01*
X134871057Y-121906883D01*
X134607808Y-122169673D01*
X134465162Y-122513201D01*
X134464838Y-122885167D01*
X134606883Y-123228943D01*
X134740000Y-123362293D01*
X134740000Y-125407286D01*
X134734526Y-125379766D01*
X134409670Y-124893585D01*
X133923489Y-124568729D01*
X133350000Y-124454655D01*
X132776511Y-124568729D01*
X132290330Y-124893585D01*
X132080000Y-125208366D01*
X131869670Y-124893585D01*
X131383489Y-124568729D01*
X130810000Y-124454655D01*
X130236511Y-124568729D01*
X129987191Y-124735320D01*
X129992192Y-124730327D01*
X130134838Y-124386799D01*
X130135162Y-124014833D01*
X129993117Y-123671057D01*
X129960000Y-123637882D01*
X129960000Y-114885167D01*
X132664838Y-114885167D01*
X132806883Y-115228943D01*
X133069673Y-115492192D01*
X133413201Y-115634838D01*
X133460077Y-115634879D01*
X134740000Y-116914802D01*
X134740000Y-117637537D01*
X134707808Y-117669673D01*
X134565162Y-118013201D01*
X134564838Y-118385167D01*
X134706883Y-118728943D01*
X134969673Y-118992192D01*
X135313201Y-119134838D01*
X135685167Y-119135162D01*
X136028943Y-118993117D01*
X136292192Y-118730327D01*
X136434838Y-118386799D01*
X136435162Y-118014833D01*
X136293117Y-117671057D01*
X136260000Y-117637882D01*
X136260000Y-116600000D01*
X136202148Y-116309161D01*
X136037401Y-116062599D01*
X134535122Y-114560320D01*
X134535162Y-114514833D01*
X134446396Y-114300000D01*
X146567907Y-114300000D01*
X146680946Y-114868285D01*
X147002853Y-115350054D01*
X147332026Y-115570000D01*
X147002853Y-115789946D01*
X146680946Y-116271715D01*
X146567907Y-116840000D01*
X146680946Y-117408285D01*
X147002853Y-117890054D01*
X147332026Y-118110000D01*
X147002853Y-118329946D01*
X146680946Y-118811715D01*
X146567907Y-119380000D01*
X146680946Y-119948285D01*
X147002853Y-120430054D01*
X147343553Y-120657702D01*
X147200642Y-120724817D01*
X146810355Y-121153076D01*
X146640524Y-121563110D01*
X146761845Y-121793000D01*
X147955000Y-121793000D01*
X147955000Y-121773000D01*
X148209000Y-121773000D01*
X148209000Y-121793000D01*
X149402155Y-121793000D01*
X149523476Y-121563110D01*
X149460889Y-121412000D01*
X155288655Y-121412000D01*
X155402729Y-121985489D01*
X155727585Y-122471670D01*
X156213766Y-122796526D01*
X156787255Y-122910600D01*
X157156745Y-122910600D01*
X157730234Y-122796526D01*
X158216415Y-122471670D01*
X158541271Y-121985489D01*
X158655345Y-121412000D01*
X158619216Y-121230364D01*
X165934414Y-121230364D01*
X166448663Y-122474943D01*
X167400048Y-123427990D01*
X168643728Y-123944411D01*
X169990364Y-123945586D01*
X171234943Y-123431337D01*
X172187990Y-122479952D01*
X172704411Y-121236272D01*
X172705586Y-119889636D01*
X172191337Y-118645057D01*
X171239952Y-117692010D01*
X169996272Y-117175589D01*
X168649636Y-117174414D01*
X167405057Y-117688663D01*
X166452010Y-118640048D01*
X165935589Y-119883728D01*
X165934414Y-121230364D01*
X158619216Y-121230364D01*
X158541271Y-120838511D01*
X158216415Y-120352330D01*
X157906931Y-120145539D01*
X158322732Y-119774036D01*
X158576709Y-119246791D01*
X158579358Y-119231026D01*
X158458217Y-118999000D01*
X157099000Y-118999000D01*
X157099000Y-119019000D01*
X156845000Y-119019000D01*
X156845000Y-118999000D01*
X155485783Y-118999000D01*
X155364642Y-119231026D01*
X155367291Y-119246791D01*
X155621268Y-119774036D01*
X156037069Y-120145539D01*
X155727585Y-120352330D01*
X155402729Y-120838511D01*
X155288655Y-121412000D01*
X149460889Y-121412000D01*
X149353645Y-121153076D01*
X148963358Y-120724817D01*
X148820447Y-120657702D01*
X149161147Y-120430054D01*
X149483054Y-119948285D01*
X149596093Y-119380000D01*
X149483054Y-118811715D01*
X149283443Y-118512974D01*
X155364642Y-118512974D01*
X155485783Y-118745000D01*
X156845000Y-118745000D01*
X156845000Y-117531076D01*
X157099000Y-117531076D01*
X157099000Y-118745000D01*
X158458217Y-118745000D01*
X158579358Y-118512974D01*
X158576709Y-118497209D01*
X158322732Y-117969964D01*
X157886320Y-117580046D01*
X157333913Y-117386816D01*
X157099000Y-117531076D01*
X156845000Y-117531076D01*
X156610087Y-117386816D01*
X156057680Y-117580046D01*
X155621268Y-117969964D01*
X155367291Y-118497209D01*
X155364642Y-118512974D01*
X149283443Y-118512974D01*
X149161147Y-118329946D01*
X148831974Y-118110000D01*
X149161147Y-117890054D01*
X149483054Y-117408285D01*
X149596093Y-116840000D01*
X149483054Y-116271715D01*
X149161147Y-115789946D01*
X148831974Y-115570000D01*
X149161147Y-115350054D01*
X149483054Y-114868285D01*
X149596093Y-114300000D01*
X149483054Y-113731715D01*
X149161147Y-113249946D01*
X149119548Y-113222150D01*
X149167317Y-113213162D01*
X149383441Y-113074090D01*
X149528431Y-112861890D01*
X149579440Y-112610000D01*
X149579440Y-111945167D01*
X150504838Y-111945167D01*
X150646883Y-112288943D01*
X150909673Y-112552192D01*
X151253201Y-112694838D01*
X151625167Y-112695162D01*
X151831275Y-112610000D01*
X154053385Y-112610000D01*
X154113201Y-112634838D01*
X154485167Y-112635162D01*
X154828943Y-112493117D01*
X155092192Y-112230327D01*
X155234838Y-111886799D01*
X155235162Y-111514833D01*
X155093117Y-111171057D01*
X154830327Y-110907808D01*
X154486799Y-110765162D01*
X154114833Y-110764838D01*
X154053936Y-110790000D01*
X151500000Y-110790000D01*
X151324553Y-110824899D01*
X151254833Y-110824838D01*
X151189828Y-110851697D01*
X151151758Y-110859270D01*
X151119766Y-110880646D01*
X150911057Y-110966883D01*
X150647808Y-111229673D01*
X150505162Y-111573201D01*
X150504838Y-111945167D01*
X149579440Y-111945167D01*
X149579440Y-110910000D01*
X149535162Y-110674683D01*
X149396090Y-110458559D01*
X149183890Y-110313569D01*
X148932000Y-110262560D01*
X147232000Y-110262560D01*
X146996683Y-110306838D01*
X146780559Y-110445910D01*
X146635569Y-110658110D01*
X146584560Y-110910000D01*
X146584560Y-112610000D01*
X146628838Y-112845317D01*
X146767910Y-113061441D01*
X146980110Y-113206431D01*
X147047541Y-113220086D01*
X147002853Y-113249946D01*
X146680946Y-113731715D01*
X146567907Y-114300000D01*
X134446396Y-114300000D01*
X134393117Y-114171057D01*
X134130327Y-113907808D01*
X133786799Y-113765162D01*
X133414833Y-113764838D01*
X133071057Y-113906883D01*
X132807808Y-114169673D01*
X132665162Y-114513201D01*
X132664838Y-114885167D01*
X129960000Y-114885167D01*
X129960000Y-113914802D01*
X130137401Y-113737401D01*
X130302148Y-113490840D01*
X130338286Y-113309161D01*
X130360000Y-113200000D01*
X130360000Y-112691834D01*
X130810000Y-112781345D01*
X131383489Y-112667271D01*
X131869670Y-112342415D01*
X132080000Y-112027634D01*
X132290330Y-112342415D01*
X132776511Y-112667271D01*
X133350000Y-112781345D01*
X133923489Y-112667271D01*
X134409670Y-112342415D01*
X134734526Y-111856234D01*
X134848600Y-111282745D01*
X134848600Y-110913255D01*
X134734526Y-110339766D01*
X134409670Y-109853585D01*
X133923489Y-109528729D01*
X133350000Y-109414655D01*
X132776511Y-109528729D01*
X132290330Y-109853585D01*
X132080000Y-110168366D01*
X131869670Y-109853585D01*
X131383489Y-109528729D01*
X130810000Y-109414655D01*
X130360000Y-109504166D01*
X130360000Y-108462463D01*
X130392192Y-108430327D01*
X130534838Y-108086799D01*
X130534839Y-108085167D01*
X134764838Y-108085167D01*
X134906883Y-108428943D01*
X134940000Y-108462118D01*
X134940000Y-109437537D01*
X134907808Y-109469673D01*
X134765162Y-109813201D01*
X134764838Y-110185167D01*
X134906883Y-110528943D01*
X135169673Y-110792192D01*
X135513201Y-110934838D01*
X135885167Y-110935162D01*
X136228943Y-110793117D01*
X136492192Y-110530327D01*
X136634838Y-110186799D01*
X136635162Y-109814833D01*
X136493117Y-109471057D01*
X136460000Y-109437882D01*
X136460000Y-108712000D01*
X173068655Y-108712000D01*
X173182729Y-109285489D01*
X173507585Y-109771670D01*
X173993766Y-110096526D01*
X174567255Y-110210600D01*
X174936745Y-110210600D01*
X175510234Y-110096526D01*
X175996415Y-109771670D01*
X176321271Y-109285489D01*
X176435345Y-108712000D01*
X176321271Y-108138511D01*
X175996415Y-107652330D01*
X175686931Y-107445539D01*
X176102732Y-107074036D01*
X176356709Y-106546791D01*
X176359358Y-106531026D01*
X176238217Y-106299000D01*
X174879000Y-106299000D01*
X174879000Y-106319000D01*
X174625000Y-106319000D01*
X174625000Y-106299000D01*
X173265783Y-106299000D01*
X173144642Y-106531026D01*
X173147291Y-106546791D01*
X173401268Y-107074036D01*
X173817069Y-107445539D01*
X173507585Y-107652330D01*
X173182729Y-108138511D01*
X173068655Y-108712000D01*
X136460000Y-108712000D01*
X136460000Y-108462463D01*
X136492192Y-108430327D01*
X136634838Y-108086799D01*
X136635162Y-107714833D01*
X136493117Y-107371057D01*
X136230327Y-107107808D01*
X135886799Y-106965162D01*
X135514833Y-106964838D01*
X135171057Y-107106883D01*
X134907808Y-107369673D01*
X134765162Y-107713201D01*
X134764838Y-108085167D01*
X130534839Y-108085167D01*
X130535162Y-107714833D01*
X130393117Y-107371057D01*
X130130327Y-107107808D01*
X129786799Y-106965162D01*
X129414833Y-106964838D01*
X129071057Y-107106883D01*
X128807808Y-107369673D01*
X128665162Y-107713201D01*
X128664838Y-108085167D01*
X128806883Y-108428943D01*
X128840000Y-108462118D01*
X128840000Y-109528035D01*
X128270000Y-109414655D01*
X127760000Y-109516100D01*
X127760000Y-108462463D01*
X127792192Y-108430327D01*
X127934838Y-108086799D01*
X127935162Y-107714833D01*
X127793117Y-107371057D01*
X127530327Y-107107808D01*
X127186799Y-106965162D01*
X126814833Y-106964838D01*
X126471057Y-107106883D01*
X126207808Y-107369673D01*
X126065162Y-107713201D01*
X126064838Y-108085167D01*
X126206883Y-108428943D01*
X126240000Y-108462118D01*
X126240000Y-109516100D01*
X125730000Y-109414655D01*
X125156511Y-109528729D01*
X124670330Y-109853585D01*
X124460000Y-110168366D01*
X124249670Y-109853585D01*
X123763489Y-109528729D01*
X123190000Y-109414655D01*
X122616511Y-109528729D01*
X122130330Y-109853585D01*
X121920000Y-110168366D01*
X121709670Y-109853585D01*
X121223489Y-109528729D01*
X120650000Y-109414655D01*
X120076511Y-109528729D01*
X119590330Y-109853585D01*
X119380000Y-110168366D01*
X119169670Y-109853585D01*
X118683489Y-109528729D01*
X118110000Y-109414655D01*
X117536511Y-109528729D01*
X117050330Y-109853585D01*
X116840000Y-110168366D01*
X116629670Y-109853585D01*
X116143489Y-109528729D01*
X115570000Y-109414655D01*
X114996511Y-109528729D01*
X114510330Y-109853585D01*
X114300000Y-110168366D01*
X114089670Y-109853585D01*
X113603489Y-109528729D01*
X113030000Y-109414655D01*
X112456511Y-109528729D01*
X111970330Y-109853585D01*
X111760000Y-110168366D01*
X111549670Y-109853585D01*
X111063489Y-109528729D01*
X110490000Y-109414655D01*
X109916511Y-109528729D01*
X109430330Y-109853585D01*
X109223539Y-110163069D01*
X108852036Y-109747268D01*
X108324791Y-109493291D01*
X108309026Y-109490642D01*
X108077000Y-109611783D01*
X107823000Y-109611783D01*
X107590974Y-109490642D01*
X107575209Y-109493291D01*
X107047964Y-109747268D01*
X106676461Y-110163069D01*
X106469670Y-109853585D01*
X105983489Y-109528729D01*
X105410000Y-109414655D01*
X105071225Y-109482041D01*
X105550816Y-103798000D01*
X105690560Y-103798000D01*
X105690560Y-105498000D01*
X105734838Y-105733317D01*
X105873910Y-105949441D01*
X106086110Y-106094431D01*
X106338000Y-106145440D01*
X108038000Y-106145440D01*
X108273317Y-106101162D01*
X108489441Y-105962090D01*
X108634431Y-105749890D01*
X108656301Y-105641893D01*
X108961076Y-105919645D01*
X109371110Y-106089476D01*
X109601000Y-105968155D01*
X109601000Y-104775000D01*
X109855000Y-104775000D01*
X109855000Y-105968155D01*
X110084890Y-106089476D01*
X110494924Y-105919645D01*
X110662540Y-105766890D01*
X149434524Y-105766890D01*
X149604355Y-106176924D01*
X149994642Y-106605183D01*
X150519108Y-106851486D01*
X150749000Y-106730819D01*
X150749000Y-105537000D01*
X151003000Y-105537000D01*
X151003000Y-106730819D01*
X151232892Y-106851486D01*
X151757358Y-106605183D01*
X152147645Y-106176924D01*
X152317476Y-105766890D01*
X152196155Y-105537000D01*
X151003000Y-105537000D01*
X150749000Y-105537000D01*
X149555845Y-105537000D01*
X149434524Y-105766890D01*
X110662540Y-105766890D01*
X110923183Y-105529358D01*
X111169486Y-105004892D01*
X111048819Y-104775000D01*
X109855000Y-104775000D01*
X109601000Y-104775000D01*
X109581000Y-104775000D01*
X109581000Y-104521000D01*
X109601000Y-104521000D01*
X109601000Y-103327845D01*
X109855000Y-103327845D01*
X109855000Y-104521000D01*
X111048819Y-104521000D01*
X111169486Y-104291108D01*
X110923183Y-103766642D01*
X110494924Y-103376355D01*
X110084890Y-103206524D01*
X109855000Y-103327845D01*
X109601000Y-103327845D01*
X109371110Y-103206524D01*
X108961076Y-103376355D01*
X108658063Y-103652501D01*
X108641162Y-103562683D01*
X108502090Y-103346559D01*
X108289890Y-103201569D01*
X108038000Y-103150560D01*
X106338000Y-103150560D01*
X106102683Y-103194838D01*
X105886559Y-103333910D01*
X105741569Y-103546110D01*
X105690560Y-103798000D01*
X105550816Y-103798000D01*
X105727590Y-101702892D01*
X122256514Y-101702892D01*
X122502817Y-102227358D01*
X122931076Y-102617645D01*
X123341110Y-102787476D01*
X123571000Y-102666155D01*
X123571000Y-101473000D01*
X122377181Y-101473000D01*
X122256514Y-101702892D01*
X105727590Y-101702892D01*
X105787815Y-100989108D01*
X122256514Y-100989108D01*
X122377181Y-101219000D01*
X123571000Y-101219000D01*
X123571000Y-100025845D01*
X123825000Y-100025845D01*
X123825000Y-101219000D01*
X123845000Y-101219000D01*
X123845000Y-101473000D01*
X123825000Y-101473000D01*
X123825000Y-102666155D01*
X124054890Y-102787476D01*
X124464924Y-102617645D01*
X124893183Y-102227358D01*
X124960298Y-102084447D01*
X125187946Y-102425147D01*
X125669715Y-102747054D01*
X126238000Y-102860093D01*
X126806285Y-102747054D01*
X127288054Y-102425147D01*
X127508000Y-102095974D01*
X127727946Y-102425147D01*
X128209715Y-102747054D01*
X128778000Y-102860093D01*
X129346285Y-102747054D01*
X129828054Y-102425147D01*
X129855850Y-102383548D01*
X129864838Y-102431317D01*
X130003910Y-102647441D01*
X130216110Y-102792431D01*
X130468000Y-102843440D01*
X132168000Y-102843440D01*
X132403317Y-102799162D01*
X132619441Y-102660090D01*
X132764431Y-102447890D01*
X132815440Y-102196000D01*
X132815440Y-102020000D01*
X149378560Y-102020000D01*
X149378560Y-103720000D01*
X149422838Y-103955317D01*
X149561910Y-104171441D01*
X149774110Y-104316431D01*
X149882107Y-104338301D01*
X149604355Y-104643076D01*
X149434524Y-105053110D01*
X149555845Y-105283000D01*
X150749000Y-105283000D01*
X150749000Y-105263000D01*
X151003000Y-105263000D01*
X151003000Y-105283000D01*
X152196155Y-105283000D01*
X152317476Y-105053110D01*
X152147645Y-104643076D01*
X151871499Y-104340063D01*
X151961317Y-104323162D01*
X152177441Y-104184090D01*
X152322431Y-103971890D01*
X152373440Y-103720000D01*
X152373440Y-103632000D01*
X173068655Y-103632000D01*
X173182729Y-104205489D01*
X173507585Y-104691670D01*
X173817069Y-104898461D01*
X173401268Y-105269964D01*
X173147291Y-105797209D01*
X173144642Y-105812974D01*
X173265783Y-106045000D01*
X174625000Y-106045000D01*
X174625000Y-106025000D01*
X174879000Y-106025000D01*
X174879000Y-106045000D01*
X176238217Y-106045000D01*
X176359358Y-105812974D01*
X176356709Y-105797209D01*
X176102732Y-105269964D01*
X175686931Y-104898461D01*
X175996415Y-104691670D01*
X176321271Y-104205489D01*
X176435345Y-103632000D01*
X176321271Y-103058511D01*
X175996415Y-102572330D01*
X175510234Y-102247474D01*
X174936745Y-102133400D01*
X174567255Y-102133400D01*
X173993766Y-102247474D01*
X173507585Y-102572330D01*
X173182729Y-103058511D01*
X173068655Y-103632000D01*
X152373440Y-103632000D01*
X152373440Y-102020000D01*
X152329162Y-101784683D01*
X152190090Y-101568559D01*
X151977890Y-101423569D01*
X151726000Y-101372560D01*
X150026000Y-101372560D01*
X149790683Y-101416838D01*
X149574559Y-101555910D01*
X149429569Y-101768110D01*
X149378560Y-102020000D01*
X132815440Y-102020000D01*
X132815440Y-100496000D01*
X132771162Y-100260683D01*
X132632090Y-100044559D01*
X132419890Y-99899569D01*
X132168000Y-99848560D01*
X130468000Y-99848560D01*
X130232683Y-99892838D01*
X130016559Y-100031910D01*
X129871569Y-100244110D01*
X129857914Y-100311541D01*
X129828054Y-100266853D01*
X129346285Y-99944946D01*
X128778000Y-99831907D01*
X128209715Y-99944946D01*
X127727946Y-100266853D01*
X127508000Y-100596026D01*
X127288054Y-100266853D01*
X126806285Y-99944946D01*
X126238000Y-99831907D01*
X125669715Y-99944946D01*
X125187946Y-100266853D01*
X124960298Y-100607553D01*
X124893183Y-100464642D01*
X124464924Y-100074355D01*
X124054890Y-99904524D01*
X123825000Y-100025845D01*
X123571000Y-100025845D01*
X123341110Y-99904524D01*
X122931076Y-100074355D01*
X122502817Y-100464642D01*
X122256514Y-100989108D01*
X105787815Y-100989108D01*
X109184030Y-60737692D01*
X109970394Y-60022815D01*
X114934630Y-60022815D01*
X115258980Y-60807800D01*
X115859041Y-61408909D01*
X116643459Y-61734628D01*
X117492815Y-61735370D01*
X118277800Y-61411020D01*
X118878909Y-60810959D01*
X119202022Y-60032815D01*
X162934630Y-60032815D01*
X163258980Y-60817800D01*
X163859041Y-61418909D01*
X164643459Y-61744628D01*
X165492815Y-61745370D01*
X166277800Y-61421020D01*
X166878909Y-60820959D01*
X167204628Y-60036541D01*
X167205370Y-59187185D01*
X166881020Y-58402200D01*
X166280959Y-57801091D01*
X165496541Y-57475372D01*
X164647185Y-57474630D01*
X163862200Y-57798980D01*
X163261091Y-58399041D01*
X162935372Y-59183459D01*
X162934630Y-60032815D01*
X119202022Y-60032815D01*
X119204628Y-60026541D01*
X119205370Y-59177185D01*
X118881020Y-58392200D01*
X118280959Y-57791091D01*
X117496541Y-57465372D01*
X116647185Y-57464630D01*
X115862200Y-57788980D01*
X115261091Y-58389041D01*
X114935372Y-59173459D01*
X114934630Y-60022815D01*
X109970394Y-60022815D01*
X113227290Y-57062000D01*
X123978560Y-57062000D01*
X123978560Y-58762000D01*
X124022838Y-58997317D01*
X124161910Y-59213441D01*
X124374110Y-59358431D01*
X124626000Y-59409440D01*
X126326000Y-59409440D01*
X126561317Y-59365162D01*
X126777441Y-59226090D01*
X126922431Y-59013890D01*
X126944301Y-58905893D01*
X127249076Y-59183645D01*
X127659110Y-59353476D01*
X127889000Y-59232155D01*
X127889000Y-58039000D01*
X128143000Y-58039000D01*
X128143000Y-59232155D01*
X128372890Y-59353476D01*
X128782924Y-59183645D01*
X129211183Y-58793358D01*
X129252326Y-58705750D01*
X138165000Y-58705750D01*
X138165000Y-59446310D01*
X138261673Y-59679699D01*
X138440302Y-59858327D01*
X138673691Y-59955000D01*
X139414250Y-59955000D01*
X139573000Y-59796250D01*
X139573000Y-58547000D01*
X138323750Y-58547000D01*
X138165000Y-58705750D01*
X129252326Y-58705750D01*
X129457486Y-58268892D01*
X129336819Y-58039000D01*
X128143000Y-58039000D01*
X127889000Y-58039000D01*
X127869000Y-58039000D01*
X127869000Y-57785000D01*
X127889000Y-57785000D01*
X127889000Y-56591845D01*
X128143000Y-56591845D01*
X128143000Y-57785000D01*
X129336819Y-57785000D01*
X129457486Y-57555108D01*
X129381680Y-57393690D01*
X138165000Y-57393690D01*
X138165000Y-58134250D01*
X138323750Y-58293000D01*
X139573000Y-58293000D01*
X139573000Y-57043750D01*
X139827000Y-57043750D01*
X139827000Y-58293000D01*
X139847000Y-58293000D01*
X139847000Y-58547000D01*
X139827000Y-58547000D01*
X139827000Y-59796250D01*
X139985750Y-59955000D01*
X140726309Y-59955000D01*
X140959698Y-59858327D01*
X141138327Y-59679699D01*
X141194119Y-59545006D01*
X141369357Y-59720551D01*
X141933330Y-59954733D01*
X142543991Y-59955265D01*
X143108371Y-59722068D01*
X143540551Y-59290643D01*
X143774733Y-58726670D01*
X143775265Y-58116009D01*
X143542068Y-57551629D01*
X143110643Y-57119449D01*
X142972291Y-57062000D01*
X152172560Y-57062000D01*
X152172560Y-58762000D01*
X152216838Y-58997317D01*
X152355910Y-59213441D01*
X152568110Y-59358431D01*
X152820000Y-59409440D01*
X154520000Y-59409440D01*
X154755317Y-59365162D01*
X154971441Y-59226090D01*
X155116431Y-59013890D01*
X155138301Y-58905893D01*
X155443076Y-59183645D01*
X155853110Y-59353476D01*
X156083000Y-59232155D01*
X156083000Y-58039000D01*
X156337000Y-58039000D01*
X156337000Y-59232155D01*
X156566890Y-59353476D01*
X156976924Y-59183645D01*
X157405183Y-58793358D01*
X157651486Y-58268892D01*
X157530819Y-58039000D01*
X156337000Y-58039000D01*
X156083000Y-58039000D01*
X156063000Y-58039000D01*
X156063000Y-57785000D01*
X156083000Y-57785000D01*
X156083000Y-56591845D01*
X156337000Y-56591845D01*
X156337000Y-57785000D01*
X157530819Y-57785000D01*
X157651486Y-57555108D01*
X157405183Y-57030642D01*
X156976924Y-56640355D01*
X156566890Y-56470524D01*
X156337000Y-56591845D01*
X156083000Y-56591845D01*
X155853110Y-56470524D01*
X155443076Y-56640355D01*
X155140063Y-56916501D01*
X155123162Y-56826683D01*
X154984090Y-56610559D01*
X154771890Y-56465569D01*
X154520000Y-56414560D01*
X152820000Y-56414560D01*
X152584683Y-56458838D01*
X152368559Y-56597910D01*
X152223569Y-56810110D01*
X152172560Y-57062000D01*
X142972291Y-57062000D01*
X142546670Y-56885267D01*
X141936009Y-56884735D01*
X141371629Y-57117932D01*
X141194159Y-57295092D01*
X141138327Y-57160301D01*
X140959698Y-56981673D01*
X140726309Y-56885000D01*
X139985750Y-56885000D01*
X139827000Y-57043750D01*
X139573000Y-57043750D01*
X139414250Y-56885000D01*
X138673691Y-56885000D01*
X138440302Y-56981673D01*
X138261673Y-57160301D01*
X138165000Y-57393690D01*
X129381680Y-57393690D01*
X129211183Y-57030642D01*
X128782924Y-56640355D01*
X128372890Y-56470524D01*
X128143000Y-56591845D01*
X127889000Y-56591845D01*
X127659110Y-56470524D01*
X127249076Y-56640355D01*
X126946063Y-56916501D01*
X126929162Y-56826683D01*
X126790090Y-56610559D01*
X126577890Y-56465569D01*
X126326000Y-56414560D01*
X124626000Y-56414560D01*
X124390683Y-56458838D01*
X124174559Y-56597910D01*
X124029569Y-56810110D01*
X123978560Y-57062000D01*
X113227290Y-57062000D01*
X115375072Y-55109472D01*
X166725788Y-55010530D01*
X173016540Y-60737932D01*
M02*
