G04 #@! TF.FileFunction,Soldermask,Top*
%FSLAX46Y46*%
G04 Gerber Fmt 4.6, Leading zero omitted, Abs format (unit mm)*
G04 Created by KiCad (PCBNEW 4.0.7-e2-6376~58~ubuntu14.04.1) date Tue Oct 30 11:41:08 2018*
%MOMM*%
%LPD*%
G01*
G04 APERTURE LIST*
%ADD10C,0.100000*%
%ADD11C,5.900000*%
%ADD12C,3.400000*%
%ADD13O,2.127200X2.432000*%
%ADD14O,2.432000X2.127200*%
%ADD15R,1.900000X1.700000*%
%ADD16R,2.200000X2.200000*%
%ADD17C,2.200000*%
%ADD18R,2.100000X2.100000*%
%ADD19O,2.100000X2.100000*%
%ADD20R,1.700000X1.900000*%
%ADD21O,2.300000X1.900000*%
G04 APERTURE END LIST*
D10*
D11*
X169320000Y-120560000D03*
D12*
X174070000Y-147620000D03*
X108060000Y-147610000D03*
X165070000Y-59610000D03*
D13*
X105410000Y-111098000D03*
X105410000Y-126138000D03*
X107950000Y-111098000D03*
X107950000Y-126138000D03*
X110490000Y-111098000D03*
X110490000Y-126138000D03*
X113030000Y-111098000D03*
X113030000Y-126138000D03*
X115570000Y-111098000D03*
X115570000Y-126138000D03*
X118110000Y-111098000D03*
X118110000Y-126138000D03*
X120650000Y-111098000D03*
X120650000Y-126138000D03*
X123190000Y-111098000D03*
X123190000Y-126138000D03*
X125730000Y-111098000D03*
X125730000Y-126138000D03*
X128270000Y-111098000D03*
X128270000Y-126138000D03*
X130810000Y-111098000D03*
X130810000Y-126138000D03*
X133350000Y-111098000D03*
X133350000Y-126138000D03*
D14*
X156972000Y-121412000D03*
X156972000Y-118872000D03*
X174752000Y-108712000D03*
X174752000Y-106172000D03*
X174752000Y-103632000D03*
D15*
X174070000Y-129540000D03*
X171370000Y-129540000D03*
X174070000Y-132080000D03*
X171370000Y-132080000D03*
X174070000Y-134620000D03*
X171370000Y-134620000D03*
D16*
X139700000Y-58420000D03*
D17*
X142240000Y-58420000D03*
D18*
X150876000Y-102870000D03*
D19*
X150876000Y-105410000D03*
D18*
X125476000Y-57912000D03*
D19*
X128016000Y-57912000D03*
D18*
X128778000Y-131826000D03*
D19*
X126238000Y-131826000D03*
X123698000Y-131826000D03*
X121158000Y-131826000D03*
D18*
X151130000Y-132588000D03*
D19*
X153670000Y-132588000D03*
X156210000Y-132588000D03*
X158750000Y-132588000D03*
D18*
X153670000Y-57912000D03*
D19*
X156210000Y-57912000D03*
D18*
X131318000Y-101346000D03*
D19*
X128778000Y-101346000D03*
X126238000Y-101346000D03*
X123698000Y-101346000D03*
D18*
X107188000Y-104648000D03*
D19*
X109728000Y-104648000D03*
D10*
G36*
X171458000Y-100172000D02*
X171458000Y-99472000D01*
X172458000Y-99172000D01*
X172458000Y-100472000D01*
X171458000Y-100172000D01*
X171458000Y-100172000D01*
G37*
G36*
X172474000Y-100472000D02*
X172474000Y-99172000D01*
X173474000Y-99472000D01*
X173474000Y-100172000D01*
X172474000Y-100472000D01*
X172474000Y-100472000D01*
G37*
D20*
X153670000Y-129112000D03*
X153670000Y-126412000D03*
X156210000Y-129112000D03*
X156210000Y-126412000D03*
D15*
X139874000Y-62992000D03*
X142574000Y-62992000D03*
X165528000Y-129540000D03*
X168228000Y-129540000D03*
X165528000Y-132080000D03*
X168228000Y-132080000D03*
X165528000Y-134620000D03*
X168228000Y-134620000D03*
D21*
X105890000Y-137640000D03*
X105890000Y-132560000D03*
X113510000Y-137640000D03*
X113510000Y-132560000D03*
D16*
X137668000Y-134620000D03*
D17*
X140208000Y-134620000D03*
X142748000Y-134620000D03*
D18*
X148082000Y-111760000D03*
D19*
X148082000Y-114300000D03*
X148082000Y-116840000D03*
X148082000Y-119380000D03*
X148082000Y-121920000D03*
D12*
X117070000Y-59600000D03*
D11*
X112820000Y-120570000D03*
M02*
