G04 #@! TF.FileFunction,Legend,Top*
%FSLAX46Y46*%
G04 Gerber Fmt 4.6, Leading zero omitted, Abs format (unit mm)*
G04 Created by KiCad (PCBNEW 4.0.7-e2-6376~58~ubuntu14.04.1) date Tue Oct 30 11:41:08 2018*
%MOMM*%
%LPD*%
G01*
G04 APERTURE LIST*
%ADD10C,0.100000*%
%ADD11C,0.200000*%
%ADD12C,0.300000*%
%ADD13C,0.150000*%
%ADD14C,0.010000*%
%ADD15C,0.120000*%
%ADD16C,0.254000*%
G04 APERTURE END LIST*
D10*
D11*
X150876000Y-109220000D02*
X150876000Y-112522000D01*
X139700000Y-109220000D02*
X150876000Y-109220000D01*
X139700000Y-110998000D02*
X139700000Y-109220000D01*
X139700000Y-124968000D02*
X139700000Y-119380000D01*
X144272000Y-124968000D02*
X139700000Y-124968000D01*
X150876000Y-124968000D02*
X150876000Y-122428000D01*
X148844000Y-124968000D02*
X150876000Y-124968000D01*
D12*
X141152857Y-114978571D02*
X141152857Y-113478571D01*
X141652857Y-114550000D01*
X142152857Y-113478571D01*
X142152857Y-114978571D01*
X142867143Y-114978571D02*
X142867143Y-113478571D01*
X143510000Y-114907143D02*
X143724286Y-114978571D01*
X144081429Y-114978571D01*
X144224286Y-114907143D01*
X144295715Y-114835714D01*
X144367143Y-114692857D01*
X144367143Y-114550000D01*
X144295715Y-114407143D01*
X144224286Y-114335714D01*
X144081429Y-114264286D01*
X143795715Y-114192857D01*
X143652857Y-114121429D01*
X143581429Y-114050000D01*
X143510000Y-113907143D01*
X143510000Y-113764286D01*
X143581429Y-113621429D01*
X143652857Y-113550000D01*
X143795715Y-113478571D01*
X144152857Y-113478571D01*
X144367143Y-113550000D01*
X145295714Y-113478571D02*
X145581428Y-113478571D01*
X145724286Y-113550000D01*
X145867143Y-113692857D01*
X145938571Y-113978571D01*
X145938571Y-114478571D01*
X145867143Y-114764286D01*
X145724286Y-114907143D01*
X145581428Y-114978571D01*
X145295714Y-114978571D01*
X145152857Y-114907143D01*
X145010000Y-114764286D01*
X144938571Y-114478571D01*
X144938571Y-113978571D01*
X145010000Y-113692857D01*
X145152857Y-113550000D01*
X145295714Y-113478571D01*
X142018000Y-110938571D02*
X142518000Y-112438571D01*
X143018000Y-110938571D01*
X144375143Y-112295714D02*
X144303714Y-112367143D01*
X144089428Y-112438571D01*
X143946571Y-112438571D01*
X143732286Y-112367143D01*
X143589428Y-112224286D01*
X143518000Y-112081429D01*
X143446571Y-111795714D01*
X143446571Y-111581429D01*
X143518000Y-111295714D01*
X143589428Y-111152857D01*
X143732286Y-111010000D01*
X143946571Y-110938571D01*
X144089428Y-110938571D01*
X144303714Y-111010000D01*
X144375143Y-111081429D01*
X145875143Y-112295714D02*
X145803714Y-112367143D01*
X145589428Y-112438571D01*
X145446571Y-112438571D01*
X145232286Y-112367143D01*
X145089428Y-112224286D01*
X145018000Y-112081429D01*
X144946571Y-111795714D01*
X144946571Y-111581429D01*
X145018000Y-111295714D01*
X145089428Y-111152857D01*
X145232286Y-111010000D01*
X145446571Y-110938571D01*
X145589428Y-110938571D01*
X145803714Y-111010000D01*
X145875143Y-111081429D01*
X142621143Y-121424000D02*
X142478286Y-121352571D01*
X142264000Y-121352571D01*
X142049715Y-121424000D01*
X141906857Y-121566857D01*
X141835429Y-121709714D01*
X141764000Y-121995429D01*
X141764000Y-122209714D01*
X141835429Y-122495429D01*
X141906857Y-122638286D01*
X142049715Y-122781143D01*
X142264000Y-122852571D01*
X142406857Y-122852571D01*
X142621143Y-122781143D01*
X142692572Y-122709714D01*
X142692572Y-122209714D01*
X142406857Y-122209714D01*
X143335429Y-122852571D02*
X143335429Y-121352571D01*
X144192572Y-122852571D01*
X144192572Y-121352571D01*
X144906858Y-122852571D02*
X144906858Y-121352571D01*
X145264001Y-121352571D01*
X145478286Y-121424000D01*
X145621144Y-121566857D01*
X145692572Y-121709714D01*
X145764001Y-121995429D01*
X145764001Y-122209714D01*
X145692572Y-122495429D01*
X145621144Y-122638286D01*
X145478286Y-122781143D01*
X145264001Y-122852571D01*
X144906858Y-122852571D01*
X141152857Y-117518571D02*
X141152857Y-116018571D01*
X141652857Y-117090000D01*
X142152857Y-116018571D01*
X142152857Y-117518571D01*
X143152857Y-116018571D02*
X143438571Y-116018571D01*
X143581429Y-116090000D01*
X143724286Y-116232857D01*
X143795714Y-116518571D01*
X143795714Y-117018571D01*
X143724286Y-117304286D01*
X143581429Y-117447143D01*
X143438571Y-117518571D01*
X143152857Y-117518571D01*
X143010000Y-117447143D01*
X142867143Y-117304286D01*
X142795714Y-117018571D01*
X142795714Y-116518571D01*
X142867143Y-116232857D01*
X143010000Y-116090000D01*
X143152857Y-116018571D01*
X144367143Y-117447143D02*
X144581429Y-117518571D01*
X144938572Y-117518571D01*
X145081429Y-117447143D01*
X145152858Y-117375714D01*
X145224286Y-117232857D01*
X145224286Y-117090000D01*
X145152858Y-116947143D01*
X145081429Y-116875714D01*
X144938572Y-116804286D01*
X144652858Y-116732857D01*
X144510000Y-116661429D01*
X144438572Y-116590000D01*
X144367143Y-116447143D01*
X144367143Y-116304286D01*
X144438572Y-116161429D01*
X144510000Y-116090000D01*
X144652858Y-116018571D01*
X145010000Y-116018571D01*
X145224286Y-116090000D01*
X145867143Y-117518571D02*
X145867143Y-116018571D01*
X142089429Y-120241143D02*
X142303715Y-120312571D01*
X142660858Y-120312571D01*
X142803715Y-120241143D01*
X142875144Y-120169714D01*
X142946572Y-120026857D01*
X142946572Y-119884000D01*
X142875144Y-119741143D01*
X142803715Y-119669714D01*
X142660858Y-119598286D01*
X142375144Y-119526857D01*
X142232286Y-119455429D01*
X142160858Y-119384000D01*
X142089429Y-119241143D01*
X142089429Y-119098286D01*
X142160858Y-118955429D01*
X142232286Y-118884000D01*
X142375144Y-118812571D01*
X142732286Y-118812571D01*
X142946572Y-118884000D01*
X144446572Y-120169714D02*
X144375143Y-120241143D01*
X144160857Y-120312571D01*
X144018000Y-120312571D01*
X143803715Y-120241143D01*
X143660857Y-120098286D01*
X143589429Y-119955429D01*
X143518000Y-119669714D01*
X143518000Y-119455429D01*
X143589429Y-119169714D01*
X143660857Y-119026857D01*
X143803715Y-118884000D01*
X144018000Y-118812571D01*
X144160857Y-118812571D01*
X144375143Y-118884000D01*
X144446572Y-118955429D01*
X145089429Y-120312571D02*
X145089429Y-118812571D01*
X145946572Y-120312571D02*
X145303715Y-119455429D01*
X145946572Y-118812571D02*
X145089429Y-119669714D01*
X144768286Y-125575143D02*
X144982572Y-125646571D01*
X145339715Y-125646571D01*
X145482572Y-125575143D01*
X145554001Y-125503714D01*
X145625429Y-125360857D01*
X145625429Y-125218000D01*
X145554001Y-125075143D01*
X145482572Y-125003714D01*
X145339715Y-124932286D01*
X145054001Y-124860857D01*
X144911143Y-124789429D01*
X144839715Y-124718000D01*
X144768286Y-124575143D01*
X144768286Y-124432286D01*
X144839715Y-124289429D01*
X144911143Y-124218000D01*
X145054001Y-124146571D01*
X145411143Y-124146571D01*
X145625429Y-124218000D01*
X146268286Y-125646571D02*
X146268286Y-124146571D01*
X146839714Y-124146571D01*
X146982572Y-124218000D01*
X147054000Y-124289429D01*
X147125429Y-124432286D01*
X147125429Y-124646571D01*
X147054000Y-124789429D01*
X146982572Y-124860857D01*
X146839714Y-124932286D01*
X146268286Y-124932286D01*
X147768286Y-125646571D02*
X147768286Y-124146571D01*
D11*
X129286000Y-62230000D02*
X130556000Y-62230000D01*
X122936000Y-62230000D02*
X124206000Y-62230000D01*
D12*
X125710286Y-63019714D02*
X125638857Y-63091143D01*
X125424571Y-63162571D01*
X125281714Y-63162571D01*
X125067429Y-63091143D01*
X124924571Y-62948286D01*
X124853143Y-62805429D01*
X124781714Y-62519714D01*
X124781714Y-62305429D01*
X124853143Y-62019714D01*
X124924571Y-61876857D01*
X125067429Y-61734000D01*
X125281714Y-61662571D01*
X125424571Y-61662571D01*
X125638857Y-61734000D01*
X125710286Y-61805429D01*
X126281714Y-62734000D02*
X126996000Y-62734000D01*
X126138857Y-63162571D02*
X126638857Y-61662571D01*
X127138857Y-63162571D01*
X127638857Y-63162571D02*
X127638857Y-61662571D01*
X128138857Y-62734000D01*
X128638857Y-61662571D01*
X128638857Y-63162571D01*
D11*
X151130000Y-61976000D02*
X151130000Y-59436000D01*
X158750000Y-61976000D02*
X158750000Y-58928000D01*
X122936000Y-62230000D02*
X122936000Y-59436000D01*
X152146000Y-61976000D02*
X151130000Y-61976000D01*
X130556000Y-62230000D02*
X130556000Y-58928000D01*
X157734000Y-61976000D02*
X158750000Y-61976000D01*
D12*
X152940000Y-62654571D02*
X152940000Y-61154571D01*
X153511428Y-61154571D01*
X153654286Y-61226000D01*
X153725714Y-61297429D01*
X153797143Y-61440286D01*
X153797143Y-61654571D01*
X153725714Y-61797429D01*
X153654286Y-61868857D01*
X153511428Y-61940286D01*
X152940000Y-61940286D01*
X154297143Y-61154571D02*
X154654286Y-62654571D01*
X154940000Y-61583143D01*
X155225714Y-62654571D01*
X155582857Y-61154571D01*
X157011429Y-62654571D02*
X156511429Y-61940286D01*
X156154286Y-62654571D02*
X156154286Y-61154571D01*
X156725714Y-61154571D01*
X156868572Y-61226000D01*
X156940000Y-61297429D01*
X157011429Y-61440286D01*
X157011429Y-61654571D01*
X156940000Y-61797429D01*
X156868572Y-61868857D01*
X156725714Y-61940286D01*
X156154286Y-61940286D01*
X155638572Y-60051143D02*
X156781429Y-60051143D01*
X127444572Y-60305143D02*
X128587429Y-60305143D01*
X153098572Y-60051143D02*
X154241429Y-60051143D01*
X153670000Y-60622571D02*
X153670000Y-59479714D01*
X124904572Y-60305143D02*
X126047429Y-60305143D01*
X125476000Y-60876571D02*
X125476000Y-59733714D01*
D11*
X118872000Y-137922000D02*
X118872000Y-129286000D01*
D12*
X128210571Y-137382000D02*
X129710571Y-136882000D01*
X128210571Y-136382000D01*
X129567714Y-135024857D02*
X129639143Y-135096286D01*
X129710571Y-135310572D01*
X129710571Y-135453429D01*
X129639143Y-135667714D01*
X129496286Y-135810572D01*
X129353429Y-135882000D01*
X129067714Y-135953429D01*
X128853429Y-135953429D01*
X128567714Y-135882000D01*
X128424857Y-135810572D01*
X128282000Y-135667714D01*
X128210571Y-135453429D01*
X128210571Y-135310572D01*
X128282000Y-135096286D01*
X128353429Y-135024857D01*
X129567714Y-133524857D02*
X129639143Y-133596286D01*
X129710571Y-133810572D01*
X129710571Y-133953429D01*
X129639143Y-134167714D01*
X129496286Y-134310572D01*
X129353429Y-134382000D01*
X129067714Y-134453429D01*
X128853429Y-134453429D01*
X128567714Y-134382000D01*
X128424857Y-134310572D01*
X128282000Y-134167714D01*
X128210571Y-133953429D01*
X128210571Y-133810572D01*
X128282000Y-133596286D01*
X128353429Y-133524857D01*
X120408000Y-136524857D02*
X120336571Y-136667714D01*
X120336571Y-136882000D01*
X120408000Y-137096285D01*
X120550857Y-137239143D01*
X120693714Y-137310571D01*
X120979429Y-137382000D01*
X121193714Y-137382000D01*
X121479429Y-137310571D01*
X121622286Y-137239143D01*
X121765143Y-137096285D01*
X121836571Y-136882000D01*
X121836571Y-136739143D01*
X121765143Y-136524857D01*
X121693714Y-136453428D01*
X121193714Y-136453428D01*
X121193714Y-136739143D01*
X121836571Y-135810571D02*
X120336571Y-135810571D01*
X121836571Y-134953428D01*
X120336571Y-134953428D01*
X121836571Y-134239142D02*
X120336571Y-134239142D01*
X120336571Y-133881999D01*
X120408000Y-133667714D01*
X120550857Y-133524856D01*
X120693714Y-133453428D01*
X120979429Y-133381999D01*
X121193714Y-133381999D01*
X121479429Y-133453428D01*
X121622286Y-133524856D01*
X121765143Y-133667714D01*
X121836571Y-133881999D01*
X121836571Y-134239142D01*
X122876571Y-135762857D02*
X122876571Y-134905714D01*
X124376571Y-135334285D02*
X122876571Y-135334285D01*
X122876571Y-134548571D02*
X124376571Y-133548571D01*
X122876571Y-133548571D02*
X124376571Y-134548571D01*
X127170571Y-135123999D02*
X126456286Y-135623999D01*
X127170571Y-135981142D02*
X125670571Y-135981142D01*
X125670571Y-135409714D01*
X125742000Y-135266856D01*
X125813429Y-135195428D01*
X125956286Y-135123999D01*
X126170571Y-135123999D01*
X126313429Y-135195428D01*
X126384857Y-135266856D01*
X126456286Y-135409714D01*
X126456286Y-135981142D01*
X125670571Y-134623999D02*
X127170571Y-133623999D01*
X125670571Y-133623999D02*
X127170571Y-134623999D01*
X132687143Y-137068286D02*
X132758571Y-136854000D01*
X132758571Y-136496857D01*
X132687143Y-136354000D01*
X132615714Y-136282571D01*
X132472857Y-136211143D01*
X132330000Y-136211143D01*
X132187143Y-136282571D01*
X132115714Y-136354000D01*
X132044286Y-136496857D01*
X131972857Y-136782571D01*
X131901429Y-136925429D01*
X131830000Y-136996857D01*
X131687143Y-137068286D01*
X131544286Y-137068286D01*
X131401429Y-136996857D01*
X131330000Y-136925429D01*
X131258571Y-136782571D01*
X131258571Y-136425429D01*
X131330000Y-136211143D01*
X131972857Y-135568286D02*
X131972857Y-135068286D01*
X132758571Y-134854000D02*
X132758571Y-135568286D01*
X131258571Y-135568286D01*
X131258571Y-134854000D01*
X132758571Y-133354000D02*
X132044286Y-133854000D01*
X132758571Y-134211143D02*
X131258571Y-134211143D01*
X131258571Y-133639715D01*
X131330000Y-133496857D01*
X131401429Y-133425429D01*
X131544286Y-133354000D01*
X131758571Y-133354000D01*
X131901429Y-133425429D01*
X131972857Y-133496857D01*
X132044286Y-133639715D01*
X132044286Y-134211143D01*
X132758571Y-132711143D02*
X131258571Y-132711143D01*
X132330000Y-132068286D02*
X132330000Y-131354000D01*
X132758571Y-132211143D02*
X131258571Y-131711143D01*
X132758571Y-131211143D01*
X132758571Y-129996857D02*
X132758571Y-130711143D01*
X131258571Y-130711143D01*
D11*
X120650000Y-129286000D02*
X118872000Y-129286000D01*
X118872000Y-137922000D02*
X120650000Y-137922000D01*
X130556000Y-137922000D02*
X132080000Y-137922000D01*
X132080000Y-137922000D02*
X132080000Y-137414000D01*
X132080000Y-129794000D02*
X132080000Y-129286000D01*
X132080000Y-129286000D02*
X130556000Y-129286000D01*
X120904000Y-107950000D02*
X120904000Y-106680000D01*
X120904000Y-99314000D02*
X120904000Y-100838000D01*
D12*
X121511143Y-106060571D02*
X121582571Y-105846285D01*
X121582571Y-105489142D01*
X121511143Y-105346285D01*
X121439714Y-105274856D01*
X121296857Y-105203428D01*
X121154000Y-105203428D01*
X121011143Y-105274856D01*
X120939714Y-105346285D01*
X120868286Y-105489142D01*
X120796857Y-105774856D01*
X120725429Y-105917714D01*
X120654000Y-105989142D01*
X120511143Y-106060571D01*
X120368286Y-106060571D01*
X120225429Y-105989142D01*
X120154000Y-105917714D01*
X120082571Y-105774856D01*
X120082571Y-105417714D01*
X120154000Y-105203428D01*
X120082571Y-104274857D02*
X120082571Y-103989143D01*
X120154000Y-103846285D01*
X120296857Y-103703428D01*
X120582571Y-103632000D01*
X121082571Y-103632000D01*
X121368286Y-103703428D01*
X121511143Y-103846285D01*
X121582571Y-103989143D01*
X121582571Y-104274857D01*
X121511143Y-104417714D01*
X121368286Y-104560571D01*
X121082571Y-104632000D01*
X120582571Y-104632000D01*
X120296857Y-104560571D01*
X120154000Y-104417714D01*
X120082571Y-104274857D01*
X120796857Y-102489142D02*
X120796857Y-102989142D01*
X121582571Y-102989142D02*
X120082571Y-102989142D01*
X120082571Y-102274856D01*
X120082571Y-101917714D02*
X120082571Y-101060571D01*
X121582571Y-101489142D02*
X120082571Y-101489142D01*
D11*
X134112000Y-99314000D02*
X132588000Y-99314000D01*
X134112000Y-99822000D02*
X134112000Y-99314000D01*
X134112000Y-107950000D02*
X134112000Y-107442000D01*
X132588000Y-107950000D02*
X134112000Y-107950000D01*
X120904000Y-107950000D02*
X122682000Y-107950000D01*
X122682000Y-99314000D02*
X120904000Y-99314000D01*
D12*
X134719143Y-107096286D02*
X134790571Y-106882000D01*
X134790571Y-106524857D01*
X134719143Y-106382000D01*
X134647714Y-106310571D01*
X134504857Y-106239143D01*
X134362000Y-106239143D01*
X134219143Y-106310571D01*
X134147714Y-106382000D01*
X134076286Y-106524857D01*
X134004857Y-106810571D01*
X133933429Y-106953429D01*
X133862000Y-107024857D01*
X133719143Y-107096286D01*
X133576286Y-107096286D01*
X133433429Y-107024857D01*
X133362000Y-106953429D01*
X133290571Y-106810571D01*
X133290571Y-106453429D01*
X133362000Y-106239143D01*
X134004857Y-105596286D02*
X134004857Y-105096286D01*
X134790571Y-104882000D02*
X134790571Y-105596286D01*
X133290571Y-105596286D01*
X133290571Y-104882000D01*
X134790571Y-103382000D02*
X134076286Y-103882000D01*
X134790571Y-104239143D02*
X133290571Y-104239143D01*
X133290571Y-103667715D01*
X133362000Y-103524857D01*
X133433429Y-103453429D01*
X133576286Y-103382000D01*
X133790571Y-103382000D01*
X133933429Y-103453429D01*
X134004857Y-103524857D01*
X134076286Y-103667715D01*
X134076286Y-104239143D01*
X134790571Y-102739143D02*
X133290571Y-102739143D01*
X134362000Y-102096286D02*
X134362000Y-101382000D01*
X134790571Y-102239143D02*
X133290571Y-101739143D01*
X134790571Y-101239143D01*
X134790571Y-100024857D02*
X134790571Y-100739143D01*
X133290571Y-100739143D01*
X129202571Y-105151999D02*
X128488286Y-105651999D01*
X129202571Y-106009142D02*
X127702571Y-106009142D01*
X127702571Y-105437714D01*
X127774000Y-105294856D01*
X127845429Y-105223428D01*
X127988286Y-105151999D01*
X128202571Y-105151999D01*
X128345429Y-105223428D01*
X128416857Y-105294856D01*
X128488286Y-105437714D01*
X128488286Y-106009142D01*
X127702571Y-104651999D02*
X129202571Y-103651999D01*
X127702571Y-103651999D02*
X129202571Y-104651999D01*
X124908571Y-105790857D02*
X124908571Y-104933714D01*
X126408571Y-105362285D02*
X124908571Y-105362285D01*
X124908571Y-104576571D02*
X126408571Y-103576571D01*
X124908571Y-103576571D02*
X126408571Y-104576571D01*
X122440000Y-106552857D02*
X122368571Y-106695714D01*
X122368571Y-106910000D01*
X122440000Y-107124285D01*
X122582857Y-107267143D01*
X122725714Y-107338571D01*
X123011429Y-107410000D01*
X123225714Y-107410000D01*
X123511429Y-107338571D01*
X123654286Y-107267143D01*
X123797143Y-107124285D01*
X123868571Y-106910000D01*
X123868571Y-106767143D01*
X123797143Y-106552857D01*
X123725714Y-106481428D01*
X123225714Y-106481428D01*
X123225714Y-106767143D01*
X123868571Y-105838571D02*
X122368571Y-105838571D01*
X123868571Y-104981428D01*
X122368571Y-104981428D01*
X123868571Y-104267142D02*
X122368571Y-104267142D01*
X122368571Y-103909999D01*
X122440000Y-103695714D01*
X122582857Y-103552856D01*
X122725714Y-103481428D01*
X123011429Y-103409999D01*
X123225714Y-103409999D01*
X123511429Y-103481428D01*
X123654286Y-103552856D01*
X123797143Y-103695714D01*
X123868571Y-103909999D01*
X123868571Y-104267142D01*
X130242571Y-107410000D02*
X131742571Y-106910000D01*
X130242571Y-106410000D01*
X131599714Y-105052857D02*
X131671143Y-105124286D01*
X131742571Y-105338572D01*
X131742571Y-105481429D01*
X131671143Y-105695714D01*
X131528286Y-105838572D01*
X131385429Y-105910000D01*
X131099714Y-105981429D01*
X130885429Y-105981429D01*
X130599714Y-105910000D01*
X130456857Y-105838572D01*
X130314000Y-105695714D01*
X130242571Y-105481429D01*
X130242571Y-105338572D01*
X130314000Y-105124286D01*
X130385429Y-105052857D01*
X131599714Y-103552857D02*
X131671143Y-103624286D01*
X131742571Y-103838572D01*
X131742571Y-103981429D01*
X131671143Y-104195714D01*
X131528286Y-104338572D01*
X131385429Y-104410000D01*
X131099714Y-104481429D01*
X130885429Y-104481429D01*
X130599714Y-104410000D01*
X130456857Y-104338572D01*
X130314000Y-104195714D01*
X130242571Y-103981429D01*
X130242571Y-103838572D01*
X130314000Y-103624286D01*
X130385429Y-103552857D01*
D11*
X147828000Y-130556000D02*
X147828000Y-132842000D01*
X154686000Y-107696000D02*
X154686000Y-106172000D01*
X151130000Y-107696000D02*
X154686000Y-107696000D01*
X143510000Y-101092000D02*
X143764000Y-101092000D01*
X140462000Y-101092000D02*
X143510000Y-101092000D01*
X140462000Y-103632000D02*
X140462000Y-101092000D01*
D12*
X142090000Y-102757857D02*
X142304286Y-102829286D01*
X142375714Y-102900714D01*
X142447143Y-103043571D01*
X142447143Y-103257857D01*
X142375714Y-103400714D01*
X142304286Y-103472143D01*
X142161428Y-103543571D01*
X141590000Y-103543571D01*
X141590000Y-102043571D01*
X142090000Y-102043571D01*
X142232857Y-102115000D01*
X142304286Y-102186429D01*
X142375714Y-102329286D01*
X142375714Y-102472143D01*
X142304286Y-102615000D01*
X142232857Y-102686429D01*
X142090000Y-102757857D01*
X141590000Y-102757857D01*
X143018571Y-103115000D02*
X143732857Y-103115000D01*
X142875714Y-103543571D02*
X143375714Y-102043571D01*
X143875714Y-103543571D01*
X144161428Y-102043571D02*
X145018571Y-102043571D01*
X144590000Y-103543571D02*
X144590000Y-102043571D01*
X146661428Y-103543571D02*
X146661428Y-102043571D01*
X147375714Y-103543571D02*
X147375714Y-102043571D01*
X148232857Y-103543571D01*
X148232857Y-102043571D01*
X141304287Y-104736429D02*
X141375716Y-104665000D01*
X141518573Y-104593571D01*
X141875716Y-104593571D01*
X142018573Y-104665000D01*
X142090002Y-104736429D01*
X142161430Y-104879286D01*
X142161430Y-105022143D01*
X142090002Y-105236429D01*
X141232859Y-106093571D01*
X142161430Y-106093571D01*
X142732858Y-106022143D02*
X142947144Y-106093571D01*
X143304287Y-106093571D01*
X143447144Y-106022143D01*
X143518573Y-105950714D01*
X143590001Y-105807857D01*
X143590001Y-105665000D01*
X143518573Y-105522143D01*
X143447144Y-105450714D01*
X143304287Y-105379286D01*
X143018573Y-105307857D01*
X142875715Y-105236429D01*
X142804287Y-105165000D01*
X142732858Y-105022143D01*
X142732858Y-104879286D01*
X142804287Y-104736429D01*
X142875715Y-104665000D01*
X143018573Y-104593571D01*
X143375715Y-104593571D01*
X143590001Y-104665000D01*
X144232858Y-105522143D02*
X145375715Y-105522143D01*
X145947144Y-104593571D02*
X146875715Y-104593571D01*
X146375715Y-105165000D01*
X146590001Y-105165000D01*
X146732858Y-105236429D01*
X146804287Y-105307857D01*
X146875715Y-105450714D01*
X146875715Y-105807857D01*
X146804287Y-105950714D01*
X146732858Y-106022143D01*
X146590001Y-106093571D01*
X146161429Y-106093571D01*
X146018572Y-106022143D01*
X145947144Y-105950714D01*
X147447143Y-106022143D02*
X147661429Y-106093571D01*
X148018572Y-106093571D01*
X148161429Y-106022143D01*
X148232858Y-105950714D01*
X148304286Y-105807857D01*
X148304286Y-105665000D01*
X148232858Y-105522143D01*
X148161429Y-105450714D01*
X148018572Y-105379286D01*
X147732858Y-105307857D01*
X147590000Y-105236429D01*
X147518572Y-105165000D01*
X147447143Y-105022143D01*
X147447143Y-104879286D01*
X147518572Y-104736429D01*
X147590000Y-104665000D01*
X147732858Y-104593571D01*
X148090000Y-104593571D01*
X148304286Y-104665000D01*
X152844572Y-105517143D02*
X153987429Y-105517143D01*
X152844572Y-102723143D02*
X153987429Y-102723143D01*
X153416000Y-103294571D02*
X153416000Y-102151714D01*
D11*
X161036000Y-130556000D02*
X161036000Y-138684000D01*
X161036000Y-130556000D02*
X159766000Y-130556000D01*
D12*
X158000000Y-137286857D02*
X157928571Y-137429714D01*
X157928571Y-137644000D01*
X158000000Y-137858285D01*
X158142857Y-138001143D01*
X158285714Y-138072571D01*
X158571429Y-138144000D01*
X158785714Y-138144000D01*
X159071429Y-138072571D01*
X159214286Y-138001143D01*
X159357143Y-137858285D01*
X159428571Y-137644000D01*
X159428571Y-137501143D01*
X159357143Y-137286857D01*
X159285714Y-137215428D01*
X158785714Y-137215428D01*
X158785714Y-137501143D01*
X159428571Y-136572571D02*
X157928571Y-136572571D01*
X159428571Y-135715428D01*
X157928571Y-135715428D01*
X159428571Y-135001142D02*
X157928571Y-135001142D01*
X157928571Y-134643999D01*
X158000000Y-134429714D01*
X158142857Y-134286856D01*
X158285714Y-134215428D01*
X158571429Y-134143999D01*
X158785714Y-134143999D01*
X159071429Y-134215428D01*
X159214286Y-134286856D01*
X159357143Y-134429714D01*
X159428571Y-134643999D01*
X159428571Y-135001142D01*
D11*
X161036000Y-138684000D02*
X159766000Y-138684000D01*
X147828000Y-130556000D02*
X149606000Y-130556000D01*
X147828000Y-138684000D02*
X149606000Y-138684000D01*
X147828000Y-136906000D02*
X147828000Y-138684000D01*
D12*
X156817143Y-137929714D02*
X156888571Y-137715428D01*
X156888571Y-137358285D01*
X156817143Y-137215428D01*
X156745714Y-137143999D01*
X156602857Y-137072571D01*
X156460000Y-137072571D01*
X156317143Y-137143999D01*
X156245714Y-137215428D01*
X156174286Y-137358285D01*
X156102857Y-137643999D01*
X156031429Y-137786857D01*
X155960000Y-137858285D01*
X155817143Y-137929714D01*
X155674286Y-137929714D01*
X155531429Y-137858285D01*
X155460000Y-137786857D01*
X155388571Y-137643999D01*
X155388571Y-137286857D01*
X155460000Y-137072571D01*
X156745714Y-135572571D02*
X156817143Y-135644000D01*
X156888571Y-135858286D01*
X156888571Y-136001143D01*
X156817143Y-136215428D01*
X156674286Y-136358286D01*
X156531429Y-136429714D01*
X156245714Y-136501143D01*
X156031429Y-136501143D01*
X155745714Y-136429714D01*
X155602857Y-136358286D01*
X155460000Y-136215428D01*
X155388571Y-136001143D01*
X155388571Y-135858286D01*
X155460000Y-135644000D01*
X155531429Y-135572571D01*
X156888571Y-134215428D02*
X156888571Y-134929714D01*
X155388571Y-134929714D01*
X154277143Y-137965428D02*
X154348571Y-137751142D01*
X154348571Y-137393999D01*
X154277143Y-137251142D01*
X154205714Y-137179713D01*
X154062857Y-137108285D01*
X153920000Y-137108285D01*
X153777143Y-137179713D01*
X153705714Y-137251142D01*
X153634286Y-137393999D01*
X153562857Y-137679713D01*
X153491429Y-137822571D01*
X153420000Y-137893999D01*
X153277143Y-137965428D01*
X153134286Y-137965428D01*
X152991429Y-137893999D01*
X152920000Y-137822571D01*
X152848571Y-137679713D01*
X152848571Y-137322571D01*
X152920000Y-137108285D01*
X154348571Y-136465428D02*
X152848571Y-136465428D01*
X152848571Y-136108285D01*
X152920000Y-135894000D01*
X153062857Y-135751142D01*
X153205714Y-135679714D01*
X153491429Y-135608285D01*
X153705714Y-135608285D01*
X153991429Y-135679714D01*
X154134286Y-135751142D01*
X154277143Y-135894000D01*
X154348571Y-136108285D01*
X154348571Y-136465428D01*
X153920000Y-135036857D02*
X153920000Y-134322571D01*
X154348571Y-135179714D02*
X152848571Y-134679714D01*
X154348571Y-134179714D01*
X150308571Y-138144000D02*
X151808571Y-137644000D01*
X150308571Y-137144000D01*
X151665714Y-135786857D02*
X151737143Y-135858286D01*
X151808571Y-136072572D01*
X151808571Y-136215429D01*
X151737143Y-136429714D01*
X151594286Y-136572572D01*
X151451429Y-136644000D01*
X151165714Y-136715429D01*
X150951429Y-136715429D01*
X150665714Y-136644000D01*
X150522857Y-136572572D01*
X150380000Y-136429714D01*
X150308571Y-136215429D01*
X150308571Y-136072572D01*
X150380000Y-135858286D01*
X150451429Y-135786857D01*
X151665714Y-134286857D02*
X151737143Y-134358286D01*
X151808571Y-134572572D01*
X151808571Y-134715429D01*
X151737143Y-134929714D01*
X151594286Y-135072572D01*
X151451429Y-135144000D01*
X151165714Y-135215429D01*
X150951429Y-135215429D01*
X150665714Y-135144000D01*
X150522857Y-135072572D01*
X150380000Y-134929714D01*
X150308571Y-134715429D01*
X150308571Y-134572572D01*
X150380000Y-134358286D01*
X150451429Y-134286857D01*
X148506571Y-136338285D02*
X147006571Y-136338285D01*
X147149429Y-135695428D02*
X147078000Y-135623999D01*
X147006571Y-135481142D01*
X147006571Y-135123999D01*
X147078000Y-134981142D01*
X147149429Y-134909713D01*
X147292286Y-134838285D01*
X147435143Y-134838285D01*
X147649429Y-134909713D01*
X148506571Y-135766856D01*
X148506571Y-134838285D01*
X148363714Y-133338285D02*
X148435143Y-133409714D01*
X148506571Y-133624000D01*
X148506571Y-133766857D01*
X148435143Y-133981142D01*
X148292286Y-134124000D01*
X148149429Y-134195428D01*
X147863714Y-134266857D01*
X147649429Y-134266857D01*
X147363714Y-134195428D01*
X147220857Y-134124000D01*
X147078000Y-133981142D01*
X147006571Y-133766857D01*
X147006571Y-133624000D01*
X147078000Y-133409714D01*
X147149429Y-133338285D01*
D11*
X170942000Y-97028000D02*
X111760000Y-97028000D01*
X170942000Y-64516000D02*
X170942000Y-97028000D01*
X111760000Y-64516000D02*
X170942000Y-64516000D01*
X111760000Y-97028000D02*
X111760000Y-64516000D01*
X105402000Y-102246000D02*
X108958000Y-102246000D01*
X105402000Y-104532000D02*
X105402000Y-102246000D01*
X117348000Y-107950000D02*
X117348000Y-106426000D01*
X111760000Y-107950000D02*
X117348000Y-107950000D01*
D12*
X109156572Y-107295143D02*
X110299429Y-107295143D01*
X106616572Y-107295143D02*
X107759429Y-107295143D01*
X107188000Y-107866571D02*
X107188000Y-106723714D01*
X112974286Y-103908714D02*
X112902857Y-103980143D01*
X112688571Y-104051571D01*
X112545714Y-104051571D01*
X112331429Y-103980143D01*
X112188571Y-103837286D01*
X112117143Y-103694429D01*
X112045714Y-103408714D01*
X112045714Y-103194429D01*
X112117143Y-102908714D01*
X112188571Y-102765857D01*
X112331429Y-102623000D01*
X112545714Y-102551571D01*
X112688571Y-102551571D01*
X112902857Y-102623000D01*
X112974286Y-102694429D01*
X113545714Y-103623000D02*
X114260000Y-103623000D01*
X113402857Y-104051571D02*
X113902857Y-102551571D01*
X114402857Y-104051571D01*
X115760000Y-104051571D02*
X115260000Y-103337286D01*
X114902857Y-104051571D02*
X114902857Y-102551571D01*
X115474285Y-102551571D01*
X115617143Y-102623000D01*
X115688571Y-102694429D01*
X115760000Y-102837286D01*
X115760000Y-103051571D01*
X115688571Y-103194429D01*
X115617143Y-103265857D01*
X115474285Y-103337286D01*
X114902857Y-103337286D01*
X112117143Y-106601571D02*
X112117143Y-105101571D01*
X112688571Y-105101571D01*
X112831429Y-105173000D01*
X112902857Y-105244429D01*
X112974286Y-105387286D01*
X112974286Y-105601571D01*
X112902857Y-105744429D01*
X112831429Y-105815857D01*
X112688571Y-105887286D01*
X112117143Y-105887286D01*
X113474286Y-105101571D02*
X113831429Y-106601571D01*
X114117143Y-105530143D01*
X114402857Y-106601571D01*
X114760000Y-105101571D01*
X116188572Y-106601571D02*
X115688572Y-105887286D01*
X115331429Y-106601571D02*
X115331429Y-105101571D01*
X115902857Y-105101571D01*
X116045715Y-105173000D01*
X116117143Y-105244429D01*
X116188572Y-105387286D01*
X116188572Y-105601571D01*
X116117143Y-105744429D01*
X116045715Y-105815857D01*
X115902857Y-105887286D01*
X115331429Y-105887286D01*
D13*
X105156000Y-120650000D02*
X105156000Y-120142000D01*
X103124000Y-120142000D02*
X103124000Y-120650000D01*
X103124000Y-120142000D02*
X105156000Y-120142000D01*
X103124000Y-120650000D02*
X105156000Y-120650000D01*
X103124000Y-116586000D02*
X103124000Y-117094000D01*
X103124000Y-117094000D02*
X105156000Y-117094000D01*
X105156000Y-117094000D02*
X105156000Y-116586000D01*
X105156000Y-116586000D02*
X103124000Y-116586000D01*
X106172000Y-115570000D02*
X102362000Y-115570000D01*
X102362000Y-115570000D02*
X102362000Y-121666000D01*
X102362000Y-121666000D02*
X106172000Y-121666000D01*
X106172000Y-121666000D02*
X106172000Y-115570000D01*
X104310000Y-127638000D02*
X134450000Y-127638000D01*
X134450000Y-127638000D02*
X134450000Y-109598000D01*
X134450000Y-109598000D02*
X104310000Y-109598000D01*
X104310000Y-109598000D02*
X104310000Y-115611334D01*
X104310000Y-121624666D02*
X104310000Y-127638000D01*
X176276000Y-122936000D02*
X155448000Y-122936000D01*
X176276000Y-101600000D02*
X155448000Y-101600000D01*
X176276000Y-110236000D02*
X173228000Y-110236000D01*
X176276000Y-101600000D02*
X176276000Y-122936000D01*
X173228000Y-110236000D02*
X173228000Y-101600000D01*
X158496000Y-122936000D02*
X158496000Y-117348000D01*
X158496000Y-117348000D02*
X155448000Y-117348000D01*
X155448000Y-101600000D02*
X155448000Y-122936000D01*
D14*
G36*
X114694257Y-90691689D02*
X114958780Y-90691725D01*
X115081912Y-90691730D01*
X117052811Y-90691730D01*
X117052811Y-90807910D01*
X117065211Y-90949291D01*
X117102636Y-91079684D01*
X117165423Y-91199862D01*
X117253906Y-91310602D01*
X117283843Y-91340511D01*
X117391534Y-91425348D01*
X117510275Y-91487221D01*
X117636540Y-91526159D01*
X117766803Y-91542190D01*
X117897535Y-91535342D01*
X118025212Y-91505643D01*
X118146305Y-91453120D01*
X118257288Y-91377803D01*
X118307132Y-91332363D01*
X118400017Y-91220952D01*
X118468127Y-91098435D01*
X118510871Y-90966215D01*
X118527653Y-90825692D01*
X118527876Y-90811867D01*
X118528756Y-90691734D01*
X118581557Y-90691732D01*
X118628396Y-90698089D01*
X118671183Y-90713556D01*
X118674011Y-90715154D01*
X118683675Y-90720168D01*
X118692549Y-90724073D01*
X118700665Y-90728007D01*
X118708057Y-90733106D01*
X118714755Y-90740508D01*
X118720792Y-90751351D01*
X118726199Y-90766772D01*
X118731010Y-90787909D01*
X118735255Y-90815899D01*
X118738968Y-90851879D01*
X118742179Y-90896987D01*
X118744922Y-90952360D01*
X118747228Y-91019137D01*
X118749129Y-91098453D01*
X118750658Y-91191447D01*
X118751846Y-91299257D01*
X118752726Y-91423019D01*
X118753330Y-91563871D01*
X118753689Y-91722950D01*
X118753835Y-91901395D01*
X118753802Y-92100342D01*
X118753620Y-92320929D01*
X118753323Y-92564293D01*
X118752941Y-92831572D01*
X118752508Y-93123903D01*
X118752055Y-93442424D01*
X118752002Y-93481230D01*
X118751596Y-93801782D01*
X118751251Y-94096012D01*
X118750931Y-94365056D01*
X118750600Y-94610052D01*
X118750221Y-94832137D01*
X118749757Y-95032447D01*
X118749172Y-95212119D01*
X118748430Y-95372290D01*
X118747494Y-95514098D01*
X118746327Y-95638679D01*
X118744893Y-95747170D01*
X118743156Y-95840707D01*
X118741078Y-95920429D01*
X118738624Y-95987472D01*
X118735756Y-96042973D01*
X118732439Y-96088068D01*
X118728636Y-96123895D01*
X118724310Y-96151591D01*
X118719425Y-96172293D01*
X118713945Y-96187137D01*
X118707832Y-96197260D01*
X118701050Y-96203800D01*
X118693563Y-96207893D01*
X118685334Y-96210676D01*
X118676327Y-96213287D01*
X118666505Y-96216862D01*
X118664106Y-96217950D01*
X118656565Y-96220396D01*
X118643944Y-96222642D01*
X118625141Y-96224698D01*
X118599053Y-96226572D01*
X118564578Y-96228271D01*
X118520615Y-96229803D01*
X118466061Y-96231177D01*
X118399815Y-96232400D01*
X118320774Y-96233481D01*
X118227837Y-96234427D01*
X118119901Y-96235247D01*
X117995864Y-96235947D01*
X117854624Y-96236538D01*
X117695079Y-96237025D01*
X117516128Y-96237419D01*
X117316668Y-96237725D01*
X117095596Y-96237953D01*
X116851812Y-96238110D01*
X116584213Y-96238205D01*
X116291697Y-96238245D01*
X115973161Y-96238238D01*
X115869979Y-96238228D01*
X115544377Y-96238176D01*
X115245119Y-96238091D01*
X114971091Y-96237963D01*
X114721176Y-96237785D01*
X114494260Y-96237548D01*
X114289227Y-96237242D01*
X114104962Y-96236860D01*
X113940350Y-96236392D01*
X113794275Y-96235830D01*
X113665624Y-96235165D01*
X113553279Y-96234388D01*
X113456126Y-96233491D01*
X113373050Y-96232465D01*
X113302936Y-96231301D01*
X113244668Y-96229991D01*
X113197131Y-96228525D01*
X113159210Y-96226896D01*
X113129790Y-96225093D01*
X113107755Y-96223110D01*
X113091990Y-96220936D01*
X113081380Y-96218563D01*
X113075596Y-96216391D01*
X113065316Y-96212056D01*
X113055878Y-96208859D01*
X113047245Y-96205665D01*
X113039381Y-96201338D01*
X113032252Y-96194744D01*
X113025821Y-96184747D01*
X113020053Y-96170212D01*
X113014911Y-96150003D01*
X113010360Y-96122985D01*
X113006365Y-96088023D01*
X113002889Y-96043981D01*
X112999898Y-95989724D01*
X112997354Y-95924117D01*
X112995223Y-95846024D01*
X112993468Y-95754310D01*
X112992055Y-95647840D01*
X112991685Y-95606973D01*
X113358116Y-95606973D01*
X114653266Y-95606973D01*
X114628345Y-95569217D01*
X114603553Y-95530417D01*
X114582560Y-95493469D01*
X114565065Y-95455788D01*
X114550770Y-95414788D01*
X114539377Y-95367883D01*
X114530587Y-95312487D01*
X114524102Y-95246016D01*
X114519623Y-95165883D01*
X114516850Y-95069502D01*
X114515487Y-94954289D01*
X114515233Y-94817657D01*
X114515791Y-94657020D01*
X114516107Y-94597382D01*
X114519675Y-93958041D01*
X114924702Y-94509449D01*
X115039446Y-94665876D01*
X115138857Y-94802088D01*
X115224010Y-94919890D01*
X115295978Y-95021084D01*
X115355834Y-95107477D01*
X115404652Y-95180874D01*
X115443505Y-95243077D01*
X115473466Y-95295893D01*
X115495609Y-95341125D01*
X115511007Y-95380578D01*
X115520734Y-95416058D01*
X115525863Y-95449368D01*
X115527468Y-95482313D01*
X115526621Y-95516697D01*
X115526405Y-95521019D01*
X115521946Y-95607031D01*
X116941308Y-95606973D01*
X116835735Y-95500522D01*
X116807087Y-95471406D01*
X116779910Y-95443076D01*
X116753011Y-95413968D01*
X116725197Y-95382520D01*
X116695275Y-95347169D01*
X116662054Y-95306354D01*
X116624339Y-95258511D01*
X116580940Y-95202079D01*
X116530662Y-95135494D01*
X116472312Y-95057195D01*
X116404700Y-94965619D01*
X116326631Y-94859204D01*
X116236912Y-94736387D01*
X116134352Y-94595605D01*
X116017758Y-94435297D01*
X115922191Y-94303798D01*
X115802251Y-94138596D01*
X115697620Y-93994152D01*
X115607352Y-93869094D01*
X115530497Y-93762052D01*
X115466109Y-93671654D01*
X115413239Y-93596529D01*
X115370940Y-93535304D01*
X115338264Y-93486610D01*
X115314262Y-93449074D01*
X115297987Y-93421325D01*
X115288492Y-93401992D01*
X115284827Y-93389703D01*
X115285929Y-93383242D01*
X115299276Y-93366048D01*
X115328134Y-93329655D01*
X115370760Y-93276224D01*
X115425415Y-93207919D01*
X115490356Y-93126903D01*
X115563842Y-93035340D01*
X115644132Y-92935392D01*
X115729485Y-92829224D01*
X115818160Y-92718997D01*
X115908414Y-92606876D01*
X115958056Y-92545244D01*
X117190627Y-92545244D01*
X117241854Y-92637919D01*
X117293081Y-92730595D01*
X117293081Y-95421622D01*
X117241854Y-95514298D01*
X117190627Y-95606973D01*
X117796604Y-95606973D01*
X117941266Y-95606931D01*
X118060756Y-95606741D01*
X118157358Y-95606308D01*
X118233358Y-95605536D01*
X118291043Y-95604330D01*
X118332699Y-95602594D01*
X118360611Y-95600232D01*
X118377065Y-95597150D01*
X118384348Y-95593251D01*
X118384745Y-95588440D01*
X118380542Y-95582622D01*
X118380499Y-95582574D01*
X118363187Y-95557532D01*
X118340264Y-95516815D01*
X118320019Y-95476168D01*
X118281621Y-95394162D01*
X118273789Y-92545244D01*
X117190627Y-92545244D01*
X115958056Y-92545244D01*
X115998507Y-92495024D01*
X116086698Y-92385604D01*
X116171246Y-92280778D01*
X116250408Y-92182711D01*
X116322444Y-92093566D01*
X116385613Y-92015505D01*
X116438173Y-91950692D01*
X116478383Y-91901290D01*
X116502000Y-91872487D01*
X116593710Y-91764778D01*
X116681940Y-91667580D01*
X116763597Y-91584076D01*
X116835590Y-91517448D01*
X116886681Y-91476599D01*
X116947093Y-91433135D01*
X115557702Y-91433135D01*
X115558092Y-91514666D01*
X115554209Y-91574606D01*
X115539610Y-91630177D01*
X115517012Y-91682855D01*
X115502322Y-91712615D01*
X115486528Y-91742103D01*
X115468186Y-91773276D01*
X115445855Y-91808093D01*
X115418091Y-91848510D01*
X115383451Y-91896486D01*
X115340493Y-91953978D01*
X115287773Y-92022943D01*
X115223849Y-92105339D01*
X115147279Y-92203124D01*
X115056619Y-92318255D01*
X114950426Y-92452690D01*
X114938432Y-92467859D01*
X114519675Y-92997412D01*
X114515622Y-92410922D01*
X114514805Y-92235251D01*
X114514979Y-92086532D01*
X114516151Y-91964275D01*
X114518331Y-91867989D01*
X114521526Y-91797183D01*
X114525744Y-91751369D01*
X114527162Y-91742679D01*
X114549409Y-91651135D01*
X114578557Y-91568608D01*
X114611818Y-91502253D01*
X114631800Y-91474110D01*
X114666278Y-91433135D01*
X114012086Y-91433135D01*
X113856031Y-91433269D01*
X113725533Y-91433703D01*
X113618690Y-91434489D01*
X113533602Y-91435676D01*
X113468365Y-91437317D01*
X113421079Y-91439461D01*
X113389843Y-91442159D01*
X113372754Y-91445462D01*
X113367912Y-91449421D01*
X113368247Y-91450298D01*
X113382115Y-91471231D01*
X113405268Y-91504412D01*
X113417246Y-91521193D01*
X113429631Y-91537940D01*
X113440763Y-91552915D01*
X113450712Y-91567594D01*
X113459549Y-91583449D01*
X113467343Y-91601955D01*
X113474165Y-91624585D01*
X113480084Y-91652813D01*
X113485171Y-91688113D01*
X113489496Y-91731958D01*
X113493129Y-91785822D01*
X113496140Y-91851180D01*
X113498599Y-91929504D01*
X113500577Y-92022268D01*
X113502142Y-92130947D01*
X113503366Y-92257013D01*
X113504319Y-92401942D01*
X113505070Y-92567206D01*
X113505689Y-92754279D01*
X113506248Y-92964635D01*
X113506815Y-93199748D01*
X113507345Y-93415741D01*
X113507845Y-93656535D01*
X113508105Y-93886274D01*
X113508132Y-94103493D01*
X113507933Y-94306722D01*
X113507514Y-94494496D01*
X113506882Y-94665345D01*
X113506044Y-94817803D01*
X113505008Y-94950403D01*
X113503780Y-95061676D01*
X113502367Y-95150156D01*
X113500775Y-95214375D01*
X113499013Y-95252865D01*
X113498679Y-95256933D01*
X113486534Y-95350248D01*
X113467573Y-95425190D01*
X113438698Y-95490594D01*
X113396810Y-95555293D01*
X113391571Y-95562352D01*
X113358116Y-95606973D01*
X112991685Y-95606973D01*
X112990946Y-95525479D01*
X112990107Y-95386090D01*
X112989502Y-95228539D01*
X112989095Y-95051691D01*
X112988850Y-94854410D01*
X112988733Y-94635560D01*
X112988705Y-94394007D01*
X112988733Y-94128615D01*
X112988780Y-93838249D01*
X112988810Y-93521773D01*
X112988811Y-93458946D01*
X112988828Y-93139137D01*
X112988888Y-92845661D01*
X112988998Y-92577390D01*
X112989167Y-92333198D01*
X112989403Y-92111957D01*
X112989716Y-91912540D01*
X112990115Y-91733820D01*
X112990607Y-91574671D01*
X112991203Y-91433966D01*
X112991910Y-91310576D01*
X112992737Y-91203376D01*
X112993693Y-91111238D01*
X112994787Y-91033035D01*
X112996027Y-90967641D01*
X112997422Y-90913928D01*
X112998982Y-90870769D01*
X113000714Y-90837037D01*
X113002628Y-90811605D01*
X113004732Y-90793347D01*
X113007034Y-90781134D01*
X113009545Y-90773841D01*
X113009637Y-90773659D01*
X113014808Y-90762518D01*
X113019115Y-90752431D01*
X113023879Y-90743346D01*
X113030422Y-90735212D01*
X113040065Y-90727976D01*
X113054129Y-90721586D01*
X113073937Y-90715989D01*
X113100809Y-90711133D01*
X113136067Y-90706966D01*
X113181032Y-90703436D01*
X113237026Y-90700491D01*
X113305371Y-90698077D01*
X113387386Y-90696144D01*
X113484395Y-90694638D01*
X113597718Y-90693508D01*
X113728677Y-90692702D01*
X113878593Y-90692166D01*
X114048787Y-90691849D01*
X114240582Y-90691699D01*
X114455298Y-90691663D01*
X114694257Y-90691689D01*
X114694257Y-90691689D01*
G37*
X114694257Y-90691689D02*
X114958780Y-90691725D01*
X115081912Y-90691730D01*
X117052811Y-90691730D01*
X117052811Y-90807910D01*
X117065211Y-90949291D01*
X117102636Y-91079684D01*
X117165423Y-91199862D01*
X117253906Y-91310602D01*
X117283843Y-91340511D01*
X117391534Y-91425348D01*
X117510275Y-91487221D01*
X117636540Y-91526159D01*
X117766803Y-91542190D01*
X117897535Y-91535342D01*
X118025212Y-91505643D01*
X118146305Y-91453120D01*
X118257288Y-91377803D01*
X118307132Y-91332363D01*
X118400017Y-91220952D01*
X118468127Y-91098435D01*
X118510871Y-90966215D01*
X118527653Y-90825692D01*
X118527876Y-90811867D01*
X118528756Y-90691734D01*
X118581557Y-90691732D01*
X118628396Y-90698089D01*
X118671183Y-90713556D01*
X118674011Y-90715154D01*
X118683675Y-90720168D01*
X118692549Y-90724073D01*
X118700665Y-90728007D01*
X118708057Y-90733106D01*
X118714755Y-90740508D01*
X118720792Y-90751351D01*
X118726199Y-90766772D01*
X118731010Y-90787909D01*
X118735255Y-90815899D01*
X118738968Y-90851879D01*
X118742179Y-90896987D01*
X118744922Y-90952360D01*
X118747228Y-91019137D01*
X118749129Y-91098453D01*
X118750658Y-91191447D01*
X118751846Y-91299257D01*
X118752726Y-91423019D01*
X118753330Y-91563871D01*
X118753689Y-91722950D01*
X118753835Y-91901395D01*
X118753802Y-92100342D01*
X118753620Y-92320929D01*
X118753323Y-92564293D01*
X118752941Y-92831572D01*
X118752508Y-93123903D01*
X118752055Y-93442424D01*
X118752002Y-93481230D01*
X118751596Y-93801782D01*
X118751251Y-94096012D01*
X118750931Y-94365056D01*
X118750600Y-94610052D01*
X118750221Y-94832137D01*
X118749757Y-95032447D01*
X118749172Y-95212119D01*
X118748430Y-95372290D01*
X118747494Y-95514098D01*
X118746327Y-95638679D01*
X118744893Y-95747170D01*
X118743156Y-95840707D01*
X118741078Y-95920429D01*
X118738624Y-95987472D01*
X118735756Y-96042973D01*
X118732439Y-96088068D01*
X118728636Y-96123895D01*
X118724310Y-96151591D01*
X118719425Y-96172293D01*
X118713945Y-96187137D01*
X118707832Y-96197260D01*
X118701050Y-96203800D01*
X118693563Y-96207893D01*
X118685334Y-96210676D01*
X118676327Y-96213287D01*
X118666505Y-96216862D01*
X118664106Y-96217950D01*
X118656565Y-96220396D01*
X118643944Y-96222642D01*
X118625141Y-96224698D01*
X118599053Y-96226572D01*
X118564578Y-96228271D01*
X118520615Y-96229803D01*
X118466061Y-96231177D01*
X118399815Y-96232400D01*
X118320774Y-96233481D01*
X118227837Y-96234427D01*
X118119901Y-96235247D01*
X117995864Y-96235947D01*
X117854624Y-96236538D01*
X117695079Y-96237025D01*
X117516128Y-96237419D01*
X117316668Y-96237725D01*
X117095596Y-96237953D01*
X116851812Y-96238110D01*
X116584213Y-96238205D01*
X116291697Y-96238245D01*
X115973161Y-96238238D01*
X115869979Y-96238228D01*
X115544377Y-96238176D01*
X115245119Y-96238091D01*
X114971091Y-96237963D01*
X114721176Y-96237785D01*
X114494260Y-96237548D01*
X114289227Y-96237242D01*
X114104962Y-96236860D01*
X113940350Y-96236392D01*
X113794275Y-96235830D01*
X113665624Y-96235165D01*
X113553279Y-96234388D01*
X113456126Y-96233491D01*
X113373050Y-96232465D01*
X113302936Y-96231301D01*
X113244668Y-96229991D01*
X113197131Y-96228525D01*
X113159210Y-96226896D01*
X113129790Y-96225093D01*
X113107755Y-96223110D01*
X113091990Y-96220936D01*
X113081380Y-96218563D01*
X113075596Y-96216391D01*
X113065316Y-96212056D01*
X113055878Y-96208859D01*
X113047245Y-96205665D01*
X113039381Y-96201338D01*
X113032252Y-96194744D01*
X113025821Y-96184747D01*
X113020053Y-96170212D01*
X113014911Y-96150003D01*
X113010360Y-96122985D01*
X113006365Y-96088023D01*
X113002889Y-96043981D01*
X112999898Y-95989724D01*
X112997354Y-95924117D01*
X112995223Y-95846024D01*
X112993468Y-95754310D01*
X112992055Y-95647840D01*
X112991685Y-95606973D01*
X113358116Y-95606973D01*
X114653266Y-95606973D01*
X114628345Y-95569217D01*
X114603553Y-95530417D01*
X114582560Y-95493469D01*
X114565065Y-95455788D01*
X114550770Y-95414788D01*
X114539377Y-95367883D01*
X114530587Y-95312487D01*
X114524102Y-95246016D01*
X114519623Y-95165883D01*
X114516850Y-95069502D01*
X114515487Y-94954289D01*
X114515233Y-94817657D01*
X114515791Y-94657020D01*
X114516107Y-94597382D01*
X114519675Y-93958041D01*
X114924702Y-94509449D01*
X115039446Y-94665876D01*
X115138857Y-94802088D01*
X115224010Y-94919890D01*
X115295978Y-95021084D01*
X115355834Y-95107477D01*
X115404652Y-95180874D01*
X115443505Y-95243077D01*
X115473466Y-95295893D01*
X115495609Y-95341125D01*
X115511007Y-95380578D01*
X115520734Y-95416058D01*
X115525863Y-95449368D01*
X115527468Y-95482313D01*
X115526621Y-95516697D01*
X115526405Y-95521019D01*
X115521946Y-95607031D01*
X116941308Y-95606973D01*
X116835735Y-95500522D01*
X116807087Y-95471406D01*
X116779910Y-95443076D01*
X116753011Y-95413968D01*
X116725197Y-95382520D01*
X116695275Y-95347169D01*
X116662054Y-95306354D01*
X116624339Y-95258511D01*
X116580940Y-95202079D01*
X116530662Y-95135494D01*
X116472312Y-95057195D01*
X116404700Y-94965619D01*
X116326631Y-94859204D01*
X116236912Y-94736387D01*
X116134352Y-94595605D01*
X116017758Y-94435297D01*
X115922191Y-94303798D01*
X115802251Y-94138596D01*
X115697620Y-93994152D01*
X115607352Y-93869094D01*
X115530497Y-93762052D01*
X115466109Y-93671654D01*
X115413239Y-93596529D01*
X115370940Y-93535304D01*
X115338264Y-93486610D01*
X115314262Y-93449074D01*
X115297987Y-93421325D01*
X115288492Y-93401992D01*
X115284827Y-93389703D01*
X115285929Y-93383242D01*
X115299276Y-93366048D01*
X115328134Y-93329655D01*
X115370760Y-93276224D01*
X115425415Y-93207919D01*
X115490356Y-93126903D01*
X115563842Y-93035340D01*
X115644132Y-92935392D01*
X115729485Y-92829224D01*
X115818160Y-92718997D01*
X115908414Y-92606876D01*
X115958056Y-92545244D01*
X117190627Y-92545244D01*
X117241854Y-92637919D01*
X117293081Y-92730595D01*
X117293081Y-95421622D01*
X117241854Y-95514298D01*
X117190627Y-95606973D01*
X117796604Y-95606973D01*
X117941266Y-95606931D01*
X118060756Y-95606741D01*
X118157358Y-95606308D01*
X118233358Y-95605536D01*
X118291043Y-95604330D01*
X118332699Y-95602594D01*
X118360611Y-95600232D01*
X118377065Y-95597150D01*
X118384348Y-95593251D01*
X118384745Y-95588440D01*
X118380542Y-95582622D01*
X118380499Y-95582574D01*
X118363187Y-95557532D01*
X118340264Y-95516815D01*
X118320019Y-95476168D01*
X118281621Y-95394162D01*
X118273789Y-92545244D01*
X117190627Y-92545244D01*
X115958056Y-92545244D01*
X115998507Y-92495024D01*
X116086698Y-92385604D01*
X116171246Y-92280778D01*
X116250408Y-92182711D01*
X116322444Y-92093566D01*
X116385613Y-92015505D01*
X116438173Y-91950692D01*
X116478383Y-91901290D01*
X116502000Y-91872487D01*
X116593710Y-91764778D01*
X116681940Y-91667580D01*
X116763597Y-91584076D01*
X116835590Y-91517448D01*
X116886681Y-91476599D01*
X116947093Y-91433135D01*
X115557702Y-91433135D01*
X115558092Y-91514666D01*
X115554209Y-91574606D01*
X115539610Y-91630177D01*
X115517012Y-91682855D01*
X115502322Y-91712615D01*
X115486528Y-91742103D01*
X115468186Y-91773276D01*
X115445855Y-91808093D01*
X115418091Y-91848510D01*
X115383451Y-91896486D01*
X115340493Y-91953978D01*
X115287773Y-92022943D01*
X115223849Y-92105339D01*
X115147279Y-92203124D01*
X115056619Y-92318255D01*
X114950426Y-92452690D01*
X114938432Y-92467859D01*
X114519675Y-92997412D01*
X114515622Y-92410922D01*
X114514805Y-92235251D01*
X114514979Y-92086532D01*
X114516151Y-91964275D01*
X114518331Y-91867989D01*
X114521526Y-91797183D01*
X114525744Y-91751369D01*
X114527162Y-91742679D01*
X114549409Y-91651135D01*
X114578557Y-91568608D01*
X114611818Y-91502253D01*
X114631800Y-91474110D01*
X114666278Y-91433135D01*
X114012086Y-91433135D01*
X113856031Y-91433269D01*
X113725533Y-91433703D01*
X113618690Y-91434489D01*
X113533602Y-91435676D01*
X113468365Y-91437317D01*
X113421079Y-91439461D01*
X113389843Y-91442159D01*
X113372754Y-91445462D01*
X113367912Y-91449421D01*
X113368247Y-91450298D01*
X113382115Y-91471231D01*
X113405268Y-91504412D01*
X113417246Y-91521193D01*
X113429631Y-91537940D01*
X113440763Y-91552915D01*
X113450712Y-91567594D01*
X113459549Y-91583449D01*
X113467343Y-91601955D01*
X113474165Y-91624585D01*
X113480084Y-91652813D01*
X113485171Y-91688113D01*
X113489496Y-91731958D01*
X113493129Y-91785822D01*
X113496140Y-91851180D01*
X113498599Y-91929504D01*
X113500577Y-92022268D01*
X113502142Y-92130947D01*
X113503366Y-92257013D01*
X113504319Y-92401942D01*
X113505070Y-92567206D01*
X113505689Y-92754279D01*
X113506248Y-92964635D01*
X113506815Y-93199748D01*
X113507345Y-93415741D01*
X113507845Y-93656535D01*
X113508105Y-93886274D01*
X113508132Y-94103493D01*
X113507933Y-94306722D01*
X113507514Y-94494496D01*
X113506882Y-94665345D01*
X113506044Y-94817803D01*
X113505008Y-94950403D01*
X113503780Y-95061676D01*
X113502367Y-95150156D01*
X113500775Y-95214375D01*
X113499013Y-95252865D01*
X113498679Y-95256933D01*
X113486534Y-95350248D01*
X113467573Y-95425190D01*
X113438698Y-95490594D01*
X113396810Y-95555293D01*
X113391571Y-95562352D01*
X113358116Y-95606973D01*
X112991685Y-95606973D01*
X112990946Y-95525479D01*
X112990107Y-95386090D01*
X112989502Y-95228539D01*
X112989095Y-95051691D01*
X112988850Y-94854410D01*
X112988733Y-94635560D01*
X112988705Y-94394007D01*
X112988733Y-94128615D01*
X112988780Y-93838249D01*
X112988810Y-93521773D01*
X112988811Y-93458946D01*
X112988828Y-93139137D01*
X112988888Y-92845661D01*
X112988998Y-92577390D01*
X112989167Y-92333198D01*
X112989403Y-92111957D01*
X112989716Y-91912540D01*
X112990115Y-91733820D01*
X112990607Y-91574671D01*
X112991203Y-91433966D01*
X112991910Y-91310576D01*
X112992737Y-91203376D01*
X112993693Y-91111238D01*
X112994787Y-91033035D01*
X112996027Y-90967641D01*
X112997422Y-90913928D01*
X112998982Y-90870769D01*
X113000714Y-90837037D01*
X113002628Y-90811605D01*
X113004732Y-90793347D01*
X113007034Y-90781134D01*
X113009545Y-90773841D01*
X113009637Y-90773659D01*
X113014808Y-90762518D01*
X113019115Y-90752431D01*
X113023879Y-90743346D01*
X113030422Y-90735212D01*
X113040065Y-90727976D01*
X113054129Y-90721586D01*
X113073937Y-90715989D01*
X113100809Y-90711133D01*
X113136067Y-90706966D01*
X113181032Y-90703436D01*
X113237026Y-90700491D01*
X113305371Y-90698077D01*
X113387386Y-90696144D01*
X113484395Y-90694638D01*
X113597718Y-90693508D01*
X113728677Y-90692702D01*
X113878593Y-90692166D01*
X114048787Y-90691849D01*
X114240582Y-90691699D01*
X114455298Y-90691663D01*
X114694257Y-90691689D01*
G36*
X121089962Y-91378499D02*
X121238014Y-91394707D01*
X121381452Y-91423718D01*
X121526110Y-91467045D01*
X121677824Y-91526201D01*
X121842428Y-91602700D01*
X121872071Y-91617517D01*
X121940098Y-91651031D01*
X122004256Y-91681208D01*
X122058215Y-91705166D01*
X122095640Y-91720024D01*
X122101389Y-91721895D01*
X122156486Y-91738402D01*
X121909851Y-92097201D01*
X121849552Y-92184893D01*
X121794422Y-92265012D01*
X121746336Y-92334836D01*
X121707168Y-92391647D01*
X121678794Y-92432723D01*
X121663087Y-92455346D01*
X121660536Y-92458928D01*
X121650171Y-92451438D01*
X121624660Y-92428918D01*
X121588563Y-92395461D01*
X121568642Y-92376550D01*
X121455773Y-92286778D01*
X121329014Y-92218561D01*
X121219783Y-92181195D01*
X121154214Y-92169460D01*
X121072116Y-92162308D01*
X120983144Y-92159874D01*
X120896956Y-92162288D01*
X120823205Y-92169683D01*
X120793776Y-92175347D01*
X120661133Y-92220982D01*
X120541606Y-92290663D01*
X120435283Y-92384260D01*
X120342253Y-92501649D01*
X120262605Y-92642700D01*
X120196426Y-92807286D01*
X120143806Y-92995280D01*
X120112533Y-93156217D01*
X120104374Y-93227263D01*
X120098815Y-93319046D01*
X120095802Y-93424968D01*
X120095281Y-93538434D01*
X120097200Y-93652849D01*
X120101503Y-93761617D01*
X120108137Y-93858143D01*
X120117049Y-93935831D01*
X120118979Y-93947817D01*
X120161499Y-94140892D01*
X120219433Y-94311773D01*
X120293133Y-94461224D01*
X120382951Y-94590011D01*
X120446707Y-94659639D01*
X120561286Y-94754173D01*
X120686942Y-94824246D01*
X120821557Y-94869477D01*
X120963011Y-94889484D01*
X121109183Y-94883885D01*
X121257955Y-94852300D01*
X121345911Y-94821394D01*
X121467629Y-94759506D01*
X121593080Y-94670729D01*
X121663353Y-94610694D01*
X121702811Y-94575947D01*
X121733812Y-94550454D01*
X121751458Y-94538170D01*
X121753648Y-94537795D01*
X121761524Y-94550347D01*
X121781932Y-94583516D01*
X121813132Y-94634458D01*
X121853386Y-94700331D01*
X121900957Y-94778289D01*
X121954104Y-94865490D01*
X121983687Y-94914067D01*
X122209648Y-95285215D01*
X121927527Y-95424639D01*
X121825522Y-95474719D01*
X121742889Y-95514210D01*
X121674578Y-95545073D01*
X121615537Y-95569268D01*
X121560714Y-95588758D01*
X121505060Y-95605503D01*
X121443523Y-95621465D01*
X121384540Y-95635482D01*
X121332115Y-95646329D01*
X121277288Y-95654526D01*
X121214572Y-95660528D01*
X121138477Y-95664790D01*
X121043516Y-95667767D01*
X120979513Y-95669052D01*
X120888192Y-95669930D01*
X120800627Y-95669487D01*
X120722612Y-95667852D01*
X120659942Y-95665149D01*
X120618413Y-95661505D01*
X120615952Y-95661142D01*
X120400303Y-95614487D01*
X120197793Y-95543729D01*
X120008495Y-95448914D01*
X119832479Y-95330089D01*
X119669816Y-95187300D01*
X119520578Y-95020594D01*
X119412496Y-94872433D01*
X119297434Y-94678502D01*
X119204423Y-94473699D01*
X119133013Y-94256383D01*
X119082756Y-94024912D01*
X119053201Y-93777643D01*
X119043889Y-93526559D01*
X119051548Y-93283670D01*
X119075613Y-93059570D01*
X119116852Y-92850477D01*
X119176027Y-92652613D01*
X119253904Y-92462196D01*
X119263203Y-92442468D01*
X119365648Y-92258059D01*
X119491472Y-92082576D01*
X119637112Y-91919650D01*
X119799001Y-91772914D01*
X119973576Y-91646001D01*
X120136244Y-91552905D01*
X120300573Y-91479991D01*
X120465251Y-91427174D01*
X120636652Y-91393015D01*
X120821153Y-91376078D01*
X120931459Y-91373580D01*
X121089962Y-91378499D01*
X121089962Y-91378499D01*
G37*
X121089962Y-91378499D02*
X121238014Y-91394707D01*
X121381452Y-91423718D01*
X121526110Y-91467045D01*
X121677824Y-91526201D01*
X121842428Y-91602700D01*
X121872071Y-91617517D01*
X121940098Y-91651031D01*
X122004256Y-91681208D01*
X122058215Y-91705166D01*
X122095640Y-91720024D01*
X122101389Y-91721895D01*
X122156486Y-91738402D01*
X121909851Y-92097201D01*
X121849552Y-92184893D01*
X121794422Y-92265012D01*
X121746336Y-92334836D01*
X121707168Y-92391647D01*
X121678794Y-92432723D01*
X121663087Y-92455346D01*
X121660536Y-92458928D01*
X121650171Y-92451438D01*
X121624660Y-92428918D01*
X121588563Y-92395461D01*
X121568642Y-92376550D01*
X121455773Y-92286778D01*
X121329014Y-92218561D01*
X121219783Y-92181195D01*
X121154214Y-92169460D01*
X121072116Y-92162308D01*
X120983144Y-92159874D01*
X120896956Y-92162288D01*
X120823205Y-92169683D01*
X120793776Y-92175347D01*
X120661133Y-92220982D01*
X120541606Y-92290663D01*
X120435283Y-92384260D01*
X120342253Y-92501649D01*
X120262605Y-92642700D01*
X120196426Y-92807286D01*
X120143806Y-92995280D01*
X120112533Y-93156217D01*
X120104374Y-93227263D01*
X120098815Y-93319046D01*
X120095802Y-93424968D01*
X120095281Y-93538434D01*
X120097200Y-93652849D01*
X120101503Y-93761617D01*
X120108137Y-93858143D01*
X120117049Y-93935831D01*
X120118979Y-93947817D01*
X120161499Y-94140892D01*
X120219433Y-94311773D01*
X120293133Y-94461224D01*
X120382951Y-94590011D01*
X120446707Y-94659639D01*
X120561286Y-94754173D01*
X120686942Y-94824246D01*
X120821557Y-94869477D01*
X120963011Y-94889484D01*
X121109183Y-94883885D01*
X121257955Y-94852300D01*
X121345911Y-94821394D01*
X121467629Y-94759506D01*
X121593080Y-94670729D01*
X121663353Y-94610694D01*
X121702811Y-94575947D01*
X121733812Y-94550454D01*
X121751458Y-94538170D01*
X121753648Y-94537795D01*
X121761524Y-94550347D01*
X121781932Y-94583516D01*
X121813132Y-94634458D01*
X121853386Y-94700331D01*
X121900957Y-94778289D01*
X121954104Y-94865490D01*
X121983687Y-94914067D01*
X122209648Y-95285215D01*
X121927527Y-95424639D01*
X121825522Y-95474719D01*
X121742889Y-95514210D01*
X121674578Y-95545073D01*
X121615537Y-95569268D01*
X121560714Y-95588758D01*
X121505060Y-95605503D01*
X121443523Y-95621465D01*
X121384540Y-95635482D01*
X121332115Y-95646329D01*
X121277288Y-95654526D01*
X121214572Y-95660528D01*
X121138477Y-95664790D01*
X121043516Y-95667767D01*
X120979513Y-95669052D01*
X120888192Y-95669930D01*
X120800627Y-95669487D01*
X120722612Y-95667852D01*
X120659942Y-95665149D01*
X120618413Y-95661505D01*
X120615952Y-95661142D01*
X120400303Y-95614487D01*
X120197793Y-95543729D01*
X120008495Y-95448914D01*
X119832479Y-95330089D01*
X119669816Y-95187300D01*
X119520578Y-95020594D01*
X119412496Y-94872433D01*
X119297434Y-94678502D01*
X119204423Y-94473699D01*
X119133013Y-94256383D01*
X119082756Y-94024912D01*
X119053201Y-93777643D01*
X119043889Y-93526559D01*
X119051548Y-93283670D01*
X119075613Y-93059570D01*
X119116852Y-92850477D01*
X119176027Y-92652613D01*
X119253904Y-92462196D01*
X119263203Y-92442468D01*
X119365648Y-92258059D01*
X119491472Y-92082576D01*
X119637112Y-91919650D01*
X119799001Y-91772914D01*
X119973576Y-91646001D01*
X120136244Y-91552905D01*
X120300573Y-91479991D01*
X120465251Y-91427174D01*
X120636652Y-91393015D01*
X120821153Y-91376078D01*
X120931459Y-91373580D01*
X121089962Y-91378499D01*
G36*
X123817505Y-92482229D02*
X123885531Y-92487378D01*
X124080163Y-92513273D01*
X124252529Y-92554575D01*
X124403470Y-92611853D01*
X124533825Y-92685674D01*
X124644434Y-92776608D01*
X124736135Y-92885222D01*
X124809770Y-93012085D01*
X124863539Y-93149352D01*
X124877187Y-93193137D01*
X124889073Y-93234141D01*
X124899334Y-93274569D01*
X124908113Y-93316630D01*
X124915548Y-93362531D01*
X124921780Y-93414480D01*
X124926950Y-93474685D01*
X124931196Y-93545352D01*
X124934660Y-93628689D01*
X124937481Y-93726905D01*
X124939800Y-93842205D01*
X124941757Y-93976799D01*
X124943491Y-94132893D01*
X124945143Y-94312695D01*
X124946324Y-94453676D01*
X124954270Y-95421622D01*
X125005756Y-95514770D01*
X125030137Y-95559645D01*
X125048280Y-95594501D01*
X125056935Y-95613054D01*
X125057243Y-95614311D01*
X125044014Y-95615749D01*
X125006326Y-95617074D01*
X124947183Y-95618249D01*
X124869586Y-95619237D01*
X124776536Y-95619999D01*
X124671035Y-95620500D01*
X124556084Y-95620701D01*
X124542378Y-95620703D01*
X124027513Y-95620703D01*
X124027513Y-95504000D01*
X124026635Y-95451260D01*
X124024292Y-95410926D01*
X124020921Y-95389300D01*
X124019431Y-95387298D01*
X124005804Y-95395683D01*
X123977757Y-95417692D01*
X123941303Y-95448601D01*
X123940485Y-95449316D01*
X123873962Y-95498843D01*
X123789948Y-95548575D01*
X123697937Y-95593626D01*
X123607421Y-95629110D01*
X123567567Y-95641236D01*
X123488255Y-95656637D01*
X123390935Y-95666465D01*
X123284516Y-95670580D01*
X123177907Y-95668841D01*
X123080017Y-95661108D01*
X123011513Y-95649981D01*
X122843520Y-95600648D01*
X122692281Y-95530342D01*
X122558782Y-95439933D01*
X122444006Y-95330295D01*
X122348937Y-95202299D01*
X122274560Y-95056818D01*
X122242474Y-94968541D01*
X122222365Y-94882739D01*
X122209038Y-94779736D01*
X122202872Y-94669034D01*
X122203074Y-94652925D01*
X123131648Y-94652925D01*
X123139348Y-94735184D01*
X123164989Y-94803546D01*
X123212378Y-94866970D01*
X123230579Y-94885567D01*
X123295282Y-94935846D01*
X123370066Y-94968056D01*
X123459662Y-94983648D01*
X123554012Y-94984796D01*
X123643501Y-94977216D01*
X123712018Y-94962389D01*
X123741775Y-94951253D01*
X123795408Y-94920904D01*
X123852235Y-94878221D01*
X123904082Y-94830317D01*
X123942778Y-94784301D01*
X123953054Y-94767421D01*
X123961042Y-94743782D01*
X123966721Y-94706168D01*
X123970356Y-94650985D01*
X123972211Y-94574640D01*
X123972594Y-94501981D01*
X123972335Y-94417270D01*
X123971287Y-94356018D01*
X123969045Y-94314227D01*
X123965206Y-94287899D01*
X123959365Y-94273035D01*
X123951118Y-94265639D01*
X123948567Y-94264461D01*
X123926400Y-94260833D01*
X123882680Y-94257866D01*
X123823311Y-94255827D01*
X123754196Y-94254983D01*
X123739189Y-94254982D01*
X123646805Y-94256457D01*
X123575432Y-94260842D01*
X123518719Y-94268738D01*
X123471872Y-94280270D01*
X123355669Y-94324215D01*
X123264543Y-94378243D01*
X123197705Y-94443219D01*
X123154365Y-94520005D01*
X123133734Y-94609467D01*
X123131648Y-94652925D01*
X122203074Y-94652925D01*
X122204244Y-94560133D01*
X122213532Y-94462536D01*
X122220777Y-94423105D01*
X122267039Y-94276701D01*
X122337384Y-94141995D01*
X122430484Y-94020280D01*
X122545012Y-93912847D01*
X122679640Y-93820988D01*
X122833040Y-93745996D01*
X122963459Y-93700458D01*
X123050623Y-93676533D01*
X123133996Y-93657943D01*
X123218976Y-93644084D01*
X123310965Y-93634351D01*
X123415362Y-93628141D01*
X123537568Y-93624851D01*
X123648055Y-93623924D01*
X123975677Y-93623027D01*
X123969401Y-93524547D01*
X123951579Y-93417695D01*
X123913667Y-93325852D01*
X123857280Y-93251310D01*
X123784031Y-93196364D01*
X123719535Y-93169552D01*
X123627123Y-93152654D01*
X123517111Y-93150227D01*
X123394656Y-93161378D01*
X123264914Y-93185210D01*
X123133042Y-93220830D01*
X123004198Y-93267343D01*
X122910566Y-93309883D01*
X122865517Y-93331728D01*
X122831156Y-93346984D01*
X122813681Y-93352937D01*
X122812733Y-93352746D01*
X122806703Y-93339412D01*
X122791645Y-93304068D01*
X122768977Y-93250101D01*
X122740115Y-93180896D01*
X122706477Y-93099840D01*
X122672284Y-93017118D01*
X122535586Y-92685803D01*
X122632820Y-92669833D01*
X122674964Y-92661820D01*
X122738319Y-92648361D01*
X122817457Y-92630679D01*
X122906951Y-92609996D01*
X123001373Y-92587532D01*
X123038973Y-92578403D01*
X123201637Y-92540674D01*
X123344050Y-92512388D01*
X123471527Y-92492972D01*
X123589384Y-92481854D01*
X123702938Y-92478464D01*
X123817505Y-92482229D01*
X123817505Y-92482229D01*
G37*
X123817505Y-92482229D02*
X123885531Y-92487378D01*
X124080163Y-92513273D01*
X124252529Y-92554575D01*
X124403470Y-92611853D01*
X124533825Y-92685674D01*
X124644434Y-92776608D01*
X124736135Y-92885222D01*
X124809770Y-93012085D01*
X124863539Y-93149352D01*
X124877187Y-93193137D01*
X124889073Y-93234141D01*
X124899334Y-93274569D01*
X124908113Y-93316630D01*
X124915548Y-93362531D01*
X124921780Y-93414480D01*
X124926950Y-93474685D01*
X124931196Y-93545352D01*
X124934660Y-93628689D01*
X124937481Y-93726905D01*
X124939800Y-93842205D01*
X124941757Y-93976799D01*
X124943491Y-94132893D01*
X124945143Y-94312695D01*
X124946324Y-94453676D01*
X124954270Y-95421622D01*
X125005756Y-95514770D01*
X125030137Y-95559645D01*
X125048280Y-95594501D01*
X125056935Y-95613054D01*
X125057243Y-95614311D01*
X125044014Y-95615749D01*
X125006326Y-95617074D01*
X124947183Y-95618249D01*
X124869586Y-95619237D01*
X124776536Y-95619999D01*
X124671035Y-95620500D01*
X124556084Y-95620701D01*
X124542378Y-95620703D01*
X124027513Y-95620703D01*
X124027513Y-95504000D01*
X124026635Y-95451260D01*
X124024292Y-95410926D01*
X124020921Y-95389300D01*
X124019431Y-95387298D01*
X124005804Y-95395683D01*
X123977757Y-95417692D01*
X123941303Y-95448601D01*
X123940485Y-95449316D01*
X123873962Y-95498843D01*
X123789948Y-95548575D01*
X123697937Y-95593626D01*
X123607421Y-95629110D01*
X123567567Y-95641236D01*
X123488255Y-95656637D01*
X123390935Y-95666465D01*
X123284516Y-95670580D01*
X123177907Y-95668841D01*
X123080017Y-95661108D01*
X123011513Y-95649981D01*
X122843520Y-95600648D01*
X122692281Y-95530342D01*
X122558782Y-95439933D01*
X122444006Y-95330295D01*
X122348937Y-95202299D01*
X122274560Y-95056818D01*
X122242474Y-94968541D01*
X122222365Y-94882739D01*
X122209038Y-94779736D01*
X122202872Y-94669034D01*
X122203074Y-94652925D01*
X123131648Y-94652925D01*
X123139348Y-94735184D01*
X123164989Y-94803546D01*
X123212378Y-94866970D01*
X123230579Y-94885567D01*
X123295282Y-94935846D01*
X123370066Y-94968056D01*
X123459662Y-94983648D01*
X123554012Y-94984796D01*
X123643501Y-94977216D01*
X123712018Y-94962389D01*
X123741775Y-94951253D01*
X123795408Y-94920904D01*
X123852235Y-94878221D01*
X123904082Y-94830317D01*
X123942778Y-94784301D01*
X123953054Y-94767421D01*
X123961042Y-94743782D01*
X123966721Y-94706168D01*
X123970356Y-94650985D01*
X123972211Y-94574640D01*
X123972594Y-94501981D01*
X123972335Y-94417270D01*
X123971287Y-94356018D01*
X123969045Y-94314227D01*
X123965206Y-94287899D01*
X123959365Y-94273035D01*
X123951118Y-94265639D01*
X123948567Y-94264461D01*
X123926400Y-94260833D01*
X123882680Y-94257866D01*
X123823311Y-94255827D01*
X123754196Y-94254983D01*
X123739189Y-94254982D01*
X123646805Y-94256457D01*
X123575432Y-94260842D01*
X123518719Y-94268738D01*
X123471872Y-94280270D01*
X123355669Y-94324215D01*
X123264543Y-94378243D01*
X123197705Y-94443219D01*
X123154365Y-94520005D01*
X123133734Y-94609467D01*
X123131648Y-94652925D01*
X122203074Y-94652925D01*
X122204244Y-94560133D01*
X122213532Y-94462536D01*
X122220777Y-94423105D01*
X122267039Y-94276701D01*
X122337384Y-94141995D01*
X122430484Y-94020280D01*
X122545012Y-93912847D01*
X122679640Y-93820988D01*
X122833040Y-93745996D01*
X122963459Y-93700458D01*
X123050623Y-93676533D01*
X123133996Y-93657943D01*
X123218976Y-93644084D01*
X123310965Y-93634351D01*
X123415362Y-93628141D01*
X123537568Y-93624851D01*
X123648055Y-93623924D01*
X123975677Y-93623027D01*
X123969401Y-93524547D01*
X123951579Y-93417695D01*
X123913667Y-93325852D01*
X123857280Y-93251310D01*
X123784031Y-93196364D01*
X123719535Y-93169552D01*
X123627123Y-93152654D01*
X123517111Y-93150227D01*
X123394656Y-93161378D01*
X123264914Y-93185210D01*
X123133042Y-93220830D01*
X123004198Y-93267343D01*
X122910566Y-93309883D01*
X122865517Y-93331728D01*
X122831156Y-93346984D01*
X122813681Y-93352937D01*
X122812733Y-93352746D01*
X122806703Y-93339412D01*
X122791645Y-93304068D01*
X122768977Y-93250101D01*
X122740115Y-93180896D01*
X122706477Y-93099840D01*
X122672284Y-93017118D01*
X122535586Y-92685803D01*
X122632820Y-92669833D01*
X122674964Y-92661820D01*
X122738319Y-92648361D01*
X122817457Y-92630679D01*
X122906951Y-92609996D01*
X123001373Y-92587532D01*
X123038973Y-92578403D01*
X123201637Y-92540674D01*
X123344050Y-92512388D01*
X123471527Y-92492972D01*
X123589384Y-92481854D01*
X123702938Y-92478464D01*
X123817505Y-92482229D01*
G36*
X127492270Y-91174825D02*
X127609041Y-91175304D01*
X127648729Y-91175545D01*
X128194486Y-91179135D01*
X128201351Y-93272919D01*
X128202258Y-93556842D01*
X128203062Y-93814640D01*
X128203815Y-94047646D01*
X128204569Y-94257194D01*
X128205375Y-94444618D01*
X128206285Y-94611250D01*
X128207351Y-94758425D01*
X128208624Y-94887477D01*
X128210156Y-94999739D01*
X128211998Y-95096544D01*
X128214203Y-95179226D01*
X128216822Y-95249119D01*
X128219906Y-95307557D01*
X128223508Y-95355872D01*
X128227678Y-95395400D01*
X128232469Y-95427473D01*
X128237931Y-95453424D01*
X128244118Y-95474589D01*
X128251080Y-95492299D01*
X128258869Y-95507889D01*
X128267537Y-95522693D01*
X128277135Y-95538044D01*
X128287715Y-95555276D01*
X128289884Y-95558946D01*
X128326268Y-95621031D01*
X127800431Y-95617434D01*
X127274594Y-95613838D01*
X127267729Y-95498331D01*
X127263992Y-95442899D01*
X127260097Y-95410851D01*
X127254811Y-95398135D01*
X127246903Y-95400696D01*
X127240270Y-95408024D01*
X127211374Y-95434714D01*
X127164279Y-95469021D01*
X127105620Y-95506846D01*
X127042031Y-95544090D01*
X126980149Y-95576653D01*
X126932634Y-95598077D01*
X126821316Y-95633283D01*
X126693596Y-95658222D01*
X126558901Y-95671941D01*
X126426663Y-95673486D01*
X126306308Y-95661906D01*
X126304326Y-95661574D01*
X126139641Y-95620250D01*
X125985479Y-95554412D01*
X125843328Y-95465474D01*
X125714675Y-95354852D01*
X125601007Y-95223961D01*
X125503810Y-95074216D01*
X125424572Y-94907033D01*
X125381430Y-94783190D01*
X125352979Y-94679581D01*
X125331880Y-94579252D01*
X125317488Y-94476109D01*
X125309158Y-94364057D01*
X125306245Y-94237001D01*
X125307535Y-94133252D01*
X126320650Y-94133252D01*
X126325444Y-94307222D01*
X126340568Y-94456895D01*
X126366485Y-94583597D01*
X126403663Y-94688658D01*
X126452565Y-94773406D01*
X126513658Y-94839169D01*
X126584177Y-94885659D01*
X126620871Y-94903014D01*
X126652696Y-94913419D01*
X126688177Y-94918179D01*
X126735841Y-94918601D01*
X126787189Y-94916748D01*
X126888169Y-94907841D01*
X126968035Y-94890398D01*
X126993135Y-94881661D01*
X127050448Y-94855857D01*
X127110897Y-94823453D01*
X127137297Y-94807233D01*
X127205946Y-94762205D01*
X127205946Y-93334982D01*
X127130432Y-93289718D01*
X127025121Y-93238572D01*
X126917525Y-93208324D01*
X126811581Y-93198795D01*
X126711224Y-93209807D01*
X126620387Y-93241181D01*
X126543007Y-93292740D01*
X126518039Y-93317488D01*
X126457856Y-93398577D01*
X126409145Y-93496734D01*
X126371499Y-93613643D01*
X126344512Y-93750985D01*
X126327775Y-93910444D01*
X126320883Y-94093700D01*
X126320650Y-94133252D01*
X125307535Y-94133252D01*
X125308073Y-94090067D01*
X125319647Y-93864053D01*
X125342920Y-93660192D01*
X125378504Y-93475513D01*
X125427013Y-93307048D01*
X125489060Y-93151826D01*
X125511201Y-93105808D01*
X125600385Y-92955739D01*
X125708159Y-92822377D01*
X125831990Y-92707877D01*
X125969342Y-92614389D01*
X126117683Y-92544068D01*
X126206604Y-92515060D01*
X126293933Y-92497840D01*
X126399011Y-92487594D01*
X126513029Y-92484318D01*
X126627177Y-92488009D01*
X126732648Y-92498660D01*
X126817334Y-92515370D01*
X126918128Y-92548140D01*
X127015822Y-92590279D01*
X127101296Y-92637519D01*
X127146789Y-92669581D01*
X127178169Y-92693422D01*
X127200142Y-92707939D01*
X127205141Y-92710000D01*
X127206690Y-92696718D01*
X127208135Y-92658663D01*
X127209443Y-92598519D01*
X127210583Y-92518973D01*
X127211521Y-92422711D01*
X127212226Y-92312419D01*
X127212667Y-92190781D01*
X127212811Y-92066885D01*
X127212730Y-91908196D01*
X127212335Y-91774408D01*
X127211395Y-91662960D01*
X127209680Y-91571295D01*
X127206957Y-91496853D01*
X127202997Y-91437075D01*
X127197569Y-91389402D01*
X127190441Y-91351274D01*
X127181384Y-91320134D01*
X127170167Y-91293421D01*
X127156558Y-91268577D01*
X127140328Y-91243043D01*
X127138240Y-91239881D01*
X127117306Y-91206810D01*
X127104667Y-91184069D01*
X127102973Y-91179272D01*
X127116216Y-91177759D01*
X127154002Y-91176528D01*
X127213416Y-91175599D01*
X127291542Y-91174992D01*
X127385465Y-91174727D01*
X127492270Y-91174825D01*
X127492270Y-91174825D01*
G37*
X127492270Y-91174825D02*
X127609041Y-91175304D01*
X127648729Y-91175545D01*
X128194486Y-91179135D01*
X128201351Y-93272919D01*
X128202258Y-93556842D01*
X128203062Y-93814640D01*
X128203815Y-94047646D01*
X128204569Y-94257194D01*
X128205375Y-94444618D01*
X128206285Y-94611250D01*
X128207351Y-94758425D01*
X128208624Y-94887477D01*
X128210156Y-94999739D01*
X128211998Y-95096544D01*
X128214203Y-95179226D01*
X128216822Y-95249119D01*
X128219906Y-95307557D01*
X128223508Y-95355872D01*
X128227678Y-95395400D01*
X128232469Y-95427473D01*
X128237931Y-95453424D01*
X128244118Y-95474589D01*
X128251080Y-95492299D01*
X128258869Y-95507889D01*
X128267537Y-95522693D01*
X128277135Y-95538044D01*
X128287715Y-95555276D01*
X128289884Y-95558946D01*
X128326268Y-95621031D01*
X127800431Y-95617434D01*
X127274594Y-95613838D01*
X127267729Y-95498331D01*
X127263992Y-95442899D01*
X127260097Y-95410851D01*
X127254811Y-95398135D01*
X127246903Y-95400696D01*
X127240270Y-95408024D01*
X127211374Y-95434714D01*
X127164279Y-95469021D01*
X127105620Y-95506846D01*
X127042031Y-95544090D01*
X126980149Y-95576653D01*
X126932634Y-95598077D01*
X126821316Y-95633283D01*
X126693596Y-95658222D01*
X126558901Y-95671941D01*
X126426663Y-95673486D01*
X126306308Y-95661906D01*
X126304326Y-95661574D01*
X126139641Y-95620250D01*
X125985479Y-95554412D01*
X125843328Y-95465474D01*
X125714675Y-95354852D01*
X125601007Y-95223961D01*
X125503810Y-95074216D01*
X125424572Y-94907033D01*
X125381430Y-94783190D01*
X125352979Y-94679581D01*
X125331880Y-94579252D01*
X125317488Y-94476109D01*
X125309158Y-94364057D01*
X125306245Y-94237001D01*
X125307535Y-94133252D01*
X126320650Y-94133252D01*
X126325444Y-94307222D01*
X126340568Y-94456895D01*
X126366485Y-94583597D01*
X126403663Y-94688658D01*
X126452565Y-94773406D01*
X126513658Y-94839169D01*
X126584177Y-94885659D01*
X126620871Y-94903014D01*
X126652696Y-94913419D01*
X126688177Y-94918179D01*
X126735841Y-94918601D01*
X126787189Y-94916748D01*
X126888169Y-94907841D01*
X126968035Y-94890398D01*
X126993135Y-94881661D01*
X127050448Y-94855857D01*
X127110897Y-94823453D01*
X127137297Y-94807233D01*
X127205946Y-94762205D01*
X127205946Y-93334982D01*
X127130432Y-93289718D01*
X127025121Y-93238572D01*
X126917525Y-93208324D01*
X126811581Y-93198795D01*
X126711224Y-93209807D01*
X126620387Y-93241181D01*
X126543007Y-93292740D01*
X126518039Y-93317488D01*
X126457856Y-93398577D01*
X126409145Y-93496734D01*
X126371499Y-93613643D01*
X126344512Y-93750985D01*
X126327775Y-93910444D01*
X126320883Y-94093700D01*
X126320650Y-94133252D01*
X125307535Y-94133252D01*
X125308073Y-94090067D01*
X125319647Y-93864053D01*
X125342920Y-93660192D01*
X125378504Y-93475513D01*
X125427013Y-93307048D01*
X125489060Y-93151826D01*
X125511201Y-93105808D01*
X125600385Y-92955739D01*
X125708159Y-92822377D01*
X125831990Y-92707877D01*
X125969342Y-92614389D01*
X126117683Y-92544068D01*
X126206604Y-92515060D01*
X126293933Y-92497840D01*
X126399011Y-92487594D01*
X126513029Y-92484318D01*
X126627177Y-92488009D01*
X126732648Y-92498660D01*
X126817334Y-92515370D01*
X126918128Y-92548140D01*
X127015822Y-92590279D01*
X127101296Y-92637519D01*
X127146789Y-92669581D01*
X127178169Y-92693422D01*
X127200142Y-92707939D01*
X127205141Y-92710000D01*
X127206690Y-92696718D01*
X127208135Y-92658663D01*
X127209443Y-92598519D01*
X127210583Y-92518973D01*
X127211521Y-92422711D01*
X127212226Y-92312419D01*
X127212667Y-92190781D01*
X127212811Y-92066885D01*
X127212730Y-91908196D01*
X127212335Y-91774408D01*
X127211395Y-91662960D01*
X127209680Y-91571295D01*
X127206957Y-91496853D01*
X127202997Y-91437075D01*
X127197569Y-91389402D01*
X127190441Y-91351274D01*
X127181384Y-91320134D01*
X127170167Y-91293421D01*
X127156558Y-91268577D01*
X127140328Y-91243043D01*
X127138240Y-91239881D01*
X127117306Y-91206810D01*
X127104667Y-91184069D01*
X127102973Y-91179272D01*
X127116216Y-91177759D01*
X127154002Y-91176528D01*
X127213416Y-91175599D01*
X127291542Y-91174992D01*
X127385465Y-91174727D01*
X127492270Y-91174825D01*
G36*
X117923921Y-90254490D02*
X118027027Y-90290238D01*
X118123022Y-90346507D01*
X118208753Y-90423288D01*
X118281070Y-90520573D01*
X118313555Y-90581892D01*
X118341668Y-90667660D01*
X118355295Y-90766677D01*
X118353786Y-90868471D01*
X118337031Y-90960714D01*
X118291237Y-91073432D01*
X118224832Y-91171207D01*
X118141191Y-91252115D01*
X118043688Y-91314232D01*
X117935700Y-91355634D01*
X117820601Y-91374397D01*
X117701766Y-91368598D01*
X117643189Y-91356206D01*
X117529028Y-91311797D01*
X117427635Y-91244033D01*
X117341455Y-91155001D01*
X117272934Y-91046791D01*
X117267136Y-91034973D01*
X117247096Y-90990628D01*
X117234513Y-90953280D01*
X117227681Y-90913880D01*
X117224895Y-90863381D01*
X117224432Y-90808433D01*
X117225197Y-90742415D01*
X117228648Y-90694689D01*
X117236523Y-90656103D01*
X117250557Y-90617506D01*
X117267880Y-90579426D01*
X117332495Y-90471328D01*
X117412066Y-90383803D01*
X117503440Y-90316841D01*
X117603464Y-90270436D01*
X117708988Y-90244581D01*
X117816858Y-90239268D01*
X117923921Y-90254490D01*
X117923921Y-90254490D01*
G37*
X117923921Y-90254490D02*
X118027027Y-90290238D01*
X118123022Y-90346507D01*
X118208753Y-90423288D01*
X118281070Y-90520573D01*
X118313555Y-90581892D01*
X118341668Y-90667660D01*
X118355295Y-90766677D01*
X118353786Y-90868471D01*
X118337031Y-90960714D01*
X118291237Y-91073432D01*
X118224832Y-91171207D01*
X118141191Y-91252115D01*
X118043688Y-91314232D01*
X117935700Y-91355634D01*
X117820601Y-91374397D01*
X117701766Y-91368598D01*
X117643189Y-91356206D01*
X117529028Y-91311797D01*
X117427635Y-91244033D01*
X117341455Y-91155001D01*
X117272934Y-91046791D01*
X117267136Y-91034973D01*
X117247096Y-90990628D01*
X117234513Y-90953280D01*
X117227681Y-90913880D01*
X117224895Y-90863381D01*
X117224432Y-90808433D01*
X117225197Y-90742415D01*
X117228648Y-90694689D01*
X117236523Y-90656103D01*
X117250557Y-90617506D01*
X117267880Y-90579426D01*
X117332495Y-90471328D01*
X117412066Y-90383803D01*
X117503440Y-90316841D01*
X117603464Y-90270436D01*
X117708988Y-90244581D01*
X117816858Y-90239268D01*
X117923921Y-90254490D01*
D15*
X171720000Y-128790000D02*
X174920000Y-128790000D01*
X174920000Y-130290000D02*
X171720000Y-130290000D01*
X174920000Y-130290000D02*
X174920000Y-128790000D01*
X171720000Y-131330000D02*
X174920000Y-131330000D01*
X174920000Y-132830000D02*
X171720000Y-132830000D01*
X174920000Y-132830000D02*
X174920000Y-131330000D01*
X171720000Y-133870000D02*
X174920000Y-133870000D01*
X174920000Y-135370000D02*
X171720000Y-135370000D01*
X174920000Y-135370000D02*
X174920000Y-133870000D01*
X143960000Y-58420462D02*
G75*
G03X138410000Y-56875170I-2990000J462D01*
G01*
X143960000Y-58419538D02*
G75*
G02X138410000Y-59964830I-2990000J-462D01*
G01*
X143470000Y-58420000D02*
G75*
G03X143470000Y-58420000I-2500000J0D01*
G01*
X138410000Y-56875000D02*
X138410000Y-59965000D01*
X149546000Y-106740000D02*
X152206000Y-106740000D01*
X149546000Y-104140000D02*
X149546000Y-106740000D01*
X152206000Y-104140000D02*
X152206000Y-106740000D01*
X149546000Y-104140000D02*
X152206000Y-104140000D01*
X149546000Y-102870000D02*
X149546000Y-101540000D01*
X149546000Y-101540000D02*
X150876000Y-101540000D01*
X129346000Y-59242000D02*
X129346000Y-56582000D01*
X126746000Y-59242000D02*
X129346000Y-59242000D01*
X126746000Y-56582000D02*
X129346000Y-56582000D01*
X126746000Y-59242000D02*
X126746000Y-56582000D01*
X125476000Y-59242000D02*
X124146000Y-59242000D01*
X124146000Y-59242000D02*
X124146000Y-57912000D01*
X119828000Y-130496000D02*
X119828000Y-133156000D01*
X127508000Y-130496000D02*
X119828000Y-130496000D01*
X127508000Y-133156000D02*
X119828000Y-133156000D01*
X127508000Y-130496000D02*
X127508000Y-133156000D01*
X128778000Y-130496000D02*
X130108000Y-130496000D01*
X130108000Y-130496000D02*
X130108000Y-131826000D01*
X160080000Y-133918000D02*
X160080000Y-131258000D01*
X152400000Y-133918000D02*
X160080000Y-133918000D01*
X152400000Y-131258000D02*
X160080000Y-131258000D01*
X152400000Y-133918000D02*
X152400000Y-131258000D01*
X151130000Y-133918000D02*
X149800000Y-133918000D01*
X149800000Y-133918000D02*
X149800000Y-132588000D01*
X157540000Y-59242000D02*
X157540000Y-56582000D01*
X154940000Y-59242000D02*
X157540000Y-59242000D01*
X154940000Y-56582000D02*
X157540000Y-56582000D01*
X154940000Y-59242000D02*
X154940000Y-56582000D01*
X153670000Y-59242000D02*
X152340000Y-59242000D01*
X152340000Y-59242000D02*
X152340000Y-57912000D01*
X122368000Y-100016000D02*
X122368000Y-102676000D01*
X130048000Y-100016000D02*
X122368000Y-100016000D01*
X130048000Y-102676000D02*
X122368000Y-102676000D01*
X130048000Y-100016000D02*
X130048000Y-102676000D01*
X131318000Y-100016000D02*
X132648000Y-100016000D01*
X132648000Y-100016000D02*
X132648000Y-101346000D01*
X111058000Y-105978000D02*
X111058000Y-103318000D01*
X108458000Y-105978000D02*
X111058000Y-105978000D01*
X108458000Y-103318000D02*
X111058000Y-103318000D01*
X108458000Y-105978000D02*
X108458000Y-103318000D01*
X107188000Y-105978000D02*
X105858000Y-105978000D01*
X105858000Y-105978000D02*
X105858000Y-104648000D01*
X154550000Y-127162000D02*
X154550000Y-128362000D01*
X152790000Y-128362000D02*
X152790000Y-127162000D01*
X157090000Y-127162000D02*
X157090000Y-128362000D01*
X155330000Y-128362000D02*
X155330000Y-127162000D01*
X141824000Y-63872000D02*
X140624000Y-63872000D01*
X140624000Y-62112000D02*
X141824000Y-62112000D01*
X167478000Y-130420000D02*
X166278000Y-130420000D01*
X166278000Y-128660000D02*
X167478000Y-128660000D01*
X167478000Y-132960000D02*
X166278000Y-132960000D01*
X166278000Y-131200000D02*
X167478000Y-131200000D01*
X167478000Y-135500000D02*
X166278000Y-135500000D01*
X166278000Y-133740000D02*
X167478000Y-133740000D01*
D13*
X107160000Y-132560000D02*
X112240000Y-132560000D01*
X112240000Y-132560000D02*
X112240000Y-137640000D01*
X112240000Y-137640000D02*
X107160000Y-137640000D01*
X107160000Y-137640000D02*
X107160000Y-132560000D01*
X111496051Y-135100000D02*
G75*
G03X111496051Y-135100000I-1796051J0D01*
G01*
D15*
X142808000Y-133460000D02*
X142808000Y-133120000D01*
X142808000Y-133120000D02*
X137608000Y-133120000D01*
X137608000Y-133120000D02*
X137608000Y-133460000D01*
X142808000Y-135780000D02*
X142808000Y-136120000D01*
X142808000Y-136120000D02*
X137608000Y-136120000D01*
X137608000Y-136120000D02*
X137608000Y-135780000D01*
X138438000Y-137770000D02*
X138038000Y-137770000D01*
X138438000Y-137770000D02*
X138438000Y-138170000D01*
X138438000Y-137770000D02*
X137638000Y-138570000D01*
X139438000Y-138170000D02*
X138638000Y-138970000D01*
X139438000Y-138170000D02*
X139438000Y-138570000D01*
X139438000Y-138170000D02*
X139038000Y-138170000D01*
X138108083Y-136121736D02*
G75*
G03X142308000Y-136120000I2099917J101736D01*
G01*
D14*
G36*
X106991241Y-98369184D02*
X107017753Y-98382282D01*
X107050447Y-98405106D01*
X107074275Y-98429996D01*
X107090594Y-98461249D01*
X107100760Y-98503166D01*
X107106128Y-98560044D01*
X107108056Y-98636184D01*
X107108169Y-98668917D01*
X107107839Y-98740656D01*
X107106473Y-98791927D01*
X107103500Y-98827404D01*
X107098351Y-98851763D01*
X107090457Y-98869680D01*
X107082243Y-98881902D01*
X107029813Y-98933905D01*
X106968070Y-98965184D01*
X106901464Y-98974592D01*
X106834442Y-98960980D01*
X106813208Y-98951354D01*
X106762376Y-98924859D01*
X106762376Y-99340052D01*
X106799475Y-99320868D01*
X106848357Y-99306025D01*
X106908439Y-99302222D01*
X106968436Y-99309243D01*
X107013744Y-99325013D01*
X107051325Y-99355047D01*
X107083436Y-99398024D01*
X107085850Y-99402436D01*
X107096033Y-99423221D01*
X107103470Y-99444170D01*
X107108589Y-99469548D01*
X107111819Y-99503618D01*
X107113587Y-99550641D01*
X107114323Y-99614882D01*
X107114456Y-99687176D01*
X107114456Y-99917822D01*
X106976139Y-99917822D01*
X106976139Y-99492533D01*
X106937451Y-99459979D01*
X106897262Y-99433940D01*
X106859203Y-99429205D01*
X106820934Y-99441389D01*
X106800538Y-99453320D01*
X106785358Y-99470313D01*
X106774562Y-99495995D01*
X106767317Y-99533991D01*
X106762792Y-99587926D01*
X106760156Y-99661425D01*
X106759228Y-99710347D01*
X106756089Y-99911535D01*
X106690074Y-99915336D01*
X106624060Y-99919136D01*
X106624060Y-98670650D01*
X106762376Y-98670650D01*
X106765903Y-98740254D01*
X106777785Y-98788569D01*
X106799980Y-98818631D01*
X106834441Y-98833471D01*
X106869258Y-98836436D01*
X106908671Y-98833028D01*
X106934829Y-98819617D01*
X106951186Y-98801896D01*
X106964063Y-98782835D01*
X106971728Y-98761601D01*
X106975139Y-98731849D01*
X106975251Y-98687236D01*
X106974103Y-98649880D01*
X106971468Y-98593604D01*
X106967544Y-98556658D01*
X106960937Y-98533223D01*
X106950251Y-98517480D01*
X106940167Y-98508380D01*
X106898030Y-98488537D01*
X106848160Y-98485332D01*
X106819524Y-98492168D01*
X106791172Y-98516464D01*
X106772391Y-98563728D01*
X106763288Y-98633624D01*
X106762376Y-98670650D01*
X106624060Y-98670650D01*
X106624060Y-98358614D01*
X106693218Y-98358614D01*
X106734740Y-98360256D01*
X106756162Y-98366087D01*
X106762374Y-98377461D01*
X106762376Y-98377798D01*
X106765258Y-98388938D01*
X106777970Y-98387673D01*
X106803243Y-98375433D01*
X106862131Y-98356707D01*
X106928385Y-98354739D01*
X106991241Y-98369184D01*
X106991241Y-98369184D01*
G37*
X106991241Y-98369184D02*
X107017753Y-98382282D01*
X107050447Y-98405106D01*
X107074275Y-98429996D01*
X107090594Y-98461249D01*
X107100760Y-98503166D01*
X107106128Y-98560044D01*
X107108056Y-98636184D01*
X107108169Y-98668917D01*
X107107839Y-98740656D01*
X107106473Y-98791927D01*
X107103500Y-98827404D01*
X107098351Y-98851763D01*
X107090457Y-98869680D01*
X107082243Y-98881902D01*
X107029813Y-98933905D01*
X106968070Y-98965184D01*
X106901464Y-98974592D01*
X106834442Y-98960980D01*
X106813208Y-98951354D01*
X106762376Y-98924859D01*
X106762376Y-99340052D01*
X106799475Y-99320868D01*
X106848357Y-99306025D01*
X106908439Y-99302222D01*
X106968436Y-99309243D01*
X107013744Y-99325013D01*
X107051325Y-99355047D01*
X107083436Y-99398024D01*
X107085850Y-99402436D01*
X107096033Y-99423221D01*
X107103470Y-99444170D01*
X107108589Y-99469548D01*
X107111819Y-99503618D01*
X107113587Y-99550641D01*
X107114323Y-99614882D01*
X107114456Y-99687176D01*
X107114456Y-99917822D01*
X106976139Y-99917822D01*
X106976139Y-99492533D01*
X106937451Y-99459979D01*
X106897262Y-99433940D01*
X106859203Y-99429205D01*
X106820934Y-99441389D01*
X106800538Y-99453320D01*
X106785358Y-99470313D01*
X106774562Y-99495995D01*
X106767317Y-99533991D01*
X106762792Y-99587926D01*
X106760156Y-99661425D01*
X106759228Y-99710347D01*
X106756089Y-99911535D01*
X106690074Y-99915336D01*
X106624060Y-99919136D01*
X106624060Y-98670650D01*
X106762376Y-98670650D01*
X106765903Y-98740254D01*
X106777785Y-98788569D01*
X106799980Y-98818631D01*
X106834441Y-98833471D01*
X106869258Y-98836436D01*
X106908671Y-98833028D01*
X106934829Y-98819617D01*
X106951186Y-98801896D01*
X106964063Y-98782835D01*
X106971728Y-98761601D01*
X106975139Y-98731849D01*
X106975251Y-98687236D01*
X106974103Y-98649880D01*
X106971468Y-98593604D01*
X106967544Y-98556658D01*
X106960937Y-98533223D01*
X106950251Y-98517480D01*
X106940167Y-98508380D01*
X106898030Y-98488537D01*
X106848160Y-98485332D01*
X106819524Y-98492168D01*
X106791172Y-98516464D01*
X106772391Y-98563728D01*
X106763288Y-98633624D01*
X106762376Y-98670650D01*
X106624060Y-98670650D01*
X106624060Y-98358614D01*
X106693218Y-98358614D01*
X106734740Y-98360256D01*
X106756162Y-98366087D01*
X106762374Y-98377461D01*
X106762376Y-98377798D01*
X106765258Y-98388938D01*
X106777970Y-98387673D01*
X106803243Y-98375433D01*
X106862131Y-98356707D01*
X106928385Y-98354739D01*
X106991241Y-98369184D01*
G36*
X107515790Y-99306555D02*
X107574945Y-99322339D01*
X107619977Y-99350948D01*
X107651754Y-99388419D01*
X107661634Y-99404411D01*
X107668927Y-99421163D01*
X107674026Y-99442592D01*
X107677321Y-99472616D01*
X107679203Y-99515154D01*
X107680063Y-99574122D01*
X107680293Y-99653440D01*
X107680297Y-99674484D01*
X107680297Y-99917822D01*
X107619941Y-99917822D01*
X107581443Y-99915126D01*
X107552977Y-99908295D01*
X107545845Y-99904083D01*
X107526348Y-99896813D01*
X107506434Y-99904083D01*
X107473647Y-99913160D01*
X107426022Y-99916813D01*
X107373236Y-99915228D01*
X107324964Y-99908589D01*
X107296782Y-99900072D01*
X107242247Y-99865063D01*
X107208165Y-99816479D01*
X107192843Y-99751882D01*
X107192701Y-99750223D01*
X107194045Y-99721566D01*
X107315644Y-99721566D01*
X107326274Y-99754161D01*
X107343590Y-99772505D01*
X107378348Y-99786379D01*
X107424227Y-99791917D01*
X107471012Y-99789191D01*
X107508486Y-99778274D01*
X107518985Y-99771269D01*
X107537332Y-99738904D01*
X107541980Y-99702111D01*
X107541980Y-99653763D01*
X107472418Y-99653763D01*
X107406333Y-99658850D01*
X107356236Y-99673263D01*
X107325071Y-99695729D01*
X107315644Y-99721566D01*
X107194045Y-99721566D01*
X107196013Y-99679647D01*
X107219290Y-99623845D01*
X107263052Y-99581647D01*
X107269101Y-99577808D01*
X107295093Y-99565309D01*
X107327265Y-99557740D01*
X107372240Y-99554061D01*
X107425669Y-99553216D01*
X107541980Y-99553169D01*
X107541980Y-99504411D01*
X107537047Y-99466581D01*
X107524457Y-99441236D01*
X107522983Y-99439887D01*
X107494966Y-99428800D01*
X107452674Y-99424503D01*
X107405936Y-99426615D01*
X107364582Y-99434756D01*
X107340043Y-99446965D01*
X107326747Y-99456746D01*
X107312706Y-99458613D01*
X107293329Y-99450600D01*
X107264024Y-99430739D01*
X107220197Y-99397063D01*
X107216175Y-99393909D01*
X107218236Y-99382236D01*
X107235432Y-99362822D01*
X107261567Y-99341248D01*
X107290448Y-99323096D01*
X107299522Y-99318809D01*
X107332620Y-99310256D01*
X107381120Y-99304155D01*
X107435305Y-99301708D01*
X107437839Y-99301703D01*
X107515790Y-99306555D01*
X107515790Y-99306555D01*
G37*
X107515790Y-99306555D02*
X107574945Y-99322339D01*
X107619977Y-99350948D01*
X107651754Y-99388419D01*
X107661634Y-99404411D01*
X107668927Y-99421163D01*
X107674026Y-99442592D01*
X107677321Y-99472616D01*
X107679203Y-99515154D01*
X107680063Y-99574122D01*
X107680293Y-99653440D01*
X107680297Y-99674484D01*
X107680297Y-99917822D01*
X107619941Y-99917822D01*
X107581443Y-99915126D01*
X107552977Y-99908295D01*
X107545845Y-99904083D01*
X107526348Y-99896813D01*
X107506434Y-99904083D01*
X107473647Y-99913160D01*
X107426022Y-99916813D01*
X107373236Y-99915228D01*
X107324964Y-99908589D01*
X107296782Y-99900072D01*
X107242247Y-99865063D01*
X107208165Y-99816479D01*
X107192843Y-99751882D01*
X107192701Y-99750223D01*
X107194045Y-99721566D01*
X107315644Y-99721566D01*
X107326274Y-99754161D01*
X107343590Y-99772505D01*
X107378348Y-99786379D01*
X107424227Y-99791917D01*
X107471012Y-99789191D01*
X107508486Y-99778274D01*
X107518985Y-99771269D01*
X107537332Y-99738904D01*
X107541980Y-99702111D01*
X107541980Y-99653763D01*
X107472418Y-99653763D01*
X107406333Y-99658850D01*
X107356236Y-99673263D01*
X107325071Y-99695729D01*
X107315644Y-99721566D01*
X107194045Y-99721566D01*
X107196013Y-99679647D01*
X107219290Y-99623845D01*
X107263052Y-99581647D01*
X107269101Y-99577808D01*
X107295093Y-99565309D01*
X107327265Y-99557740D01*
X107372240Y-99554061D01*
X107425669Y-99553216D01*
X107541980Y-99553169D01*
X107541980Y-99504411D01*
X107537047Y-99466581D01*
X107524457Y-99441236D01*
X107522983Y-99439887D01*
X107494966Y-99428800D01*
X107452674Y-99424503D01*
X107405936Y-99426615D01*
X107364582Y-99434756D01*
X107340043Y-99446965D01*
X107326747Y-99456746D01*
X107312706Y-99458613D01*
X107293329Y-99450600D01*
X107264024Y-99430739D01*
X107220197Y-99397063D01*
X107216175Y-99393909D01*
X107218236Y-99382236D01*
X107235432Y-99362822D01*
X107261567Y-99341248D01*
X107290448Y-99323096D01*
X107299522Y-99318809D01*
X107332620Y-99310256D01*
X107381120Y-99304155D01*
X107435305Y-99301708D01*
X107437839Y-99301703D01*
X107515790Y-99306555D01*
G36*
X107906644Y-99303020D02*
X107925461Y-99308660D01*
X107931527Y-99321053D01*
X107931782Y-99326647D01*
X107932871Y-99342230D01*
X107940368Y-99344676D01*
X107960619Y-99333993D01*
X107972649Y-99326694D01*
X108010600Y-99311063D01*
X108055928Y-99303334D01*
X108103456Y-99302740D01*
X108148005Y-99308513D01*
X108184398Y-99319884D01*
X108207457Y-99336088D01*
X108212004Y-99356355D01*
X108209709Y-99361843D01*
X108192980Y-99384626D01*
X108167037Y-99412647D01*
X108162345Y-99417177D01*
X108137617Y-99438005D01*
X108116282Y-99444735D01*
X108086445Y-99440038D01*
X108074492Y-99436917D01*
X108037295Y-99429421D01*
X108011141Y-99432792D01*
X107989054Y-99444681D01*
X107968822Y-99460635D01*
X107953921Y-99480700D01*
X107943566Y-99508702D01*
X107936971Y-99548467D01*
X107933351Y-99603823D01*
X107931922Y-99678594D01*
X107931782Y-99723740D01*
X107931782Y-99917822D01*
X107806040Y-99917822D01*
X107806040Y-99301683D01*
X107868911Y-99301683D01*
X107906644Y-99303020D01*
X107906644Y-99303020D01*
G37*
X107906644Y-99303020D02*
X107925461Y-99308660D01*
X107931527Y-99321053D01*
X107931782Y-99326647D01*
X107932871Y-99342230D01*
X107940368Y-99344676D01*
X107960619Y-99333993D01*
X107972649Y-99326694D01*
X108010600Y-99311063D01*
X108055928Y-99303334D01*
X108103456Y-99302740D01*
X108148005Y-99308513D01*
X108184398Y-99319884D01*
X108207457Y-99336088D01*
X108212004Y-99356355D01*
X108209709Y-99361843D01*
X108192980Y-99384626D01*
X108167037Y-99412647D01*
X108162345Y-99417177D01*
X108137617Y-99438005D01*
X108116282Y-99444735D01*
X108086445Y-99440038D01*
X108074492Y-99436917D01*
X108037295Y-99429421D01*
X108011141Y-99432792D01*
X107989054Y-99444681D01*
X107968822Y-99460635D01*
X107953921Y-99480700D01*
X107943566Y-99508702D01*
X107936971Y-99548467D01*
X107933351Y-99603823D01*
X107931922Y-99678594D01*
X107931782Y-99723740D01*
X107931782Y-99917822D01*
X107806040Y-99917822D01*
X107806040Y-99301683D01*
X107868911Y-99301683D01*
X107906644Y-99303020D01*
G36*
X108698812Y-99917822D02*
X108629654Y-99917822D01*
X108589512Y-99916645D01*
X108568606Y-99911772D01*
X108561078Y-99901186D01*
X108560495Y-99894029D01*
X108559226Y-99879676D01*
X108551221Y-99876923D01*
X108530185Y-99885771D01*
X108513827Y-99894029D01*
X108451023Y-99913597D01*
X108382752Y-99914729D01*
X108327248Y-99900135D01*
X108275562Y-99864877D01*
X108236162Y-99812835D01*
X108214587Y-99751450D01*
X108214038Y-99748018D01*
X108210833Y-99710571D01*
X108209239Y-99656813D01*
X108209367Y-99616155D01*
X108346721Y-99616155D01*
X108349903Y-99670194D01*
X108357141Y-99714735D01*
X108366940Y-99739888D01*
X108404011Y-99774260D01*
X108448026Y-99786582D01*
X108493416Y-99776618D01*
X108532203Y-99746895D01*
X108546892Y-99726905D01*
X108555481Y-99703050D01*
X108559504Y-99668230D01*
X108560495Y-99615930D01*
X108558722Y-99564139D01*
X108554037Y-99518634D01*
X108547397Y-99488181D01*
X108546290Y-99485452D01*
X108519509Y-99453000D01*
X108480421Y-99435183D01*
X108436685Y-99432306D01*
X108395962Y-99444674D01*
X108365913Y-99472593D01*
X108362796Y-99478148D01*
X108353039Y-99512022D01*
X108347723Y-99560728D01*
X108346721Y-99616155D01*
X108209367Y-99616155D01*
X108209432Y-99595540D01*
X108210336Y-99562563D01*
X108216486Y-99480981D01*
X108229267Y-99419730D01*
X108250529Y-99374449D01*
X108282122Y-99340779D01*
X108312793Y-99321014D01*
X108355646Y-99307120D01*
X108408944Y-99302354D01*
X108463520Y-99306236D01*
X108510208Y-99318282D01*
X108534876Y-99332693D01*
X108560495Y-99355878D01*
X108560495Y-99062773D01*
X108698812Y-99062773D01*
X108698812Y-99917822D01*
X108698812Y-99917822D01*
G37*
X108698812Y-99917822D02*
X108629654Y-99917822D01*
X108589512Y-99916645D01*
X108568606Y-99911772D01*
X108561078Y-99901186D01*
X108560495Y-99894029D01*
X108559226Y-99879676D01*
X108551221Y-99876923D01*
X108530185Y-99885771D01*
X108513827Y-99894029D01*
X108451023Y-99913597D01*
X108382752Y-99914729D01*
X108327248Y-99900135D01*
X108275562Y-99864877D01*
X108236162Y-99812835D01*
X108214587Y-99751450D01*
X108214038Y-99748018D01*
X108210833Y-99710571D01*
X108209239Y-99656813D01*
X108209367Y-99616155D01*
X108346721Y-99616155D01*
X108349903Y-99670194D01*
X108357141Y-99714735D01*
X108366940Y-99739888D01*
X108404011Y-99774260D01*
X108448026Y-99786582D01*
X108493416Y-99776618D01*
X108532203Y-99746895D01*
X108546892Y-99726905D01*
X108555481Y-99703050D01*
X108559504Y-99668230D01*
X108560495Y-99615930D01*
X108558722Y-99564139D01*
X108554037Y-99518634D01*
X108547397Y-99488181D01*
X108546290Y-99485452D01*
X108519509Y-99453000D01*
X108480421Y-99435183D01*
X108436685Y-99432306D01*
X108395962Y-99444674D01*
X108365913Y-99472593D01*
X108362796Y-99478148D01*
X108353039Y-99512022D01*
X108347723Y-99560728D01*
X108346721Y-99616155D01*
X108209367Y-99616155D01*
X108209432Y-99595540D01*
X108210336Y-99562563D01*
X108216486Y-99480981D01*
X108229267Y-99419730D01*
X108250529Y-99374449D01*
X108282122Y-99340779D01*
X108312793Y-99321014D01*
X108355646Y-99307120D01*
X108408944Y-99302354D01*
X108463520Y-99306236D01*
X108510208Y-99318282D01*
X108534876Y-99332693D01*
X108560495Y-99355878D01*
X108560495Y-99062773D01*
X108698812Y-99062773D01*
X108698812Y-99917822D01*
G36*
X109181524Y-99304237D02*
X109231255Y-99307971D01*
X109361291Y-99697773D01*
X109381678Y-99628614D01*
X109393946Y-99585874D01*
X109410085Y-99528115D01*
X109427512Y-99464625D01*
X109436726Y-99430570D01*
X109471388Y-99301683D01*
X109614391Y-99301683D01*
X109571646Y-99436857D01*
X109550596Y-99503342D01*
X109525167Y-99583539D01*
X109498610Y-99667193D01*
X109474902Y-99741782D01*
X109420902Y-99911535D01*
X109362598Y-99915328D01*
X109304295Y-99919122D01*
X109272679Y-99814734D01*
X109253182Y-99749889D01*
X109231904Y-99678400D01*
X109213308Y-99615263D01*
X109212574Y-99612750D01*
X109198684Y-99569969D01*
X109186429Y-99540779D01*
X109177846Y-99529741D01*
X109176082Y-99531018D01*
X109169891Y-99548130D01*
X109158128Y-99584787D01*
X109142225Y-99636378D01*
X109123614Y-99698294D01*
X109113543Y-99732352D01*
X109059007Y-99917822D01*
X108943264Y-99917822D01*
X108850737Y-99625471D01*
X108824744Y-99543462D01*
X108801066Y-99468987D01*
X108780820Y-99405544D01*
X108765126Y-99356632D01*
X108755102Y-99325749D01*
X108752055Y-99316726D01*
X108754467Y-99307487D01*
X108773408Y-99303441D01*
X108812823Y-99303846D01*
X108818993Y-99304152D01*
X108892086Y-99307971D01*
X108939957Y-99484010D01*
X108957553Y-99548211D01*
X108973277Y-99604649D01*
X108985746Y-99648422D01*
X108993574Y-99674630D01*
X108995020Y-99678903D01*
X109001014Y-99673990D01*
X109013101Y-99648532D01*
X109029893Y-99605997D01*
X109050003Y-99549850D01*
X109067003Y-99499130D01*
X109131794Y-99300504D01*
X109181524Y-99304237D01*
X109181524Y-99304237D01*
G37*
X109181524Y-99304237D02*
X109231255Y-99307971D01*
X109361291Y-99697773D01*
X109381678Y-99628614D01*
X109393946Y-99585874D01*
X109410085Y-99528115D01*
X109427512Y-99464625D01*
X109436726Y-99430570D01*
X109471388Y-99301683D01*
X109614391Y-99301683D01*
X109571646Y-99436857D01*
X109550596Y-99503342D01*
X109525167Y-99583539D01*
X109498610Y-99667193D01*
X109474902Y-99741782D01*
X109420902Y-99911535D01*
X109362598Y-99915328D01*
X109304295Y-99919122D01*
X109272679Y-99814734D01*
X109253182Y-99749889D01*
X109231904Y-99678400D01*
X109213308Y-99615263D01*
X109212574Y-99612750D01*
X109198684Y-99569969D01*
X109186429Y-99540779D01*
X109177846Y-99529741D01*
X109176082Y-99531018D01*
X109169891Y-99548130D01*
X109158128Y-99584787D01*
X109142225Y-99636378D01*
X109123614Y-99698294D01*
X109113543Y-99732352D01*
X109059007Y-99917822D01*
X108943264Y-99917822D01*
X108850737Y-99625471D01*
X108824744Y-99543462D01*
X108801066Y-99468987D01*
X108780820Y-99405544D01*
X108765126Y-99356632D01*
X108755102Y-99325749D01*
X108752055Y-99316726D01*
X108754467Y-99307487D01*
X108773408Y-99303441D01*
X108812823Y-99303846D01*
X108818993Y-99304152D01*
X108892086Y-99307971D01*
X108939957Y-99484010D01*
X108957553Y-99548211D01*
X108973277Y-99604649D01*
X108985746Y-99648422D01*
X108993574Y-99674630D01*
X108995020Y-99678903D01*
X109001014Y-99673990D01*
X109013101Y-99648532D01*
X109029893Y-99605997D01*
X109050003Y-99549850D01*
X109067003Y-99499130D01*
X109131794Y-99300504D01*
X109181524Y-99304237D01*
G36*
X109938411Y-99305417D02*
X109991411Y-99318290D01*
X110006731Y-99325110D01*
X110036428Y-99342974D01*
X110059220Y-99363093D01*
X110076083Y-99388962D01*
X110087998Y-99424073D01*
X110095942Y-99471920D01*
X110100894Y-99535996D01*
X110103831Y-99619794D01*
X110104947Y-99675768D01*
X110109052Y-99917822D01*
X110038932Y-99917822D01*
X109996393Y-99916038D01*
X109974476Y-99909942D01*
X109968812Y-99899706D01*
X109965821Y-99888637D01*
X109952451Y-99890754D01*
X109934233Y-99899629D01*
X109888624Y-99913233D01*
X109830007Y-99916899D01*
X109768354Y-99910903D01*
X109713638Y-99895521D01*
X109708730Y-99893386D01*
X109658723Y-99858255D01*
X109625756Y-99809419D01*
X109610587Y-99752333D01*
X109611746Y-99731824D01*
X109735508Y-99731824D01*
X109746413Y-99759425D01*
X109778745Y-99779204D01*
X109830910Y-99789819D01*
X109858787Y-99791228D01*
X109905247Y-99787620D01*
X109936129Y-99773597D01*
X109943664Y-99766931D01*
X109964076Y-99730666D01*
X109968812Y-99697773D01*
X109968812Y-99653763D01*
X109907513Y-99653763D01*
X109836256Y-99657395D01*
X109786276Y-99668818D01*
X109754696Y-99688824D01*
X109747626Y-99697743D01*
X109735508Y-99731824D01*
X109611746Y-99731824D01*
X109613971Y-99692456D01*
X109636663Y-99635244D01*
X109667624Y-99596580D01*
X109686376Y-99579864D01*
X109704733Y-99568878D01*
X109728619Y-99562180D01*
X109763957Y-99558326D01*
X109816669Y-99555873D01*
X109837577Y-99555168D01*
X109968812Y-99550879D01*
X109968620Y-99511158D01*
X109963537Y-99469405D01*
X109945162Y-99444158D01*
X109908039Y-99428030D01*
X109907043Y-99427742D01*
X109854410Y-99421400D01*
X109802906Y-99429684D01*
X109764630Y-99449827D01*
X109749272Y-99459773D01*
X109732730Y-99458397D01*
X109707275Y-99443987D01*
X109692328Y-99433817D01*
X109663091Y-99412088D01*
X109644980Y-99395800D01*
X109642074Y-99391137D01*
X109654040Y-99367005D01*
X109689396Y-99338185D01*
X109704753Y-99328461D01*
X109748901Y-99311714D01*
X109808398Y-99302227D01*
X109874487Y-99300095D01*
X109938411Y-99305417D01*
X109938411Y-99305417D01*
G37*
X109938411Y-99305417D02*
X109991411Y-99318290D01*
X110006731Y-99325110D01*
X110036428Y-99342974D01*
X110059220Y-99363093D01*
X110076083Y-99388962D01*
X110087998Y-99424073D01*
X110095942Y-99471920D01*
X110100894Y-99535996D01*
X110103831Y-99619794D01*
X110104947Y-99675768D01*
X110109052Y-99917822D01*
X110038932Y-99917822D01*
X109996393Y-99916038D01*
X109974476Y-99909942D01*
X109968812Y-99899706D01*
X109965821Y-99888637D01*
X109952451Y-99890754D01*
X109934233Y-99899629D01*
X109888624Y-99913233D01*
X109830007Y-99916899D01*
X109768354Y-99910903D01*
X109713638Y-99895521D01*
X109708730Y-99893386D01*
X109658723Y-99858255D01*
X109625756Y-99809419D01*
X109610587Y-99752333D01*
X109611746Y-99731824D01*
X109735508Y-99731824D01*
X109746413Y-99759425D01*
X109778745Y-99779204D01*
X109830910Y-99789819D01*
X109858787Y-99791228D01*
X109905247Y-99787620D01*
X109936129Y-99773597D01*
X109943664Y-99766931D01*
X109964076Y-99730666D01*
X109968812Y-99697773D01*
X109968812Y-99653763D01*
X109907513Y-99653763D01*
X109836256Y-99657395D01*
X109786276Y-99668818D01*
X109754696Y-99688824D01*
X109747626Y-99697743D01*
X109735508Y-99731824D01*
X109611746Y-99731824D01*
X109613971Y-99692456D01*
X109636663Y-99635244D01*
X109667624Y-99596580D01*
X109686376Y-99579864D01*
X109704733Y-99568878D01*
X109728619Y-99562180D01*
X109763957Y-99558326D01*
X109816669Y-99555873D01*
X109837577Y-99555168D01*
X109968812Y-99550879D01*
X109968620Y-99511158D01*
X109963537Y-99469405D01*
X109945162Y-99444158D01*
X109908039Y-99428030D01*
X109907043Y-99427742D01*
X109854410Y-99421400D01*
X109802906Y-99429684D01*
X109764630Y-99449827D01*
X109749272Y-99459773D01*
X109732730Y-99458397D01*
X109707275Y-99443987D01*
X109692328Y-99433817D01*
X109663091Y-99412088D01*
X109644980Y-99395800D01*
X109642074Y-99391137D01*
X109654040Y-99367005D01*
X109689396Y-99338185D01*
X109704753Y-99328461D01*
X109748901Y-99311714D01*
X109808398Y-99302227D01*
X109874487Y-99300095D01*
X109938411Y-99305417D01*
G36*
X110535255Y-99301486D02*
X110583595Y-99311015D01*
X110611114Y-99325125D01*
X110640064Y-99348568D01*
X110598876Y-99400571D01*
X110573482Y-99432064D01*
X110556238Y-99447428D01*
X110539102Y-99449776D01*
X110514027Y-99442217D01*
X110502257Y-99437941D01*
X110454270Y-99431631D01*
X110410324Y-99445156D01*
X110378060Y-99475710D01*
X110372819Y-99485452D01*
X110367112Y-99511258D01*
X110362706Y-99558817D01*
X110359811Y-99624758D01*
X110358631Y-99705710D01*
X110358614Y-99717226D01*
X110358614Y-99917822D01*
X110220297Y-99917822D01*
X110220297Y-99301683D01*
X110289456Y-99301683D01*
X110329333Y-99302725D01*
X110350107Y-99307358D01*
X110357789Y-99317849D01*
X110358614Y-99327745D01*
X110358614Y-99353806D01*
X110391745Y-99327745D01*
X110429735Y-99309965D01*
X110480770Y-99301174D01*
X110535255Y-99301486D01*
X110535255Y-99301486D01*
G37*
X110535255Y-99301486D02*
X110583595Y-99311015D01*
X110611114Y-99325125D01*
X110640064Y-99348568D01*
X110598876Y-99400571D01*
X110573482Y-99432064D01*
X110556238Y-99447428D01*
X110539102Y-99449776D01*
X110514027Y-99442217D01*
X110502257Y-99437941D01*
X110454270Y-99431631D01*
X110410324Y-99445156D01*
X110378060Y-99475710D01*
X110372819Y-99485452D01*
X110367112Y-99511258D01*
X110362706Y-99558817D01*
X110359811Y-99624758D01*
X110358631Y-99705710D01*
X110358614Y-99717226D01*
X110358614Y-99917822D01*
X110220297Y-99917822D01*
X110220297Y-99301683D01*
X110289456Y-99301683D01*
X110329333Y-99302725D01*
X110350107Y-99307358D01*
X110357789Y-99317849D01*
X110358614Y-99327745D01*
X110358614Y-99353806D01*
X110391745Y-99327745D01*
X110429735Y-99309965D01*
X110480770Y-99301174D01*
X110535255Y-99301486D01*
G36*
X110932581Y-99304970D02*
X110992685Y-99320597D01*
X111043021Y-99352848D01*
X111067393Y-99376940D01*
X111107345Y-99433895D01*
X111130242Y-99499965D01*
X111138108Y-99581182D01*
X111138148Y-99587748D01*
X111138218Y-99653763D01*
X110758264Y-99653763D01*
X110766363Y-99688342D01*
X110780987Y-99719659D01*
X110806581Y-99752291D01*
X110811935Y-99757500D01*
X110857943Y-99785694D01*
X110910410Y-99790475D01*
X110970803Y-99771926D01*
X110981040Y-99766931D01*
X111012439Y-99751745D01*
X111033470Y-99743094D01*
X111037139Y-99742293D01*
X111049948Y-99750063D01*
X111074378Y-99769072D01*
X111086779Y-99779460D01*
X111112476Y-99803321D01*
X111120915Y-99819077D01*
X111115058Y-99833571D01*
X111111928Y-99837534D01*
X111090725Y-99854879D01*
X111055738Y-99875959D01*
X111031337Y-99888265D01*
X110962072Y-99909946D01*
X110885388Y-99916971D01*
X110812765Y-99908647D01*
X110792426Y-99902686D01*
X110729476Y-99868952D01*
X110682815Y-99817045D01*
X110652173Y-99746459D01*
X110637282Y-99656692D01*
X110635647Y-99609753D01*
X110640421Y-99541413D01*
X110760990Y-99541413D01*
X110772652Y-99546465D01*
X110803998Y-99550429D01*
X110849571Y-99552768D01*
X110880446Y-99553169D01*
X110935981Y-99552783D01*
X110971033Y-99550975D01*
X110990262Y-99546773D01*
X110998330Y-99539203D01*
X110999901Y-99528218D01*
X110989121Y-99494381D01*
X110961980Y-99460940D01*
X110926277Y-99435272D01*
X110890560Y-99424772D01*
X110842048Y-99434086D01*
X110800053Y-99461013D01*
X110770936Y-99499827D01*
X110760990Y-99541413D01*
X110640421Y-99541413D01*
X110642599Y-99510236D01*
X110664055Y-99430949D01*
X110700470Y-99371263D01*
X110752297Y-99330549D01*
X110819990Y-99308179D01*
X110856662Y-99303871D01*
X110932581Y-99304970D01*
X110932581Y-99304970D01*
G37*
X110932581Y-99304970D02*
X110992685Y-99320597D01*
X111043021Y-99352848D01*
X111067393Y-99376940D01*
X111107345Y-99433895D01*
X111130242Y-99499965D01*
X111138108Y-99581182D01*
X111138148Y-99587748D01*
X111138218Y-99653763D01*
X110758264Y-99653763D01*
X110766363Y-99688342D01*
X110780987Y-99719659D01*
X110806581Y-99752291D01*
X110811935Y-99757500D01*
X110857943Y-99785694D01*
X110910410Y-99790475D01*
X110970803Y-99771926D01*
X110981040Y-99766931D01*
X111012439Y-99751745D01*
X111033470Y-99743094D01*
X111037139Y-99742293D01*
X111049948Y-99750063D01*
X111074378Y-99769072D01*
X111086779Y-99779460D01*
X111112476Y-99803321D01*
X111120915Y-99819077D01*
X111115058Y-99833571D01*
X111111928Y-99837534D01*
X111090725Y-99854879D01*
X111055738Y-99875959D01*
X111031337Y-99888265D01*
X110962072Y-99909946D01*
X110885388Y-99916971D01*
X110812765Y-99908647D01*
X110792426Y-99902686D01*
X110729476Y-99868952D01*
X110682815Y-99817045D01*
X110652173Y-99746459D01*
X110637282Y-99656692D01*
X110635647Y-99609753D01*
X110640421Y-99541413D01*
X110760990Y-99541413D01*
X110772652Y-99546465D01*
X110803998Y-99550429D01*
X110849571Y-99552768D01*
X110880446Y-99553169D01*
X110935981Y-99552783D01*
X110971033Y-99550975D01*
X110990262Y-99546773D01*
X110998330Y-99539203D01*
X110999901Y-99528218D01*
X110989121Y-99494381D01*
X110961980Y-99460940D01*
X110926277Y-99435272D01*
X110890560Y-99424772D01*
X110842048Y-99434086D01*
X110800053Y-99461013D01*
X110770936Y-99499827D01*
X110760990Y-99541413D01*
X110640421Y-99541413D01*
X110642599Y-99510236D01*
X110664055Y-99430949D01*
X110700470Y-99371263D01*
X110752297Y-99330549D01*
X110819990Y-99308179D01*
X110856662Y-99303871D01*
X110932581Y-99304970D01*
G36*
X106361739Y-98365148D02*
X106427521Y-98394231D01*
X106477460Y-98442793D01*
X106511626Y-98510908D01*
X106530093Y-98598651D01*
X106531417Y-98612351D01*
X106532454Y-98708939D01*
X106519007Y-98793602D01*
X106491892Y-98862221D01*
X106477373Y-98884294D01*
X106426799Y-98931011D01*
X106362391Y-98961268D01*
X106290334Y-98973824D01*
X106216815Y-98967439D01*
X106160928Y-98947772D01*
X106112868Y-98914629D01*
X106073588Y-98871175D01*
X106072908Y-98870158D01*
X106056956Y-98843338D01*
X106046590Y-98816368D01*
X106040312Y-98782332D01*
X106036627Y-98734310D01*
X106035003Y-98694931D01*
X106034328Y-98659219D01*
X106160045Y-98659219D01*
X106161274Y-98694770D01*
X106165734Y-98742094D01*
X106173603Y-98772465D01*
X106187793Y-98794072D01*
X106201083Y-98806694D01*
X106248198Y-98833122D01*
X106297495Y-98836653D01*
X106343407Y-98817639D01*
X106366362Y-98796331D01*
X106382904Y-98774859D01*
X106392579Y-98754313D01*
X106396826Y-98727574D01*
X106397080Y-98687523D01*
X106395772Y-98650638D01*
X106392957Y-98597947D01*
X106388495Y-98563772D01*
X106380452Y-98541480D01*
X106366897Y-98524442D01*
X106356155Y-98514703D01*
X106311223Y-98489123D01*
X106262751Y-98487847D01*
X106222106Y-98502999D01*
X106187433Y-98534642D01*
X106166776Y-98586620D01*
X106160045Y-98659219D01*
X106034328Y-98659219D01*
X106033521Y-98616621D01*
X106036052Y-98558056D01*
X106043638Y-98514007D01*
X106057319Y-98479248D01*
X106078135Y-98448551D01*
X106085853Y-98439436D01*
X106134111Y-98394021D01*
X106185872Y-98367493D01*
X106249172Y-98356379D01*
X106280039Y-98355471D01*
X106361739Y-98365148D01*
X106361739Y-98365148D01*
G37*
X106361739Y-98365148D02*
X106427521Y-98394231D01*
X106477460Y-98442793D01*
X106511626Y-98510908D01*
X106530093Y-98598651D01*
X106531417Y-98612351D01*
X106532454Y-98708939D01*
X106519007Y-98793602D01*
X106491892Y-98862221D01*
X106477373Y-98884294D01*
X106426799Y-98931011D01*
X106362391Y-98961268D01*
X106290334Y-98973824D01*
X106216815Y-98967439D01*
X106160928Y-98947772D01*
X106112868Y-98914629D01*
X106073588Y-98871175D01*
X106072908Y-98870158D01*
X106056956Y-98843338D01*
X106046590Y-98816368D01*
X106040312Y-98782332D01*
X106036627Y-98734310D01*
X106035003Y-98694931D01*
X106034328Y-98659219D01*
X106160045Y-98659219D01*
X106161274Y-98694770D01*
X106165734Y-98742094D01*
X106173603Y-98772465D01*
X106187793Y-98794072D01*
X106201083Y-98806694D01*
X106248198Y-98833122D01*
X106297495Y-98836653D01*
X106343407Y-98817639D01*
X106366362Y-98796331D01*
X106382904Y-98774859D01*
X106392579Y-98754313D01*
X106396826Y-98727574D01*
X106397080Y-98687523D01*
X106395772Y-98650638D01*
X106392957Y-98597947D01*
X106388495Y-98563772D01*
X106380452Y-98541480D01*
X106366897Y-98524442D01*
X106356155Y-98514703D01*
X106311223Y-98489123D01*
X106262751Y-98487847D01*
X106222106Y-98502999D01*
X106187433Y-98534642D01*
X106166776Y-98586620D01*
X106160045Y-98659219D01*
X106034328Y-98659219D01*
X106033521Y-98616621D01*
X106036052Y-98558056D01*
X106043638Y-98514007D01*
X106057319Y-98479248D01*
X106078135Y-98448551D01*
X106085853Y-98439436D01*
X106134111Y-98394021D01*
X106185872Y-98367493D01*
X106249172Y-98356379D01*
X106280039Y-98355471D01*
X106361739Y-98365148D01*
G36*
X107543301Y-98372614D02*
X107555832Y-98378514D01*
X107599201Y-98410283D01*
X107640210Y-98456646D01*
X107670832Y-98507696D01*
X107679541Y-98531166D01*
X107687488Y-98573091D01*
X107692226Y-98623757D01*
X107692801Y-98644679D01*
X107692871Y-98710693D01*
X107312917Y-98710693D01*
X107321017Y-98745273D01*
X107340896Y-98786170D01*
X107375653Y-98821514D01*
X107417002Y-98844282D01*
X107443351Y-98849010D01*
X107479084Y-98843273D01*
X107521718Y-98828882D01*
X107536201Y-98822262D01*
X107589760Y-98795513D01*
X107635467Y-98830376D01*
X107661842Y-98853955D01*
X107675876Y-98873417D01*
X107676586Y-98879129D01*
X107664049Y-98892973D01*
X107636572Y-98914012D01*
X107611634Y-98930425D01*
X107544336Y-98959930D01*
X107468890Y-98973284D01*
X107394112Y-98969812D01*
X107334505Y-98951663D01*
X107273059Y-98912784D01*
X107229392Y-98861595D01*
X107202074Y-98795367D01*
X107189678Y-98711371D01*
X107188579Y-98672936D01*
X107192978Y-98584861D01*
X107193518Y-98582299D01*
X107319418Y-98582299D01*
X107322885Y-98590558D01*
X107337137Y-98595113D01*
X107366530Y-98597065D01*
X107415425Y-98597517D01*
X107434252Y-98597525D01*
X107491533Y-98596843D01*
X107527859Y-98594364D01*
X107547396Y-98589443D01*
X107554310Y-98581434D01*
X107554555Y-98578862D01*
X107546664Y-98558423D01*
X107526915Y-98529789D01*
X107518425Y-98519763D01*
X107486906Y-98491408D01*
X107454051Y-98480259D01*
X107436349Y-98479327D01*
X107388461Y-98490981D01*
X107348301Y-98522285D01*
X107322827Y-98567752D01*
X107322375Y-98569233D01*
X107319418Y-98582299D01*
X107193518Y-98582299D01*
X107207608Y-98515510D01*
X107233962Y-98460025D01*
X107266193Y-98420639D01*
X107325783Y-98377931D01*
X107395832Y-98355109D01*
X107470339Y-98353046D01*
X107543301Y-98372614D01*
X107543301Y-98372614D01*
G37*
X107543301Y-98372614D02*
X107555832Y-98378514D01*
X107599201Y-98410283D01*
X107640210Y-98456646D01*
X107670832Y-98507696D01*
X107679541Y-98531166D01*
X107687488Y-98573091D01*
X107692226Y-98623757D01*
X107692801Y-98644679D01*
X107692871Y-98710693D01*
X107312917Y-98710693D01*
X107321017Y-98745273D01*
X107340896Y-98786170D01*
X107375653Y-98821514D01*
X107417002Y-98844282D01*
X107443351Y-98849010D01*
X107479084Y-98843273D01*
X107521718Y-98828882D01*
X107536201Y-98822262D01*
X107589760Y-98795513D01*
X107635467Y-98830376D01*
X107661842Y-98853955D01*
X107675876Y-98873417D01*
X107676586Y-98879129D01*
X107664049Y-98892973D01*
X107636572Y-98914012D01*
X107611634Y-98930425D01*
X107544336Y-98959930D01*
X107468890Y-98973284D01*
X107394112Y-98969812D01*
X107334505Y-98951663D01*
X107273059Y-98912784D01*
X107229392Y-98861595D01*
X107202074Y-98795367D01*
X107189678Y-98711371D01*
X107188579Y-98672936D01*
X107192978Y-98584861D01*
X107193518Y-98582299D01*
X107319418Y-98582299D01*
X107322885Y-98590558D01*
X107337137Y-98595113D01*
X107366530Y-98597065D01*
X107415425Y-98597517D01*
X107434252Y-98597525D01*
X107491533Y-98596843D01*
X107527859Y-98594364D01*
X107547396Y-98589443D01*
X107554310Y-98581434D01*
X107554555Y-98578862D01*
X107546664Y-98558423D01*
X107526915Y-98529789D01*
X107518425Y-98519763D01*
X107486906Y-98491408D01*
X107454051Y-98480259D01*
X107436349Y-98479327D01*
X107388461Y-98490981D01*
X107348301Y-98522285D01*
X107322827Y-98567752D01*
X107322375Y-98569233D01*
X107319418Y-98582299D01*
X107193518Y-98582299D01*
X107207608Y-98515510D01*
X107233962Y-98460025D01*
X107266193Y-98420639D01*
X107325783Y-98377931D01*
X107395832Y-98355109D01*
X107470339Y-98353046D01*
X107543301Y-98372614D01*
G36*
X108914017Y-98356452D02*
X108961634Y-98365482D01*
X109011034Y-98384370D01*
X109016312Y-98386777D01*
X109053774Y-98406476D01*
X109079717Y-98424781D01*
X109088103Y-98436508D01*
X109080117Y-98455632D01*
X109060720Y-98483850D01*
X109052110Y-98494384D01*
X109016628Y-98535847D01*
X108970885Y-98508858D01*
X108927350Y-98490878D01*
X108877050Y-98481267D01*
X108828812Y-98480660D01*
X108791467Y-98489691D01*
X108782505Y-98495327D01*
X108765437Y-98521171D01*
X108763363Y-98550941D01*
X108776134Y-98574197D01*
X108783688Y-98578708D01*
X108806325Y-98584309D01*
X108846115Y-98590892D01*
X108895166Y-98597183D01*
X108904215Y-98598170D01*
X108982996Y-98611798D01*
X109040136Y-98634946D01*
X109078030Y-98669752D01*
X109099079Y-98718354D01*
X109105635Y-98777718D01*
X109096577Y-98845198D01*
X109067164Y-98898188D01*
X109017278Y-98936783D01*
X108946800Y-98961081D01*
X108868565Y-98970667D01*
X108804766Y-98970552D01*
X108753016Y-98961845D01*
X108717673Y-98949825D01*
X108673017Y-98928880D01*
X108631747Y-98904574D01*
X108617079Y-98893876D01*
X108579357Y-98863084D01*
X108624852Y-98817049D01*
X108670347Y-98771013D01*
X108722072Y-98805243D01*
X108773952Y-98830952D01*
X108829351Y-98844399D01*
X108882605Y-98845818D01*
X108928049Y-98835443D01*
X108960016Y-98813507D01*
X108970338Y-98794998D01*
X108968789Y-98765314D01*
X108943140Y-98742615D01*
X108893460Y-98726940D01*
X108839031Y-98719695D01*
X108755264Y-98705873D01*
X108693033Y-98679796D01*
X108651507Y-98640699D01*
X108629853Y-98587820D01*
X108626853Y-98525126D01*
X108641671Y-98459642D01*
X108675454Y-98410144D01*
X108728505Y-98376408D01*
X108801126Y-98358207D01*
X108854928Y-98354639D01*
X108914017Y-98356452D01*
X108914017Y-98356452D01*
G37*
X108914017Y-98356452D02*
X108961634Y-98365482D01*
X109011034Y-98384370D01*
X109016312Y-98386777D01*
X109053774Y-98406476D01*
X109079717Y-98424781D01*
X109088103Y-98436508D01*
X109080117Y-98455632D01*
X109060720Y-98483850D01*
X109052110Y-98494384D01*
X109016628Y-98535847D01*
X108970885Y-98508858D01*
X108927350Y-98490878D01*
X108877050Y-98481267D01*
X108828812Y-98480660D01*
X108791467Y-98489691D01*
X108782505Y-98495327D01*
X108765437Y-98521171D01*
X108763363Y-98550941D01*
X108776134Y-98574197D01*
X108783688Y-98578708D01*
X108806325Y-98584309D01*
X108846115Y-98590892D01*
X108895166Y-98597183D01*
X108904215Y-98598170D01*
X108982996Y-98611798D01*
X109040136Y-98634946D01*
X109078030Y-98669752D01*
X109099079Y-98718354D01*
X109105635Y-98777718D01*
X109096577Y-98845198D01*
X109067164Y-98898188D01*
X109017278Y-98936783D01*
X108946800Y-98961081D01*
X108868565Y-98970667D01*
X108804766Y-98970552D01*
X108753016Y-98961845D01*
X108717673Y-98949825D01*
X108673017Y-98928880D01*
X108631747Y-98904574D01*
X108617079Y-98893876D01*
X108579357Y-98863084D01*
X108624852Y-98817049D01*
X108670347Y-98771013D01*
X108722072Y-98805243D01*
X108773952Y-98830952D01*
X108829351Y-98844399D01*
X108882605Y-98845818D01*
X108928049Y-98835443D01*
X108960016Y-98813507D01*
X108970338Y-98794998D01*
X108968789Y-98765314D01*
X108943140Y-98742615D01*
X108893460Y-98726940D01*
X108839031Y-98719695D01*
X108755264Y-98705873D01*
X108693033Y-98679796D01*
X108651507Y-98640699D01*
X108629853Y-98587820D01*
X108626853Y-98525126D01*
X108641671Y-98459642D01*
X108675454Y-98410144D01*
X108728505Y-98376408D01*
X108801126Y-98358207D01*
X108854928Y-98354639D01*
X108914017Y-98356452D01*
G36*
X109510762Y-98366055D02*
X109574363Y-98400692D01*
X109624123Y-98455372D01*
X109647568Y-98499842D01*
X109657634Y-98539121D01*
X109664156Y-98595116D01*
X109666951Y-98659621D01*
X109665836Y-98724429D01*
X109660626Y-98781334D01*
X109654541Y-98811727D01*
X109634014Y-98853306D01*
X109598463Y-98897468D01*
X109555619Y-98936087D01*
X109513211Y-98961034D01*
X109512177Y-98961430D01*
X109459553Y-98972331D01*
X109397188Y-98972601D01*
X109337924Y-98962676D01*
X109315040Y-98954722D01*
X109256102Y-98921300D01*
X109213890Y-98877511D01*
X109186156Y-98819538D01*
X109170651Y-98743565D01*
X109167143Y-98703771D01*
X109167590Y-98653766D01*
X109302376Y-98653766D01*
X109306917Y-98726732D01*
X109319986Y-98782334D01*
X109340756Y-98817861D01*
X109355552Y-98828020D01*
X109393464Y-98835104D01*
X109438527Y-98833007D01*
X109477487Y-98822812D01*
X109487704Y-98817204D01*
X109514659Y-98784538D01*
X109532451Y-98734545D01*
X109540024Y-98673705D01*
X109536325Y-98608497D01*
X109528057Y-98569253D01*
X109504320Y-98523805D01*
X109466849Y-98495396D01*
X109421720Y-98485573D01*
X109375011Y-98495887D01*
X109339132Y-98521112D01*
X109320277Y-98541925D01*
X109309272Y-98562439D01*
X109304026Y-98590203D01*
X109302449Y-98632762D01*
X109302376Y-98653766D01*
X109167590Y-98653766D01*
X109168094Y-98597580D01*
X109185388Y-98510501D01*
X109219029Y-98442530D01*
X109269018Y-98393664D01*
X109335356Y-98363899D01*
X109349601Y-98360448D01*
X109435210Y-98352345D01*
X109510762Y-98366055D01*
X109510762Y-98366055D01*
G37*
X109510762Y-98366055D02*
X109574363Y-98400692D01*
X109624123Y-98455372D01*
X109647568Y-98499842D01*
X109657634Y-98539121D01*
X109664156Y-98595116D01*
X109666951Y-98659621D01*
X109665836Y-98724429D01*
X109660626Y-98781334D01*
X109654541Y-98811727D01*
X109634014Y-98853306D01*
X109598463Y-98897468D01*
X109555619Y-98936087D01*
X109513211Y-98961034D01*
X109512177Y-98961430D01*
X109459553Y-98972331D01*
X109397188Y-98972601D01*
X109337924Y-98962676D01*
X109315040Y-98954722D01*
X109256102Y-98921300D01*
X109213890Y-98877511D01*
X109186156Y-98819538D01*
X109170651Y-98743565D01*
X109167143Y-98703771D01*
X109167590Y-98653766D01*
X109302376Y-98653766D01*
X109306917Y-98726732D01*
X109319986Y-98782334D01*
X109340756Y-98817861D01*
X109355552Y-98828020D01*
X109393464Y-98835104D01*
X109438527Y-98833007D01*
X109477487Y-98822812D01*
X109487704Y-98817204D01*
X109514659Y-98784538D01*
X109532451Y-98734545D01*
X109540024Y-98673705D01*
X109536325Y-98608497D01*
X109528057Y-98569253D01*
X109504320Y-98523805D01*
X109466849Y-98495396D01*
X109421720Y-98485573D01*
X109375011Y-98495887D01*
X109339132Y-98521112D01*
X109320277Y-98541925D01*
X109309272Y-98562439D01*
X109304026Y-98590203D01*
X109302449Y-98632762D01*
X109302376Y-98653766D01*
X109167590Y-98653766D01*
X109168094Y-98597580D01*
X109185388Y-98510501D01*
X109219029Y-98442530D01*
X109269018Y-98393664D01*
X109335356Y-98363899D01*
X109349601Y-98360448D01*
X109435210Y-98352345D01*
X109510762Y-98366055D01*
G36*
X109893367Y-98554342D02*
X109894555Y-98646563D01*
X109898897Y-98716610D01*
X109907558Y-98767381D01*
X109921704Y-98801772D01*
X109942500Y-98822679D01*
X109971110Y-98833000D01*
X110006535Y-98835636D01*
X110043636Y-98832682D01*
X110071818Y-98821889D01*
X110092243Y-98800360D01*
X110106079Y-98765199D01*
X110114491Y-98713510D01*
X110118643Y-98642394D01*
X110119703Y-98554342D01*
X110119703Y-98358614D01*
X110258020Y-98358614D01*
X110258020Y-98962179D01*
X110188862Y-98962179D01*
X110147170Y-98960489D01*
X110125701Y-98954556D01*
X110119703Y-98943293D01*
X110116091Y-98933261D01*
X110101714Y-98935383D01*
X110072736Y-98949580D01*
X110006319Y-98971480D01*
X109935875Y-98969928D01*
X109868377Y-98946147D01*
X109836233Y-98927362D01*
X109811715Y-98907022D01*
X109793804Y-98881573D01*
X109781479Y-98847458D01*
X109773723Y-98801121D01*
X109769516Y-98739007D01*
X109767840Y-98657561D01*
X109767624Y-98594578D01*
X109767624Y-98358614D01*
X109893367Y-98358614D01*
X109893367Y-98554342D01*
X109893367Y-98554342D01*
G37*
X109893367Y-98554342D02*
X109894555Y-98646563D01*
X109898897Y-98716610D01*
X109907558Y-98767381D01*
X109921704Y-98801772D01*
X109942500Y-98822679D01*
X109971110Y-98833000D01*
X110006535Y-98835636D01*
X110043636Y-98832682D01*
X110071818Y-98821889D01*
X110092243Y-98800360D01*
X110106079Y-98765199D01*
X110114491Y-98713510D01*
X110118643Y-98642394D01*
X110119703Y-98554342D01*
X110119703Y-98358614D01*
X110258020Y-98358614D01*
X110258020Y-98962179D01*
X110188862Y-98962179D01*
X110147170Y-98960489D01*
X110125701Y-98954556D01*
X110119703Y-98943293D01*
X110116091Y-98933261D01*
X110101714Y-98935383D01*
X110072736Y-98949580D01*
X110006319Y-98971480D01*
X109935875Y-98969928D01*
X109868377Y-98946147D01*
X109836233Y-98927362D01*
X109811715Y-98907022D01*
X109793804Y-98881573D01*
X109781479Y-98847458D01*
X109773723Y-98801121D01*
X109769516Y-98739007D01*
X109767840Y-98657561D01*
X109767624Y-98594578D01*
X109767624Y-98358614D01*
X109893367Y-98358614D01*
X109893367Y-98554342D01*
G36*
X111117226Y-98363880D02*
X111190080Y-98394830D01*
X111213027Y-98409895D01*
X111242354Y-98433048D01*
X111260764Y-98451253D01*
X111263961Y-98457183D01*
X111254935Y-98470340D01*
X111231837Y-98492667D01*
X111213344Y-98508250D01*
X111162728Y-98548926D01*
X111122760Y-98515295D01*
X111091874Y-98493584D01*
X111061759Y-98486090D01*
X111027292Y-98487920D01*
X110972561Y-98501528D01*
X110934886Y-98529772D01*
X110911991Y-98575433D01*
X110901597Y-98641289D01*
X110901595Y-98641331D01*
X110902494Y-98714939D01*
X110916463Y-98768946D01*
X110944328Y-98805716D01*
X110963325Y-98818168D01*
X111013776Y-98833673D01*
X111067663Y-98833683D01*
X111114546Y-98818638D01*
X111125644Y-98811287D01*
X111153476Y-98792511D01*
X111175236Y-98789434D01*
X111198704Y-98803409D01*
X111224649Y-98828510D01*
X111265716Y-98870880D01*
X111220121Y-98908464D01*
X111149674Y-98950882D01*
X111070233Y-98971785D01*
X110987215Y-98970272D01*
X110932694Y-98956411D01*
X110868970Y-98922135D01*
X110818005Y-98868212D01*
X110794851Y-98830149D01*
X110776099Y-98775536D01*
X110766715Y-98706369D01*
X110766643Y-98631407D01*
X110775824Y-98559409D01*
X110794199Y-98499137D01*
X110797093Y-98492958D01*
X110839952Y-98432351D01*
X110897979Y-98388224D01*
X110966591Y-98361493D01*
X111041201Y-98353073D01*
X111117226Y-98363880D01*
X111117226Y-98363880D01*
G37*
X111117226Y-98363880D02*
X111190080Y-98394830D01*
X111213027Y-98409895D01*
X111242354Y-98433048D01*
X111260764Y-98451253D01*
X111263961Y-98457183D01*
X111254935Y-98470340D01*
X111231837Y-98492667D01*
X111213344Y-98508250D01*
X111162728Y-98548926D01*
X111122760Y-98515295D01*
X111091874Y-98493584D01*
X111061759Y-98486090D01*
X111027292Y-98487920D01*
X110972561Y-98501528D01*
X110934886Y-98529772D01*
X110911991Y-98575433D01*
X110901597Y-98641289D01*
X110901595Y-98641331D01*
X110902494Y-98714939D01*
X110916463Y-98768946D01*
X110944328Y-98805716D01*
X110963325Y-98818168D01*
X111013776Y-98833673D01*
X111067663Y-98833683D01*
X111114546Y-98818638D01*
X111125644Y-98811287D01*
X111153476Y-98792511D01*
X111175236Y-98789434D01*
X111198704Y-98803409D01*
X111224649Y-98828510D01*
X111265716Y-98870880D01*
X111220121Y-98908464D01*
X111149674Y-98950882D01*
X111070233Y-98971785D01*
X110987215Y-98970272D01*
X110932694Y-98956411D01*
X110868970Y-98922135D01*
X110818005Y-98868212D01*
X110794851Y-98830149D01*
X110776099Y-98775536D01*
X110766715Y-98706369D01*
X110766643Y-98631407D01*
X110775824Y-98559409D01*
X110794199Y-98499137D01*
X110797093Y-98492958D01*
X110839952Y-98432351D01*
X110897979Y-98388224D01*
X110966591Y-98361493D01*
X111041201Y-98353073D01*
X111117226Y-98363880D01*
G36*
X111577898Y-98356457D02*
X111610096Y-98364279D01*
X111671825Y-98392921D01*
X111724610Y-98436667D01*
X111761141Y-98489117D01*
X111766160Y-98500893D01*
X111773045Y-98531740D01*
X111777864Y-98577371D01*
X111779505Y-98623492D01*
X111779505Y-98710693D01*
X111597178Y-98710693D01*
X111521979Y-98710978D01*
X111469003Y-98712704D01*
X111435325Y-98717181D01*
X111418020Y-98725720D01*
X111414163Y-98739630D01*
X111420829Y-98760222D01*
X111432770Y-98784315D01*
X111466080Y-98824525D01*
X111512368Y-98844558D01*
X111568944Y-98843905D01*
X111633031Y-98822101D01*
X111688417Y-98795193D01*
X111734375Y-98831532D01*
X111780333Y-98867872D01*
X111737096Y-98907819D01*
X111679374Y-98945563D01*
X111608386Y-98968320D01*
X111532029Y-98974688D01*
X111458199Y-98963268D01*
X111446287Y-98959393D01*
X111381399Y-98925506D01*
X111333130Y-98874986D01*
X111300465Y-98806325D01*
X111282385Y-98718014D01*
X111282175Y-98716121D01*
X111280556Y-98619878D01*
X111287100Y-98585542D01*
X111414852Y-98585542D01*
X111426584Y-98590822D01*
X111458438Y-98594867D01*
X111505397Y-98597176D01*
X111535154Y-98597525D01*
X111590648Y-98597306D01*
X111625346Y-98595916D01*
X111643601Y-98592251D01*
X111649766Y-98585210D01*
X111648195Y-98573690D01*
X111646878Y-98569233D01*
X111624382Y-98527355D01*
X111589003Y-98493604D01*
X111557780Y-98478773D01*
X111516301Y-98479668D01*
X111474269Y-98498164D01*
X111439012Y-98528786D01*
X111417854Y-98566062D01*
X111414852Y-98585542D01*
X111287100Y-98585542D01*
X111296690Y-98535229D01*
X111328698Y-98464191D01*
X111374701Y-98408779D01*
X111432821Y-98371009D01*
X111501180Y-98352896D01*
X111577898Y-98356457D01*
X111577898Y-98356457D01*
G37*
X111577898Y-98356457D02*
X111610096Y-98364279D01*
X111671825Y-98392921D01*
X111724610Y-98436667D01*
X111761141Y-98489117D01*
X111766160Y-98500893D01*
X111773045Y-98531740D01*
X111777864Y-98577371D01*
X111779505Y-98623492D01*
X111779505Y-98710693D01*
X111597178Y-98710693D01*
X111521979Y-98710978D01*
X111469003Y-98712704D01*
X111435325Y-98717181D01*
X111418020Y-98725720D01*
X111414163Y-98739630D01*
X111420829Y-98760222D01*
X111432770Y-98784315D01*
X111466080Y-98824525D01*
X111512368Y-98844558D01*
X111568944Y-98843905D01*
X111633031Y-98822101D01*
X111688417Y-98795193D01*
X111734375Y-98831532D01*
X111780333Y-98867872D01*
X111737096Y-98907819D01*
X111679374Y-98945563D01*
X111608386Y-98968320D01*
X111532029Y-98974688D01*
X111458199Y-98963268D01*
X111446287Y-98959393D01*
X111381399Y-98925506D01*
X111333130Y-98874986D01*
X111300465Y-98806325D01*
X111282385Y-98718014D01*
X111282175Y-98716121D01*
X111280556Y-98619878D01*
X111287100Y-98585542D01*
X111414852Y-98585542D01*
X111426584Y-98590822D01*
X111458438Y-98594867D01*
X111505397Y-98597176D01*
X111535154Y-98597525D01*
X111590648Y-98597306D01*
X111625346Y-98595916D01*
X111643601Y-98592251D01*
X111649766Y-98585210D01*
X111648195Y-98573690D01*
X111646878Y-98569233D01*
X111624382Y-98527355D01*
X111589003Y-98493604D01*
X111557780Y-98478773D01*
X111516301Y-98479668D01*
X111474269Y-98498164D01*
X111439012Y-98528786D01*
X111417854Y-98566062D01*
X111414852Y-98585542D01*
X111287100Y-98585542D01*
X111296690Y-98535229D01*
X111328698Y-98464191D01*
X111374701Y-98408779D01*
X111432821Y-98371009D01*
X111501180Y-98352896D01*
X111577898Y-98356457D01*
G36*
X108145988Y-98369002D02*
X108177283Y-98383950D01*
X108207591Y-98405541D01*
X108230682Y-98430391D01*
X108247500Y-98462087D01*
X108258994Y-98504214D01*
X108266109Y-98560358D01*
X108269793Y-98634106D01*
X108270992Y-98729044D01*
X108271011Y-98738985D01*
X108271287Y-98962179D01*
X108132970Y-98962179D01*
X108132970Y-98756418D01*
X108132872Y-98680189D01*
X108132191Y-98624939D01*
X108130349Y-98586501D01*
X108126767Y-98560706D01*
X108120868Y-98543384D01*
X108112073Y-98530368D01*
X108099820Y-98517507D01*
X108056953Y-98489873D01*
X108010157Y-98484745D01*
X107965576Y-98502217D01*
X107950072Y-98515221D01*
X107938690Y-98527447D01*
X107930519Y-98540540D01*
X107925026Y-98558615D01*
X107921680Y-98585787D01*
X107919949Y-98626170D01*
X107919303Y-98683879D01*
X107919208Y-98754132D01*
X107919208Y-98962179D01*
X107780891Y-98962179D01*
X107780891Y-98358614D01*
X107850050Y-98358614D01*
X107891572Y-98360256D01*
X107912994Y-98366087D01*
X107919205Y-98377461D01*
X107919208Y-98377798D01*
X107922090Y-98388938D01*
X107934801Y-98387674D01*
X107960074Y-98375434D01*
X108017395Y-98357424D01*
X108082963Y-98355421D01*
X108145988Y-98369002D01*
X108145988Y-98369002D01*
G37*
X108145988Y-98369002D02*
X108177283Y-98383950D01*
X108207591Y-98405541D01*
X108230682Y-98430391D01*
X108247500Y-98462087D01*
X108258994Y-98504214D01*
X108266109Y-98560358D01*
X108269793Y-98634106D01*
X108270992Y-98729044D01*
X108271011Y-98738985D01*
X108271287Y-98962179D01*
X108132970Y-98962179D01*
X108132970Y-98756418D01*
X108132872Y-98680189D01*
X108132191Y-98624939D01*
X108130349Y-98586501D01*
X108126767Y-98560706D01*
X108120868Y-98543384D01*
X108112073Y-98530368D01*
X108099820Y-98517507D01*
X108056953Y-98489873D01*
X108010157Y-98484745D01*
X107965576Y-98502217D01*
X107950072Y-98515221D01*
X107938690Y-98527447D01*
X107930519Y-98540540D01*
X107925026Y-98558615D01*
X107921680Y-98585787D01*
X107919949Y-98626170D01*
X107919303Y-98683879D01*
X107919208Y-98754132D01*
X107919208Y-98962179D01*
X107780891Y-98962179D01*
X107780891Y-98358614D01*
X107850050Y-98358614D01*
X107891572Y-98360256D01*
X107912994Y-98366087D01*
X107919205Y-98377461D01*
X107919208Y-98377798D01*
X107922090Y-98388938D01*
X107934801Y-98387674D01*
X107960074Y-98375434D01*
X108017395Y-98357424D01*
X108082963Y-98355421D01*
X108145988Y-98369002D01*
G36*
X110699460Y-98358030D02*
X110742711Y-98371245D01*
X110770558Y-98387941D01*
X110779629Y-98401145D01*
X110777132Y-98416797D01*
X110760931Y-98441385D01*
X110747232Y-98458800D01*
X110718992Y-98490283D01*
X110697775Y-98503529D01*
X110679688Y-98502664D01*
X110626035Y-98489010D01*
X110586630Y-98489630D01*
X110554632Y-98505104D01*
X110543890Y-98514161D01*
X110509505Y-98546027D01*
X110509505Y-98962179D01*
X110371188Y-98962179D01*
X110371188Y-98358614D01*
X110440347Y-98358614D01*
X110481869Y-98360256D01*
X110503291Y-98366087D01*
X110509502Y-98377461D01*
X110509505Y-98377798D01*
X110512439Y-98389713D01*
X110525704Y-98388159D01*
X110544084Y-98379563D01*
X110582046Y-98363568D01*
X110612872Y-98353945D01*
X110652536Y-98351478D01*
X110699460Y-98358030D01*
X110699460Y-98358030D01*
G37*
X110699460Y-98358030D02*
X110742711Y-98371245D01*
X110770558Y-98387941D01*
X110779629Y-98401145D01*
X110777132Y-98416797D01*
X110760931Y-98441385D01*
X110747232Y-98458800D01*
X110718992Y-98490283D01*
X110697775Y-98503529D01*
X110679688Y-98502664D01*
X110626035Y-98489010D01*
X110586630Y-98489630D01*
X110554632Y-98505104D01*
X110543890Y-98514161D01*
X110509505Y-98546027D01*
X110509505Y-98962179D01*
X110371188Y-98962179D01*
X110371188Y-98358614D01*
X110440347Y-98358614D01*
X110481869Y-98360256D01*
X110503291Y-98366087D01*
X110509502Y-98377461D01*
X110509505Y-98377798D01*
X110512439Y-98389713D01*
X110525704Y-98388159D01*
X110544084Y-98379563D01*
X110582046Y-98363568D01*
X110612872Y-98353945D01*
X110652536Y-98351478D01*
X110699460Y-98358030D01*
G36*
X109276964Y-94190018D02*
X109333812Y-94491570D01*
X109753338Y-94664512D01*
X110004984Y-94493395D01*
X110075458Y-94445750D01*
X110139163Y-94403210D01*
X110193126Y-94367715D01*
X110234373Y-94341210D01*
X110259934Y-94325636D01*
X110266895Y-94322278D01*
X110279435Y-94330914D01*
X110306231Y-94354792D01*
X110344280Y-94390859D01*
X110390579Y-94436067D01*
X110442123Y-94487364D01*
X110495909Y-94541701D01*
X110548935Y-94596028D01*
X110598195Y-94647295D01*
X110640687Y-94692451D01*
X110673407Y-94728446D01*
X110693351Y-94752230D01*
X110698119Y-94760190D01*
X110691257Y-94774865D01*
X110672020Y-94807014D01*
X110642430Y-94853492D01*
X110604510Y-94911156D01*
X110560282Y-94976860D01*
X110534654Y-95014336D01*
X110487941Y-95082768D01*
X110446432Y-95144520D01*
X110412140Y-95196519D01*
X110387080Y-95235692D01*
X110373264Y-95258965D01*
X110371188Y-95263855D01*
X110375895Y-95277755D01*
X110388723Y-95310150D01*
X110407738Y-95356485D01*
X110431003Y-95412206D01*
X110456584Y-95472758D01*
X110482545Y-95533586D01*
X110506950Y-95590136D01*
X110527863Y-95637852D01*
X110543349Y-95672181D01*
X110551472Y-95688568D01*
X110551952Y-95689212D01*
X110564707Y-95692341D01*
X110598677Y-95699321D01*
X110650340Y-95709467D01*
X110716176Y-95722092D01*
X110792664Y-95736509D01*
X110837290Y-95744823D01*
X110919021Y-95760384D01*
X110992843Y-95775192D01*
X111055021Y-95788436D01*
X111101822Y-95799305D01*
X111129509Y-95806989D01*
X111135074Y-95809427D01*
X111140526Y-95825930D01*
X111144924Y-95863200D01*
X111148272Y-95916880D01*
X111150574Y-95982612D01*
X111151832Y-96056037D01*
X111152048Y-96132796D01*
X111151227Y-96208532D01*
X111149371Y-96278886D01*
X111146482Y-96339500D01*
X111142565Y-96386016D01*
X111137622Y-96414075D01*
X111134657Y-96419916D01*
X111116934Y-96426917D01*
X111079381Y-96436927D01*
X111026964Y-96448769D01*
X110964652Y-96461267D01*
X110942900Y-96465310D01*
X110838024Y-96484520D01*
X110755180Y-96499991D01*
X110691630Y-96512337D01*
X110644637Y-96522173D01*
X110611463Y-96530114D01*
X110589371Y-96536776D01*
X110575624Y-96542773D01*
X110567484Y-96548719D01*
X110566345Y-96549894D01*
X110554977Y-96568826D01*
X110537635Y-96605669D01*
X110516050Y-96655913D01*
X110491954Y-96715046D01*
X110467079Y-96778556D01*
X110443157Y-96841932D01*
X110421919Y-96900662D01*
X110405097Y-96950235D01*
X110394422Y-96986139D01*
X110391627Y-97003862D01*
X110391860Y-97004483D01*
X110401331Y-97018970D01*
X110422818Y-97050844D01*
X110454063Y-97096789D01*
X110492807Y-97153485D01*
X110536793Y-97217617D01*
X110549319Y-97235842D01*
X110593984Y-97301914D01*
X110633288Y-97362200D01*
X110665088Y-97413235D01*
X110687245Y-97451560D01*
X110697617Y-97473711D01*
X110698119Y-97476432D01*
X110689405Y-97490736D01*
X110665325Y-97519072D01*
X110628976Y-97558396D01*
X110583453Y-97605661D01*
X110531852Y-97657823D01*
X110477267Y-97711835D01*
X110422794Y-97764653D01*
X110371529Y-97813231D01*
X110326567Y-97854523D01*
X110291004Y-97885485D01*
X110267935Y-97903070D01*
X110261554Y-97905941D01*
X110246699Y-97899178D01*
X110216286Y-97880939D01*
X110175268Y-97854297D01*
X110143709Y-97832852D01*
X110086525Y-97793503D01*
X110018806Y-97747171D01*
X109950880Y-97700913D01*
X109914361Y-97676155D01*
X109790752Y-97592547D01*
X109686991Y-97648650D01*
X109639720Y-97673228D01*
X109599523Y-97692331D01*
X109572326Y-97703227D01*
X109565402Y-97704743D01*
X109557077Y-97693549D01*
X109540654Y-97661917D01*
X109517357Y-97612765D01*
X109488414Y-97549010D01*
X109455050Y-97473571D01*
X109418491Y-97389364D01*
X109379964Y-97299308D01*
X109340694Y-97206321D01*
X109301908Y-97113320D01*
X109264830Y-97023223D01*
X109230689Y-96938948D01*
X109200708Y-96863413D01*
X109176116Y-96799534D01*
X109158136Y-96750231D01*
X109147997Y-96718421D01*
X109146366Y-96707496D01*
X109159291Y-96693561D01*
X109187589Y-96670940D01*
X109225346Y-96644333D01*
X109228515Y-96642228D01*
X109326100Y-96564114D01*
X109404786Y-96472982D01*
X109463891Y-96371745D01*
X109502732Y-96263318D01*
X109520628Y-96150614D01*
X109516897Y-96036548D01*
X109490857Y-95924034D01*
X109441825Y-95815985D01*
X109427400Y-95792345D01*
X109352369Y-95696887D01*
X109263730Y-95620232D01*
X109164549Y-95562780D01*
X109057895Y-95524929D01*
X108946836Y-95507078D01*
X108834439Y-95509625D01*
X108723773Y-95532970D01*
X108617906Y-95577510D01*
X108519905Y-95643645D01*
X108489590Y-95670487D01*
X108412438Y-95754512D01*
X108356218Y-95842966D01*
X108317653Y-95942115D01*
X108296174Y-96040303D01*
X108290872Y-96150697D01*
X108308552Y-96261640D01*
X108347419Y-96369381D01*
X108405677Y-96470169D01*
X108481531Y-96560256D01*
X108573183Y-96635892D01*
X108585228Y-96643864D01*
X108623389Y-96669974D01*
X108652399Y-96692595D01*
X108666268Y-96707039D01*
X108666469Y-96707496D01*
X108663492Y-96723121D01*
X108651689Y-96758582D01*
X108632286Y-96810962D01*
X108606512Y-96877345D01*
X108575591Y-96954814D01*
X108540751Y-97040450D01*
X108503217Y-97131337D01*
X108464217Y-97224559D01*
X108424977Y-97317197D01*
X108386724Y-97406335D01*
X108350683Y-97489055D01*
X108318083Y-97562441D01*
X108290148Y-97623575D01*
X108268105Y-97669541D01*
X108253182Y-97697421D01*
X108247172Y-97704743D01*
X108228809Y-97699041D01*
X108194448Y-97683749D01*
X108150016Y-97661599D01*
X108125583Y-97648650D01*
X108021822Y-97592547D01*
X107898213Y-97676155D01*
X107835114Y-97718987D01*
X107766030Y-97766122D01*
X107701293Y-97810503D01*
X107668866Y-97832852D01*
X107623259Y-97863477D01*
X107584640Y-97887747D01*
X107558048Y-97902587D01*
X107549410Y-97905724D01*
X107536839Y-97897261D01*
X107509016Y-97873636D01*
X107468639Y-97837302D01*
X107418405Y-97790711D01*
X107361012Y-97736317D01*
X107324714Y-97701392D01*
X107261210Y-97638996D01*
X107206327Y-97583188D01*
X107162286Y-97536354D01*
X107131305Y-97500882D01*
X107115602Y-97479161D01*
X107114095Y-97474752D01*
X107121086Y-97457985D01*
X107140406Y-97424082D01*
X107169909Y-97376476D01*
X107207455Y-97318599D01*
X107250900Y-97253884D01*
X107263255Y-97235842D01*
X107308273Y-97170267D01*
X107348660Y-97111228D01*
X107382160Y-97062042D01*
X107406514Y-97026028D01*
X107419464Y-97006502D01*
X107420715Y-97004483D01*
X107418844Y-96988922D01*
X107408913Y-96954709D01*
X107392653Y-96906355D01*
X107371795Y-96848371D01*
X107348073Y-96785270D01*
X107323216Y-96721563D01*
X107298958Y-96661761D01*
X107277029Y-96610376D01*
X107259162Y-96571919D01*
X107247087Y-96550902D01*
X107246229Y-96549894D01*
X107238846Y-96543888D01*
X107226375Y-96537948D01*
X107206080Y-96531460D01*
X107175222Y-96523809D01*
X107131066Y-96514380D01*
X107070874Y-96502559D01*
X106991907Y-96487729D01*
X106891430Y-96469277D01*
X106869675Y-96465310D01*
X106805198Y-96452853D01*
X106748989Y-96440666D01*
X106706013Y-96429926D01*
X106681240Y-96421809D01*
X106677918Y-96419916D01*
X106672444Y-96403138D01*
X106667994Y-96365645D01*
X106664572Y-96311794D01*
X106662181Y-96245944D01*
X106660823Y-96172453D01*
X106660501Y-96095680D01*
X106661219Y-96019983D01*
X106662979Y-95949720D01*
X106665784Y-95889250D01*
X106669638Y-95842930D01*
X106674543Y-95815119D01*
X106677500Y-95809427D01*
X106693963Y-95803686D01*
X106731449Y-95794345D01*
X106786225Y-95782215D01*
X106854555Y-95768107D01*
X106932706Y-95752830D01*
X106975284Y-95744823D01*
X107056071Y-95729721D01*
X107128113Y-95716040D01*
X107187889Y-95704467D01*
X107231879Y-95695687D01*
X107256561Y-95690387D01*
X107260623Y-95689212D01*
X107267489Y-95675965D01*
X107282002Y-95644057D01*
X107302229Y-95598047D01*
X107326234Y-95542492D01*
X107352082Y-95481953D01*
X107377840Y-95420986D01*
X107401573Y-95364151D01*
X107421346Y-95316006D01*
X107435224Y-95281110D01*
X107441274Y-95264021D01*
X107441386Y-95263274D01*
X107434528Y-95249793D01*
X107415302Y-95218770D01*
X107385728Y-95173289D01*
X107347827Y-95116432D01*
X107303620Y-95051283D01*
X107277921Y-95013862D01*
X107231093Y-94945247D01*
X107189501Y-94882952D01*
X107155175Y-94830129D01*
X107130143Y-94789927D01*
X107116435Y-94765500D01*
X107114456Y-94760024D01*
X107122966Y-94747278D01*
X107146493Y-94720063D01*
X107182032Y-94681428D01*
X107226577Y-94634423D01*
X107277123Y-94582095D01*
X107330664Y-94527495D01*
X107384195Y-94473670D01*
X107434711Y-94423670D01*
X107479206Y-94380543D01*
X107514675Y-94347339D01*
X107538113Y-94327106D01*
X107545954Y-94322278D01*
X107558720Y-94329067D01*
X107589256Y-94348142D01*
X107634590Y-94377561D01*
X107691756Y-94415381D01*
X107757784Y-94459661D01*
X107807590Y-94493395D01*
X108059236Y-94664512D01*
X108268999Y-94578041D01*
X108478763Y-94491570D01*
X108535611Y-94190018D01*
X108592460Y-93888466D01*
X109220115Y-93888466D01*
X109276964Y-94190018D01*
X109276964Y-94190018D01*
G37*
X109276964Y-94190018D02*
X109333812Y-94491570D01*
X109753338Y-94664512D01*
X110004984Y-94493395D01*
X110075458Y-94445750D01*
X110139163Y-94403210D01*
X110193126Y-94367715D01*
X110234373Y-94341210D01*
X110259934Y-94325636D01*
X110266895Y-94322278D01*
X110279435Y-94330914D01*
X110306231Y-94354792D01*
X110344280Y-94390859D01*
X110390579Y-94436067D01*
X110442123Y-94487364D01*
X110495909Y-94541701D01*
X110548935Y-94596028D01*
X110598195Y-94647295D01*
X110640687Y-94692451D01*
X110673407Y-94728446D01*
X110693351Y-94752230D01*
X110698119Y-94760190D01*
X110691257Y-94774865D01*
X110672020Y-94807014D01*
X110642430Y-94853492D01*
X110604510Y-94911156D01*
X110560282Y-94976860D01*
X110534654Y-95014336D01*
X110487941Y-95082768D01*
X110446432Y-95144520D01*
X110412140Y-95196519D01*
X110387080Y-95235692D01*
X110373264Y-95258965D01*
X110371188Y-95263855D01*
X110375895Y-95277755D01*
X110388723Y-95310150D01*
X110407738Y-95356485D01*
X110431003Y-95412206D01*
X110456584Y-95472758D01*
X110482545Y-95533586D01*
X110506950Y-95590136D01*
X110527863Y-95637852D01*
X110543349Y-95672181D01*
X110551472Y-95688568D01*
X110551952Y-95689212D01*
X110564707Y-95692341D01*
X110598677Y-95699321D01*
X110650340Y-95709467D01*
X110716176Y-95722092D01*
X110792664Y-95736509D01*
X110837290Y-95744823D01*
X110919021Y-95760384D01*
X110992843Y-95775192D01*
X111055021Y-95788436D01*
X111101822Y-95799305D01*
X111129509Y-95806989D01*
X111135074Y-95809427D01*
X111140526Y-95825930D01*
X111144924Y-95863200D01*
X111148272Y-95916880D01*
X111150574Y-95982612D01*
X111151832Y-96056037D01*
X111152048Y-96132796D01*
X111151227Y-96208532D01*
X111149371Y-96278886D01*
X111146482Y-96339500D01*
X111142565Y-96386016D01*
X111137622Y-96414075D01*
X111134657Y-96419916D01*
X111116934Y-96426917D01*
X111079381Y-96436927D01*
X111026964Y-96448769D01*
X110964652Y-96461267D01*
X110942900Y-96465310D01*
X110838024Y-96484520D01*
X110755180Y-96499991D01*
X110691630Y-96512337D01*
X110644637Y-96522173D01*
X110611463Y-96530114D01*
X110589371Y-96536776D01*
X110575624Y-96542773D01*
X110567484Y-96548719D01*
X110566345Y-96549894D01*
X110554977Y-96568826D01*
X110537635Y-96605669D01*
X110516050Y-96655913D01*
X110491954Y-96715046D01*
X110467079Y-96778556D01*
X110443157Y-96841932D01*
X110421919Y-96900662D01*
X110405097Y-96950235D01*
X110394422Y-96986139D01*
X110391627Y-97003862D01*
X110391860Y-97004483D01*
X110401331Y-97018970D01*
X110422818Y-97050844D01*
X110454063Y-97096789D01*
X110492807Y-97153485D01*
X110536793Y-97217617D01*
X110549319Y-97235842D01*
X110593984Y-97301914D01*
X110633288Y-97362200D01*
X110665088Y-97413235D01*
X110687245Y-97451560D01*
X110697617Y-97473711D01*
X110698119Y-97476432D01*
X110689405Y-97490736D01*
X110665325Y-97519072D01*
X110628976Y-97558396D01*
X110583453Y-97605661D01*
X110531852Y-97657823D01*
X110477267Y-97711835D01*
X110422794Y-97764653D01*
X110371529Y-97813231D01*
X110326567Y-97854523D01*
X110291004Y-97885485D01*
X110267935Y-97903070D01*
X110261554Y-97905941D01*
X110246699Y-97899178D01*
X110216286Y-97880939D01*
X110175268Y-97854297D01*
X110143709Y-97832852D01*
X110086525Y-97793503D01*
X110018806Y-97747171D01*
X109950880Y-97700913D01*
X109914361Y-97676155D01*
X109790752Y-97592547D01*
X109686991Y-97648650D01*
X109639720Y-97673228D01*
X109599523Y-97692331D01*
X109572326Y-97703227D01*
X109565402Y-97704743D01*
X109557077Y-97693549D01*
X109540654Y-97661917D01*
X109517357Y-97612765D01*
X109488414Y-97549010D01*
X109455050Y-97473571D01*
X109418491Y-97389364D01*
X109379964Y-97299308D01*
X109340694Y-97206321D01*
X109301908Y-97113320D01*
X109264830Y-97023223D01*
X109230689Y-96938948D01*
X109200708Y-96863413D01*
X109176116Y-96799534D01*
X109158136Y-96750231D01*
X109147997Y-96718421D01*
X109146366Y-96707496D01*
X109159291Y-96693561D01*
X109187589Y-96670940D01*
X109225346Y-96644333D01*
X109228515Y-96642228D01*
X109326100Y-96564114D01*
X109404786Y-96472982D01*
X109463891Y-96371745D01*
X109502732Y-96263318D01*
X109520628Y-96150614D01*
X109516897Y-96036548D01*
X109490857Y-95924034D01*
X109441825Y-95815985D01*
X109427400Y-95792345D01*
X109352369Y-95696887D01*
X109263730Y-95620232D01*
X109164549Y-95562780D01*
X109057895Y-95524929D01*
X108946836Y-95507078D01*
X108834439Y-95509625D01*
X108723773Y-95532970D01*
X108617906Y-95577510D01*
X108519905Y-95643645D01*
X108489590Y-95670487D01*
X108412438Y-95754512D01*
X108356218Y-95842966D01*
X108317653Y-95942115D01*
X108296174Y-96040303D01*
X108290872Y-96150697D01*
X108308552Y-96261640D01*
X108347419Y-96369381D01*
X108405677Y-96470169D01*
X108481531Y-96560256D01*
X108573183Y-96635892D01*
X108585228Y-96643864D01*
X108623389Y-96669974D01*
X108652399Y-96692595D01*
X108666268Y-96707039D01*
X108666469Y-96707496D01*
X108663492Y-96723121D01*
X108651689Y-96758582D01*
X108632286Y-96810962D01*
X108606512Y-96877345D01*
X108575591Y-96954814D01*
X108540751Y-97040450D01*
X108503217Y-97131337D01*
X108464217Y-97224559D01*
X108424977Y-97317197D01*
X108386724Y-97406335D01*
X108350683Y-97489055D01*
X108318083Y-97562441D01*
X108290148Y-97623575D01*
X108268105Y-97669541D01*
X108253182Y-97697421D01*
X108247172Y-97704743D01*
X108228809Y-97699041D01*
X108194448Y-97683749D01*
X108150016Y-97661599D01*
X108125583Y-97648650D01*
X108021822Y-97592547D01*
X107898213Y-97676155D01*
X107835114Y-97718987D01*
X107766030Y-97766122D01*
X107701293Y-97810503D01*
X107668866Y-97832852D01*
X107623259Y-97863477D01*
X107584640Y-97887747D01*
X107558048Y-97902587D01*
X107549410Y-97905724D01*
X107536839Y-97897261D01*
X107509016Y-97873636D01*
X107468639Y-97837302D01*
X107418405Y-97790711D01*
X107361012Y-97736317D01*
X107324714Y-97701392D01*
X107261210Y-97638996D01*
X107206327Y-97583188D01*
X107162286Y-97536354D01*
X107131305Y-97500882D01*
X107115602Y-97479161D01*
X107114095Y-97474752D01*
X107121086Y-97457985D01*
X107140406Y-97424082D01*
X107169909Y-97376476D01*
X107207455Y-97318599D01*
X107250900Y-97253884D01*
X107263255Y-97235842D01*
X107308273Y-97170267D01*
X107348660Y-97111228D01*
X107382160Y-97062042D01*
X107406514Y-97026028D01*
X107419464Y-97006502D01*
X107420715Y-97004483D01*
X107418844Y-96988922D01*
X107408913Y-96954709D01*
X107392653Y-96906355D01*
X107371795Y-96848371D01*
X107348073Y-96785270D01*
X107323216Y-96721563D01*
X107298958Y-96661761D01*
X107277029Y-96610376D01*
X107259162Y-96571919D01*
X107247087Y-96550902D01*
X107246229Y-96549894D01*
X107238846Y-96543888D01*
X107226375Y-96537948D01*
X107206080Y-96531460D01*
X107175222Y-96523809D01*
X107131066Y-96514380D01*
X107070874Y-96502559D01*
X106991907Y-96487729D01*
X106891430Y-96469277D01*
X106869675Y-96465310D01*
X106805198Y-96452853D01*
X106748989Y-96440666D01*
X106706013Y-96429926D01*
X106681240Y-96421809D01*
X106677918Y-96419916D01*
X106672444Y-96403138D01*
X106667994Y-96365645D01*
X106664572Y-96311794D01*
X106662181Y-96245944D01*
X106660823Y-96172453D01*
X106660501Y-96095680D01*
X106661219Y-96019983D01*
X106662979Y-95949720D01*
X106665784Y-95889250D01*
X106669638Y-95842930D01*
X106674543Y-95815119D01*
X106677500Y-95809427D01*
X106693963Y-95803686D01*
X106731449Y-95794345D01*
X106786225Y-95782215D01*
X106854555Y-95768107D01*
X106932706Y-95752830D01*
X106975284Y-95744823D01*
X107056071Y-95729721D01*
X107128113Y-95716040D01*
X107187889Y-95704467D01*
X107231879Y-95695687D01*
X107256561Y-95690387D01*
X107260623Y-95689212D01*
X107267489Y-95675965D01*
X107282002Y-95644057D01*
X107302229Y-95598047D01*
X107326234Y-95542492D01*
X107352082Y-95481953D01*
X107377840Y-95420986D01*
X107401573Y-95364151D01*
X107421346Y-95316006D01*
X107435224Y-95281110D01*
X107441274Y-95264021D01*
X107441386Y-95263274D01*
X107434528Y-95249793D01*
X107415302Y-95218770D01*
X107385728Y-95173289D01*
X107347827Y-95116432D01*
X107303620Y-95051283D01*
X107277921Y-95013862D01*
X107231093Y-94945247D01*
X107189501Y-94882952D01*
X107155175Y-94830129D01*
X107130143Y-94789927D01*
X107116435Y-94765500D01*
X107114456Y-94760024D01*
X107122966Y-94747278D01*
X107146493Y-94720063D01*
X107182032Y-94681428D01*
X107226577Y-94634423D01*
X107277123Y-94582095D01*
X107330664Y-94527495D01*
X107384195Y-94473670D01*
X107434711Y-94423670D01*
X107479206Y-94380543D01*
X107514675Y-94347339D01*
X107538113Y-94327106D01*
X107545954Y-94322278D01*
X107558720Y-94329067D01*
X107589256Y-94348142D01*
X107634590Y-94377561D01*
X107691756Y-94415381D01*
X107757784Y-94459661D01*
X107807590Y-94493395D01*
X108059236Y-94664512D01*
X108268999Y-94578041D01*
X108478763Y-94491570D01*
X108535611Y-94190018D01*
X108592460Y-93888466D01*
X109220115Y-93888466D01*
X109276964Y-94190018D01*
D15*
X146752000Y-123250000D02*
X149412000Y-123250000D01*
X146752000Y-113030000D02*
X146752000Y-123250000D01*
X149412000Y-113030000D02*
X149412000Y-123250000D01*
X146752000Y-113030000D02*
X149412000Y-113030000D01*
X146752000Y-111760000D02*
X146752000Y-110430000D01*
X146752000Y-110430000D02*
X148082000Y-110430000D01*
D13*
X105414287Y-128042857D02*
X106214287Y-129242857D01*
X106214287Y-128042857D02*
X105414287Y-129242857D01*
X106614286Y-128900000D02*
X107185715Y-128900000D01*
X106500001Y-129242857D02*
X106900001Y-128042857D01*
X107300001Y-129242857D01*
X108328572Y-129242857D02*
X107642857Y-129242857D01*
X107985715Y-129242857D02*
X107985715Y-128042857D01*
X107871429Y-128214286D01*
X107757143Y-128328571D01*
X107642857Y-128385714D01*
X176998381Y-122681905D02*
X177807905Y-122681905D01*
X177903143Y-122634286D01*
X177950762Y-122586667D01*
X177998381Y-122491429D01*
X177998381Y-122300952D01*
X177950762Y-122205714D01*
X177903143Y-122158095D01*
X177807905Y-122110476D01*
X176998381Y-122110476D01*
X177093619Y-121681905D02*
X177046000Y-121634286D01*
X176998381Y-121539048D01*
X176998381Y-121300952D01*
X177046000Y-121205714D01*
X177093619Y-121158095D01*
X177188857Y-121110476D01*
X177284095Y-121110476D01*
X177426952Y-121158095D01*
X177998381Y-121729524D01*
X177998381Y-121110476D01*
X169949905Y-103560571D02*
X170283239Y-103560571D01*
X170426096Y-104084381D02*
X169949905Y-104084381D01*
X169949905Y-103084381D01*
X170426096Y-103084381D01*
X170854667Y-104084381D02*
X170854667Y-103084381D01*
X171426096Y-104084381D01*
X171426096Y-103084381D01*
X169545143Y-106624381D02*
X169545143Y-105624381D01*
X170021333Y-106624381D02*
X170021333Y-105624381D01*
X170592762Y-106624381D01*
X170592762Y-105624381D01*
X171068952Y-106243429D02*
X171830857Y-106243429D01*
X169545143Y-109164381D02*
X169545143Y-108164381D01*
X170021333Y-109164381D02*
X170021333Y-108164381D01*
X170592762Y-109164381D01*
X170592762Y-108164381D01*
X171068952Y-108783429D02*
X171830857Y-108783429D01*
X171449905Y-109164381D02*
X171449905Y-108402476D01*
X158908952Y-118324381D02*
X159099429Y-118324381D01*
X159194667Y-118372000D01*
X159289905Y-118467238D01*
X159337524Y-118657714D01*
X159337524Y-118991048D01*
X159289905Y-119181524D01*
X159194667Y-119276762D01*
X159099429Y-119324381D01*
X158908952Y-119324381D01*
X158813714Y-119276762D01*
X158718476Y-119181524D01*
X158670857Y-118991048D01*
X158670857Y-118657714D01*
X158718476Y-118467238D01*
X158813714Y-118372000D01*
X158908952Y-118324381D01*
X159766095Y-118324381D02*
X159766095Y-119133905D01*
X159813714Y-119229143D01*
X159861333Y-119276762D01*
X159956571Y-119324381D01*
X160147048Y-119324381D01*
X160242286Y-119276762D01*
X160289905Y-119229143D01*
X160337524Y-119133905D01*
X160337524Y-118324381D01*
X160670857Y-118324381D02*
X161242286Y-118324381D01*
X160956571Y-119324381D02*
X160956571Y-118324381D01*
X161575619Y-118943429D02*
X162337524Y-118943429D01*
X158908952Y-121118381D02*
X159099429Y-121118381D01*
X159194667Y-121166000D01*
X159289905Y-121261238D01*
X159337524Y-121451714D01*
X159337524Y-121785048D01*
X159289905Y-121975524D01*
X159194667Y-122070762D01*
X159099429Y-122118381D01*
X158908952Y-122118381D01*
X158813714Y-122070762D01*
X158718476Y-121975524D01*
X158670857Y-121785048D01*
X158670857Y-121451714D01*
X158718476Y-121261238D01*
X158813714Y-121166000D01*
X158908952Y-121118381D01*
X159766095Y-121118381D02*
X159766095Y-121927905D01*
X159813714Y-122023143D01*
X159861333Y-122070762D01*
X159956571Y-122118381D01*
X160147048Y-122118381D01*
X160242286Y-122070762D01*
X160289905Y-122023143D01*
X160337524Y-121927905D01*
X160337524Y-121118381D01*
X160670857Y-121118381D02*
X161242286Y-121118381D01*
X160956571Y-122118381D02*
X160956571Y-121118381D01*
X161575619Y-121737429D02*
X162337524Y-121737429D01*
X161956572Y-122118381D02*
X161956572Y-121356476D01*
X173505905Y-128214381D02*
X173505905Y-127214381D01*
X173744000Y-127214381D01*
X173886858Y-127262000D01*
X173982096Y-127357238D01*
X174029715Y-127452476D01*
X174077334Y-127642952D01*
X174077334Y-127785810D01*
X174029715Y-127976286D01*
X173982096Y-128071524D01*
X173886858Y-128166762D01*
X173744000Y-128214381D01*
X173505905Y-128214381D01*
X175029715Y-128214381D02*
X174458286Y-128214381D01*
X174744000Y-128214381D02*
X174744000Y-127214381D01*
X174648762Y-127357238D01*
X174553524Y-127452476D01*
X174458286Y-127500095D01*
X175537905Y-132278381D02*
X175537905Y-131278381D01*
X175776000Y-131278381D01*
X175918858Y-131326000D01*
X176014096Y-131421238D01*
X176061715Y-131516476D01*
X176109334Y-131706952D01*
X176109334Y-131849810D01*
X176061715Y-132040286D01*
X176014096Y-132135524D01*
X175918858Y-132230762D01*
X175776000Y-132278381D01*
X175537905Y-132278381D01*
X176490286Y-131373619D02*
X176537905Y-131326000D01*
X176633143Y-131278381D01*
X176871239Y-131278381D01*
X176966477Y-131326000D01*
X177014096Y-131373619D01*
X177061715Y-131468857D01*
X177061715Y-131564095D01*
X177014096Y-131706952D01*
X176442667Y-132278381D01*
X177061715Y-132278381D01*
X173505905Y-136850381D02*
X173505905Y-135850381D01*
X173744000Y-135850381D01*
X173886858Y-135898000D01*
X173982096Y-135993238D01*
X174029715Y-136088476D01*
X174077334Y-136278952D01*
X174077334Y-136421810D01*
X174029715Y-136612286D01*
X173982096Y-136707524D01*
X173886858Y-136802762D01*
X173744000Y-136850381D01*
X173505905Y-136850381D01*
X174410667Y-135850381D02*
X175029715Y-135850381D01*
X174696381Y-136231333D01*
X174839239Y-136231333D01*
X174934477Y-136278952D01*
X174982096Y-136326571D01*
X175029715Y-136421810D01*
X175029715Y-136659905D01*
X174982096Y-136755143D01*
X174934477Y-136802762D01*
X174839239Y-136850381D01*
X174553524Y-136850381D01*
X174458286Y-136802762D01*
X174410667Y-136755143D01*
X138120381Y-59158095D02*
X137120381Y-59158095D01*
X137120381Y-58920000D01*
X137168000Y-58777142D01*
X137263238Y-58681904D01*
X137358476Y-58634285D01*
X137548952Y-58586666D01*
X137691810Y-58586666D01*
X137882286Y-58634285D01*
X137977524Y-58681904D01*
X138072762Y-58777142D01*
X138120381Y-58920000D01*
X138120381Y-59158095D01*
X137453714Y-57729523D02*
X138120381Y-57729523D01*
X137072762Y-57967619D02*
X137787048Y-58205714D01*
X137787048Y-57586666D01*
X149526667Y-107148381D02*
X149526667Y-107862667D01*
X149479047Y-108005524D01*
X149383809Y-108100762D01*
X149240952Y-108148381D01*
X149145714Y-108148381D01*
X150526667Y-108148381D02*
X149955238Y-108148381D01*
X150240952Y-108148381D02*
X150240952Y-107148381D01*
X150145714Y-107291238D01*
X150050476Y-107386476D01*
X149955238Y-107434095D01*
X122602667Y-58126381D02*
X122602667Y-58840667D01*
X122555047Y-58983524D01*
X122459809Y-59078762D01*
X122316952Y-59126381D01*
X122221714Y-59126381D01*
X123031238Y-58221619D02*
X123078857Y-58174000D01*
X123174095Y-58126381D01*
X123412191Y-58126381D01*
X123507429Y-58174000D01*
X123555048Y-58221619D01*
X123602667Y-58316857D01*
X123602667Y-58412095D01*
X123555048Y-58554952D01*
X122983619Y-59126381D01*
X123602667Y-59126381D01*
X121586667Y-128738381D02*
X121586667Y-129452667D01*
X121539047Y-129595524D01*
X121443809Y-129690762D01*
X121300952Y-129738381D01*
X121205714Y-129738381D01*
X121967619Y-128738381D02*
X122586667Y-128738381D01*
X122253333Y-129119333D01*
X122396191Y-129119333D01*
X122491429Y-129166952D01*
X122539048Y-129214571D01*
X122586667Y-129309810D01*
X122586667Y-129547905D01*
X122539048Y-129643143D01*
X122491429Y-129690762D01*
X122396191Y-129738381D01*
X122110476Y-129738381D01*
X122015238Y-129690762D01*
X121967619Y-129643143D01*
X158162667Y-129754381D02*
X158162667Y-130468667D01*
X158115047Y-130611524D01*
X158019809Y-130706762D01*
X157876952Y-130754381D01*
X157781714Y-130754381D01*
X159067429Y-130087714D02*
X159067429Y-130754381D01*
X158829333Y-129706762D02*
X158591238Y-130421048D01*
X159210286Y-130421048D01*
X150542667Y-58126381D02*
X150542667Y-58840667D01*
X150495047Y-58983524D01*
X150399809Y-59078762D01*
X150256952Y-59126381D01*
X150161714Y-59126381D01*
X151495048Y-58126381D02*
X151018857Y-58126381D01*
X150971238Y-58602571D01*
X151018857Y-58554952D01*
X151114095Y-58507333D01*
X151352191Y-58507333D01*
X151447429Y-58554952D01*
X151495048Y-58602571D01*
X151542667Y-58697810D01*
X151542667Y-58935905D01*
X151495048Y-59031143D01*
X151447429Y-59078762D01*
X151352191Y-59126381D01*
X151114095Y-59126381D01*
X151018857Y-59078762D01*
X150971238Y-59031143D01*
X130984667Y-98512381D02*
X130984667Y-99226667D01*
X130937047Y-99369524D01*
X130841809Y-99464762D01*
X130698952Y-99512381D01*
X130603714Y-99512381D01*
X131889429Y-98512381D02*
X131698952Y-98512381D01*
X131603714Y-98560000D01*
X131556095Y-98607619D01*
X131460857Y-98750476D01*
X131413238Y-98940952D01*
X131413238Y-99321905D01*
X131460857Y-99417143D01*
X131508476Y-99464762D01*
X131603714Y-99512381D01*
X131794191Y-99512381D01*
X131889429Y-99464762D01*
X131937048Y-99417143D01*
X131984667Y-99321905D01*
X131984667Y-99083810D01*
X131937048Y-98988571D01*
X131889429Y-98940952D01*
X131794191Y-98893333D01*
X131603714Y-98893333D01*
X131508476Y-98940952D01*
X131460857Y-98988571D01*
X131413238Y-99083810D01*
X109902667Y-101814381D02*
X109902667Y-102528667D01*
X109855047Y-102671524D01*
X109759809Y-102766762D01*
X109616952Y-102814381D01*
X109521714Y-102814381D01*
X110521714Y-102242952D02*
X110426476Y-102195333D01*
X110378857Y-102147714D01*
X110331238Y-102052476D01*
X110331238Y-102004857D01*
X110378857Y-101909619D01*
X110426476Y-101862000D01*
X110521714Y-101814381D01*
X110712191Y-101814381D01*
X110807429Y-101862000D01*
X110855048Y-101909619D01*
X110902667Y-102004857D01*
X110902667Y-102052476D01*
X110855048Y-102147714D01*
X110807429Y-102195333D01*
X110712191Y-102242952D01*
X110521714Y-102242952D01*
X110426476Y-102290571D01*
X110378857Y-102338190D01*
X110331238Y-102433429D01*
X110331238Y-102623905D01*
X110378857Y-102719143D01*
X110426476Y-102766762D01*
X110521714Y-102814381D01*
X110712191Y-102814381D01*
X110807429Y-102766762D01*
X110855048Y-102719143D01*
X110902667Y-102623905D01*
X110902667Y-102433429D01*
X110855048Y-102338190D01*
X110807429Y-102290571D01*
X110712191Y-102242952D01*
X173918667Y-98004381D02*
X173918667Y-98718667D01*
X173871047Y-98861524D01*
X173775809Y-98956762D01*
X173632952Y-99004381D01*
X173537714Y-99004381D01*
X174394857Y-99004381D02*
X174394857Y-98004381D01*
X174775810Y-98004381D01*
X174871048Y-98052000D01*
X174918667Y-98099619D01*
X174966286Y-98194857D01*
X174966286Y-98337714D01*
X174918667Y-98432952D01*
X174871048Y-98480571D01*
X174775810Y-98528190D01*
X174394857Y-98528190D01*
X175918667Y-99004381D02*
X175347238Y-99004381D01*
X175632952Y-99004381D02*
X175632952Y-98004381D01*
X175537714Y-98147238D01*
X175442476Y-98242476D01*
X175347238Y-98290095D01*
X151471334Y-128976381D02*
X151138000Y-128500190D01*
X150899905Y-128976381D02*
X150899905Y-127976381D01*
X151280858Y-127976381D01*
X151376096Y-128024000D01*
X151423715Y-128071619D01*
X151471334Y-128166857D01*
X151471334Y-128309714D01*
X151423715Y-128404952D01*
X151376096Y-128452571D01*
X151280858Y-128500190D01*
X150899905Y-128500190D01*
X152423715Y-128976381D02*
X151852286Y-128976381D01*
X152138000Y-128976381D02*
X152138000Y-127976381D01*
X152042762Y-128119238D01*
X151947524Y-128214476D01*
X151852286Y-128262095D01*
X158075334Y-126436381D02*
X157742000Y-125960190D01*
X157503905Y-126436381D02*
X157503905Y-125436381D01*
X157884858Y-125436381D01*
X157980096Y-125484000D01*
X158027715Y-125531619D01*
X158075334Y-125626857D01*
X158075334Y-125769714D01*
X158027715Y-125864952D01*
X157980096Y-125912571D01*
X157884858Y-125960190D01*
X157503905Y-125960190D01*
X158456286Y-125531619D02*
X158503905Y-125484000D01*
X158599143Y-125436381D01*
X158837239Y-125436381D01*
X158932477Y-125484000D01*
X158980096Y-125531619D01*
X159027715Y-125626857D01*
X159027715Y-125722095D01*
X158980096Y-125864952D01*
X158408667Y-126436381D01*
X159027715Y-126436381D01*
X144613334Y-63698381D02*
X144280000Y-63222190D01*
X144041905Y-63698381D02*
X144041905Y-62698381D01*
X144422858Y-62698381D01*
X144518096Y-62746000D01*
X144565715Y-62793619D01*
X144613334Y-62888857D01*
X144613334Y-63031714D01*
X144565715Y-63126952D01*
X144518096Y-63174571D01*
X144422858Y-63222190D01*
X144041905Y-63222190D01*
X144946667Y-62698381D02*
X145565715Y-62698381D01*
X145232381Y-63079333D01*
X145375239Y-63079333D01*
X145470477Y-63126952D01*
X145518096Y-63174571D01*
X145565715Y-63269810D01*
X145565715Y-63507905D01*
X145518096Y-63603143D01*
X145470477Y-63650762D01*
X145375239Y-63698381D01*
X145089524Y-63698381D01*
X144994286Y-63650762D01*
X144946667Y-63603143D01*
X168235334Y-128214381D02*
X167902000Y-127738190D01*
X167663905Y-128214381D02*
X167663905Y-127214381D01*
X168044858Y-127214381D01*
X168140096Y-127262000D01*
X168187715Y-127309619D01*
X168235334Y-127404857D01*
X168235334Y-127547714D01*
X168187715Y-127642952D01*
X168140096Y-127690571D01*
X168044858Y-127738190D01*
X167663905Y-127738190D01*
X169092477Y-127547714D02*
X169092477Y-128214381D01*
X168854381Y-127166762D02*
X168616286Y-127881048D01*
X169235334Y-127881048D01*
X163155334Y-132278381D02*
X162822000Y-131802190D01*
X162583905Y-132278381D02*
X162583905Y-131278381D01*
X162964858Y-131278381D01*
X163060096Y-131326000D01*
X163107715Y-131373619D01*
X163155334Y-131468857D01*
X163155334Y-131611714D01*
X163107715Y-131706952D01*
X163060096Y-131754571D01*
X162964858Y-131802190D01*
X162583905Y-131802190D01*
X164060096Y-131278381D02*
X163583905Y-131278381D01*
X163536286Y-131754571D01*
X163583905Y-131706952D01*
X163679143Y-131659333D01*
X163917239Y-131659333D01*
X164012477Y-131706952D01*
X164060096Y-131754571D01*
X164107715Y-131849810D01*
X164107715Y-132087905D01*
X164060096Y-132183143D01*
X164012477Y-132230762D01*
X163917239Y-132278381D01*
X163679143Y-132278381D01*
X163583905Y-132230762D01*
X163536286Y-132183143D01*
X168235334Y-136850381D02*
X167902000Y-136374190D01*
X167663905Y-136850381D02*
X167663905Y-135850381D01*
X168044858Y-135850381D01*
X168140096Y-135898000D01*
X168187715Y-135945619D01*
X168235334Y-136040857D01*
X168235334Y-136183714D01*
X168187715Y-136278952D01*
X168140096Y-136326571D01*
X168044858Y-136374190D01*
X167663905Y-136374190D01*
X169092477Y-135850381D02*
X168902000Y-135850381D01*
X168806762Y-135898000D01*
X168759143Y-135945619D01*
X168663905Y-136088476D01*
X168616286Y-136278952D01*
X168616286Y-136659905D01*
X168663905Y-136755143D01*
X168711524Y-136802762D01*
X168806762Y-136850381D01*
X168997239Y-136850381D01*
X169092477Y-136802762D01*
X169140096Y-136755143D01*
X169187715Y-136659905D01*
X169187715Y-136421810D01*
X169140096Y-136326571D01*
X169092477Y-136278952D01*
X168997239Y-136231333D01*
X168806762Y-136231333D01*
X168711524Y-136278952D01*
X168663905Y-136326571D01*
X168616286Y-136421810D01*
X108366667Y-139314762D02*
X108509524Y-139362381D01*
X108747620Y-139362381D01*
X108842858Y-139314762D01*
X108890477Y-139267143D01*
X108938096Y-139171905D01*
X108938096Y-139076667D01*
X108890477Y-138981429D01*
X108842858Y-138933810D01*
X108747620Y-138886190D01*
X108557143Y-138838571D01*
X108461905Y-138790952D01*
X108414286Y-138743333D01*
X108366667Y-138648095D01*
X108366667Y-138552857D01*
X108414286Y-138457619D01*
X108461905Y-138410000D01*
X108557143Y-138362381D01*
X108795239Y-138362381D01*
X108938096Y-138410000D01*
X109271429Y-138362381D02*
X109509524Y-139362381D01*
X109700001Y-138648095D01*
X109890477Y-139362381D01*
X110128572Y-138362381D01*
X111033334Y-139362381D02*
X110461905Y-139362381D01*
X110747619Y-139362381D02*
X110747619Y-138362381D01*
X110652381Y-138505238D01*
X110557143Y-138600476D01*
X110461905Y-138648095D01*
X139700095Y-131532381D02*
X139700095Y-132341905D01*
X139747714Y-132437143D01*
X139795333Y-132484762D01*
X139890571Y-132532381D01*
X140081048Y-132532381D01*
X140176286Y-132484762D01*
X140223905Y-132437143D01*
X140271524Y-132341905D01*
X140271524Y-131532381D01*
X141271524Y-132532381D02*
X140700095Y-132532381D01*
X140985809Y-132532381D02*
X140985809Y-131532381D01*
X140890571Y-131675238D01*
X140795333Y-131770476D01*
X140700095Y-131818095D01*
X150542667Y-120356381D02*
X150542667Y-121070667D01*
X150495047Y-121213524D01*
X150399809Y-121308762D01*
X150256952Y-121356381D01*
X150161714Y-121356381D01*
X150923619Y-120356381D02*
X151590286Y-120356381D01*
X151161714Y-121356381D01*
D16*
G36*
X170815000Y-71172606D02*
X170815000Y-76909394D01*
X158548606Y-64643000D01*
X164285394Y-64643000D01*
X170815000Y-71172606D01*
X170815000Y-71172606D01*
G37*
X170815000Y-71172606D02*
X170815000Y-76909394D01*
X158548606Y-64643000D01*
X164285394Y-64643000D01*
X170815000Y-71172606D01*
G36*
X170815000Y-82856606D02*
X170815000Y-88593394D01*
X146864606Y-64643000D01*
X152601394Y-64643000D01*
X170815000Y-82856606D01*
X170815000Y-82856606D01*
G37*
X170815000Y-82856606D02*
X170815000Y-88593394D01*
X146864606Y-64643000D01*
X152601394Y-64643000D01*
X170815000Y-82856606D01*
G36*
X170815000Y-94286606D02*
X170815000Y-96901000D01*
X168454606Y-96901000D01*
X136196606Y-64643000D01*
X141171394Y-64643000D01*
X170815000Y-94286606D01*
X170815000Y-94286606D01*
G37*
X170815000Y-94286606D02*
X170815000Y-96901000D01*
X168454606Y-96901000D01*
X136196606Y-64643000D01*
X141171394Y-64643000D01*
X170815000Y-94286606D01*
G36*
X118311394Y-89789000D02*
X113844606Y-89789000D01*
X111887000Y-87831394D01*
X111887000Y-83364606D01*
X118311394Y-89789000D01*
X118311394Y-89789000D01*
G37*
X118311394Y-89789000D02*
X113844606Y-89789000D01*
X111887000Y-87831394D01*
X111887000Y-83364606D01*
X118311394Y-89789000D01*
G36*
X136599394Y-96901000D02*
X130608606Y-96901000D01*
X129667000Y-95959394D01*
X129667000Y-90424000D01*
X129656994Y-90374590D01*
X129628553Y-90332965D01*
X129586159Y-90305685D01*
X129540000Y-90297000D01*
X124004606Y-90297000D01*
X123787803Y-90080197D01*
X123745789Y-90052334D01*
X123698000Y-90043000D01*
X123571000Y-90043000D01*
X123571000Y-89916000D01*
X123560994Y-89866590D01*
X123533803Y-89826197D01*
X111887000Y-78179394D01*
X111887000Y-72188606D01*
X136599394Y-96901000D01*
X136599394Y-96901000D01*
G37*
X136599394Y-96901000D02*
X130608606Y-96901000D01*
X129667000Y-95959394D01*
X129667000Y-90424000D01*
X129656994Y-90374590D01*
X129628553Y-90332965D01*
X129586159Y-90305685D01*
X129540000Y-90297000D01*
X124004606Y-90297000D01*
X123787803Y-90080197D01*
X123745789Y-90052334D01*
X123698000Y-90043000D01*
X123571000Y-90043000D01*
X123571000Y-89916000D01*
X123560994Y-89866590D01*
X123533803Y-89826197D01*
X111887000Y-78179394D01*
X111887000Y-72188606D01*
X136599394Y-96901000D01*
G36*
X151331394Y-96901000D02*
X143816606Y-96901000D01*
X111887000Y-64971394D01*
X111887000Y-64643000D01*
X119073394Y-64643000D01*
X151331394Y-96901000D01*
X151331394Y-96901000D01*
G37*
X151331394Y-96901000D02*
X143816606Y-96901000D01*
X111887000Y-64971394D01*
X111887000Y-64643000D01*
X119073394Y-64643000D01*
X151331394Y-96901000D01*
G36*
X162759701Y-96901000D02*
X156516606Y-96901000D01*
X124258606Y-64643000D01*
X130249685Y-64643000D01*
X162759701Y-96901000D01*
X162759701Y-96901000D01*
G37*
X162759701Y-96901000D02*
X156516606Y-96901000D01*
X124258606Y-64643000D01*
X130249685Y-64643000D01*
X162759701Y-96901000D01*
M02*
