M48
;DRILL file {KiCad 4.0.7-e2-6376~58~ubuntu14.04.1} date Tue Oct 30 11:41:27 2018
;FORMAT={3:3/ absolute / metric / suppress leading zeros}
FMAT,2
METRIC,TZ
T1C0.400
T2C0.800
T3C0.900
T4C1.000
T5C1.016
T6C3.000
T7C5.500
%
G90
G05
M71
T1
X114300Y-130500
X114500Y-124400
X127000Y-107900
X128000Y-124300
X129200Y-124200
X129600Y-107900
X133600Y-114700
X135400Y-122700
X135500Y-118200
X135500Y-127300
X135700Y-107900
X135700Y-110000
X151000Y-127600
X151000Y-130200
X151440Y-111760
X154300Y-111700
X175900Y-129600
T2
X105890Y-132560
X105890Y-137640
X113510Y-132560
X113510Y-137640
T3
X137668Y-134620
X139700Y-58420
X140208Y-134620
X142240Y-58420
X142748Y-134620
T4
X107188Y-104648
X109728Y-104648
X121158Y-131826
X123698Y-101346
X123698Y-131826
X125476Y-57912
X126238Y-101346
X126238Y-131826
X128016Y-57912
X128778Y-101346
X128778Y-131826
X131318Y-101346
X148082Y-111760
X148082Y-114300
X148082Y-116840
X148082Y-119380
X148082Y-121920
X150876Y-102870
X150876Y-105410
X151130Y-132588
X153670Y-57912
X153670Y-132588
X156210Y-57912
X156210Y-132588
X158750Y-132588
T5
X105410Y-111098
X105410Y-126138
X107950Y-111098
X107950Y-126138
X110490Y-111098
X110490Y-126138
X113030Y-111098
X113030Y-126138
X115570Y-111098
X115570Y-126138
X118110Y-111098
X118110Y-126138
X120650Y-111098
X120650Y-126138
X123190Y-111098
X123190Y-126138
X125730Y-111098
X125730Y-126138
X128270Y-111098
X128270Y-126138
X130810Y-111098
X130810Y-126138
X133350Y-111098
X133350Y-126138
X156972Y-118872
X156972Y-121412
X174752Y-103632
X174752Y-106172
X174752Y-108712
T6
X108060Y-147610
X117070Y-59600
X165070Y-59610
X174070Y-147620
T7
X112820Y-120570
X169320Y-120560
T0
M30
