G04 #@! TF.FileFunction,Profile,NP*
%FSLAX46Y46*%
G04 Gerber Fmt 4.6, Leading zero omitted, Abs format (unit mm)*
G04 Created by KiCad (PCBNEW 4.0.7-e2-6376~58~ubuntu14.04.1) date Tue Oct 30 11:41:08 2018*
%MOMM*%
%LPD*%
G01*
G04 APERTURE LIST*
%ADD10C,0.100000*%
%ADD11C,0.150000*%
G04 APERTURE END LIST*
D10*
D11*
X177000000Y-150400000D02*
X179100000Y-146300000D01*
X171000000Y-150400000D02*
X177000000Y-150400000D01*
X169200000Y-146900000D02*
X171000000Y-150400000D01*
X169100000Y-142500000D02*
X169200000Y-146900000D01*
X166200000Y-139600000D02*
X169100000Y-142500000D01*
X116000000Y-139600000D02*
X166200000Y-139600000D01*
X113100000Y-142500000D02*
X116000000Y-139600000D01*
X113100000Y-146000000D02*
X113100000Y-142500000D01*
X110900000Y-150300000D02*
X113100000Y-146000000D01*
X104800000Y-150300000D02*
X110900000Y-150300000D01*
X103100000Y-146300000D02*
X104800000Y-150300000D01*
X179100000Y-124600000D02*
X179100000Y-146300000D01*
X178900000Y-120700000D02*
X179100000Y-124600000D01*
X178700000Y-118300000D02*
X178900000Y-120700000D01*
X173700000Y-60400000D02*
X178700000Y-118300000D01*
X167000000Y-54300000D02*
X173700000Y-60400000D01*
X115100000Y-54400000D02*
X167000000Y-54300000D01*
X108500000Y-60400000D02*
X115100000Y-54400000D01*
X103100000Y-124400000D02*
X108500000Y-60400000D01*
X103100000Y-146300000D02*
X103100000Y-124400000D01*
M02*
