G04 #@! TF.FileFunction,Copper,L1,Top,Signal*
%FSLAX46Y46*%
G04 Gerber Fmt 4.6, Leading zero omitted, Abs format (unit mm)*
G04 Created by KiCad (PCBNEW 4.0.7-e2-6376~58~ubuntu14.04.1) date Tue Oct 30 11:41:08 2018*
%MOMM*%
%LPD*%
G01*
G04 APERTURE LIST*
%ADD10C,0.100000*%
%ADD11O,1.727200X2.032000*%
%ADD12O,2.032000X1.727200*%
%ADD13R,1.500000X1.300000*%
%ADD14R,1.800000X1.800000*%
%ADD15C,1.800000*%
%ADD16R,1.700000X1.700000*%
%ADD17O,1.700000X1.700000*%
%ADD18R,1.300000X1.500000*%
%ADD19O,1.900000X1.500000*%
%ADD20C,0.600000*%
%ADD21C,0.550000*%
%ADD22C,0.250000*%
%ADD23C,0.254000*%
G04 APERTURE END LIST*
D10*
D11*
X105410000Y-111098000D03*
X105410000Y-126138000D03*
X107950000Y-111098000D03*
X107950000Y-126138000D03*
X110490000Y-111098000D03*
X110490000Y-126138000D03*
X113030000Y-111098000D03*
X113030000Y-126138000D03*
X115570000Y-111098000D03*
X115570000Y-126138000D03*
X118110000Y-111098000D03*
X118110000Y-126138000D03*
X120650000Y-111098000D03*
X120650000Y-126138000D03*
X123190000Y-111098000D03*
X123190000Y-126138000D03*
X125730000Y-111098000D03*
X125730000Y-126138000D03*
X128270000Y-111098000D03*
X128270000Y-126138000D03*
X130810000Y-111098000D03*
X130810000Y-126138000D03*
X133350000Y-111098000D03*
X133350000Y-126138000D03*
D12*
X156972000Y-121412000D03*
X156972000Y-118872000D03*
X174752000Y-108712000D03*
X174752000Y-106172000D03*
X174752000Y-103632000D03*
D13*
X174070000Y-129540000D03*
X171370000Y-129540000D03*
X174070000Y-132080000D03*
X171370000Y-132080000D03*
X174070000Y-134620000D03*
X171370000Y-134620000D03*
D14*
X139700000Y-58420000D03*
D15*
X142240000Y-58420000D03*
D16*
X150876000Y-102870000D03*
D17*
X150876000Y-105410000D03*
D16*
X125476000Y-57912000D03*
D17*
X128016000Y-57912000D03*
D16*
X128778000Y-131826000D03*
D17*
X126238000Y-131826000D03*
X123698000Y-131826000D03*
X121158000Y-131826000D03*
D16*
X151130000Y-132588000D03*
D17*
X153670000Y-132588000D03*
X156210000Y-132588000D03*
X158750000Y-132588000D03*
D16*
X153670000Y-57912000D03*
D17*
X156210000Y-57912000D03*
D16*
X131318000Y-101346000D03*
D17*
X128778000Y-101346000D03*
X126238000Y-101346000D03*
X123698000Y-101346000D03*
D16*
X107188000Y-104648000D03*
D17*
X109728000Y-104648000D03*
D10*
G36*
X171558000Y-100072000D02*
X171558000Y-99572000D01*
X172358000Y-99272000D01*
X172358000Y-100372000D01*
X171558000Y-100072000D01*
X171558000Y-100072000D01*
G37*
G36*
X172574000Y-100372000D02*
X172574000Y-99272000D01*
X173374000Y-99572000D01*
X173374000Y-100072000D01*
X172574000Y-100372000D01*
X172574000Y-100372000D01*
G37*
D18*
X153670000Y-129112000D03*
X153670000Y-126412000D03*
X156210000Y-129112000D03*
X156210000Y-126412000D03*
D13*
X139874000Y-62992000D03*
X142574000Y-62992000D03*
X165528000Y-129540000D03*
X168228000Y-129540000D03*
X165528000Y-132080000D03*
X168228000Y-132080000D03*
X165528000Y-134620000D03*
X168228000Y-134620000D03*
D19*
X105890000Y-137640000D03*
X105890000Y-132560000D03*
X113510000Y-137640000D03*
X113510000Y-132560000D03*
D14*
X137668000Y-134620000D03*
D15*
X140208000Y-134620000D03*
X142748000Y-134620000D03*
D16*
X148082000Y-111760000D03*
D17*
X148082000Y-114300000D03*
X148082000Y-116840000D03*
X148082000Y-119380000D03*
X148082000Y-121920000D03*
D20*
X175900000Y-129600000D03*
X154300000Y-111700000D03*
X151440000Y-111760000D03*
X151000000Y-130200000D03*
X151000000Y-127600000D03*
X129200000Y-124200000D03*
X129600000Y-107900000D03*
X127000000Y-107900000D03*
X128000000Y-124300000D03*
X133600000Y-114700000D03*
X135500000Y-118200000D03*
X135700000Y-110000000D03*
X135700000Y-107900000D03*
X114300000Y-130500000D03*
X114500000Y-124400000D03*
X135400000Y-122700000D03*
X135500000Y-127300000D03*
D21*
X174070000Y-129540000D02*
X174130000Y-129600000D01*
X174130000Y-129600000D02*
X175900000Y-129600000D01*
X174070000Y-132080000D02*
X174070000Y-129540000D01*
X174070000Y-134620000D02*
X174070000Y-132080000D01*
D22*
X168228000Y-129540000D02*
X171370000Y-129540000D01*
X168228000Y-132080000D02*
X171370000Y-132080000D01*
X171370000Y-134620000D02*
X168228000Y-134620000D01*
X142240000Y-58420000D02*
X142574000Y-58754000D01*
X142574000Y-58754000D02*
X142574000Y-62992000D01*
D21*
X174752000Y-108712000D02*
X173712000Y-108712000D01*
X167870000Y-102870000D02*
X150876000Y-102870000D01*
X173712000Y-108712000D02*
X167870000Y-102870000D01*
X171958000Y-99822000D02*
X150678000Y-99822000D01*
X154300000Y-109800000D02*
X154300000Y-111700000D01*
X152400000Y-107900000D02*
X154300000Y-109800000D01*
X149600000Y-107900000D02*
X152400000Y-107900000D01*
X148800000Y-107100000D02*
X149600000Y-107900000D01*
X148800000Y-101700000D02*
X148800000Y-107100000D01*
X150678000Y-99822000D02*
X148800000Y-101700000D01*
X148082000Y-111760000D02*
X151440000Y-111760000D01*
X151440000Y-111760000D02*
X151500000Y-111700000D01*
X153670000Y-126412000D02*
X152188000Y-126412000D01*
X151130000Y-130330000D02*
X151130000Y-132588000D01*
X151000000Y-130200000D02*
X151130000Y-130330000D01*
X152188000Y-126412000D02*
X151000000Y-127600000D01*
X153658000Y-126400000D02*
X153670000Y-126412000D01*
X156210000Y-126412000D02*
X153670000Y-126412000D01*
D22*
X126238000Y-131826000D02*
X123612000Y-129200000D01*
X111012000Y-129200000D02*
X107950000Y-126138000D01*
X123612000Y-129200000D02*
X111012000Y-129200000D01*
X107950000Y-126138000D02*
X107950000Y-126650000D01*
X123698000Y-131826000D02*
X123698000Y-131398000D01*
X123698000Y-131398000D02*
X122100000Y-129800000D01*
X122100000Y-129800000D02*
X109072000Y-129800000D01*
X109072000Y-129800000D02*
X105410000Y-126138000D01*
X128700000Y-128700000D02*
X128384000Y-128384000D01*
X128384000Y-128384000D02*
X117816000Y-128384000D01*
X117616000Y-128184000D02*
X117816000Y-128384000D01*
X152200000Y-136300000D02*
X151300000Y-137200000D01*
X131000000Y-134000000D02*
X131000000Y-131000000D01*
X134200000Y-137200000D02*
X131000000Y-134000000D01*
X151300000Y-137200000D02*
X134200000Y-137200000D01*
X153670000Y-132588000D02*
X153670000Y-134830000D01*
X131000000Y-131000000D02*
X128700000Y-128700000D01*
X153670000Y-134830000D02*
X152200000Y-136300000D01*
X117616000Y-128184000D02*
X115570000Y-126138000D01*
X153670000Y-129112000D02*
X153670000Y-132588000D01*
X119672000Y-127700000D02*
X119872000Y-127900000D01*
X119872000Y-127900000D02*
X129000000Y-127900000D01*
X147800000Y-135800000D02*
X147200000Y-136400000D01*
X147200000Y-136400000D02*
X134700000Y-136400000D01*
X134700000Y-136400000D02*
X131900000Y-133600000D01*
X131900000Y-133600000D02*
X131900000Y-130800000D01*
X131900000Y-130800000D02*
X129000000Y-127900000D01*
X119672000Y-127700000D02*
X118110000Y-126138000D01*
X156210000Y-129112000D02*
X156210000Y-129110000D01*
X156210000Y-129110000D02*
X154900000Y-127800000D01*
X149200000Y-134400000D02*
X147800000Y-135800000D01*
X149200000Y-130800000D02*
X149200000Y-134400000D01*
X152200000Y-127800000D02*
X149200000Y-130800000D01*
X154900000Y-127800000D02*
X152200000Y-127800000D01*
X156210000Y-132588000D02*
X156210000Y-129112000D01*
X130810000Y-126138000D02*
X129200000Y-124528000D01*
X129200000Y-124528000D02*
X129200000Y-124200000D01*
X129600000Y-102168000D02*
X128778000Y-101346000D01*
X129600000Y-107900000D02*
X129600000Y-102168000D01*
X126238000Y-101346000D02*
X127000000Y-102108000D01*
X127000000Y-102108000D02*
X127000000Y-107900000D01*
X128270000Y-126138000D02*
X128270000Y-124570000D01*
X128270000Y-124570000D02*
X128000000Y-124300000D01*
X148082000Y-114300000D02*
X146682000Y-115700000D01*
X132872000Y-115700000D02*
X128270000Y-111098000D01*
X146682000Y-115700000D02*
X132872000Y-115700000D01*
X125730000Y-111098000D02*
X131472000Y-116840000D01*
X131472000Y-116840000D02*
X148082000Y-116840000D01*
X148082000Y-119380000D02*
X146902000Y-118200000D01*
X133600000Y-114700000D02*
X130810000Y-111910000D01*
X146902000Y-118200000D02*
X135500000Y-118200000D01*
X130810000Y-111910000D02*
X130810000Y-111098000D01*
D21*
X107608000Y-108300000D02*
X108208000Y-108900000D01*
X108100000Y-108700000D02*
X108100000Y-108900000D01*
X108208000Y-108808000D02*
X108100000Y-108700000D01*
X108208000Y-108900000D02*
X108208000Y-108808000D01*
X107608000Y-108900000D02*
X107608000Y-108300000D01*
X107608000Y-108300000D02*
X107608000Y-105068000D01*
X107608000Y-105068000D02*
X107188000Y-104648000D01*
X156972000Y-121412000D02*
X154912000Y-121412000D01*
X151600000Y-108900000D02*
X108100000Y-108900000D01*
X152900000Y-110200000D02*
X151600000Y-108900000D01*
X152900000Y-119400000D02*
X152900000Y-110200000D01*
X154912000Y-121412000D02*
X152900000Y-119400000D01*
X107608000Y-108900000D02*
X105410000Y-111098000D01*
X108100000Y-108900000D02*
X107608000Y-108900000D01*
D22*
X174752000Y-103632000D02*
X174752000Y-100552000D01*
X174022000Y-99822000D02*
X172974000Y-99822000D01*
X174752000Y-100552000D02*
X174022000Y-99822000D01*
X139874000Y-62992000D02*
X139874000Y-103726000D01*
X134602000Y-111098000D02*
X133350000Y-111098000D01*
X135700000Y-110000000D02*
X134602000Y-111098000D01*
X139874000Y-103726000D02*
X135700000Y-107900000D01*
X123190000Y-126138000D02*
X123190000Y-123710000D01*
X133800000Y-122800000D02*
X134700000Y-123700000D01*
X124100000Y-122800000D02*
X133800000Y-122800000D01*
X123190000Y-123710000D02*
X124100000Y-122800000D01*
X123190000Y-125710000D02*
X123190000Y-126138000D01*
X158200000Y-123700000D02*
X163900000Y-129400000D01*
X158200000Y-123700000D02*
X134700000Y-123700000D01*
X163900000Y-129400000D02*
X165388000Y-129400000D01*
X123190000Y-126138000D02*
X123190000Y-125710000D01*
X165388000Y-129400000D02*
X165528000Y-129540000D01*
X125730000Y-126138000D02*
X125730000Y-124770000D01*
X127000000Y-123500000D02*
X128368000Y-123500000D01*
X125730000Y-124770000D02*
X127000000Y-123500000D01*
X134100000Y-124300000D02*
X133300000Y-123500000D01*
X133300000Y-123500000D02*
X128368000Y-123500000D01*
X152000000Y-124300000D02*
X134100000Y-124300000D01*
X165528000Y-132080000D02*
X162580000Y-132080000D01*
X157800000Y-124300000D02*
X152000000Y-124300000D01*
X161600000Y-128100000D02*
X157800000Y-124300000D01*
X161600000Y-131100000D02*
X161600000Y-128100000D01*
X162580000Y-132080000D02*
X161600000Y-131100000D01*
X151400000Y-125800000D02*
X151000000Y-126200000D01*
X151000000Y-126200000D02*
X150900000Y-126200000D01*
X133350000Y-126138000D02*
X133412000Y-126200000D01*
X133412000Y-126200000D02*
X150900000Y-126200000D01*
X151400000Y-125800000D02*
X152300000Y-124900000D01*
X152300000Y-124900000D02*
X157600000Y-124900000D01*
X157600000Y-124900000D02*
X161000000Y-128300000D01*
X161000000Y-128300000D02*
X161000000Y-133000000D01*
X161000000Y-133000000D02*
X162620000Y-134620000D01*
X162620000Y-134620000D02*
X165528000Y-134620000D01*
X114600000Y-124300000D02*
X114500000Y-124400000D01*
X114900000Y-136250000D02*
X113510000Y-137640000D01*
X114900000Y-131100000D02*
X114900000Y-136250000D01*
X114300000Y-130500000D02*
X114900000Y-131100000D01*
X120650000Y-126138000D02*
X120650000Y-125050000D01*
X119900000Y-124300000D02*
X114600000Y-124300000D01*
X120650000Y-125050000D02*
X119900000Y-124300000D01*
X137668000Y-134620000D02*
X135500000Y-132452000D01*
X134792000Y-122700000D02*
X123190000Y-111098000D01*
X135400000Y-122700000D02*
X134792000Y-122700000D01*
X135500000Y-132452000D02*
X135500000Y-127300000D01*
D23*
G36*
X173016540Y-60737932D02*
X177992545Y-118360065D01*
X178191512Y-120747667D01*
X178390000Y-124618189D01*
X178390000Y-146128748D01*
X176565944Y-149690000D01*
X174651022Y-149690000D01*
X175277800Y-149431020D01*
X175878909Y-148830959D01*
X176204628Y-148046541D01*
X176205370Y-147197185D01*
X175881020Y-146412200D01*
X175280959Y-145811091D01*
X174496541Y-145485372D01*
X173647185Y-145484630D01*
X172862200Y-145808980D01*
X172261091Y-146409041D01*
X171935372Y-147193459D01*
X171934630Y-148042815D01*
X172258980Y-148827800D01*
X172859041Y-149428909D01*
X173487818Y-149690000D01*
X171433248Y-149690000D01*
X169906105Y-146720555D01*
X169809817Y-142483868D01*
X169781433Y-142356383D01*
X169755954Y-142228295D01*
X169751394Y-142221471D01*
X169749611Y-142213461D01*
X169674606Y-142106549D01*
X169602046Y-141997954D01*
X166702046Y-139097954D01*
X166471705Y-138944046D01*
X166200000Y-138890000D01*
X116000000Y-138890000D01*
X115728295Y-138944046D01*
X115497954Y-139097954D01*
X112597954Y-141997954D01*
X112444046Y-142228295D01*
X112390000Y-142500000D01*
X112390000Y-145828918D01*
X110465725Y-149590000D01*
X108858838Y-149590000D01*
X109267800Y-149421020D01*
X109868909Y-148820959D01*
X110194628Y-148036541D01*
X110195370Y-147187185D01*
X109871020Y-146402200D01*
X109270959Y-145801091D01*
X108486541Y-145475372D01*
X107637185Y-145474630D01*
X106852200Y-145798980D01*
X106251091Y-146399041D01*
X105925372Y-147183459D01*
X105924630Y-148032815D01*
X106248980Y-148817800D01*
X106849041Y-149418909D01*
X107261074Y-149590000D01*
X105269712Y-149590000D01*
X103810000Y-146155384D01*
X103810000Y-137640000D01*
X104273948Y-137640000D01*
X104379375Y-138170017D01*
X104679605Y-138619343D01*
X105128931Y-138919573D01*
X105658948Y-139025000D01*
X106121052Y-139025000D01*
X106651069Y-138919573D01*
X107100395Y-138619343D01*
X107400625Y-138170017D01*
X107506052Y-137640000D01*
X107400625Y-137109983D01*
X107100395Y-136660657D01*
X106651069Y-136360427D01*
X106121052Y-136255000D01*
X105658948Y-136255000D01*
X105128931Y-136360427D01*
X104679605Y-136660657D01*
X104379375Y-137109983D01*
X104273948Y-137640000D01*
X103810000Y-137640000D01*
X103810000Y-132560000D01*
X104273948Y-132560000D01*
X104379375Y-133090017D01*
X104679605Y-133539343D01*
X105128931Y-133839573D01*
X105658948Y-133945000D01*
X106121052Y-133945000D01*
X106651069Y-133839573D01*
X107100395Y-133539343D01*
X107400625Y-133090017D01*
X107506052Y-132560000D01*
X107400625Y-132029983D01*
X107100395Y-131580657D01*
X106651069Y-131280427D01*
X106121052Y-131175000D01*
X105658948Y-131175000D01*
X105128931Y-131280427D01*
X104679605Y-131580657D01*
X104379375Y-132029983D01*
X104273948Y-132560000D01*
X103810000Y-132560000D01*
X103810000Y-124429898D01*
X104804288Y-112645740D01*
X104836511Y-112667271D01*
X105410000Y-112781345D01*
X105983489Y-112667271D01*
X106469670Y-112342415D01*
X106680000Y-112027634D01*
X106890330Y-112342415D01*
X107376511Y-112667271D01*
X107950000Y-112781345D01*
X108523489Y-112667271D01*
X109009670Y-112342415D01*
X109220000Y-112027634D01*
X109430330Y-112342415D01*
X109916511Y-112667271D01*
X110490000Y-112781345D01*
X111063489Y-112667271D01*
X111549670Y-112342415D01*
X111756461Y-112032931D01*
X112127964Y-112448732D01*
X112655209Y-112702709D01*
X112670974Y-112705358D01*
X112903000Y-112584217D01*
X112903000Y-111225000D01*
X112883000Y-111225000D01*
X112883000Y-110971000D01*
X112903000Y-110971000D01*
X112903000Y-110951000D01*
X113157000Y-110951000D01*
X113157000Y-110971000D01*
X113177000Y-110971000D01*
X113177000Y-111225000D01*
X113157000Y-111225000D01*
X113157000Y-112584217D01*
X113389026Y-112705358D01*
X113404791Y-112702709D01*
X113932036Y-112448732D01*
X114303539Y-112032931D01*
X114510330Y-112342415D01*
X114996511Y-112667271D01*
X115570000Y-112781345D01*
X116143489Y-112667271D01*
X116629670Y-112342415D01*
X116840000Y-112027634D01*
X117050330Y-112342415D01*
X117536511Y-112667271D01*
X118110000Y-112781345D01*
X118683489Y-112667271D01*
X119169670Y-112342415D01*
X119380000Y-112027634D01*
X119590330Y-112342415D01*
X120076511Y-112667271D01*
X120650000Y-112781345D01*
X121223489Y-112667271D01*
X121709670Y-112342415D01*
X121920000Y-112027634D01*
X122130330Y-112342415D01*
X122616511Y-112667271D01*
X123190000Y-112781345D01*
X123697579Y-112680381D01*
X133057198Y-122040000D01*
X124100000Y-122040000D01*
X123809160Y-122097852D01*
X123562599Y-122262599D01*
X122652599Y-123172599D01*
X122487852Y-123419161D01*
X122430000Y-123710000D01*
X122430000Y-124693352D01*
X122130330Y-124893585D01*
X121920000Y-125208366D01*
X121709670Y-124893585D01*
X121226049Y-124570439D01*
X121187401Y-124512599D01*
X120437401Y-123762599D01*
X120190839Y-123597852D01*
X119900000Y-123540000D01*
X114867028Y-123540000D01*
X114686799Y-123465162D01*
X114677302Y-123465154D01*
X114734943Y-123441337D01*
X115687990Y-122489952D01*
X116204411Y-121246272D01*
X116205586Y-119899636D01*
X115691337Y-118655057D01*
X114739952Y-117702010D01*
X113496272Y-117185589D01*
X112149636Y-117184414D01*
X110905057Y-117698663D01*
X109952010Y-118650048D01*
X109435589Y-119893728D01*
X109434414Y-121240364D01*
X109948663Y-122484943D01*
X110900048Y-123437990D01*
X112143728Y-123954411D01*
X113490364Y-123955586D01*
X113714530Y-123862963D01*
X113707808Y-123869673D01*
X113565162Y-124213201D01*
X113564859Y-124561045D01*
X113030000Y-124454655D01*
X112456511Y-124568729D01*
X111970330Y-124893585D01*
X111760000Y-125208366D01*
X111549670Y-124893585D01*
X111063489Y-124568729D01*
X110490000Y-124454655D01*
X109916511Y-124568729D01*
X109430330Y-124893585D01*
X109220000Y-125208366D01*
X109009670Y-124893585D01*
X108523489Y-124568729D01*
X107950000Y-124454655D01*
X107376511Y-124568729D01*
X106890330Y-124893585D01*
X106680000Y-125208366D01*
X106469670Y-124893585D01*
X105983489Y-124568729D01*
X105410000Y-124454655D01*
X104836511Y-124568729D01*
X104350330Y-124893585D01*
X104025474Y-125379766D01*
X103911400Y-125953255D01*
X103911400Y-126322745D01*
X104025474Y-126896234D01*
X104350330Y-127382415D01*
X104836511Y-127707271D01*
X105410000Y-127821345D01*
X105917579Y-127720381D01*
X108534599Y-130337401D01*
X108781161Y-130502148D01*
X109072000Y-130560000D01*
X113364947Y-130560000D01*
X113364838Y-130685167D01*
X113506883Y-131028943D01*
X113652685Y-131175000D01*
X113278948Y-131175000D01*
X112748931Y-131280427D01*
X112299605Y-131580657D01*
X111999375Y-132029983D01*
X111893948Y-132560000D01*
X111999375Y-133090017D01*
X112299605Y-133539343D01*
X112748931Y-133839573D01*
X113278948Y-133945000D01*
X113741052Y-133945000D01*
X114140000Y-133865644D01*
X114140000Y-135935198D01*
X113807067Y-136268131D01*
X113741052Y-136255000D01*
X113278948Y-136255000D01*
X112748931Y-136360427D01*
X112299605Y-136660657D01*
X111999375Y-137109983D01*
X111893948Y-137640000D01*
X111999375Y-138170017D01*
X112299605Y-138619343D01*
X112748931Y-138919573D01*
X113278948Y-139025000D01*
X113741052Y-139025000D01*
X114271069Y-138919573D01*
X114720395Y-138619343D01*
X115020625Y-138170017D01*
X115126052Y-137640000D01*
X115036253Y-137188549D01*
X115437401Y-136787401D01*
X115602148Y-136540839D01*
X115660000Y-136250000D01*
X115660000Y-131100000D01*
X115602148Y-130809161D01*
X115437401Y-130562599D01*
X115434802Y-130560000D01*
X120387592Y-130560000D01*
X120107946Y-130746853D01*
X119786039Y-131228622D01*
X119673000Y-131796907D01*
X119673000Y-131855093D01*
X119786039Y-132423378D01*
X120107946Y-132905147D01*
X120589715Y-133227054D01*
X121158000Y-133340093D01*
X121726285Y-133227054D01*
X122208054Y-132905147D01*
X122428000Y-132575974D01*
X122647946Y-132905147D01*
X123129715Y-133227054D01*
X123698000Y-133340093D01*
X124266285Y-133227054D01*
X124748054Y-132905147D01*
X124968000Y-132575974D01*
X125187946Y-132905147D01*
X125669715Y-133227054D01*
X126238000Y-133340093D01*
X126806285Y-133227054D01*
X127288054Y-132905147D01*
X127317403Y-132861223D01*
X127389673Y-133035698D01*
X127568301Y-133214327D01*
X127801690Y-133311000D01*
X128492250Y-133311000D01*
X128651000Y-133152250D01*
X128651000Y-131953000D01*
X128631000Y-131953000D01*
X128631000Y-131699000D01*
X128651000Y-131699000D01*
X128651000Y-130499750D01*
X128492250Y-130341000D01*
X127801690Y-130341000D01*
X127568301Y-130437673D01*
X127389673Y-130616302D01*
X127317403Y-130790777D01*
X127288054Y-130746853D01*
X126806285Y-130424946D01*
X126238000Y-130311907D01*
X125871592Y-130384790D01*
X124630802Y-129144000D01*
X128069198Y-129144000D01*
X129266198Y-130341000D01*
X129063750Y-130341000D01*
X128905000Y-130499750D01*
X128905000Y-131699000D01*
X128925000Y-131699000D01*
X128925000Y-131953000D01*
X128905000Y-131953000D01*
X128905000Y-133152250D01*
X129063750Y-133311000D01*
X129754310Y-133311000D01*
X129987699Y-133214327D01*
X130166327Y-133035698D01*
X130240000Y-132857836D01*
X130240000Y-134000000D01*
X130297852Y-134290839D01*
X130462599Y-134537401D01*
X133662599Y-137737401D01*
X133909160Y-137902148D01*
X134200000Y-137960000D01*
X151300000Y-137960000D01*
X151590839Y-137902148D01*
X151837401Y-137737401D01*
X154207401Y-135367401D01*
X154372148Y-135120839D01*
X154430000Y-134830000D01*
X154430000Y-133860954D01*
X154720054Y-133667147D01*
X154940000Y-133337974D01*
X155159946Y-133667147D01*
X155641715Y-133989054D01*
X156210000Y-134102093D01*
X156778285Y-133989054D01*
X157260054Y-133667147D01*
X157480000Y-133337974D01*
X157699946Y-133667147D01*
X158181715Y-133989054D01*
X158750000Y-134102093D01*
X159318285Y-133989054D01*
X159800054Y-133667147D01*
X160121961Y-133185378D01*
X160235000Y-132617093D01*
X160235000Y-132558907D01*
X160121961Y-131990622D01*
X159800054Y-131508853D01*
X159318285Y-131186946D01*
X158750000Y-131073907D01*
X158181715Y-131186946D01*
X157699946Y-131508853D01*
X157480000Y-131838026D01*
X157260054Y-131508853D01*
X156970000Y-131315046D01*
X156970000Y-130488742D01*
X157095317Y-130465162D01*
X157311441Y-130326090D01*
X157456431Y-130113890D01*
X157507440Y-129862000D01*
X157507440Y-128362000D01*
X157463162Y-128126683D01*
X157324090Y-127910559D01*
X157111890Y-127765569D01*
X157078510Y-127758809D01*
X157219699Y-127700327D01*
X157398327Y-127521698D01*
X157495000Y-127288309D01*
X157495000Y-126697750D01*
X157336250Y-126539000D01*
X156337000Y-126539000D01*
X156337000Y-126559000D01*
X156083000Y-126559000D01*
X156083000Y-126539000D01*
X155083750Y-126539000D01*
X154940000Y-126682750D01*
X154796250Y-126539000D01*
X153797000Y-126539000D01*
X153797000Y-126559000D01*
X153543000Y-126559000D01*
X153543000Y-126539000D01*
X152543750Y-126539000D01*
X152385000Y-126697750D01*
X152385000Y-127040000D01*
X152200000Y-127040000D01*
X151909161Y-127097852D01*
X151662599Y-127262599D01*
X148662599Y-130262599D01*
X148497852Y-130509161D01*
X148440000Y-130800000D01*
X148440000Y-134085198D01*
X146885198Y-135640000D01*
X143937828Y-135640000D01*
X143942718Y-135635110D01*
X143828161Y-135520553D01*
X144084643Y-135434148D01*
X144294458Y-134860664D01*
X144268839Y-134250540D01*
X144084643Y-133805852D01*
X143828159Y-133719446D01*
X142927605Y-134620000D01*
X142941748Y-134634143D01*
X142762143Y-134813748D01*
X142748000Y-134799605D01*
X142733858Y-134813748D01*
X142554253Y-134634143D01*
X142568395Y-134620000D01*
X141667841Y-133719446D01*
X141517673Y-133770035D01*
X141510068Y-133751629D01*
X141298650Y-133539841D01*
X141847446Y-133539841D01*
X142748000Y-134440395D01*
X143648554Y-133539841D01*
X143562148Y-133283357D01*
X142988664Y-133073542D01*
X142378540Y-133099161D01*
X141933852Y-133283357D01*
X141847446Y-133539841D01*
X141298650Y-133539841D01*
X141078643Y-133319449D01*
X140514670Y-133085267D01*
X139904009Y-133084735D01*
X139339629Y-133317932D01*
X139171387Y-133485880D01*
X139171162Y-133484683D01*
X139032090Y-133268559D01*
X138819890Y-133123569D01*
X138568000Y-133072560D01*
X137195362Y-133072560D01*
X136260000Y-132137198D01*
X136260000Y-127862463D01*
X136292192Y-127830327D01*
X136434838Y-127486799D01*
X136435162Y-127114833D01*
X136371186Y-126960000D01*
X151000000Y-126960000D01*
X151290839Y-126902148D01*
X151537401Y-126737401D01*
X152385000Y-125889802D01*
X152385000Y-126126250D01*
X152543750Y-126285000D01*
X153543000Y-126285000D01*
X153543000Y-126265000D01*
X153797000Y-126265000D01*
X153797000Y-126285000D01*
X154796250Y-126285000D01*
X154940000Y-126141250D01*
X155083750Y-126285000D01*
X156083000Y-126285000D01*
X156083000Y-126265000D01*
X156337000Y-126265000D01*
X156337000Y-126285000D01*
X157336250Y-126285000D01*
X157495000Y-126126250D01*
X157495000Y-125869802D01*
X160240000Y-128614802D01*
X160240000Y-133000000D01*
X160297852Y-133290839D01*
X160462599Y-133537401D01*
X162082599Y-135157401D01*
X162329161Y-135322148D01*
X162620000Y-135380000D01*
X164151258Y-135380000D01*
X164174838Y-135505317D01*
X164313910Y-135721441D01*
X164526110Y-135866431D01*
X164778000Y-135917440D01*
X166278000Y-135917440D01*
X166513317Y-135873162D01*
X166729441Y-135734090D01*
X166874431Y-135521890D01*
X166877081Y-135508803D01*
X167013910Y-135721441D01*
X167226110Y-135866431D01*
X167478000Y-135917440D01*
X168978000Y-135917440D01*
X169213317Y-135873162D01*
X169429441Y-135734090D01*
X169574431Y-135521890D01*
X169603164Y-135380000D01*
X169993258Y-135380000D01*
X170016838Y-135505317D01*
X170155910Y-135721441D01*
X170368110Y-135866431D01*
X170620000Y-135917440D01*
X172120000Y-135917440D01*
X172355317Y-135873162D01*
X172571441Y-135734090D01*
X172716431Y-135521890D01*
X172719081Y-135508803D01*
X172855910Y-135721441D01*
X173068110Y-135866431D01*
X173320000Y-135917440D01*
X174820000Y-135917440D01*
X175055317Y-135873162D01*
X175271441Y-135734090D01*
X175416431Y-135521890D01*
X175467440Y-135270000D01*
X175467440Y-133970000D01*
X175423162Y-133734683D01*
X175284090Y-133518559D01*
X175071890Y-133373569D01*
X174980000Y-133354961D01*
X174980000Y-133347334D01*
X175055317Y-133333162D01*
X175271441Y-133194090D01*
X175416431Y-132981890D01*
X175467440Y-132730000D01*
X175467440Y-131430000D01*
X175423162Y-131194683D01*
X175284090Y-130978559D01*
X175071890Y-130833569D01*
X174980000Y-130814961D01*
X174980000Y-130807334D01*
X175055317Y-130793162D01*
X175271441Y-130654090D01*
X175369893Y-130510000D01*
X175653385Y-130510000D01*
X175713201Y-130534838D01*
X176085167Y-130535162D01*
X176428943Y-130393117D01*
X176692192Y-130130327D01*
X176834838Y-129786799D01*
X176835162Y-129414833D01*
X176693117Y-129071057D01*
X176430327Y-128807808D01*
X176086799Y-128665162D01*
X175714833Y-128664838D01*
X175653936Y-128690000D01*
X175429807Y-128690000D01*
X175423162Y-128654683D01*
X175284090Y-128438559D01*
X175071890Y-128293569D01*
X174820000Y-128242560D01*
X173320000Y-128242560D01*
X173084683Y-128286838D01*
X172868559Y-128425910D01*
X172723569Y-128638110D01*
X172720919Y-128651197D01*
X172584090Y-128438559D01*
X172371890Y-128293569D01*
X172120000Y-128242560D01*
X170620000Y-128242560D01*
X170384683Y-128286838D01*
X170168559Y-128425910D01*
X170023569Y-128638110D01*
X169994836Y-128780000D01*
X169604742Y-128780000D01*
X169581162Y-128654683D01*
X169442090Y-128438559D01*
X169229890Y-128293569D01*
X168978000Y-128242560D01*
X167478000Y-128242560D01*
X167242683Y-128286838D01*
X167026559Y-128425910D01*
X166881569Y-128638110D01*
X166878919Y-128651197D01*
X166742090Y-128438559D01*
X166529890Y-128293569D01*
X166278000Y-128242560D01*
X164778000Y-128242560D01*
X164542683Y-128286838D01*
X164326559Y-128425910D01*
X164194292Y-128619490D01*
X158737401Y-123162599D01*
X158490839Y-122997852D01*
X158200000Y-122940000D01*
X149181228Y-122940000D01*
X149483054Y-122488285D01*
X149596093Y-121920000D01*
X149483054Y-121351715D01*
X149161147Y-120869946D01*
X148831974Y-120650000D01*
X149161147Y-120430054D01*
X149483054Y-119948285D01*
X149596093Y-119380000D01*
X149483054Y-118811715D01*
X149161147Y-118329946D01*
X148831974Y-118110000D01*
X149161147Y-117890054D01*
X149483054Y-117408285D01*
X149596093Y-116840000D01*
X149483054Y-116271715D01*
X149161147Y-115789946D01*
X148831974Y-115570000D01*
X149161147Y-115350054D01*
X149483054Y-114868285D01*
X149596093Y-114300000D01*
X149483054Y-113731715D01*
X149161147Y-113249946D01*
X149117223Y-113220597D01*
X149291698Y-113148327D01*
X149470327Y-112969699D01*
X149567000Y-112736310D01*
X149567000Y-112045750D01*
X149408250Y-111887000D01*
X148209000Y-111887000D01*
X148209000Y-111907000D01*
X147955000Y-111907000D01*
X147955000Y-111887000D01*
X146755750Y-111887000D01*
X146597000Y-112045750D01*
X146597000Y-112736310D01*
X146693673Y-112969699D01*
X146872302Y-113148327D01*
X147046777Y-113220597D01*
X147002853Y-113249946D01*
X146680946Y-113731715D01*
X146567907Y-114300000D01*
X146640790Y-114666408D01*
X146367198Y-114940000D01*
X134512747Y-114940000D01*
X134534838Y-114886799D01*
X134535162Y-114514833D01*
X134393117Y-114171057D01*
X134130327Y-113907808D01*
X133786799Y-113765162D01*
X133739923Y-113765121D01*
X132371359Y-112396557D01*
X132776511Y-112667271D01*
X133350000Y-112781345D01*
X133923489Y-112667271D01*
X134409670Y-112342415D01*
X134734526Y-111856234D01*
X134739620Y-111830625D01*
X134892839Y-111800148D01*
X135139401Y-111635401D01*
X135839680Y-110935122D01*
X135885167Y-110935162D01*
X136228943Y-110793117D01*
X136238386Y-110783690D01*
X146597000Y-110783690D01*
X146597000Y-111474250D01*
X146755750Y-111633000D01*
X147955000Y-111633000D01*
X147955000Y-110433750D01*
X148209000Y-110433750D01*
X148209000Y-111633000D01*
X149408250Y-111633000D01*
X149567000Y-111474250D01*
X149567000Y-110783690D01*
X149470327Y-110550301D01*
X149291698Y-110371673D01*
X149058309Y-110275000D01*
X148367750Y-110275000D01*
X148209000Y-110433750D01*
X147955000Y-110433750D01*
X147796250Y-110275000D01*
X147105691Y-110275000D01*
X146872302Y-110371673D01*
X146693673Y-110550301D01*
X146597000Y-110783690D01*
X136238386Y-110783690D01*
X136492192Y-110530327D01*
X136634838Y-110186799D01*
X136635162Y-109814833D01*
X136633165Y-109810000D01*
X151223066Y-109810000D01*
X151990000Y-110576934D01*
X151990000Y-119400000D01*
X152059270Y-119748242D01*
X152256533Y-120043467D01*
X154268533Y-122055467D01*
X154563758Y-122252730D01*
X154912000Y-122322000D01*
X155627579Y-122322000D01*
X155727585Y-122471670D01*
X156213766Y-122796526D01*
X156787255Y-122910600D01*
X157156745Y-122910600D01*
X157730234Y-122796526D01*
X158216415Y-122471670D01*
X158541271Y-121985489D01*
X158655345Y-121412000D01*
X158619216Y-121230364D01*
X165934414Y-121230364D01*
X166448663Y-122474943D01*
X167400048Y-123427990D01*
X168643728Y-123944411D01*
X169990364Y-123945586D01*
X171234943Y-123431337D01*
X172187990Y-122479952D01*
X172704411Y-121236272D01*
X172705586Y-119889636D01*
X172191337Y-118645057D01*
X171239952Y-117692010D01*
X169996272Y-117175589D01*
X168649636Y-117174414D01*
X167405057Y-117688663D01*
X166452010Y-118640048D01*
X165935589Y-119883728D01*
X165934414Y-121230364D01*
X158619216Y-121230364D01*
X158541271Y-120838511D01*
X158216415Y-120352330D01*
X157901634Y-120142000D01*
X158216415Y-119931670D01*
X158541271Y-119445489D01*
X158655345Y-118872000D01*
X158541271Y-118298511D01*
X158216415Y-117812330D01*
X157730234Y-117487474D01*
X157156745Y-117373400D01*
X156787255Y-117373400D01*
X156213766Y-117487474D01*
X155727585Y-117812330D01*
X155402729Y-118298511D01*
X155288655Y-118872000D01*
X155402729Y-119445489D01*
X155727585Y-119931670D01*
X156042366Y-120142000D01*
X155727585Y-120352330D01*
X155627579Y-120502000D01*
X155288934Y-120502000D01*
X153810000Y-119023066D01*
X153810000Y-110200000D01*
X153740730Y-109851758D01*
X153543467Y-109556533D01*
X152243467Y-108256533D01*
X151948242Y-108059270D01*
X151600000Y-107990000D01*
X136684802Y-107990000D01*
X139264802Y-105410000D01*
X149361907Y-105410000D01*
X149474946Y-105978285D01*
X149796853Y-106460054D01*
X150278622Y-106781961D01*
X150846907Y-106895000D01*
X150905093Y-106895000D01*
X151473378Y-106781961D01*
X151955147Y-106460054D01*
X152277054Y-105978285D01*
X152390093Y-105410000D01*
X152277054Y-104841715D01*
X151955147Y-104359946D01*
X151913548Y-104332150D01*
X151961317Y-104323162D01*
X152177441Y-104184090D01*
X152322431Y-103971890D01*
X152361290Y-103780000D01*
X167493066Y-103780000D01*
X173068533Y-109355467D01*
X173359306Y-109549756D01*
X173507585Y-109771670D01*
X173993766Y-110096526D01*
X174567255Y-110210600D01*
X174936745Y-110210600D01*
X175510234Y-110096526D01*
X175996415Y-109771670D01*
X176321271Y-109285489D01*
X176435345Y-108712000D01*
X176321271Y-108138511D01*
X175996415Y-107652330D01*
X175681634Y-107442000D01*
X175996415Y-107231670D01*
X176321271Y-106745489D01*
X176435345Y-106172000D01*
X176321271Y-105598511D01*
X175996415Y-105112330D01*
X175681634Y-104902000D01*
X175996415Y-104691670D01*
X176321271Y-104205489D01*
X176435345Y-103632000D01*
X176321271Y-103058511D01*
X175996415Y-102572330D01*
X175512000Y-102248654D01*
X175512000Y-100552000D01*
X175454148Y-100261161D01*
X175289401Y-100014599D01*
X174559401Y-99284599D01*
X174312839Y-99119852D01*
X174022000Y-99062000D01*
X173755287Y-99062000D01*
X173601331Y-98965783D01*
X172801331Y-98665783D01*
X172591887Y-98624807D01*
X172469772Y-98646042D01*
X172384431Y-98625100D01*
X172130669Y-98665783D01*
X171980757Y-98722000D01*
X172085000Y-98722000D01*
X172085000Y-98862879D01*
X171977569Y-99020110D01*
X171926560Y-99272000D01*
X171926560Y-100372000D01*
X171961734Y-100582497D01*
X172085000Y-100792423D01*
X172085000Y-100922000D01*
X171980757Y-100922000D01*
X172130669Y-100978217D01*
X172340113Y-101019193D01*
X172462228Y-100997958D01*
X172547569Y-101018900D01*
X172801331Y-100978217D01*
X173601331Y-100678217D01*
X173724991Y-100599793D01*
X173992000Y-100866802D01*
X173992000Y-102248654D01*
X173507585Y-102572330D01*
X173182729Y-103058511D01*
X173068655Y-103632000D01*
X173182729Y-104205489D01*
X173507585Y-104691670D01*
X173822366Y-104902000D01*
X173507585Y-105112330D01*
X173182729Y-105598511D01*
X173068655Y-106172000D01*
X173182729Y-106745489D01*
X173485396Y-107198462D01*
X168513467Y-102226533D01*
X168218242Y-102029270D01*
X167870000Y-101960000D01*
X152362150Y-101960000D01*
X152329162Y-101784683D01*
X152190090Y-101568559D01*
X151977890Y-101423569D01*
X151726000Y-101372560D01*
X150026000Y-101372560D01*
X149790683Y-101416838D01*
X149574559Y-101555910D01*
X149429569Y-101768110D01*
X149378560Y-102020000D01*
X149378560Y-103720000D01*
X149422838Y-103955317D01*
X149561910Y-104171441D01*
X149774110Y-104316431D01*
X149841541Y-104330086D01*
X149796853Y-104359946D01*
X149474946Y-104841715D01*
X149361907Y-105410000D01*
X139264802Y-105410000D01*
X140411401Y-104263401D01*
X140576148Y-104016840D01*
X140617834Y-103807270D01*
X140634000Y-103726000D01*
X140634000Y-99949000D01*
X170910560Y-99949000D01*
X170910560Y-100072000D01*
X170964947Y-100331745D01*
X171112727Y-100542011D01*
X171330669Y-100678217D01*
X171831000Y-100865841D01*
X171831000Y-99949000D01*
X170910560Y-99949000D01*
X140634000Y-99949000D01*
X140634000Y-99572000D01*
X170910560Y-99572000D01*
X170910560Y-99695000D01*
X171831000Y-99695000D01*
X171831000Y-98778159D01*
X171330669Y-98965783D01*
X171106559Y-99107910D01*
X170961569Y-99320110D01*
X170910560Y-99572000D01*
X140634000Y-99572000D01*
X140634000Y-64287558D01*
X140859317Y-64245162D01*
X141075441Y-64106090D01*
X141220431Y-63893890D01*
X141223081Y-63880803D01*
X141359910Y-64093441D01*
X141572110Y-64238431D01*
X141824000Y-64289440D01*
X143324000Y-64289440D01*
X143559317Y-64245162D01*
X143775441Y-64106090D01*
X143920431Y-63893890D01*
X143971440Y-63642000D01*
X143971440Y-62342000D01*
X143927162Y-62106683D01*
X143788090Y-61890559D01*
X143575890Y-61745569D01*
X143334000Y-61696585D01*
X143334000Y-60032815D01*
X162934630Y-60032815D01*
X163258980Y-60817800D01*
X163859041Y-61418909D01*
X164643459Y-61744628D01*
X165492815Y-61745370D01*
X166277800Y-61421020D01*
X166878909Y-60820959D01*
X167204628Y-60036541D01*
X167205370Y-59187185D01*
X166881020Y-58402200D01*
X166280959Y-57801091D01*
X165496541Y-57475372D01*
X164647185Y-57474630D01*
X163862200Y-57798980D01*
X163261091Y-58399041D01*
X162935372Y-59183459D01*
X162934630Y-60032815D01*
X143334000Y-60032815D01*
X143334000Y-59496833D01*
X143540551Y-59290643D01*
X143774733Y-58726670D01*
X143775193Y-58197750D01*
X152185000Y-58197750D01*
X152185000Y-58888309D01*
X152281673Y-59121698D01*
X152460301Y-59300327D01*
X152693690Y-59397000D01*
X153384250Y-59397000D01*
X153543000Y-59238250D01*
X153543000Y-58039000D01*
X152343750Y-58039000D01*
X152185000Y-58197750D01*
X143775193Y-58197750D01*
X143775265Y-58116009D01*
X143542068Y-57551629D01*
X143110643Y-57119449D01*
X142668105Y-56935691D01*
X152185000Y-56935691D01*
X152185000Y-57626250D01*
X152343750Y-57785000D01*
X153543000Y-57785000D01*
X153543000Y-56585750D01*
X153797000Y-56585750D01*
X153797000Y-57785000D01*
X153817000Y-57785000D01*
X153817000Y-58039000D01*
X153797000Y-58039000D01*
X153797000Y-59238250D01*
X153955750Y-59397000D01*
X154646310Y-59397000D01*
X154879699Y-59300327D01*
X155058327Y-59121698D01*
X155130597Y-58947223D01*
X155159946Y-58991147D01*
X155641715Y-59313054D01*
X156210000Y-59426093D01*
X156778285Y-59313054D01*
X157260054Y-58991147D01*
X157581961Y-58509378D01*
X157695000Y-57941093D01*
X157695000Y-57882907D01*
X157581961Y-57314622D01*
X157260054Y-56832853D01*
X156778285Y-56510946D01*
X156210000Y-56397907D01*
X155641715Y-56510946D01*
X155159946Y-56832853D01*
X155130597Y-56876777D01*
X155058327Y-56702302D01*
X154879699Y-56523673D01*
X154646310Y-56427000D01*
X153955750Y-56427000D01*
X153797000Y-56585750D01*
X153543000Y-56585750D01*
X153384250Y-56427000D01*
X152693690Y-56427000D01*
X152460301Y-56523673D01*
X152281673Y-56702302D01*
X152185000Y-56935691D01*
X142668105Y-56935691D01*
X142546670Y-56885267D01*
X141936009Y-56884735D01*
X141371629Y-57117932D01*
X141203387Y-57285880D01*
X141203162Y-57284683D01*
X141064090Y-57068559D01*
X140851890Y-56923569D01*
X140600000Y-56872560D01*
X138800000Y-56872560D01*
X138564683Y-56916838D01*
X138348559Y-57055910D01*
X138203569Y-57268110D01*
X138152560Y-57520000D01*
X138152560Y-59320000D01*
X138196838Y-59555317D01*
X138335910Y-59771441D01*
X138548110Y-59916431D01*
X138800000Y-59967440D01*
X140600000Y-59967440D01*
X140835317Y-59923162D01*
X141051441Y-59784090D01*
X141196431Y-59571890D01*
X141200567Y-59551466D01*
X141369357Y-59720551D01*
X141814000Y-59905183D01*
X141814000Y-61696442D01*
X141588683Y-61738838D01*
X141372559Y-61877910D01*
X141227569Y-62090110D01*
X141224919Y-62103197D01*
X141088090Y-61890559D01*
X140875890Y-61745569D01*
X140624000Y-61694560D01*
X139124000Y-61694560D01*
X138888683Y-61738838D01*
X138672559Y-61877910D01*
X138527569Y-62090110D01*
X138476560Y-62342000D01*
X138476560Y-63642000D01*
X138520838Y-63877317D01*
X138659910Y-64093441D01*
X138872110Y-64238431D01*
X139114000Y-64287415D01*
X139114000Y-103411198D01*
X135560320Y-106964878D01*
X135514833Y-106964838D01*
X135171057Y-107106883D01*
X134907808Y-107369673D01*
X134765162Y-107713201D01*
X134764921Y-107990000D01*
X130534922Y-107990000D01*
X130535162Y-107714833D01*
X130393117Y-107371057D01*
X130360000Y-107337882D01*
X130360000Y-102831000D01*
X131032250Y-102831000D01*
X131191000Y-102672250D01*
X131191000Y-101473000D01*
X131445000Y-101473000D01*
X131445000Y-102672250D01*
X131603750Y-102831000D01*
X132294310Y-102831000D01*
X132527699Y-102734327D01*
X132706327Y-102555698D01*
X132803000Y-102322309D01*
X132803000Y-101631750D01*
X132644250Y-101473000D01*
X131445000Y-101473000D01*
X131191000Y-101473000D01*
X131171000Y-101473000D01*
X131171000Y-101219000D01*
X131191000Y-101219000D01*
X131191000Y-100019750D01*
X131445000Y-100019750D01*
X131445000Y-101219000D01*
X132644250Y-101219000D01*
X132803000Y-101060250D01*
X132803000Y-100369691D01*
X132706327Y-100136302D01*
X132527699Y-99957673D01*
X132294310Y-99861000D01*
X131603750Y-99861000D01*
X131445000Y-100019750D01*
X131191000Y-100019750D01*
X131032250Y-99861000D01*
X130341690Y-99861000D01*
X130108301Y-99957673D01*
X129929673Y-100136302D01*
X129857403Y-100310777D01*
X129828054Y-100266853D01*
X129346285Y-99944946D01*
X128778000Y-99831907D01*
X128209715Y-99944946D01*
X127727946Y-100266853D01*
X127508000Y-100596026D01*
X127288054Y-100266853D01*
X126806285Y-99944946D01*
X126238000Y-99831907D01*
X125669715Y-99944946D01*
X125187946Y-100266853D01*
X124968000Y-100596026D01*
X124748054Y-100266853D01*
X124266285Y-99944946D01*
X123698000Y-99831907D01*
X123129715Y-99944946D01*
X122647946Y-100266853D01*
X122326039Y-100748622D01*
X122213000Y-101316907D01*
X122213000Y-101375093D01*
X122326039Y-101943378D01*
X122647946Y-102425147D01*
X123129715Y-102747054D01*
X123698000Y-102860093D01*
X124266285Y-102747054D01*
X124748054Y-102425147D01*
X124968000Y-102095974D01*
X125187946Y-102425147D01*
X125669715Y-102747054D01*
X126238000Y-102860093D01*
X126240000Y-102859695D01*
X126240000Y-107337537D01*
X126207808Y-107369673D01*
X126065162Y-107713201D01*
X126064921Y-107990000D01*
X108643893Y-107990000D01*
X108518000Y-107905881D01*
X108518000Y-105920292D01*
X108634431Y-105749890D01*
X108648086Y-105682459D01*
X108677946Y-105727147D01*
X109159715Y-106049054D01*
X109728000Y-106162093D01*
X110296285Y-106049054D01*
X110778054Y-105727147D01*
X111099961Y-105245378D01*
X111213000Y-104677093D01*
X111213000Y-104618907D01*
X111099961Y-104050622D01*
X110778054Y-103568853D01*
X110296285Y-103246946D01*
X109728000Y-103133907D01*
X109159715Y-103246946D01*
X108677946Y-103568853D01*
X108650150Y-103610452D01*
X108641162Y-103562683D01*
X108502090Y-103346559D01*
X108289890Y-103201569D01*
X108038000Y-103150560D01*
X106338000Y-103150560D01*
X106102683Y-103194838D01*
X105886559Y-103333910D01*
X105741569Y-103546110D01*
X105690560Y-103798000D01*
X105690560Y-105498000D01*
X105734838Y-105733317D01*
X105873910Y-105949441D01*
X106086110Y-106094431D01*
X106338000Y-106145440D01*
X106698000Y-106145440D01*
X106698000Y-108523066D01*
X105740642Y-109480424D01*
X105410000Y-109414655D01*
X105071225Y-109482041D01*
X109184030Y-60737692D01*
X109970394Y-60022815D01*
X114934630Y-60022815D01*
X115258980Y-60807800D01*
X115859041Y-61408909D01*
X116643459Y-61734628D01*
X117492815Y-61735370D01*
X118277800Y-61411020D01*
X118878909Y-60810959D01*
X119204628Y-60026541D01*
X119205370Y-59177185D01*
X118881020Y-58392200D01*
X118686910Y-58197750D01*
X123991000Y-58197750D01*
X123991000Y-58888309D01*
X124087673Y-59121698D01*
X124266301Y-59300327D01*
X124499690Y-59397000D01*
X125190250Y-59397000D01*
X125349000Y-59238250D01*
X125349000Y-58039000D01*
X124149750Y-58039000D01*
X123991000Y-58197750D01*
X118686910Y-58197750D01*
X118280959Y-57791091D01*
X117496541Y-57465372D01*
X116647185Y-57464630D01*
X115862200Y-57788980D01*
X115261091Y-58389041D01*
X114935372Y-59173459D01*
X114934630Y-60022815D01*
X109970394Y-60022815D01*
X113366230Y-56935691D01*
X123991000Y-56935691D01*
X123991000Y-57626250D01*
X124149750Y-57785000D01*
X125349000Y-57785000D01*
X125349000Y-56585750D01*
X125603000Y-56585750D01*
X125603000Y-57785000D01*
X125623000Y-57785000D01*
X125623000Y-58039000D01*
X125603000Y-58039000D01*
X125603000Y-59238250D01*
X125761750Y-59397000D01*
X126452310Y-59397000D01*
X126685699Y-59300327D01*
X126864327Y-59121698D01*
X126936597Y-58947223D01*
X126965946Y-58991147D01*
X127447715Y-59313054D01*
X128016000Y-59426093D01*
X128584285Y-59313054D01*
X129066054Y-58991147D01*
X129387961Y-58509378D01*
X129501000Y-57941093D01*
X129501000Y-57882907D01*
X129387961Y-57314622D01*
X129066054Y-56832853D01*
X128584285Y-56510946D01*
X128016000Y-56397907D01*
X127447715Y-56510946D01*
X126965946Y-56832853D01*
X126936597Y-56876777D01*
X126864327Y-56702302D01*
X126685699Y-56523673D01*
X126452310Y-56427000D01*
X125761750Y-56427000D01*
X125603000Y-56585750D01*
X125349000Y-56585750D01*
X125190250Y-56427000D01*
X124499690Y-56427000D01*
X124266301Y-56523673D01*
X124087673Y-56702302D01*
X123991000Y-56935691D01*
X113366230Y-56935691D01*
X115375072Y-55109472D01*
X166725788Y-55010530D01*
X173016540Y-60737932D01*
X173016540Y-60737932D01*
G37*
X173016540Y-60737932D02*
X177992545Y-118360065D01*
X178191512Y-120747667D01*
X178390000Y-124618189D01*
X178390000Y-146128748D01*
X176565944Y-149690000D01*
X174651022Y-149690000D01*
X175277800Y-149431020D01*
X175878909Y-148830959D01*
X176204628Y-148046541D01*
X176205370Y-147197185D01*
X175881020Y-146412200D01*
X175280959Y-145811091D01*
X174496541Y-145485372D01*
X173647185Y-145484630D01*
X172862200Y-145808980D01*
X172261091Y-146409041D01*
X171935372Y-147193459D01*
X171934630Y-148042815D01*
X172258980Y-148827800D01*
X172859041Y-149428909D01*
X173487818Y-149690000D01*
X171433248Y-149690000D01*
X169906105Y-146720555D01*
X169809817Y-142483868D01*
X169781433Y-142356383D01*
X169755954Y-142228295D01*
X169751394Y-142221471D01*
X169749611Y-142213461D01*
X169674606Y-142106549D01*
X169602046Y-141997954D01*
X166702046Y-139097954D01*
X166471705Y-138944046D01*
X166200000Y-138890000D01*
X116000000Y-138890000D01*
X115728295Y-138944046D01*
X115497954Y-139097954D01*
X112597954Y-141997954D01*
X112444046Y-142228295D01*
X112390000Y-142500000D01*
X112390000Y-145828918D01*
X110465725Y-149590000D01*
X108858838Y-149590000D01*
X109267800Y-149421020D01*
X109868909Y-148820959D01*
X110194628Y-148036541D01*
X110195370Y-147187185D01*
X109871020Y-146402200D01*
X109270959Y-145801091D01*
X108486541Y-145475372D01*
X107637185Y-145474630D01*
X106852200Y-145798980D01*
X106251091Y-146399041D01*
X105925372Y-147183459D01*
X105924630Y-148032815D01*
X106248980Y-148817800D01*
X106849041Y-149418909D01*
X107261074Y-149590000D01*
X105269712Y-149590000D01*
X103810000Y-146155384D01*
X103810000Y-137640000D01*
X104273948Y-137640000D01*
X104379375Y-138170017D01*
X104679605Y-138619343D01*
X105128931Y-138919573D01*
X105658948Y-139025000D01*
X106121052Y-139025000D01*
X106651069Y-138919573D01*
X107100395Y-138619343D01*
X107400625Y-138170017D01*
X107506052Y-137640000D01*
X107400625Y-137109983D01*
X107100395Y-136660657D01*
X106651069Y-136360427D01*
X106121052Y-136255000D01*
X105658948Y-136255000D01*
X105128931Y-136360427D01*
X104679605Y-136660657D01*
X104379375Y-137109983D01*
X104273948Y-137640000D01*
X103810000Y-137640000D01*
X103810000Y-132560000D01*
X104273948Y-132560000D01*
X104379375Y-133090017D01*
X104679605Y-133539343D01*
X105128931Y-133839573D01*
X105658948Y-133945000D01*
X106121052Y-133945000D01*
X106651069Y-133839573D01*
X107100395Y-133539343D01*
X107400625Y-133090017D01*
X107506052Y-132560000D01*
X107400625Y-132029983D01*
X107100395Y-131580657D01*
X106651069Y-131280427D01*
X106121052Y-131175000D01*
X105658948Y-131175000D01*
X105128931Y-131280427D01*
X104679605Y-131580657D01*
X104379375Y-132029983D01*
X104273948Y-132560000D01*
X103810000Y-132560000D01*
X103810000Y-124429898D01*
X104804288Y-112645740D01*
X104836511Y-112667271D01*
X105410000Y-112781345D01*
X105983489Y-112667271D01*
X106469670Y-112342415D01*
X106680000Y-112027634D01*
X106890330Y-112342415D01*
X107376511Y-112667271D01*
X107950000Y-112781345D01*
X108523489Y-112667271D01*
X109009670Y-112342415D01*
X109220000Y-112027634D01*
X109430330Y-112342415D01*
X109916511Y-112667271D01*
X110490000Y-112781345D01*
X111063489Y-112667271D01*
X111549670Y-112342415D01*
X111756461Y-112032931D01*
X112127964Y-112448732D01*
X112655209Y-112702709D01*
X112670974Y-112705358D01*
X112903000Y-112584217D01*
X112903000Y-111225000D01*
X112883000Y-111225000D01*
X112883000Y-110971000D01*
X112903000Y-110971000D01*
X112903000Y-110951000D01*
X113157000Y-110951000D01*
X113157000Y-110971000D01*
X113177000Y-110971000D01*
X113177000Y-111225000D01*
X113157000Y-111225000D01*
X113157000Y-112584217D01*
X113389026Y-112705358D01*
X113404791Y-112702709D01*
X113932036Y-112448732D01*
X114303539Y-112032931D01*
X114510330Y-112342415D01*
X114996511Y-112667271D01*
X115570000Y-112781345D01*
X116143489Y-112667271D01*
X116629670Y-112342415D01*
X116840000Y-112027634D01*
X117050330Y-112342415D01*
X117536511Y-112667271D01*
X118110000Y-112781345D01*
X118683489Y-112667271D01*
X119169670Y-112342415D01*
X119380000Y-112027634D01*
X119590330Y-112342415D01*
X120076511Y-112667271D01*
X120650000Y-112781345D01*
X121223489Y-112667271D01*
X121709670Y-112342415D01*
X121920000Y-112027634D01*
X122130330Y-112342415D01*
X122616511Y-112667271D01*
X123190000Y-112781345D01*
X123697579Y-112680381D01*
X133057198Y-122040000D01*
X124100000Y-122040000D01*
X123809160Y-122097852D01*
X123562599Y-122262599D01*
X122652599Y-123172599D01*
X122487852Y-123419161D01*
X122430000Y-123710000D01*
X122430000Y-124693352D01*
X122130330Y-124893585D01*
X121920000Y-125208366D01*
X121709670Y-124893585D01*
X121226049Y-124570439D01*
X121187401Y-124512599D01*
X120437401Y-123762599D01*
X120190839Y-123597852D01*
X119900000Y-123540000D01*
X114867028Y-123540000D01*
X114686799Y-123465162D01*
X114677302Y-123465154D01*
X114734943Y-123441337D01*
X115687990Y-122489952D01*
X116204411Y-121246272D01*
X116205586Y-119899636D01*
X115691337Y-118655057D01*
X114739952Y-117702010D01*
X113496272Y-117185589D01*
X112149636Y-117184414D01*
X110905057Y-117698663D01*
X109952010Y-118650048D01*
X109435589Y-119893728D01*
X109434414Y-121240364D01*
X109948663Y-122484943D01*
X110900048Y-123437990D01*
X112143728Y-123954411D01*
X113490364Y-123955586D01*
X113714530Y-123862963D01*
X113707808Y-123869673D01*
X113565162Y-124213201D01*
X113564859Y-124561045D01*
X113030000Y-124454655D01*
X112456511Y-124568729D01*
X111970330Y-124893585D01*
X111760000Y-125208366D01*
X111549670Y-124893585D01*
X111063489Y-124568729D01*
X110490000Y-124454655D01*
X109916511Y-124568729D01*
X109430330Y-124893585D01*
X109220000Y-125208366D01*
X109009670Y-124893585D01*
X108523489Y-124568729D01*
X107950000Y-124454655D01*
X107376511Y-124568729D01*
X106890330Y-124893585D01*
X106680000Y-125208366D01*
X106469670Y-124893585D01*
X105983489Y-124568729D01*
X105410000Y-124454655D01*
X104836511Y-124568729D01*
X104350330Y-124893585D01*
X104025474Y-125379766D01*
X103911400Y-125953255D01*
X103911400Y-126322745D01*
X104025474Y-126896234D01*
X104350330Y-127382415D01*
X104836511Y-127707271D01*
X105410000Y-127821345D01*
X105917579Y-127720381D01*
X108534599Y-130337401D01*
X108781161Y-130502148D01*
X109072000Y-130560000D01*
X113364947Y-130560000D01*
X113364838Y-130685167D01*
X113506883Y-131028943D01*
X113652685Y-131175000D01*
X113278948Y-131175000D01*
X112748931Y-131280427D01*
X112299605Y-131580657D01*
X111999375Y-132029983D01*
X111893948Y-132560000D01*
X111999375Y-133090017D01*
X112299605Y-133539343D01*
X112748931Y-133839573D01*
X113278948Y-133945000D01*
X113741052Y-133945000D01*
X114140000Y-133865644D01*
X114140000Y-135935198D01*
X113807067Y-136268131D01*
X113741052Y-136255000D01*
X113278948Y-136255000D01*
X112748931Y-136360427D01*
X112299605Y-136660657D01*
X111999375Y-137109983D01*
X111893948Y-137640000D01*
X111999375Y-138170017D01*
X112299605Y-138619343D01*
X112748931Y-138919573D01*
X113278948Y-139025000D01*
X113741052Y-139025000D01*
X114271069Y-138919573D01*
X114720395Y-138619343D01*
X115020625Y-138170017D01*
X115126052Y-137640000D01*
X115036253Y-137188549D01*
X115437401Y-136787401D01*
X115602148Y-136540839D01*
X115660000Y-136250000D01*
X115660000Y-131100000D01*
X115602148Y-130809161D01*
X115437401Y-130562599D01*
X115434802Y-130560000D01*
X120387592Y-130560000D01*
X120107946Y-130746853D01*
X119786039Y-131228622D01*
X119673000Y-131796907D01*
X119673000Y-131855093D01*
X119786039Y-132423378D01*
X120107946Y-132905147D01*
X120589715Y-133227054D01*
X121158000Y-133340093D01*
X121726285Y-133227054D01*
X122208054Y-132905147D01*
X122428000Y-132575974D01*
X122647946Y-132905147D01*
X123129715Y-133227054D01*
X123698000Y-133340093D01*
X124266285Y-133227054D01*
X124748054Y-132905147D01*
X124968000Y-132575974D01*
X125187946Y-132905147D01*
X125669715Y-133227054D01*
X126238000Y-133340093D01*
X126806285Y-133227054D01*
X127288054Y-132905147D01*
X127317403Y-132861223D01*
X127389673Y-133035698D01*
X127568301Y-133214327D01*
X127801690Y-133311000D01*
X128492250Y-133311000D01*
X128651000Y-133152250D01*
X128651000Y-131953000D01*
X128631000Y-131953000D01*
X128631000Y-131699000D01*
X128651000Y-131699000D01*
X128651000Y-130499750D01*
X128492250Y-130341000D01*
X127801690Y-130341000D01*
X127568301Y-130437673D01*
X127389673Y-130616302D01*
X127317403Y-130790777D01*
X127288054Y-130746853D01*
X126806285Y-130424946D01*
X126238000Y-130311907D01*
X125871592Y-130384790D01*
X124630802Y-129144000D01*
X128069198Y-129144000D01*
X129266198Y-130341000D01*
X129063750Y-130341000D01*
X128905000Y-130499750D01*
X128905000Y-131699000D01*
X128925000Y-131699000D01*
X128925000Y-131953000D01*
X128905000Y-131953000D01*
X128905000Y-133152250D01*
X129063750Y-133311000D01*
X129754310Y-133311000D01*
X129987699Y-133214327D01*
X130166327Y-133035698D01*
X130240000Y-132857836D01*
X130240000Y-134000000D01*
X130297852Y-134290839D01*
X130462599Y-134537401D01*
X133662599Y-137737401D01*
X133909160Y-137902148D01*
X134200000Y-137960000D01*
X151300000Y-137960000D01*
X151590839Y-137902148D01*
X151837401Y-137737401D01*
X154207401Y-135367401D01*
X154372148Y-135120839D01*
X154430000Y-134830000D01*
X154430000Y-133860954D01*
X154720054Y-133667147D01*
X154940000Y-133337974D01*
X155159946Y-133667147D01*
X155641715Y-133989054D01*
X156210000Y-134102093D01*
X156778285Y-133989054D01*
X157260054Y-133667147D01*
X157480000Y-133337974D01*
X157699946Y-133667147D01*
X158181715Y-133989054D01*
X158750000Y-134102093D01*
X159318285Y-133989054D01*
X159800054Y-133667147D01*
X160121961Y-133185378D01*
X160235000Y-132617093D01*
X160235000Y-132558907D01*
X160121961Y-131990622D01*
X159800054Y-131508853D01*
X159318285Y-131186946D01*
X158750000Y-131073907D01*
X158181715Y-131186946D01*
X157699946Y-131508853D01*
X157480000Y-131838026D01*
X157260054Y-131508853D01*
X156970000Y-131315046D01*
X156970000Y-130488742D01*
X157095317Y-130465162D01*
X157311441Y-130326090D01*
X157456431Y-130113890D01*
X157507440Y-129862000D01*
X157507440Y-128362000D01*
X157463162Y-128126683D01*
X157324090Y-127910559D01*
X157111890Y-127765569D01*
X157078510Y-127758809D01*
X157219699Y-127700327D01*
X157398327Y-127521698D01*
X157495000Y-127288309D01*
X157495000Y-126697750D01*
X157336250Y-126539000D01*
X156337000Y-126539000D01*
X156337000Y-126559000D01*
X156083000Y-126559000D01*
X156083000Y-126539000D01*
X155083750Y-126539000D01*
X154940000Y-126682750D01*
X154796250Y-126539000D01*
X153797000Y-126539000D01*
X153797000Y-126559000D01*
X153543000Y-126559000D01*
X153543000Y-126539000D01*
X152543750Y-126539000D01*
X152385000Y-126697750D01*
X152385000Y-127040000D01*
X152200000Y-127040000D01*
X151909161Y-127097852D01*
X151662599Y-127262599D01*
X148662599Y-130262599D01*
X148497852Y-130509161D01*
X148440000Y-130800000D01*
X148440000Y-134085198D01*
X146885198Y-135640000D01*
X143937828Y-135640000D01*
X143942718Y-135635110D01*
X143828161Y-135520553D01*
X144084643Y-135434148D01*
X144294458Y-134860664D01*
X144268839Y-134250540D01*
X144084643Y-133805852D01*
X143828159Y-133719446D01*
X142927605Y-134620000D01*
X142941748Y-134634143D01*
X142762143Y-134813748D01*
X142748000Y-134799605D01*
X142733858Y-134813748D01*
X142554253Y-134634143D01*
X142568395Y-134620000D01*
X141667841Y-133719446D01*
X141517673Y-133770035D01*
X141510068Y-133751629D01*
X141298650Y-133539841D01*
X141847446Y-133539841D01*
X142748000Y-134440395D01*
X143648554Y-133539841D01*
X143562148Y-133283357D01*
X142988664Y-133073542D01*
X142378540Y-133099161D01*
X141933852Y-133283357D01*
X141847446Y-133539841D01*
X141298650Y-133539841D01*
X141078643Y-133319449D01*
X140514670Y-133085267D01*
X139904009Y-133084735D01*
X139339629Y-133317932D01*
X139171387Y-133485880D01*
X139171162Y-133484683D01*
X139032090Y-133268559D01*
X138819890Y-133123569D01*
X138568000Y-133072560D01*
X137195362Y-133072560D01*
X136260000Y-132137198D01*
X136260000Y-127862463D01*
X136292192Y-127830327D01*
X136434838Y-127486799D01*
X136435162Y-127114833D01*
X136371186Y-126960000D01*
X151000000Y-126960000D01*
X151290839Y-126902148D01*
X151537401Y-126737401D01*
X152385000Y-125889802D01*
X152385000Y-126126250D01*
X152543750Y-126285000D01*
X153543000Y-126285000D01*
X153543000Y-126265000D01*
X153797000Y-126265000D01*
X153797000Y-126285000D01*
X154796250Y-126285000D01*
X154940000Y-126141250D01*
X155083750Y-126285000D01*
X156083000Y-126285000D01*
X156083000Y-126265000D01*
X156337000Y-126265000D01*
X156337000Y-126285000D01*
X157336250Y-126285000D01*
X157495000Y-126126250D01*
X157495000Y-125869802D01*
X160240000Y-128614802D01*
X160240000Y-133000000D01*
X160297852Y-133290839D01*
X160462599Y-133537401D01*
X162082599Y-135157401D01*
X162329161Y-135322148D01*
X162620000Y-135380000D01*
X164151258Y-135380000D01*
X164174838Y-135505317D01*
X164313910Y-135721441D01*
X164526110Y-135866431D01*
X164778000Y-135917440D01*
X166278000Y-135917440D01*
X166513317Y-135873162D01*
X166729441Y-135734090D01*
X166874431Y-135521890D01*
X166877081Y-135508803D01*
X167013910Y-135721441D01*
X167226110Y-135866431D01*
X167478000Y-135917440D01*
X168978000Y-135917440D01*
X169213317Y-135873162D01*
X169429441Y-135734090D01*
X169574431Y-135521890D01*
X169603164Y-135380000D01*
X169993258Y-135380000D01*
X170016838Y-135505317D01*
X170155910Y-135721441D01*
X170368110Y-135866431D01*
X170620000Y-135917440D01*
X172120000Y-135917440D01*
X172355317Y-135873162D01*
X172571441Y-135734090D01*
X172716431Y-135521890D01*
X172719081Y-135508803D01*
X172855910Y-135721441D01*
X173068110Y-135866431D01*
X173320000Y-135917440D01*
X174820000Y-135917440D01*
X175055317Y-135873162D01*
X175271441Y-135734090D01*
X175416431Y-135521890D01*
X175467440Y-135270000D01*
X175467440Y-133970000D01*
X175423162Y-133734683D01*
X175284090Y-133518559D01*
X175071890Y-133373569D01*
X174980000Y-133354961D01*
X174980000Y-133347334D01*
X175055317Y-133333162D01*
X175271441Y-133194090D01*
X175416431Y-132981890D01*
X175467440Y-132730000D01*
X175467440Y-131430000D01*
X175423162Y-131194683D01*
X175284090Y-130978559D01*
X175071890Y-130833569D01*
X174980000Y-130814961D01*
X174980000Y-130807334D01*
X175055317Y-130793162D01*
X175271441Y-130654090D01*
X175369893Y-130510000D01*
X175653385Y-130510000D01*
X175713201Y-130534838D01*
X176085167Y-130535162D01*
X176428943Y-130393117D01*
X176692192Y-130130327D01*
X176834838Y-129786799D01*
X176835162Y-129414833D01*
X176693117Y-129071057D01*
X176430327Y-128807808D01*
X176086799Y-128665162D01*
X175714833Y-128664838D01*
X175653936Y-128690000D01*
X175429807Y-128690000D01*
X175423162Y-128654683D01*
X175284090Y-128438559D01*
X175071890Y-128293569D01*
X174820000Y-128242560D01*
X173320000Y-128242560D01*
X173084683Y-128286838D01*
X172868559Y-128425910D01*
X172723569Y-128638110D01*
X172720919Y-128651197D01*
X172584090Y-128438559D01*
X172371890Y-128293569D01*
X172120000Y-128242560D01*
X170620000Y-128242560D01*
X170384683Y-128286838D01*
X170168559Y-128425910D01*
X170023569Y-128638110D01*
X169994836Y-128780000D01*
X169604742Y-128780000D01*
X169581162Y-128654683D01*
X169442090Y-128438559D01*
X169229890Y-128293569D01*
X168978000Y-128242560D01*
X167478000Y-128242560D01*
X167242683Y-128286838D01*
X167026559Y-128425910D01*
X166881569Y-128638110D01*
X166878919Y-128651197D01*
X166742090Y-128438559D01*
X166529890Y-128293569D01*
X166278000Y-128242560D01*
X164778000Y-128242560D01*
X164542683Y-128286838D01*
X164326559Y-128425910D01*
X164194292Y-128619490D01*
X158737401Y-123162599D01*
X158490839Y-122997852D01*
X158200000Y-122940000D01*
X149181228Y-122940000D01*
X149483054Y-122488285D01*
X149596093Y-121920000D01*
X149483054Y-121351715D01*
X149161147Y-120869946D01*
X148831974Y-120650000D01*
X149161147Y-120430054D01*
X149483054Y-119948285D01*
X149596093Y-119380000D01*
X149483054Y-118811715D01*
X149161147Y-118329946D01*
X148831974Y-118110000D01*
X149161147Y-117890054D01*
X149483054Y-117408285D01*
X149596093Y-116840000D01*
X149483054Y-116271715D01*
X149161147Y-115789946D01*
X148831974Y-115570000D01*
X149161147Y-115350054D01*
X149483054Y-114868285D01*
X149596093Y-114300000D01*
X149483054Y-113731715D01*
X149161147Y-113249946D01*
X149117223Y-113220597D01*
X149291698Y-113148327D01*
X149470327Y-112969699D01*
X149567000Y-112736310D01*
X149567000Y-112045750D01*
X149408250Y-111887000D01*
X148209000Y-111887000D01*
X148209000Y-111907000D01*
X147955000Y-111907000D01*
X147955000Y-111887000D01*
X146755750Y-111887000D01*
X146597000Y-112045750D01*
X146597000Y-112736310D01*
X146693673Y-112969699D01*
X146872302Y-113148327D01*
X147046777Y-113220597D01*
X147002853Y-113249946D01*
X146680946Y-113731715D01*
X146567907Y-114300000D01*
X146640790Y-114666408D01*
X146367198Y-114940000D01*
X134512747Y-114940000D01*
X134534838Y-114886799D01*
X134535162Y-114514833D01*
X134393117Y-114171057D01*
X134130327Y-113907808D01*
X133786799Y-113765162D01*
X133739923Y-113765121D01*
X132371359Y-112396557D01*
X132776511Y-112667271D01*
X133350000Y-112781345D01*
X133923489Y-112667271D01*
X134409670Y-112342415D01*
X134734526Y-111856234D01*
X134739620Y-111830625D01*
X134892839Y-111800148D01*
X135139401Y-111635401D01*
X135839680Y-110935122D01*
X135885167Y-110935162D01*
X136228943Y-110793117D01*
X136238386Y-110783690D01*
X146597000Y-110783690D01*
X146597000Y-111474250D01*
X146755750Y-111633000D01*
X147955000Y-111633000D01*
X147955000Y-110433750D01*
X148209000Y-110433750D01*
X148209000Y-111633000D01*
X149408250Y-111633000D01*
X149567000Y-111474250D01*
X149567000Y-110783690D01*
X149470327Y-110550301D01*
X149291698Y-110371673D01*
X149058309Y-110275000D01*
X148367750Y-110275000D01*
X148209000Y-110433750D01*
X147955000Y-110433750D01*
X147796250Y-110275000D01*
X147105691Y-110275000D01*
X146872302Y-110371673D01*
X146693673Y-110550301D01*
X146597000Y-110783690D01*
X136238386Y-110783690D01*
X136492192Y-110530327D01*
X136634838Y-110186799D01*
X136635162Y-109814833D01*
X136633165Y-109810000D01*
X151223066Y-109810000D01*
X151990000Y-110576934D01*
X151990000Y-119400000D01*
X152059270Y-119748242D01*
X152256533Y-120043467D01*
X154268533Y-122055467D01*
X154563758Y-122252730D01*
X154912000Y-122322000D01*
X155627579Y-122322000D01*
X155727585Y-122471670D01*
X156213766Y-122796526D01*
X156787255Y-122910600D01*
X157156745Y-122910600D01*
X157730234Y-122796526D01*
X158216415Y-122471670D01*
X158541271Y-121985489D01*
X158655345Y-121412000D01*
X158619216Y-121230364D01*
X165934414Y-121230364D01*
X166448663Y-122474943D01*
X167400048Y-123427990D01*
X168643728Y-123944411D01*
X169990364Y-123945586D01*
X171234943Y-123431337D01*
X172187990Y-122479952D01*
X172704411Y-121236272D01*
X172705586Y-119889636D01*
X172191337Y-118645057D01*
X171239952Y-117692010D01*
X169996272Y-117175589D01*
X168649636Y-117174414D01*
X167405057Y-117688663D01*
X166452010Y-118640048D01*
X165935589Y-119883728D01*
X165934414Y-121230364D01*
X158619216Y-121230364D01*
X158541271Y-120838511D01*
X158216415Y-120352330D01*
X157901634Y-120142000D01*
X158216415Y-119931670D01*
X158541271Y-119445489D01*
X158655345Y-118872000D01*
X158541271Y-118298511D01*
X158216415Y-117812330D01*
X157730234Y-117487474D01*
X157156745Y-117373400D01*
X156787255Y-117373400D01*
X156213766Y-117487474D01*
X155727585Y-117812330D01*
X155402729Y-118298511D01*
X155288655Y-118872000D01*
X155402729Y-119445489D01*
X155727585Y-119931670D01*
X156042366Y-120142000D01*
X155727585Y-120352330D01*
X155627579Y-120502000D01*
X155288934Y-120502000D01*
X153810000Y-119023066D01*
X153810000Y-110200000D01*
X153740730Y-109851758D01*
X153543467Y-109556533D01*
X152243467Y-108256533D01*
X151948242Y-108059270D01*
X151600000Y-107990000D01*
X136684802Y-107990000D01*
X139264802Y-105410000D01*
X149361907Y-105410000D01*
X149474946Y-105978285D01*
X149796853Y-106460054D01*
X150278622Y-106781961D01*
X150846907Y-106895000D01*
X150905093Y-106895000D01*
X151473378Y-106781961D01*
X151955147Y-106460054D01*
X152277054Y-105978285D01*
X152390093Y-105410000D01*
X152277054Y-104841715D01*
X151955147Y-104359946D01*
X151913548Y-104332150D01*
X151961317Y-104323162D01*
X152177441Y-104184090D01*
X152322431Y-103971890D01*
X152361290Y-103780000D01*
X167493066Y-103780000D01*
X173068533Y-109355467D01*
X173359306Y-109549756D01*
X173507585Y-109771670D01*
X173993766Y-110096526D01*
X174567255Y-110210600D01*
X174936745Y-110210600D01*
X175510234Y-110096526D01*
X175996415Y-109771670D01*
X176321271Y-109285489D01*
X176435345Y-108712000D01*
X176321271Y-108138511D01*
X175996415Y-107652330D01*
X175681634Y-107442000D01*
X175996415Y-107231670D01*
X176321271Y-106745489D01*
X176435345Y-106172000D01*
X176321271Y-105598511D01*
X175996415Y-105112330D01*
X175681634Y-104902000D01*
X175996415Y-104691670D01*
X176321271Y-104205489D01*
X176435345Y-103632000D01*
X176321271Y-103058511D01*
X175996415Y-102572330D01*
X175512000Y-102248654D01*
X175512000Y-100552000D01*
X175454148Y-100261161D01*
X175289401Y-100014599D01*
X174559401Y-99284599D01*
X174312839Y-99119852D01*
X174022000Y-99062000D01*
X173755287Y-99062000D01*
X173601331Y-98965783D01*
X172801331Y-98665783D01*
X172591887Y-98624807D01*
X172469772Y-98646042D01*
X172384431Y-98625100D01*
X172130669Y-98665783D01*
X171980757Y-98722000D01*
X172085000Y-98722000D01*
X172085000Y-98862879D01*
X171977569Y-99020110D01*
X171926560Y-99272000D01*
X171926560Y-100372000D01*
X171961734Y-100582497D01*
X172085000Y-100792423D01*
X172085000Y-100922000D01*
X171980757Y-100922000D01*
X172130669Y-100978217D01*
X172340113Y-101019193D01*
X172462228Y-100997958D01*
X172547569Y-101018900D01*
X172801331Y-100978217D01*
X173601331Y-100678217D01*
X173724991Y-100599793D01*
X173992000Y-100866802D01*
X173992000Y-102248654D01*
X173507585Y-102572330D01*
X173182729Y-103058511D01*
X173068655Y-103632000D01*
X173182729Y-104205489D01*
X173507585Y-104691670D01*
X173822366Y-104902000D01*
X173507585Y-105112330D01*
X173182729Y-105598511D01*
X173068655Y-106172000D01*
X173182729Y-106745489D01*
X173485396Y-107198462D01*
X168513467Y-102226533D01*
X168218242Y-102029270D01*
X167870000Y-101960000D01*
X152362150Y-101960000D01*
X152329162Y-101784683D01*
X152190090Y-101568559D01*
X151977890Y-101423569D01*
X151726000Y-101372560D01*
X150026000Y-101372560D01*
X149790683Y-101416838D01*
X149574559Y-101555910D01*
X149429569Y-101768110D01*
X149378560Y-102020000D01*
X149378560Y-103720000D01*
X149422838Y-103955317D01*
X149561910Y-104171441D01*
X149774110Y-104316431D01*
X149841541Y-104330086D01*
X149796853Y-104359946D01*
X149474946Y-104841715D01*
X149361907Y-105410000D01*
X139264802Y-105410000D01*
X140411401Y-104263401D01*
X140576148Y-104016840D01*
X140617834Y-103807270D01*
X140634000Y-103726000D01*
X140634000Y-99949000D01*
X170910560Y-99949000D01*
X170910560Y-100072000D01*
X170964947Y-100331745D01*
X171112727Y-100542011D01*
X171330669Y-100678217D01*
X171831000Y-100865841D01*
X171831000Y-99949000D01*
X170910560Y-99949000D01*
X140634000Y-99949000D01*
X140634000Y-99572000D01*
X170910560Y-99572000D01*
X170910560Y-99695000D01*
X171831000Y-99695000D01*
X171831000Y-98778159D01*
X171330669Y-98965783D01*
X171106559Y-99107910D01*
X170961569Y-99320110D01*
X170910560Y-99572000D01*
X140634000Y-99572000D01*
X140634000Y-64287558D01*
X140859317Y-64245162D01*
X141075441Y-64106090D01*
X141220431Y-63893890D01*
X141223081Y-63880803D01*
X141359910Y-64093441D01*
X141572110Y-64238431D01*
X141824000Y-64289440D01*
X143324000Y-64289440D01*
X143559317Y-64245162D01*
X143775441Y-64106090D01*
X143920431Y-63893890D01*
X143971440Y-63642000D01*
X143971440Y-62342000D01*
X143927162Y-62106683D01*
X143788090Y-61890559D01*
X143575890Y-61745569D01*
X143334000Y-61696585D01*
X143334000Y-60032815D01*
X162934630Y-60032815D01*
X163258980Y-60817800D01*
X163859041Y-61418909D01*
X164643459Y-61744628D01*
X165492815Y-61745370D01*
X166277800Y-61421020D01*
X166878909Y-60820959D01*
X167204628Y-60036541D01*
X167205370Y-59187185D01*
X166881020Y-58402200D01*
X166280959Y-57801091D01*
X165496541Y-57475372D01*
X164647185Y-57474630D01*
X163862200Y-57798980D01*
X163261091Y-58399041D01*
X162935372Y-59183459D01*
X162934630Y-60032815D01*
X143334000Y-60032815D01*
X143334000Y-59496833D01*
X143540551Y-59290643D01*
X143774733Y-58726670D01*
X143775193Y-58197750D01*
X152185000Y-58197750D01*
X152185000Y-58888309D01*
X152281673Y-59121698D01*
X152460301Y-59300327D01*
X152693690Y-59397000D01*
X153384250Y-59397000D01*
X153543000Y-59238250D01*
X153543000Y-58039000D01*
X152343750Y-58039000D01*
X152185000Y-58197750D01*
X143775193Y-58197750D01*
X143775265Y-58116009D01*
X143542068Y-57551629D01*
X143110643Y-57119449D01*
X142668105Y-56935691D01*
X152185000Y-56935691D01*
X152185000Y-57626250D01*
X152343750Y-57785000D01*
X153543000Y-57785000D01*
X153543000Y-56585750D01*
X153797000Y-56585750D01*
X153797000Y-57785000D01*
X153817000Y-57785000D01*
X153817000Y-58039000D01*
X153797000Y-58039000D01*
X153797000Y-59238250D01*
X153955750Y-59397000D01*
X154646310Y-59397000D01*
X154879699Y-59300327D01*
X155058327Y-59121698D01*
X155130597Y-58947223D01*
X155159946Y-58991147D01*
X155641715Y-59313054D01*
X156210000Y-59426093D01*
X156778285Y-59313054D01*
X157260054Y-58991147D01*
X157581961Y-58509378D01*
X157695000Y-57941093D01*
X157695000Y-57882907D01*
X157581961Y-57314622D01*
X157260054Y-56832853D01*
X156778285Y-56510946D01*
X156210000Y-56397907D01*
X155641715Y-56510946D01*
X155159946Y-56832853D01*
X155130597Y-56876777D01*
X155058327Y-56702302D01*
X154879699Y-56523673D01*
X154646310Y-56427000D01*
X153955750Y-56427000D01*
X153797000Y-56585750D01*
X153543000Y-56585750D01*
X153384250Y-56427000D01*
X152693690Y-56427000D01*
X152460301Y-56523673D01*
X152281673Y-56702302D01*
X152185000Y-56935691D01*
X142668105Y-56935691D01*
X142546670Y-56885267D01*
X141936009Y-56884735D01*
X141371629Y-57117932D01*
X141203387Y-57285880D01*
X141203162Y-57284683D01*
X141064090Y-57068559D01*
X140851890Y-56923569D01*
X140600000Y-56872560D01*
X138800000Y-56872560D01*
X138564683Y-56916838D01*
X138348559Y-57055910D01*
X138203569Y-57268110D01*
X138152560Y-57520000D01*
X138152560Y-59320000D01*
X138196838Y-59555317D01*
X138335910Y-59771441D01*
X138548110Y-59916431D01*
X138800000Y-59967440D01*
X140600000Y-59967440D01*
X140835317Y-59923162D01*
X141051441Y-59784090D01*
X141196431Y-59571890D01*
X141200567Y-59551466D01*
X141369357Y-59720551D01*
X141814000Y-59905183D01*
X141814000Y-61696442D01*
X141588683Y-61738838D01*
X141372559Y-61877910D01*
X141227569Y-62090110D01*
X141224919Y-62103197D01*
X141088090Y-61890559D01*
X140875890Y-61745569D01*
X140624000Y-61694560D01*
X139124000Y-61694560D01*
X138888683Y-61738838D01*
X138672559Y-61877910D01*
X138527569Y-62090110D01*
X138476560Y-62342000D01*
X138476560Y-63642000D01*
X138520838Y-63877317D01*
X138659910Y-64093441D01*
X138872110Y-64238431D01*
X139114000Y-64287415D01*
X139114000Y-103411198D01*
X135560320Y-106964878D01*
X135514833Y-106964838D01*
X135171057Y-107106883D01*
X134907808Y-107369673D01*
X134765162Y-107713201D01*
X134764921Y-107990000D01*
X130534922Y-107990000D01*
X130535162Y-107714833D01*
X130393117Y-107371057D01*
X130360000Y-107337882D01*
X130360000Y-102831000D01*
X131032250Y-102831000D01*
X131191000Y-102672250D01*
X131191000Y-101473000D01*
X131445000Y-101473000D01*
X131445000Y-102672250D01*
X131603750Y-102831000D01*
X132294310Y-102831000D01*
X132527699Y-102734327D01*
X132706327Y-102555698D01*
X132803000Y-102322309D01*
X132803000Y-101631750D01*
X132644250Y-101473000D01*
X131445000Y-101473000D01*
X131191000Y-101473000D01*
X131171000Y-101473000D01*
X131171000Y-101219000D01*
X131191000Y-101219000D01*
X131191000Y-100019750D01*
X131445000Y-100019750D01*
X131445000Y-101219000D01*
X132644250Y-101219000D01*
X132803000Y-101060250D01*
X132803000Y-100369691D01*
X132706327Y-100136302D01*
X132527699Y-99957673D01*
X132294310Y-99861000D01*
X131603750Y-99861000D01*
X131445000Y-100019750D01*
X131191000Y-100019750D01*
X131032250Y-99861000D01*
X130341690Y-99861000D01*
X130108301Y-99957673D01*
X129929673Y-100136302D01*
X129857403Y-100310777D01*
X129828054Y-100266853D01*
X129346285Y-99944946D01*
X128778000Y-99831907D01*
X128209715Y-99944946D01*
X127727946Y-100266853D01*
X127508000Y-100596026D01*
X127288054Y-100266853D01*
X126806285Y-99944946D01*
X126238000Y-99831907D01*
X125669715Y-99944946D01*
X125187946Y-100266853D01*
X124968000Y-100596026D01*
X124748054Y-100266853D01*
X124266285Y-99944946D01*
X123698000Y-99831907D01*
X123129715Y-99944946D01*
X122647946Y-100266853D01*
X122326039Y-100748622D01*
X122213000Y-101316907D01*
X122213000Y-101375093D01*
X122326039Y-101943378D01*
X122647946Y-102425147D01*
X123129715Y-102747054D01*
X123698000Y-102860093D01*
X124266285Y-102747054D01*
X124748054Y-102425147D01*
X124968000Y-102095974D01*
X125187946Y-102425147D01*
X125669715Y-102747054D01*
X126238000Y-102860093D01*
X126240000Y-102859695D01*
X126240000Y-107337537D01*
X126207808Y-107369673D01*
X126065162Y-107713201D01*
X126064921Y-107990000D01*
X108643893Y-107990000D01*
X108518000Y-107905881D01*
X108518000Y-105920292D01*
X108634431Y-105749890D01*
X108648086Y-105682459D01*
X108677946Y-105727147D01*
X109159715Y-106049054D01*
X109728000Y-106162093D01*
X110296285Y-106049054D01*
X110778054Y-105727147D01*
X111099961Y-105245378D01*
X111213000Y-104677093D01*
X111213000Y-104618907D01*
X111099961Y-104050622D01*
X110778054Y-103568853D01*
X110296285Y-103246946D01*
X109728000Y-103133907D01*
X109159715Y-103246946D01*
X108677946Y-103568853D01*
X108650150Y-103610452D01*
X108641162Y-103562683D01*
X108502090Y-103346559D01*
X108289890Y-103201569D01*
X108038000Y-103150560D01*
X106338000Y-103150560D01*
X106102683Y-103194838D01*
X105886559Y-103333910D01*
X105741569Y-103546110D01*
X105690560Y-103798000D01*
X105690560Y-105498000D01*
X105734838Y-105733317D01*
X105873910Y-105949441D01*
X106086110Y-106094431D01*
X106338000Y-106145440D01*
X106698000Y-106145440D01*
X106698000Y-108523066D01*
X105740642Y-109480424D01*
X105410000Y-109414655D01*
X105071225Y-109482041D01*
X109184030Y-60737692D01*
X109970394Y-60022815D01*
X114934630Y-60022815D01*
X115258980Y-60807800D01*
X115859041Y-61408909D01*
X116643459Y-61734628D01*
X117492815Y-61735370D01*
X118277800Y-61411020D01*
X118878909Y-60810959D01*
X119204628Y-60026541D01*
X119205370Y-59177185D01*
X118881020Y-58392200D01*
X118686910Y-58197750D01*
X123991000Y-58197750D01*
X123991000Y-58888309D01*
X124087673Y-59121698D01*
X124266301Y-59300327D01*
X124499690Y-59397000D01*
X125190250Y-59397000D01*
X125349000Y-59238250D01*
X125349000Y-58039000D01*
X124149750Y-58039000D01*
X123991000Y-58197750D01*
X118686910Y-58197750D01*
X118280959Y-57791091D01*
X117496541Y-57465372D01*
X116647185Y-57464630D01*
X115862200Y-57788980D01*
X115261091Y-58389041D01*
X114935372Y-59173459D01*
X114934630Y-60022815D01*
X109970394Y-60022815D01*
X113366230Y-56935691D01*
X123991000Y-56935691D01*
X123991000Y-57626250D01*
X124149750Y-57785000D01*
X125349000Y-57785000D01*
X125349000Y-56585750D01*
X125603000Y-56585750D01*
X125603000Y-57785000D01*
X125623000Y-57785000D01*
X125623000Y-58039000D01*
X125603000Y-58039000D01*
X125603000Y-59238250D01*
X125761750Y-59397000D01*
X126452310Y-59397000D01*
X126685699Y-59300327D01*
X126864327Y-59121698D01*
X126936597Y-58947223D01*
X126965946Y-58991147D01*
X127447715Y-59313054D01*
X128016000Y-59426093D01*
X128584285Y-59313054D01*
X129066054Y-58991147D01*
X129387961Y-58509378D01*
X129501000Y-57941093D01*
X129501000Y-57882907D01*
X129387961Y-57314622D01*
X129066054Y-56832853D01*
X128584285Y-56510946D01*
X128016000Y-56397907D01*
X127447715Y-56510946D01*
X126965946Y-56832853D01*
X126936597Y-56876777D01*
X126864327Y-56702302D01*
X126685699Y-56523673D01*
X126452310Y-56427000D01*
X125761750Y-56427000D01*
X125603000Y-56585750D01*
X125349000Y-56585750D01*
X125190250Y-56427000D01*
X124499690Y-56427000D01*
X124266301Y-56523673D01*
X124087673Y-56702302D01*
X123991000Y-56935691D01*
X113366230Y-56935691D01*
X115375072Y-55109472D01*
X166725788Y-55010530D01*
X173016540Y-60737932D01*
G36*
X152372560Y-129862000D02*
X152416838Y-130097317D01*
X152555910Y-130313441D01*
X152768110Y-130458431D01*
X152910000Y-130487164D01*
X152910000Y-131315046D01*
X152619946Y-131508853D01*
X152590597Y-131552777D01*
X152518327Y-131378302D01*
X152339699Y-131199673D01*
X152106310Y-131103000D01*
X151415750Y-131103000D01*
X151257000Y-131261750D01*
X151257000Y-132461000D01*
X151277000Y-132461000D01*
X151277000Y-132715000D01*
X151257000Y-132715000D01*
X151257000Y-133914250D01*
X151415750Y-134073000D01*
X152106310Y-134073000D01*
X152339699Y-133976327D01*
X152518327Y-133797698D01*
X152590597Y-133623223D01*
X152619946Y-133667147D01*
X152910000Y-133860954D01*
X152910000Y-134515198D01*
X150985198Y-136440000D01*
X148234802Y-136440000D01*
X149737401Y-134937401D01*
X149902148Y-134690839D01*
X149960000Y-134400000D01*
X149960000Y-133992771D01*
X150153690Y-134073000D01*
X150844250Y-134073000D01*
X151003000Y-133914250D01*
X151003000Y-132715000D01*
X150983000Y-132715000D01*
X150983000Y-132461000D01*
X151003000Y-132461000D01*
X151003000Y-131261750D01*
X150844250Y-131103000D01*
X150153690Y-131103000D01*
X149960000Y-131183229D01*
X149960000Y-131114802D01*
X152372560Y-128702242D01*
X152372560Y-129862000D01*
X152372560Y-129862000D01*
G37*
X152372560Y-129862000D02*
X152416838Y-130097317D01*
X152555910Y-130313441D01*
X152768110Y-130458431D01*
X152910000Y-130487164D01*
X152910000Y-131315046D01*
X152619946Y-131508853D01*
X152590597Y-131552777D01*
X152518327Y-131378302D01*
X152339699Y-131199673D01*
X152106310Y-131103000D01*
X151415750Y-131103000D01*
X151257000Y-131261750D01*
X151257000Y-132461000D01*
X151277000Y-132461000D01*
X151277000Y-132715000D01*
X151257000Y-132715000D01*
X151257000Y-133914250D01*
X151415750Y-134073000D01*
X152106310Y-134073000D01*
X152339699Y-133976327D01*
X152518327Y-133797698D01*
X152590597Y-133623223D01*
X152619946Y-133667147D01*
X152910000Y-133860954D01*
X152910000Y-134515198D01*
X150985198Y-136440000D01*
X148234802Y-136440000D01*
X149737401Y-134937401D01*
X149902148Y-134690839D01*
X149960000Y-134400000D01*
X149960000Y-133992771D01*
X150153690Y-134073000D01*
X150844250Y-134073000D01*
X151003000Y-133914250D01*
X151003000Y-132715000D01*
X150983000Y-132715000D01*
X150983000Y-132461000D01*
X151003000Y-132461000D01*
X151003000Y-131261750D01*
X150844250Y-131103000D01*
X150153690Y-131103000D01*
X149960000Y-131183229D01*
X149960000Y-131114802D01*
X152372560Y-128702242D01*
X152372560Y-129862000D01*
M02*
